<svg width="42" height="42" fill="none" xmlns="http://www.w3.org/2000/svg">
    <mask id="a" style="mask-type:alpha" maskUnits="userSpaceOnUse" x="0" y="0" width="42" height="42">
        <path fill="#C4C4C4" d="M0 0h42v42H0z"/>
    </mask>
    <g mask="url(#a)">
        <path opacity=".15" d="M23.007 25.95c2.233 0 4.216.5 5.95 1.5a10.45 10.45 0 0 1 4.075 4.175c.983 1.767 1.475 3.775 1.475 6.025 0 2.217-.584 4.25-1.75 6.1-1.167 1.85-2.734 3.317-4.7 4.4a12.921 12.921 0 0 1-6.3 1.6c-1.8 0-3.5-.367-5.1-1.1-1.6-.75-2.975-1.8-4.125-3.15a12.285 12.285 0 0 1-2.475-4.65l6.55-1.75c.216.833.6 1.567 1.15 2.2.55.617 1.2 1.1 1.95 1.45.75.333 1.516.5 2.3.5 1.016 0 1.958-.25 2.825-.75a5.557 5.557 0 0 0 2.05-2.025 5.418 5.418 0 0 0 .775-2.825c0-1.017-.259-1.95-.775-2.8a5.5 5.5 0 0 0-2.05-2.05 5.555 5.555 0 0 0-2.825-.75c-1.95 0-3.584.617-4.9 1.85l-5.75-1.75 1.1-19.15h19.65v6.35H18.482l-.5 7.85a9.59 9.59 0 0 1 2.475-.925 10.697 10.697 0 0 1 2.55-.325z" fill="#6A2C70"/>
    </g>
</svg>
