<svg width="42" height="42" fill="none" xmlns="http://www.w3.org/2000/svg">
    <mask id="a" style="mask-type:alpha" maskUnits="userSpaceOnUse" x="0" y="0" width="42" height="42">
        <path fill="#C4C4C4" d="M0 0h42v42H0z"/>
    </mask>
    <g mask="url(#a)">
        <path opacity=".15" d="M22.997 25.9c2.233 0 4.216.51 5.95 1.526a10.45 10.45 0 0 1 4.075 4.175c.983 1.783 1.474 3.8 1.474 6.05 0 2.216-.575 4.25-1.724 6.1-1.134 1.85-2.667 3.317-4.6 4.4-1.917 1.066-3.992 1.6-6.226 1.6-2.366 0-4.508-.559-6.425-1.675-1.9-1.117-3.4-2.684-4.5-4.7-1.083-2.017-1.625-4.309-1.625-6.875V26.05c0-2.8.542-5.234 1.625-7.3 1.1-2.084 2.659-3.675 4.675-4.775 2.017-1.117 4.367-1.675 7.05-1.675 3.784 0 6.9 1.133 9.35 3.4l-4.85 4.85c-.6-.6-1.3-1.067-2.1-1.4a6.074 6.074 0 0 0-2.4-.5c-1.25 0-2.366.3-3.35.9a6.278 6.278 0 0 0-2.25 2.375 6.366 6.366 0 0 0-.8 3.125v3.075a11.014 11.014 0 0 1 6.65-2.225zm-1.05 17.35c1.016 0 1.958-.25 2.825-.75a5.557 5.557 0 0 0 2.05-2.024 5.418 5.418 0 0 0 .774-2.825c0-1.017-.25-1.959-.75-2.825a5.5 5.5 0 0 0-2.05-2.05 5.288 5.288 0 0 0-2.8-.775 5.418 5.418 0 0 0-2.824.775 5.69 5.69 0 0 0-2.076 2.05c-.5.866-.75 1.808-.75 2.825 0 .983.25 1.908.75 2.775.5.85 1.175 1.533 2.026 2.05a5.419 5.419 0 0 0 2.825.775z" fill="#6A2C70"/>
    </g>
</svg>
