<svg width="42" height="42" fill="none" xmlns="http://www.w3.org/2000/svg">
    <mask id="a" style="mask-type:alpha" maskUnits="userSpaceOnUse" x="0" y="0" width="42" height="42">
        <path fill="#C4C4C4" d="M0 0h42v42H0z"/>
    </mask>
    <g mask="url(#a)">
        <path opacity=".15" d="M19.874 39.55h14.65v6.4h-25.2v-5.9l15.1-13.4c2.067-1.833 3.1-3.6 3.1-5.3 0-1.1-.225-2.075-.675-2.925a4.902 4.902 0 0 0-1.925-2.025c-.816-.5-1.766-.75-2.85-.75-1.116 0-2.125.258-3.025.775A5.445 5.445 0 0 0 17 18.5a5.284 5.284 0 0 0-.675 2.8h-7c0-2.433.534-4.558 1.6-6.375 1.084-1.817 2.6-3.217 4.55-4.2 1.95-.983 4.2-1.475 6.75-1.475 2.334 0 4.434.517 6.3 1.55a11.138 11.138 0 0 1 4.4 4.3c1.067 1.85 1.6 3.967 1.6 6.35 0 1.717-.241 3.158-.725 4.325a10.044 10.044 0 0 1-1.95 3.075c-.833.883-2.141 2.1-3.925 3.65l-8.05 7.05z" fill="#6A2C70"/>
    </g>
</svg>
