<svg width="42" height="42" fill="none" xmlns="http://www.w3.org/2000/svg">
    <mask id="a" style="mask-type:alpha" maskUnits="userSpaceOnUse" x="0" y="0" width="42" height="42">
        <path fill="#C4C4C4" d="M0 0h42v42H0z"/>
    </mask>
    <g mask="url(#a)">
        <path opacity=".15" d="M26.059 23.475c1.667.483 3.1 1.283 4.3 2.4a10.986 10.986 0 0 1 2.725 3.95c.617 1.517.925 3.125.925 4.825 0 2.217-.575 4.242-1.725 6.075-1.133 1.833-2.658 3.283-4.575 4.35-1.917 1.05-4 1.575-6.25 1.575-1.8 0-3.525-.358-5.175-1.075a12.865 12.865 0 0 1-4.275-3.1 11.572 11.572 0 0 1-2.55-4.625l6.6-1.75c.333 1.283 1 2.3 2 3.05a5.676 5.676 0 0 0 3.4 1.1c1.017 0 1.958-.25 2.825-.75a5.557 5.557 0 0 0 2.05-2.025 5.418 5.418 0 0 0 .775-2.825c0-1.033-.242-1.975-.725-2.825a5.317 5.317 0 0 0-2.025-2.05c-.85-.517-1.817-.775-2.9-.775-.967 0-1.9.267-2.8.8l-3.05-5.35 9.7-8.05h-14.45V10h22.5v6.4l-7.3 7.075z" fill="#6A2C70"/>
    </g>
</svg>
