<svg xmlns="http://www.w3.org/2000/svg" width="92" height="95" fill="none" viewBox="0 0 92 95">
    <path fill="#424C59" d="M13.587 66.093l-2.12-2.119 14.409-14.408v-9.67h2.997v10.29c0 .398-.158.78-.439 1.06L13.587 66.093zM77.927 77.336L63.08 62.49c-.281-.281-.44-.663-.44-1.06V39.897h2.998v20.912l14.408 14.408-2.12 2.12zM36.466 39.897h-2.998v43.759h2.998v-43.76zM52.251 39.897h-2.997V67.27h2.997V39.897z"/>
    <path fill="#45B8C4" d="M86.178 25.242c0 8.369-6.784 15.154-15.153 15.154H21.828c-5.578 0-10.1-4.522-10.1-10.1 0-5.576 4.522-10.097 10.1-10.097 1.073 0 2.108.169 3.079.478-.005-.158-.006-.319-.006-.478C24.9 9.043 33.944 0 45.098 0c2.57 0 5.028.48 7.287 1.356l.002.002c4.992 1.93 9.024 5.79 11.184 10.664l.01.024c2.061-1.167 4.422-1.864 6.939-1.948.03-.002.06-.003.09-.002.136-.005.275-.006.415-.006 5.317 0 9.995 2.738 12.698 6.881 1.553 2.378 2.455 5.219 2.455 8.271z"/>
    <path fill="#239999" d="M52.387 1.358c-16.494-4.267-24.57 17.784-19.293 29.28-.118-.163-4.742-6.485-11.182-3.725-6.523 2.796-7.78 10.036-.084 13.482-5.578 0-10.1-4.521-10.1-10.099 0-5.576 4.522-10.098 10.1-10.098 1.073 0 2.108.17 3.079.479-.005-.159-.006-.319-.006-.479C24.9 9.043 33.944 0 45.098 0c2.57 0 5.028.48 7.287 1.356l.002.002zM83.723 16.97C61.968 11.378 58.88 31.263 58.88 31.263c-2.167-5.295-1.908-15.096 4.69-19.24 1.812-1.139 4.101-1.85 6.95-1.924.03-.002.06-.004.09-.002.137-.005.275-.006.415-.006 5.316 0 9.995 2.738 12.698 6.88z"/>
    <path fill="#FCC63F" d="M6.794 74.365c3.752 0 6.793-3.042 6.793-6.794s-3.041-6.794-6.793-6.794C3.042 60.777 0 63.82 0 67.571s3.042 6.794 6.794 6.794zM84.721 85.607c3.752 0 6.794-3.042 6.794-6.794s-3.042-6.794-6.794-6.794-6.793 3.042-6.793 6.794 3.041 6.794 6.793 6.794zM34.968 94.746c3.751 0 6.793-3.042 6.793-6.794s-3.042-6.794-6.794-6.794-6.793 3.042-6.793 6.794 3.041 6.794 6.794 6.794zM50.753 78.36c3.752 0 6.794-3.04 6.794-6.793 0-3.752-3.042-6.794-6.794-6.794s-6.794 3.042-6.794 6.794 3.042 6.794 6.794 6.794z"/>
</svg>
