<svg xmlns="http://www.w3.org/2000/svg" width="136" height="118" fill="none" viewBox="0 0 136 118">
    <g filter="url(#filter0_d)">
        <path fill="#fff" d="M32.5 64.5c.4 1.2 41.5 9.5 62 13.5 1.5-.667 4.5-2.2 4.5-3 0-.8 2-11.333 3-16.5 1.333-7 3.9-21.3 3.5-22.5-.4-1.2-2.5-2.5-3.5-3L40 20.5c-3.167 13.167-9.4 39.8-9 41 .5 1.5 1 1.5 1.5 3z"/>
    </g>
    <path fill="#fff" d="M44.328 15.067c-1.908-.382-3.768.83-4.143 2.7L31.68 60.2c-.375 1.87.874 3.706 2.782 4.088l62.32 12.492c1.908.382 3.768-.83 4.143-2.701l7.144-35.642c.375-1.87-.874-3.706-2.782-4.089l-37.219-7.46c-.917-.184-1.729-.717-2.248-1.485l-4.749-6.979-16.743-3.356z"/>
    <path fill="#607D8B" stroke="#fff" stroke-width="1.5" d="M64.964 16.98l.001.002 4.3 6.414.172.257.304.06 32.514 6.517c4.801.963 7.924 5.629 6.969 10.39l-6.581 32.834c-.954 4.762-5.633 7.864-10.435 6.901l-56.623-11.35c-4.802-.962-7.924-5.627-6.97-10.39l7.835-39.087c.955-4.761 5.634-7.863 10.435-6.901l16.515 3.31c.642.129 1.205.505 1.564 1.043zm.952 10.213l-.001-.002-4.3-6.414-.172-.257-.304-.06-15.213-3.05c-2.135-.428-4.227.951-4.655 3.085l-7.835 39.087c-.427 2.133.972 4.212 3.107 4.64l56.624 11.35c2.135.428 4.228-.951 4.656-3.085l6.581-32.833c.427-2.133-.972-4.212-3.107-4.64L67.48 28.236c-.642-.129-1.205-.505-1.564-1.043z"/>
    <path fill="#fff" d="M61.991 24.644L48.801 22c-1.503-.301-2.973.678-3.275 2.18l-6.833 34.095c-.301 1.503.678 2.973 2.18 3.274l24.548 4.92 6.834-34.094-4.773-.957c-.723-.144-1.361-.57-1.768-1.185l-3.723-5.59z"/>
    <path fill="#FCC63F" d="M57.515 56.374c-.46-.092-.894-.34-1.211-.736l-6.816-8.46c-.392-.48-.546-1.11-.424-1.719.121-.608.507-1.13 1.05-1.423l9.55-5.179c1.015-.548 2.28-.173 2.828.84.549 1.012.173 2.278-.84 2.827l-7.349 3.986 5.246 6.51c.723.896.581 2.21-.315 2.932-.501.405-1.135.539-1.719.422zM73.883 59.653c-.587-.117-1.117-.485-1.426-1.052-.55-1.012-.173-2.279.839-2.828l7.35-3.985-5.246-6.51c-.723-.897-.582-2.21.315-2.933.9-.724 2.213-.58 2.933.316l6.816 8.459c.388.483.543 1.113.421 1.718-.122.608-.507 1.13-1.051 1.424l-9.55 5.178c-.445.243-.943.305-1.401.213zM61.877 60.003c-1.023-.528-1.426-1.786-.898-2.81l9.282-17.999c.529-1.023 1.787-1.424 2.81-.898 1.024.529 1.427 1.787.898 2.81l-9.282 18c-.529 1.025-1.786 1.423-2.81.897z"/>
    <path fill="#FCC63F" d="M54.484 46.411l-5.392-1.08c-.011.043-.02.084-.028.127-.122.608.032 1.238.421 1.719l6.816 8.459c.318.395.75.644 1.214.737.587.117 1.218-.017 1.721-.421.897-.723 1.038-2.036.316-2.933l-5.249-6.51.181-.098zM85.908 52.71l-5.39-1.08.128.158-7.35 3.985c-1.012.55-1.388 1.816-.84 2.828.307.567.84.934 1.427 1.052.46.092.956.03 1.402-.213l9.549-5.178c.544-.297.93-.818 1.051-1.424.009-.043.017-.084.023-.129zM69.663 49.453l-4.255-.853-4.431 8.591c-.529 1.023-.126 2.281.898 2.81.177.092.36.155.546.192.892.178 1.827-.241 2.264-1.09l4.978-9.65z"/>
    <defs>
        <filter id="filter0_d" width="134.56" height="117.5" x=".982" y=".5" color-interpolation-filters="sRGB" filterUnits="userSpaceOnUse">
            <feFlood flood-opacity="0" result="BackgroundImageFix"/>
            <feColorMatrix in="SourceAlpha" values="0 0 0 0 0 0 0 0 0 0 0 0 0 0 0 0 0 0 127 0"/>
            <feOffset dy="10"/>
            <feGaussianBlur stdDeviation="15"/>
            <feColorMatrix values="0 0 0 0 0 0 0 0 0 0 0 0 0 0 0 0 0 0 0.15 0"/>
            <feBlend in2="BackgroundImageFix" result="effect1_dropShadow"/>
            <feBlend in="SourceGraphic" in2="effect1_dropShadow" result="shape"/>
        </filter>
    </defs>
</svg>
