<svg xmlns="http://www.w3.org/2000/svg" width="136" height="149" fill="none" viewBox="0 0 136 149">
    <g filter="url(#filter0_d)">
        <path fill="#424C59" d="M89.596 25.126l14.436 65.691c.601 2.732-1.128 5.434-3.861 6.035l-48.613 10.683c-2.733.601-5.434-1.128-6.034-3.86L31.087 37.984c-.6-2.733 1.127-5.434 3.86-6.034L83.56 21.267c2.733-.601 5.435 1.126 6.036 3.859z"/>
    </g>
    <path fill="#EAEAEA" d="M89.596 25.126l1.707 7.768-58.508 12.858-1.708-7.768c-.6-2.733 1.127-5.433 3.86-6.034L83.56 21.267c2.733-.6 5.435 1.126 6.036 3.859z"/>
    <path fill="#F9572B" d="M39.81 40.087c1.408-.31 2.298-1.701 1.989-3.108-.31-1.407-1.701-2.297-3.108-1.988-1.407.31-2.297 1.7-1.988 3.108.309 1.407 1.7 2.297 3.108 1.988z"/>
    <path fill="#FCC63D" d="M48.39 38.2c1.407-.31 2.297-1.7 1.988-3.108-.31-1.407-1.701-2.297-3.108-1.988-1.408.31-2.298 1.7-1.988 3.108.309 1.407 1.7 2.297 3.108 1.988z"/>
    <path fill="#45B8C4" d="M56.967 36.317c1.407-.31 2.297-1.7 1.988-3.108-.31-1.407-1.7-2.297-3.108-1.988-1.407.31-2.297 1.701-1.988 3.108.31 1.407 1.7 2.297 3.108 1.988zM96.68 58.292c8.098-1.78 13.22-9.788 11.441-17.886-1.78-8.098-9.788-13.22-17.886-11.441-8.099 1.78-13.221 9.788-11.442 17.886 1.78 8.099 9.788 13.22 17.887 11.441z"/>
    <path fill="#FCC63D" d="M72.99 47.657l-25.7 5.648c-.64.14-1.271-.264-1.412-.903-.14-.64.264-1.272.903-1.412l25.7-5.648c.639-.14 1.27.264 1.411.903.14.64-.264 1.272-.903 1.413z"/>
    <path fill="#fff" d="M42.12 54.44c-1.06.233-1.865-1.034-1.186-1.89.672-.846 2.1-.387 2.116.71.009.559-.383 1.06-.93 1.18z"/>
    <path fill="#FCC63D" d="M75.832 60.595l-25.699 5.648c-.64.14-1.272-.264-1.412-.904-.14-.639.264-1.271.903-1.412l25.699-5.647c.64-.141 1.272.264 1.412.903.14.64-.264 1.272-.903 1.412z"/>
    <path fill="#fff" d="M44.963 67.377c-.484.107-.995-.11-1.259-.528-.26-.413-.236-.96.06-1.348.633-.825 2-.458 2.122.579.07.596-.336 1.168-.923 1.297zM87.671 64.77l-7.253 1.594c-.64.14-1.272-.264-1.413-.904-.14-.639.264-1.271.904-1.412l7.253-1.594c.64-.14 1.272.264 1.412.904.14.639-.263 1.271-.903 1.412z"/>
    <path fill="#F9572B" d="M76.558 67.212L63.054 70.18c-.64.14-1.272-.264-1.413-.903-.14-.64.264-1.272.904-1.412l13.505-2.968c.64-.14 1.271.264 1.412.903.14.64-.264 1.272-.904 1.412z"/>
    <path fill="#fff" d="M59.194 71.028l-7.64 1.68c-.64.14-1.271-.264-1.412-.904-.14-.64.264-1.271.903-1.412l7.64-1.679c.64-.14 1.272.264 1.413.903.14.64-.264 1.272-.904 1.412zM46.385 73.846c-1.044.229-1.843-.994-1.212-1.857.628-.86 2.042-.476 2.137.59.052.587-.348 1.14-.925 1.267z"/>
    <path fill="#FCC63D" d="M71.729 75.055l-18.753 4.121c-.64.14-1.272-.264-1.412-.903-.14-.64.263-1.272.903-1.412L71.22 72.74c.64-.14 1.272.264 1.412.903.14.64-.264 1.272-.903 1.412z"/>
    <path fill="#fff" d="M47.806 80.312c-.463.102-.955-.09-1.227-.48-.307-.438-.275-1.048.076-1.453.705-.81 2.097-.296 2.08.79-.007.544-.396 1.026-.93 1.143z"/>
    <path fill="#F9572B" d="M84.726 78.98l-3.55.78c-.639.14-1.271-.264-1.412-.903-.14-.64.264-1.272.904-1.412l3.55-.78c.639-.14 1.27.264 1.411.903.141.64-.264 1.272-.903 1.412z"/>
    <path fill="#FCC63D" d="M77.318 80.608l-10.264 2.256c-.64.14-1.272-.264-1.412-.904-.14-.639.264-1.271.903-1.412l10.264-2.255c.64-.14 1.271.264 1.412.903.14.64-.264 1.272-.903 1.412z"/>
    <path fill="#fff" d="M63.195 83.712l-8.798 1.933c-.64.14-1.272-.264-1.412-.903-.14-.64.264-1.272.903-1.412l8.798-1.934c.64-.14 1.272.264 1.412.903.14.64-.264 1.272-.903 1.412zM49.227 86.78c-1.042.23-1.841-.989-1.214-1.853.628-.863 2.045-.478 2.14.588.053.587-.349 1.14-.926 1.266zM91.473 84.277l-16.515 3.63c-.64.14-1.272-.264-1.412-.904-.14-.639.263-1.271.903-1.412l16.515-3.63c.64-.14 1.271.265 1.412.904.14.64-.264 1.272-.903 1.412z"/>
    <path fill="#F9572B" d="M71.099 88.754l-15.28 3.358c-.64.14-1.272-.264-1.413-.903-.14-.64.264-1.272.904-1.413l15.28-3.358c.64-.14 1.271.264 1.412.904.14.639-.264 1.271-.903 1.412z"/>
    <path fill="#fff" d="M50.649 93.25c-1.034.226-1.836-.98-1.222-1.846.612-.861 2.022-.51 2.144.547.069.596-.335 1.17-.922 1.298z"/>
    <path fill="#F9572B" d="M64.88 96.901l-7.64 1.68c-.64.14-1.272-.264-1.412-.904-.14-.64.263-1.271.903-1.412l7.64-1.679c.64-.14 1.272.264 1.412.903.14.64-.264 1.272-.903 1.412z"/>
    <path fill="#fff" d="M52.07 99.716c-.484.107-.996-.109-1.259-.528-.278-.443-.228-1.037.125-1.424.701-.77 2.048-.288 2.064.77.008.559-.383 1.062-.93 1.182z"/>
    <path fill="#F9572B" d="M54.5 58.502l-5.788 1.272c-.64.14-1.272-.264-1.413-.903-.14-.64.264-1.272.904-1.413l5.788-1.271c.64-.141 1.271.263 1.412.903.14.64-.264 1.271-.904 1.412z"/>
    <path fill="#fff" d="M69.78 55.144l-11.113 2.442c-.64.14-1.271-.264-1.412-.903-.14-.64.264-1.272.904-1.412l11.112-2.442c.64-.14 1.272.264 1.412.903.14.64-.264 1.272-.903 1.412zM43.542 60.91c-.475.105-.975-.101-1.243-.505-.285-.43-.254-1.012.075-1.409.682-.822 2.082-.348 2.098.732.008.558-.383 1.062-.93 1.182zM94.467 51.535c-.313.068-.643.008-.913-.173l-6.829-4.567c-.544-.364-.69-1.1-.326-1.644.364-.544 1.1-.69 1.644-.326l5.462 3.653 3.61-13.138c.174-.631.826-1.002 1.457-.829.631.174 1.003.826.83 1.457l-4.046 14.723c-.101.367-.372.664-.73.797-.052.019-.105.035-.159.047z"/>
    <defs>
        <filter id="filter0_d" width="135.12" height="148.443" x="0" y=".18" color-interpolation-filters="sRGB" filterUnits="userSpaceOnUse">
            <feFlood flood-opacity="0" result="BackgroundImageFix"/>
            <feColorMatrix in="SourceAlpha" values="0 0 0 0 0 0 0 0 0 0 0 0 0 0 0 0 0 0 127 0"/>
            <feOffset dy="10"/>
            <feGaussianBlur stdDeviation="15"/>
            <feColorMatrix values="0 0 0 0 0 0 0 0 0 0 0 0 0 0 0 0 0 0 0.15 0"/>
            <feBlend in2="BackgroundImageFix" result="effect1_dropShadow"/>
            <feBlend in="SourceGraphic" in2="effect1_dropShadow" result="shape"/>
        </filter>
    </defs>
</svg>
