<svg xmlns="http://www.w3.org/2000/svg" width="100" height="100" fill="none" viewBox="0 0 100 100">
    <path fill="#D93D04" d="M25 26H76V32H25z"/>
    <path fill="#FFFAF8" d="M25 33H76V73H25z"/>
    <path fill="#D93D04" d="M76.207 25.354h-51.49c-.103 0-.206.02-.303.06-.096.04-.183.098-.257.172-.074.073-.132.16-.172.257-.04.096-.06.2-.06.304v47.112c0 .104.02.207.06.304.04.096.098.183.172.257.074.074.161.132.257.172.097.04.2.06.304.06h51.489c.104 0 .207-.02.303-.06.097-.04.184-.098.258-.172.073-.074.132-.161.172-.257.04-.097.06-.2.06-.304V26.147c0-.105-.02-.208-.06-.304-.04-.096-.099-.184-.172-.257-.074-.074-.161-.132-.258-.172-.096-.04-.199-.06-.303-.06zm-.793 47.112H25.51V33.544h49.903v38.922zm0-40.508H25.51V26.94h49.903v5.018z"/>
    <path fill="#fff" d="M28.557 30.754c.53 0 .96-.43.96-.96s-.43-.96-.96-.96-.96.43-.96.96.43.96.96.96zM31.874 30.754c.53 0 .96-.43.96-.96s-.43-.96-.96-.96-.96.43-.96.96.43.96.96.96zM35.19 30.754c.53 0 .96-.43.96-.96s-.43-.96-.96-.96-.96.43-.96.96.43.96.96.96z"/>
    <path fill="#FF824B" d="M36.023 53.693l7.68 5.53c.17.121.382.17.588.136.207-.034.392-.149.514-.319.123-.17.173-.381.14-.588-.033-.207-.147-.393-.316-.516l-6.785-4.886 6.785-4.886c.17-.123.283-.309.316-.516.033-.206-.017-.418-.14-.588-.122-.17-.307-.285-.514-.319-.206-.034-.418.015-.589.136l-7.68 5.53c-.101.073-.184.17-.241.281-.058.112-.088.236-.088.362 0 .125.03.25.088.361.057.112.14.209.242.282zM54.09 59.043c.06.084.137.156.226.21.088.056.187.093.29.11.103.016.208.013.31-.011.1-.024.196-.068.28-.129l7.68-5.53c.102-.073.186-.17.243-.282.057-.111.087-.235.087-.361s-.03-.25-.087-.362c-.058-.112-.14-.208-.243-.282l-7.68-5.528c-.17-.122-.383-.171-.59-.137-.206.034-.392.149-.514.32-.123.17-.173.382-.14.589.034.207.148.392.318.515l6.786 4.885-6.786 4.886c-.085.06-.157.138-.211.226-.055.089-.092.187-.109.29-.016.103-.013.208.011.31.024.1.068.196.129.28z"/>
    <path fill="#FFCCB6" d="M47.636 61.084c.203.056.42.03.603-.072.183-.103.318-.274.376-.477l4.453-15.819c.03-.1.039-.206.027-.31-.011-.104-.044-.205-.094-.296-.051-.092-.12-.172-.201-.237-.083-.066-.177-.114-.278-.142-.1-.029-.206-.037-.31-.024-.104.012-.204.045-.295.097-.092.051-.172.12-.236.203-.064.083-.111.178-.139.279l-4.454 15.819c-.057.202-.031.42.072.603.102.183.274.319.476.376z"/>
</svg>
