<svg xmlns="http://www.w3.org/2000/svg" width="500" height="230" fill="none" viewBox="0 0 500 230">
    <path fill="#fff" d="M0 0H500V230H0z"/>
    <path fill="#E6E6E6" d="M415 39h-81v47h81V39z"/>
    <path fill="#fff" d="M413 45h-77v38h77V45z"/>
    <path fill="#18A0FB" d="M346.411 64.135c-.639 0-1.196-.14-1.67-.419-.474-.282-.838-.678-1.093-1.188-.252-.51-.378-1.099-.378-1.768s.126-1.258.378-1.768c.255-.51.619-.905 1.093-1.184.474-.282 1.031-.423 1.67-.423.489 0 .93.083 1.323.248.393.164.726.401.999.71.276.306.483.671.621 1.094l-1.233.342c-.123-.399-.329-.705-.617-.918-.288-.216-.652-.324-1.093-.324-.405 0-.746.092-1.022.275-.276.18-.484.436-.625.769-.138.33-.207.723-.207 1.179 0 .456.069.85.207 1.184.141.33.349.586.625.769.276.18.617.27 1.022.27.441 0 .805-.106 1.093-.32.288-.215.494-.523.617-.922l1.233.342c-.138.423-.345.789-.621 1.098-.273.306-.606.541-.999.707-.393.164-.834.247-1.323.247zm5.941 0c-.483 0-.911-.108-1.283-.324-.372-.219-.661-.522-.868-.909-.204-.39-.306-.834-.306-1.332 0-.501.103-.945.31-1.332.21-.39.501-.693.873-.909.375-.216.8-.324 1.274-.324.483 0 .91.11 1.282.328.375.217.666.52.873.91.207.39.311.832.311 1.327 0 .498-.105.942-.315 1.332-.207.387-.498.69-.873.909-.372.216-.798.324-1.278.324zm0-1.143c.381 0 .67-.129.868-.387.201-.258.302-.603.302-1.035 0-.441-.101-.788-.302-1.04-.201-.255-.49-.382-.868-.382-.387 0-.678.127-.873.383-.192.252-.288.598-.288 1.039 0 .444.099.792.297 1.044.201.252.489.378.864.378zm7.64-5.472V64h-1.08v-.279c-.363.276-.801.414-1.314.414-.438 0-.828-.111-1.17-.333-.339-.225-.603-.532-.792-.922-.186-.39-.279-.827-.279-1.31 0-.492.095-.933.284-1.323.192-.39.462-.694.81-.913.351-.22.754-.329 1.21-.329.417 0 .783.099 1.098.297V57.52h1.233zm-2.196 5.526c.744 0 1.116-.492 1.116-1.476 0-.462-.087-.824-.261-1.084-.171-.261-.441-.392-.81-.392-.264 0-.484.066-.661.198-.177.129-.309.304-.396.526-.087.223-.131.473-.131.752 0 .435.096.79.288 1.066.192.273.477.41.855.41zm3.366-5.661h1.224v1.08h-1.224v-1.08zm0 1.755h1.224V64h-1.224v-4.86zm5.048-.144c.57 0 .995.145 1.274.436.282.291.456.599.522.923.069.324.103.63.103.918V64h-1.242v-2.295c0-.246-.018-.477-.054-.693-.036-.216-.132-.414-.288-.594-.153-.18-.387-.27-.702-.27-.282 0-.525.097-.729.292-.204.193-.306.557-.306 1.094V64h-1.242v-4.86h1.089v.5c.183-.205.407-.362.671-.473.264-.114.565-.171.904-.171zm7.243.144v5.193c0 .255-.024.474-.072.657-.114.429-.37.753-.769.972-.396.222-.875.333-1.436.333-.408 0-.786-.096-1.134-.288-.348-.192-.615-.447-.801-.765l1.134-.549c.075.141.185.249.329.324.147.078.307.117.481.117.189 0 .363-.031.522-.094.162-.064.291-.157.387-.28.096-.123.141-.271.135-.445v-.49c-.33.206-.717.31-1.161.31-.438 0-.828-.111-1.17-.333-.339-.225-.603-.532-.792-.922-.186-.39-.279-.827-.279-1.31 0-.492.095-.933.284-1.323.192-.39.462-.694.81-.913.351-.22.754-.329 1.21-.329.489 0 .906.135 1.251.405v-.27h1.071zm-2.187 3.906c.744 0 1.116-.492 1.116-1.476 0-.462-.087-.824-.261-1.084-.171-.261-.441-.392-.81-.392-.264 0-.484.066-.661.198-.177.129-.309.304-.396.526-.087.223-.131.473-.131.752 0 .435.096.79.288 1.066.192.273.477.41.855.41zm-24.855 9.089c-.639 0-1.196-.14-1.67-.419-.474-.281-.838-.677-1.093-1.188-.252-.51-.378-1.099-.378-1.768s.126-1.259.378-1.769c.255-.51.619-.904 1.093-1.183.474-.282 1.031-.423 1.67-.423.489 0 .93.082 1.323.247.393.165.726.402.999.712.276.306.483.67.621 1.093l-1.233.342c-.123-.399-.329-.705-.617-.918-.288-.216-.652-.324-1.093-.324-.405 0-.746.091-1.022.274-.276.18-.484.437-.625.77-.138.33-.207.723-.207 1.179 0 .456.069.85.207 1.183.141.33.349.587.625.77.276.18.617.27 1.022.27.441 0 .805-.107 1.093-.32.288-.215.494-.523.617-.922l1.233.342c-.138.423-.345.789-.621 1.098-.273.306-.606.541-.999.707-.393.164-.834.247-1.323.247zm5.941 0c-.483 0-.911-.108-1.283-.324-.372-.219-.661-.522-.868-.909-.204-.39-.306-.834-.306-1.332 0-.501.103-.945.31-1.332.21-.39.501-.693.873-.909.375-.216.8-.324 1.274-.324.483 0 .91.11 1.282.329.375.215.666.519.873.909.207.39.311.832.311 1.327 0 .498-.105.942-.315 1.332-.207.387-.498.69-.873.909-.372.216-.798.324-1.278.324zm0-1.143c.381 0 .67-.129.868-.387.201-.258.302-.603.302-1.035 0-.441-.101-.787-.302-1.04-.201-.255-.49-.382-.868-.382-.387 0-.678.127-.873.383-.192.251-.288.598-.288 1.039 0 .444.099.792.297 1.044.201.252.489.378.864.378zm8.666-3.969c.363 0 .671.074.923.22.252.148.441.356.567.626.129.267.193.579.193.936V72h-1.224v-2.871c0-.318-.076-.567-.229-.747-.15-.18-.359-.27-.626-.27-.168 0-.316.04-.445.122-.126.078-.225.189-.297.333-.069.14-.104.304-.104.49V72h-1.224v-2.871c0-.318-.076-.567-.229-.747-.15-.18-.359-.27-.626-.27-.168 0-.316.04-.445.122-.126.078-.225.189-.297.333-.069.14-.104.304-.104.49V72h-1.233v-4.86h1.08v.531c.165-.204.371-.363.617-.477.249-.114.517-.171.805-.171.336 0 .623.068.86.203.237.132.421.316.553.553.159-.237.369-.421.63-.553.261-.135.546-.203.855-.203zm4.995-.018c.456 0 .858.11 1.206.329.351.218.621.523.81.913.192.39.288.831.288 1.323 0 .483-.094.92-.283 1.31-.186.39-.45.697-.792.922-.339.222-.728.333-1.166.333-.444 0-.831-.104-1.161-.31v2.335h-1.233v-7.02h1.08v.27c.345-.27.762-.405 1.251-.405zm-.135 4.041c.378 0 .663-.137.855-.41.192-.275.288-.631.288-1.066 0-.279-.043-.53-.13-.751-.087-.222-.219-.398-.396-.527-.177-.132-.398-.198-.662-.198-.369 0-.64.13-.814.392-.171.26-.257.622-.257 1.084 0 .984.372 1.476 1.116 1.476zm4.298-1.134c.045.348.164.615.356.801.195.186.456.279.783.279.237 0 .441-.053.612-.157.174-.105.306-.257.396-.455l1.224.351c-.12.291-.29.543-.509.756-.219.21-.471.37-.756.482-.285.11-.583.166-.895.166-.492 0-.93-.107-1.314-.32-.381-.212-.68-.51-.896-.89-.213-.382-.319-.812-.319-1.292 0-.522.103-.981.31-1.377.21-.399.501-.707.873-.922.372-.22.797-.329 1.274-.329.468 0 .874.104 1.219.31.345.207.609.502.792.883.186.38.279.828.279 1.34 0 .082-.006.206-.018.374h-3.411zm1.193-1.845c-.645 0-1.032.312-1.161.936h2.142c-.042-.327-.143-.564-.302-.711-.156-.15-.382-.225-.679-.225zm4.566 1.8v.257c0 .156.006.282.018.377.012.096.039.176.081.239.123.195.366.293.729.293.138 0 .33-.017.576-.05V72c-.312.057-.603.085-.873.085-.366 0-.684-.053-.954-.161-.27-.112-.471-.287-.603-.527-.081-.15-.135-.303-.162-.459-.027-.156-.04-.34-.04-.553l.004-.446v-1.854h-.828v-.945h.828v-1.35h1.224v1.35h1.404v.945h-1.404v1.782zm2.397-4.482h1.224v1.08h-1.224v-1.08zm0 1.755h1.224V72h-1.224v-4.86zm3.905 2.727v.257c0 .156.006.282.018.377.012.096.039.176.081.239.123.195.366.293.729.293.138 0 .33-.017.576-.05V72c-.312.057-.603.085-.873.085-.366 0-.684-.053-.954-.161-.27-.112-.471-.287-.603-.527-.081-.15-.135-.303-.162-.459-.027-.156-.04-.34-.04-.553l.004-.446v-1.854h-.828v-.945h.828v-1.35h1.224v1.35h1.404v.945h-1.404v1.782zm4.222 2.268c-.483 0-.911-.108-1.283-.324-.372-.219-.661-.522-.868-.909-.204-.39-.306-.834-.306-1.332 0-.501.103-.945.31-1.332.21-.39.501-.693.873-.909.375-.216.8-.324 1.274-.324.483 0 .91.11 1.282.329.375.215.666.519.873.909.207.39.311.832.311 1.327 0 .498-.105.942-.315 1.332-.207.387-.498.69-.873.909-.372.216-.798.324-1.278.324zm0-1.143c.381 0 .67-.129.868-.387.201-.258.302-.603.302-1.035 0-.441-.101-.787-.302-1.04-.201-.255-.49-.382-.868-.382-.387 0-.678.127-.873.383-.192.251-.288.598-.288 1.039 0 .444.099.792.297 1.044.201.252.489.378.864.378zm5.93-3.996c.57 0 .995.145 1.274.437.282.29.456.598.522.922.069.324.103.63.103.918V72h-1.242v-2.295c0-.246-.018-.477-.054-.693-.036-.216-.132-.414-.288-.594-.153-.18-.387-.27-.702-.27-.282 0-.525.098-.729.293-.204.191-.306.556-.306 1.093V72h-1.242v-4.86h1.089v.5c.183-.204.407-.362.671-.473.264-.114.565-.171.904-.171zm4.786 5.139c-.612 0-1.107-.138-1.485-.414-.375-.276-.603-.669-.684-1.179l1.251-.189c.051.231.164.411.338.54.177.126.4.189.67.189.219 0 .389-.042.509-.126.123-.087.184-.207.184-.36 0-.102-.025-.18-.076-.234-.048-.057-.15-.112-.306-.166-.153-.055-.416-.131-.788-.23-.402-.102-.72-.216-.954-.342-.234-.126-.403-.276-.508-.45-.105-.174-.158-.387-.158-.639 0-.309.08-.579.239-.81.159-.231.384-.408.675-.531.291-.126.631-.189 1.021-.189.378 0 .714.059 1.008.175.297.117.536.285.716.504.183.216.295.47.337.761l-1.251.225c-.021-.18-.099-.323-.234-.427-.135-.105-.318-.167-.549-.185l-.094-.005c-.198 0-.357.038-.477.113-.117.075-.176.177-.176.306 0 .087.03.159.09.216.06.054.177.111.351.171.174.057.459.135.855.234.372.096.669.209.891.337.222.126.384.278.486.455.102.177.153.393.153.648 0 .33-.081.617-.243.86-.162.24-.396.424-.702.553-.306.126-.669.189-1.089.189zM415 39h-82v3h82v-3z"/>
    <path fill="#fff" d="M335.792 41.175c.319 0 .578-.26.578-.579 0-.32-.259-.578-.578-.578-.32 0-.579.259-.579.578 0 .32.259.579.579.579zM337.988 41.175c.32 0 .579-.26.579-.579 0-.32-.259-.578-.579-.578-.319 0-.578.259-.578.578 0 .32.259.579.578.579zM340.185 41.175c.32 0 .579-.26.579-.579 0-.32-.259-.578-.579-.578-.32 0-.579.259-.579.578 0 .32.259.579.579.579z"/>
    <path fill="#CCC" d="M360.607 76.579h-14.344c-.048-.007-.092-.03-.124-.067-.032-.036-.05-.083-.05-.132 0-.048.018-.095.05-.132.032-.036.076-.06.124-.066h14.344c.048.006.092.03.124.066.032.037.05.084.05.132 0 .049-.018.096-.05.132-.032.037-.076.06-.124.067zM376.309 78.762h-22.56c-.049-.006-.093-.03-.125-.066-.032-.037-.049-.084-.049-.132 0-.049.017-.096.049-.132.032-.037.076-.06.125-.067h22.56c.048.007.092.03.124.067.032.036.05.083.05.132 0 .048-.018.095-.05.132-.032.036-.076.06-.124.066zM350.337 78.762h-4.108c-.049-.006-.093-.03-.125-.066-.032-.037-.049-.084-.049-.132 0-.049.017-.096.049-.132.032-.037.076-.06.125-.067h4.108c.048.007.092.03.124.067.032.036.05.083.05.132 0 .048-.018.095-.05.132-.032.036-.076.06-.124.066z"/>
    <path fill="#18A0FB" d="M345.579 46.92l-3.034 2.49 3.034 2.491.683-.567-2.295-1.908 2.314-1.923-.702-.583zM349.473 46.92l3.034 2.49-3.034 2.491-.683-.567 2.295-1.908-2.314-1.923.702-.583z"/>
    <path fill="#E6E6E6" d="M206.963 75.022h-87.924v56.31h87.924v-56.31z"/>
    <path fill="#fff" d="M204.448 82.082h-82.896v45.917h82.896V82.082z"/>
    <path fill="#18A0FB" d="M206.925 74.969H119v3.735h87.925V74.97z"/>
    <path fill="#fff" d="M121.776 77.57c.382 0 .692-.31.692-.692 0-.382-.31-.692-.692-.692-.383 0-.693.31-.693.692 0 .382.31.692.693.692zM124.404 77.57c.382 0 .692-.31.692-.692 0-.382-.31-.692-.692-.692-.383 0-.693.31-.693.692 0 .382.31.692.693.692zM127.032 77.57c.382 0 .692-.31.692-.692 0-.382-.31-.692-.692-.692-.383 0-.693.31-.693.692 0 .382.31.692.693.692z"/>
    <path fill="#CCC" d="M162.229 116.334H145.07c-.058-.007-.11-.036-.149-.079-.038-.044-.059-.1-.059-.158 0-.058.021-.114.059-.158.039-.044.091-.072.149-.08h17.159c.058.008.111.036.149.08.038.044.06.1.06.158 0 .058-.022.114-.06.158-.038.043-.091.072-.149.079zM162.146 121.559h-17.159c-.058-.008-.111-.036-.149-.08-.038-.043-.059-.099-.059-.158 0-.058.021-.114.059-.157.038-.044.091-.072.149-.08h17.159c.058.008.111.036.149.08.038.043.059.099.059.157 0 .059-.021.115-.059.158-.038.044-.091.072-.149.08zM162.188 124.172h-17.16c-.057-.007-.11-.036-.148-.079-.039-.044-.06-.1-.06-.158 0-.058.021-.114.06-.158.038-.044.091-.072.148-.08h17.16c.057.008.11.036.148.08.039.044.06.1.06.158 0 .058-.021.114-.06.158-.038.043-.091.072-.148.079zM169.518 121.608h-4.914c-.058-.008-.111-.036-.149-.08-.039-.043-.06-.1-.06-.158 0-.058.021-.114.06-.158.038-.043.091-.072.149-.079h4.914c.058.007.111.036.149.079.038.044.059.1.059.158 0 .058-.021.115-.059.158-.038.044-.091.072-.149.08zM169.518 124.172h-4.914c-.058-.007-.111-.036-.149-.079-.039-.044-.06-.1-.06-.158 0-.058.021-.114.06-.158.038-.044.091-.072.149-.08h4.914c.058.008.111.036.149.08.038.044.059.1.059.158 0 .058-.021.114-.059.158-.038.043-.091.072-.149.079zM177.764 121.608h-4.914c-.058-.008-.111-.036-.149-.08-.039-.043-.06-.1-.06-.158 0-.058.021-.114.06-.158.038-.043.091-.072.149-.079h4.914c.058.007.111.036.149.079.038.044.059.1.059.158 0 .058-.021.115-.059.158-.038.044-.091.072-.149.08zM181.013 118.948h-26.988c-.058-.008-.111-.036-.149-.08-.038-.044-.06-.1-.06-.158 0-.058.022-.114.06-.158.038-.043.091-.072.149-.079h26.988c.058.007.11.036.149.079.038.044.059.1.059.158 0 .058-.021.114-.059.158-.039.044-.091.072-.149.08zM149.943 118.948h-4.915c-.057-.008-.11-.036-.148-.08-.039-.044-.06-.1-.06-.158 0-.058.021-.114.06-.158.038-.043.091-.072.148-.079h4.915c.057.007.11.036.149.079.038.044.059.1.059.158 0 .058-.021.114-.059.158-.039.044-.092.072-.149.08z"/>
    <path fill="#18A0FB" d="M135.728 94c.288 0 .538.017.75.05.779.12 1.361.442 1.744.963.387.516.581 1.17.581 1.962 0 .788-.194 1.442-.581 1.963-.388.52-.969.841-1.744.962-.212.033-.462.05-.75.05h-2.1V103h-1.7v-9h3.8zm-.075 4.362c.238 0 .429-.02.575-.062.313-.083.534-.25.663-.5.133-.254.2-.53.2-.825 0-.296-.067-.569-.2-.819-.129-.254-.35-.423-.663-.506-.146-.042-.337-.063-.575-.063h-2.025v2.775h2.025zm4.28-4.55h1.7V103h-1.7v-9.188zm8.711 3.475c.121.225.196.455.225.688.034.23.05.53.05.9V103h-1.487v-.825c-.3.358-.629.617-.988.775-.358.158-.795.238-1.312.238-.467 0-.871-.09-1.213-.269-.337-.184-.595-.432-.775-.744-.175-.313-.262-.658-.262-1.038 0-.491.114-.906.344-1.243.229-.338.606-.602 1.131-.794.292-.108.648-.2 1.069-.275.42-.08 1.027-.177 1.818-.294-.033-.316-.15-.548-.35-.694-.195-.15-.491-.225-.887-.225-.288 0-.561.067-.819.2-.258.134-.435.342-.531.626l-1.538-.488c.175-.583.505-1.044.988-1.381.483-.338 1.117-.507 1.9-.507 1.329 0 2.208.409 2.637 1.225zm-1.587 3.663c.108-.221.167-.569.175-1.044-.588.1-1.019.179-1.294.238-.275.058-.506.123-.694.193-.245.1-.425.213-.537.338-.108.121-.163.267-.163.437 0 .23.084.411.25.544.171.129.405.194.7.194.288 0 .54-.05.757-.15.216-.104.389-.225.518-.363.134-.137.23-.266.288-.387zm6.212 2.238c-.683 0-1.279-.155-1.787-.463-.504-.308-.892-.731-1.163-1.269-.266-.541-.4-1.152-.4-1.831 0-.683.138-1.294.413-1.831.279-.542.673-.965 1.181-1.269.513-.308 1.106-.463 1.781-.463.525 0 .998.092 1.419.276.425.179.775.44 1.05.78.279.338.469.736.569 1.195l-1.7.45c-.1-.346-.273-.617-.519-.813-.246-.2-.527-.3-.844-.3-.516 0-.904.181-1.162.544-.258.362-.388.84-.388 1.431 0 .604.134 1.085.4 1.444.267.354.65.531 1.15.531.367 0 .653-.083.857-.25.208-.167.364-.421.468-.763l1.738.363c-.192.717-.554 1.269-1.088 1.656-.533.388-1.191.582-1.975.582zm5.336-3.088c.063.483.227.854.494 1.112.271.259.633.388 1.087.388.33 0 .613-.073.85-.219.242-.146.425-.356.55-.631l1.7.487c-.166.405-.402.755-.706 1.05-.304.292-.654.515-1.05.669-.396.154-.81.232-1.244.232-.683 0-1.291-.148-1.825-.444-.529-.296-.943-.709-1.243-1.238-.296-.529-.444-1.127-.444-1.793 0-.725.144-1.363.431-1.913.292-.554.696-.981 1.213-1.281.516-.304 1.106-.457 1.768-.457.65 0 1.215.144 1.694.432.479.287.846.696 1.1 1.225.259.529.388 1.15.388 1.862 0 .113-.009.286-.025.519h-4.738zm1.656-2.563c-.895 0-1.433.434-1.612 1.3h2.975c-.058-.454-.198-.783-.419-.987-.216-.208-.531-.313-.944-.313zm11.547-1.45c.504 0 .932.103 1.282.307.35.204.612.493.787.868.179.371.269.805.269 1.3V103h-1.7v-3.987c0-.442-.106-.788-.319-1.038-.208-.25-.498-.375-.869-.375-.233 0-.439.056-.618.169-.175.108-.313.262-.413.462-.096.196-.144.423-.144.681V103h-1.7v-3.987c0-.442-.106-.788-.318-1.038-.209-.25-.498-.375-.869-.375-.234 0-.44.056-.619.169-.175.108-.312.262-.412.462-.096.196-.144.423-.144.681V103h-1.713v-6.75h1.5v.737c.229-.283.515-.504.857-.662.345-.158.718-.237 1.118-.237.467 0 .865.093 1.194.28.329.184.585.44.769.77.221-.33.512-.586.875-.77.362-.187.758-.28 1.187-.28zm5.047 4.013c.063.483.227.854.494 1.112.271.259.633.388 1.087.388.33 0 .613-.073.85-.219.242-.146.425-.356.55-.631l1.7.487c-.166.405-.402.755-.706 1.05-.304.292-.654.515-1.05.669-.396.154-.81.232-1.244.232-.683 0-1.291-.148-1.825-.444-.529-.296-.943-.709-1.243-1.238-.296-.529-.444-1.127-.444-1.793 0-.725.144-1.363.431-1.913.292-.554.696-.981 1.213-1.281.516-.304 1.106-.457 1.768-.457.65 0 1.215.144 1.694.432.479.287.846.696 1.1 1.225.259.529.388 1.15.388 1.862 0 .113-.009.286-.025.519h-4.738zm1.656-2.563c-.895 0-1.433.434-1.612 1.3h2.975c-.058-.454-.198-.783-.419-.987-.216-.208-.531-.313-.944-.313zm7.747-1.487c.792 0 1.382.202 1.769.606.392.404.633.831.725 1.281.096.45.144.876.144 1.276V103h-1.725v-3.188c0-.341-.025-.662-.075-.962-.05-.3-.184-.575-.4-.825-.213-.25-.538-.375-.975-.375-.392 0-.729.135-1.013.406-.283.267-.425.773-.425 1.519V103h-1.725v-6.75h1.513v.694c.254-.284.564-.502.931-.657.367-.158.785-.237 1.256-.237zm6.11 3.987v.357c0 .216.008.391.025.525.016.133.054.243.112.331.171.271.508.406 1.013.406.191 0 .458-.023.8-.069V103c-.434.079-.838.119-1.213.119-.508 0-.95-.075-1.325-.225-.375-.154-.654-.398-.837-.732-.113-.208-.188-.42-.225-.637-.038-.217-.057-.473-.057-.769l.007-.619v-2.575h-1.15V96.25h1.15v-1.875h1.7v1.875h1.95v1.313h-1.95v2.474zm-49.581 15.151c-.663 0-1.265-.119-1.806-.357-.538-.237-.977-.577-1.319-1.019-.342-.441-.558-.962-.65-1.562l1.775-.263c.083.338.227.63.431.875.204.242.45.425.738.55.291.125.606.188.943.188.288 0 .563-.044.825-.131.263-.092.475-.225.638-.4.167-.175.25-.382.25-.619 0-.2-.065-.375-.194-.525-.129-.15-.356-.275-.681-.375l-2.338-.688c-.341-.095-.656-.218-.943-.368-.284-.15-.538-.388-.763-.713-.221-.325-.331-.748-.331-1.269 0-.583.148-1.077.444-1.481.296-.408.698-.712 1.206-.912.508-.2 1.079-.298 1.712-.294.938.012 1.717.246 2.338.7.625.45 1.046 1.096 1.262 1.937l-1.837.313c-.067-.292-.194-.54-.381-.744-.184-.204-.404-.358-.663-.462-.254-.104-.525-.157-.812-.157-.263 0-.507.042-.732.125-.225.084-.406.203-.543.357-.138.154-.207.331-.207.531 0 .262.109.465.325.606.217.142.509.261.875.356l1.563.425c.446.121.84.261 1.181.419.346.159.65.409.913.75.262.342.393.79.393 1.344 0 .617-.168 1.142-.506 1.575-.333.429-.775.752-1.325.969-.55.212-1.144.319-1.781.319zm10.936-6.938V115h-1.5v-.694c-.254.284-.564.504-.931.663-.367.154-.785.231-1.256.231-.792 0-1.384-.202-1.775-.606-.388-.404-.629-.832-.725-1.282-.092-.45-.138-.875-.138-1.275v-3.787h1.725v3.187c0 .342.025.663.075.963.05.3.181.575.394.825.217.25.544.375.981.375.392 0 .729-.133 1.013-.4.283-.271.425-.779.425-1.525v-3.425h1.712zm4.722-.188c.633 0 1.192.153 1.675.457.487.304.862.727 1.125 1.268.267.542.4 1.155.4 1.838 0 .671-.131 1.277-.394 1.819-.258.541-.625.968-1.1 1.281-.471.308-1.01.463-1.619.463-.616 0-1.154-.144-1.612-.432V118h-1.713v-9.75h1.5v.375c.48-.375 1.059-.563 1.738-.563zm-.188 5.613c.525 0 .921-.19 1.188-.569.267-.383.4-.877.4-1.481 0-.388-.06-.735-.181-1.044-.121-.308-.304-.552-.55-.731-.246-.183-.552-.275-.919-.275-.513 0-.89.181-1.131.544-.238.362-.357.864-.357 1.506 0 1.367.517 2.05 1.55 2.05zm7.738-5.613c.634 0 1.192.153 1.675.457.488.304.863.727 1.125 1.268.267.542.4 1.155.4 1.838 0 .671-.131 1.277-.393 1.819-.259.541-.625.968-1.1 1.281-.471.308-1.011.463-1.619.463-.617 0-1.154-.144-1.613-.432V118h-1.712v-9.75h1.5v.375c.479-.375 1.058-.563 1.737-.563zm-.187 5.613c.525 0 .921-.19 1.187-.569.267-.383.4-.877.4-1.481 0-.388-.06-.735-.181-1.044-.121-.308-.304-.552-.55-.731-.246-.183-.552-.275-.919-.275-.512 0-.889.181-1.131.544-.237.362-.356.864-.356 1.506 0 1.367.516 2.05 1.55 2.05zm7.55 1.513c-.671 0-1.265-.151-1.781-.451-.517-.304-.919-.725-1.206-1.262-.284-.542-.425-1.158-.425-1.85 0-.696.143-1.313.431-1.85.291-.542.696-.963 1.212-1.263.521-.3 1.111-.45 1.769-.45.671 0 1.265.153 1.781.457.521.3.925.721 1.213 1.262.287.542.431 1.156.431 1.844 0 .692-.146 1.308-.437 1.85-.288.537-.692.958-1.213 1.262-.517.3-1.108.451-1.775.451zm0-1.588c.529 0 .931-.179 1.206-.538.279-.358.419-.837.419-1.437 0-.613-.14-1.094-.419-1.444-.279-.354-.681-.531-1.206-.531-.537 0-.942.177-1.212.531-.267.35-.4.831-.4 1.444 0 .617.137 1.1.412 1.45.279.35.679.525 1.2.525zm6.774-5.025c.38-.233.83-.35 1.35-.35.142 0 .271.008.388.025v1.587c-.129-.041-.29-.062-.481-.062-.317 0-.598.058-.844.175-.3.137-.529.342-.688.612-.158.271-.237.6-.237.988V115h-1.713v-6.75h1.5v1.087c.188-.337.43-.591.725-.762zm4.777 3.462v.357c0 .216.008.391.025.525.017.133.054.243.112.331.171.271.509.406 1.013.406.192 0 .458-.023.8-.069V115c-.433.079-.838.119-1.213.119-.508 0-.95-.075-1.325-.225-.375-.154-.654-.398-.837-.732-.113-.208-.188-.42-.225-.637-.038-.217-.056-.473-.056-.769l.006-.619v-2.575h-1.15v-1.312h1.15v-1.875h1.7v1.875h1.95v1.312h-1.95v2.475z"/>
    <g clip-path="url(#clip0)">
        <path fill="#18A0FB" d="M355.755 103.762h-12.866v6.655h12.866v-6.655zM356.745 111.896h-12.867v6.656h12.867v-6.656zM330.517 55.938h-12.866v6.655h12.866v-6.656zM339.672 63.582h-12.866v6.656h12.866v-6.656zM371.096 122.004h-12.867v6.656h12.867v-6.656zM355.508 122.496h-12.867v6.656h12.867v-6.656zM166.966 104.008H154.1v6.655h12.866v-6.655z" opacity=".2"/>
        <path fill="#18A0FB" fill-opacity=".5" d="M176.121 111.65h-12.866v6.656h12.866v-6.656z" opacity=".2"/>
        <path fill="#18A0FB" d="M245.649 34h-12.866v6.656h12.866V34zM347.095 156.76h-12.866v6.655h12.866v-6.655z" opacity=".2"/>
        <path fill="#18A0FB" fill-opacity=".5" d="M177.111 119.785h-12.866v6.656h12.866v-6.656z" opacity=".2"/>
        <path fill="#18A0FB" d="M254.804 41.64h-12.866v6.656h12.866v-6.655zM207.792 86.752h-12.866v6.656h12.866v-6.656zM216.947 94.394h-12.866v6.656h12.866v-6.656zM241.443 90.203h-12.867v6.656h12.867v-6.656zM217.937 102.529h-12.866v6.656h12.866v-6.656zM364.415 156.76h-12.866v6.655h12.866v-6.655z" opacity=".2"/>
        <path fill="url(#paint0_linear)" d="M332.254 130.411c-.833-4.619-1.344-9.29-1.529-13.979-.164-3.862-1.524-7.579-3.892-10.641-2.368-3.062-5.629-5.319-9.335-6.462-1.351-.414-2.838-.801-4.481-1.149-14.401-3.046-18.775-.387-19.273-.037-.421-.762-.787-1.554-1.096-2.368-.025-.084-.047-.168-.072-.247 2.851-3.028 4.587-6.928 4.927-11.066 2.402-2.425 3.805-5.354 3.805-8.507 0-2.711-1.039-5.255-2.858-7.456v-4.285c0-4.94-1.97-9.678-5.476-13.172-3.507-3.493-8.263-5.456-13.222-5.456h-1.517c-2.455 0-4.886.482-7.155 1.418-2.269.936-4.33 2.308-6.066 4.038-1.737 1.73-3.114 3.783-4.053 6.044-.94 2.26-1.424 4.682-1.424 7.128v4.617c-1.65 2.123-2.585 4.546-2.585 7.12 0 3.086 1.346 5.955 3.657 8.351.315 4.289 2.131 8.331 5.131 11.423.102.7.206 1.452.307 2.246l-25.757 5.421s-9.932.406-16.331 13.557c-5.411 11.14-16.179 39.759-19.369 48.278-.576 1.544-.903 2.429-.903 2.429s.107-.106.307-.289l-.307.831s.156-.158.453-.417c-.45 3.565-.514 9.685 4.172 10.447 3.929.639 14.054.902 21.702 1.008h.529c5.07.067 8.928.067 8.928.067v-.067h82.255v-.84c.001-.763-.153-1.517-.453-2.219l.114-.138c.44.579.733 1.256.854 1.972-.01.07-.023.139-.04.207l.05-.125c.019.223.002.449-.05.668 0 0 10.553-27.089 10.439-43.265.031-1.703-.099-3.406-.386-5.085zm-65.779-28.78c-.136-.772-.224-1.553-.262-2.336v-.023c.091.762.18 1.551.262 2.359zm-31.973 58.186v6.456l-4.058.865 4.058-7.321z"/>
        <path fill="#E14B5A" d="M278.577 48.191c4.959 0 9.715 1.963 13.222 5.456 3.506 3.494 5.476 8.232 5.476 13.173v7.947h-37.396V66.82c0-4.94 1.97-9.679 5.476-13.172 3.507-3.494 8.263-5.457 13.222-5.457z"/>
        <path fill="#E14B5A" d="M278.708 91.965c11.771 0 21.313-6.533 21.313-14.591s-9.542-14.59-21.313-14.59c-11.771 0-21.314 6.532-21.314 14.59s9.543 14.59 21.314 14.59z"/>
        <path fill="#F7C4A7" d="M265.045 91.508s4.454 23.188 0 29.442c-4.454 6.254 13.609 8.729 13.609 8.729l18.695-6.774 2.616-16.676s-11.382-6.385-9.024-19.282l-25.896 4.56zM320.227 169.674s1.178 5.081-5.231 5.993c-3.784.554-7.632.509-11.401-.136l-1.413-12.761h14.907l3.138 6.904zM207.067 163.172s-2.83 11.46 3.578 12.495c6.409 1.035 29.939 1.043 29.939 1.043v-13.558l-10.654 2.268-10.001-9.555-12.862 7.307z"/>
        <path fill="#000" d="M266.421 98.999l-25.043 5.275s-9.545.392-15.692 13.028c-6.146 12.636-19.485 48.724-19.485 48.724s11.382-11.465 24.716.782l8.893-16.023-1.962 25.405h68.904v-11.988s14.383 7.686 13.339 11.985c0 0 12.309-31.597 9.649-45.956-.8-4.439-1.291-8.928-1.469-13.434-.157-3.712-1.464-7.284-3.74-10.227-2.276-2.942-5.411-5.111-8.973-6.208-1.297-.397-2.722-.769-4.306-1.102-14.776-3.125-18.557 0-18.557 0s-2.862 9.279-2.811 13.484c.065 5.406-7.714 8.99-7.714 8.99s-11.508-2.736-12.03-4.95c-.522-2.213-4.64-15.179-3.719-17.785z" opacity=".1"/>
        <path fill="#18A0FB" d="M266.421 98.478l-25.043 5.275s-9.546.392-15.692 13.028c-6.146 12.635-19.487 48.729-19.487 48.729s11.382-11.465 24.715.781l8.893-16.023-1.962 25.398h68.907v-11.985s14.383 7.686 13.339 11.985c0 0 12.309-31.597 9.649-45.956-.8-4.439-1.291-8.928-1.469-13.435-.157-3.711-1.464-7.284-3.74-10.226-2.276-2.943-5.411-5.111-8.973-6.208-1.297-.397-2.722-.77-4.306-1.102-14.776-3.126-18.557 0-18.557 0s-2.863 9.278-2.811 13.484c.065 5.406-7.714 8.99-7.714 8.99s-11.508-2.736-12.03-4.95c-.523-2.214-4.64-15.18-3.719-17.785z"/>
        <path fill="#000" d="M292.01 97.372c-1.052-2.967-1.288-6.16-.683-9.249l-25.896 4.558s.374 1.95.797 4.87c1.673 1.73 3.682 3.103 5.904 4.035 2.223.932 4.612 1.404 7.023 1.387 2.411-.016 4.794-.522 7.003-1.485 2.209-.963 4.198-2.363 5.847-4.116h.005z" opacity=".1"/>
        <path fill="#F7C4A7" d="M296.426 84.083c-.02 4.649-1.873 9.103-5.16 12.403-3.287 3.3-7.743 5.181-12.409 5.237-4.666.057-9.167-1.716-12.533-4.936-3.366-3.22-5.327-7.628-5.461-12.275v-.43c0-3.317.934-6.568 2.696-9.382 1.762-2.815 4.282-5.08 7.273-6.539.533-.26 1.081-.493 1.643-.7 2.926-1.071 6.081-1.364 9.155-.848 3.939.668 7.538 2.64 10.214 5.596 2.676 2.957 4.274 6.726 4.535 10.698.032.39.047.782.047 1.176z"/>
        <g fill="#000" opacity=".1">
            <path d="M272.448 67.876l.025-.015c-.563.207-1.11.44-1.643.7-2.991 1.459-5.511 3.724-7.274 6.539-1.762 2.815-2.696 6.066-2.695 9.383v.43c.553-.016 1.096-.146 1.596-.383 4.335-2.016 6.928-8.184 7.957-12.486.371-1.54.72-3.275 2.034-4.168z" opacity=".1"/>
            <path d="M286.059 68.372c-1.408-.644-2.894-1.101-4.422-1.358 1.253.287 2.372.987 3.175 1.987.394.533.72 1.112.972 1.725-2.366-1.03-4.93-1.537-7.512-1.484-2.583.053-5.123.665-7.445 1.792 1.116 2.438 4.578 3.767 6.889 4.657 2.53.973 5.087 1.862 7.67 2.67l-2.286-1.85 5.164.819c.055-1.024-.067-2.05-.362-3.032.99.794 2.302 1.06 3.375 1.725 2.012 1.265 2.851 3.698 3.947 5.806.289.557.631 1.126 1.153 1.479-.211-3.185-1.281-6.253-3.097-8.882-1.816-2.629-4.311-4.72-7.221-6.054z" opacity=".1"/>
        </g>
        <path fill="#632652" d="M272.448 67.474l.025-.015c-.563.207-1.11.44-1.643.7-2.991 1.458-5.511 3.724-7.274 6.538-1.762 2.815-2.696 6.066-2.695 9.384v.429c.553-.015 1.096-.145 1.596-.382 4.335-2.017 6.928-8.184 7.957-12.486.371-1.53.72-3.273 2.034-4.168z"/>
        <path fill="#632652" d="M286.059 67.974c-1.407-.645-2.894-1.101-4.421-1.359 1.252.287 2.371.988 3.174 1.987.394.533.72 1.113.972 1.726-2.366-1.031-4.93-1.538-7.512-1.484-2.583.053-5.123.664-7.445 1.792 1.116 2.438 4.578 3.766 6.889 4.656 2.53.973 5.087 1.863 7.67 2.67l-2.286-1.849 5.164.819c.055-1.024-.067-2.05-.362-3.032.99.793 2.302 1.06 3.375 1.725 2.012 1.265 2.851 3.698 3.947 5.805.289.557.631 1.127 1.153 1.48-.211-3.185-1.281-6.254-3.097-8.882-1.816-2.63-4.311-4.72-7.221-6.055z"/>
        <path fill="#000" d="M258.832 81.162s18.31-22.679 39.492 0l-1.831-5.08s-9.939-14.46-16.998-11.34c-7.059 3.12-13.992 5.342-13.992 5.342l-6.671 11.078z" opacity=".1"/>
        <path fill="#E14B5A" d="M258.832 80.76s18.31-22.68 39.492 0l-1.831-5.081s-9.939-14.46-16.998-11.34c-7.059 3.121-13.992 5.342-13.992 5.342l-6.671 11.078z"/>
        <path fill="#000" d="M243.793 129.613s-3.922 10.423 1.569 19.802c5.49 9.38-4.837 13.289-4.837 13.289M307.345 120.234s6.8 8.598 2.354 16.285c-4.447 7.686-4.184 26.186-4.184 26.186" opacity=".1"/>
        <path fill="#535461" d="M237.778 170.393h75.583c1.664 0 3.261.658 4.438 1.831 1.177 1.173 1.839 2.764 1.839 4.422h-88.135c0-1.658.661-3.248 1.838-4.421s2.773-1.832 4.437-1.832z"/>
        <path fill="#535461" d="M245.468 127.398h60.205c1.267 0 2.522.249 3.693.732 1.171.483 2.234 1.192 3.13 2.084.896.893 1.607 1.953 2.092 3.119.485 1.167.735 2.417.735 3.679v34.812h-79.504v-34.812c0-2.55 1.016-4.995 2.826-6.798s4.264-2.816 6.823-2.816z"/>
        <path fill="#fff" d="M275.504 156.257c2.6 0 4.708-2.1 4.708-4.691 0-2.591-2.108-4.691-4.708-4.691-2.601 0-4.709 2.1-4.709 4.691 0 2.591 2.108 4.691 4.709 4.691z"/>
        <path stroke="#000" stroke-miterlimit="10" d="M259.879 70.531s17.993-17.916 37.399-.327" opacity=".1"/>
        <path fill="#6A5C99" d="M301.823 69.39h-1.806v10.204h1.806V69.39z"/>
        <path fill="#FFD037" d="M297.607 75.992c1.651 0 3.234.654 4.402 1.817 1.167 1.163 1.823 2.74 1.823 4.385v.4c0 1.645-.656 3.222-1.823 4.385-1.168 1.163-2.751 1.817-4.402 1.817V75.992z"/>
        <path fill="#6A5C99" d="M299.212 76.795c0-.774-.629-1.4-1.405-1.4s-1.405.626-1.405 1.4v11.203c0 .774.629 1.4 1.405 1.4s1.405-.626 1.405-1.4V76.795zM255.148 79.793h1.806V69.59h-1.806v10.203z"/>
        <path fill="#FFD037" d="M259.364 88.996c-1.651 0-3.235-.653-4.402-1.816-1.168-1.164-1.823-2.741-1.823-4.386v-.4c0-.814.161-1.62.473-2.373.313-.752.772-1.436 1.35-2.012.578-.576 1.264-1.033 2.02-1.344.755-.312 1.564-.472 2.382-.472v12.803z"/>
        <path fill="#6A5C99" d="M257.758 88.195c0 .774.629 1.4 1.406 1.4.776 0 1.405-.626 1.405-1.4V76.992c0-.773-.629-1.4-1.405-1.4-.777 0-1.406.627-1.406 1.4v11.203z"/>
        <path fill="#FFD037" d="M299.804 58.485c-2.447-5.068-7.777-11.197-19.265-11.687v-.015h-.139l-4.07.192v.02c-11.411.523-16.716 6.629-19.156 11.68-1.625 3.424-2.487 7.157-2.529 10.945l1.406-.035 1.405-.032c.061-3.372.839-6.692 2.284-9.742 3.098-6.34 8.799-9.71 16.941-10.023l3.601-.2c8.147.311 13.851 3.686 16.946 10.023 1.447 3.051 2.227 6.373 2.289 9.747l1.405.032 1.406.035c-.041-3.785-.902-7.517-2.524-10.94z"/>
        <path fill="#D6D6E3" d="M364.009 176.727H172.323V228h191.686v-51.273z"/>
        <path fill="#000" d="M364.009 180.178H172.323v6.655h191.686v-6.655z" opacity=".1"/>
        <path fill="#D6D6E3" d="M376.863 175.986H159.464v6.656h217.399v-6.656zM216.306 60.21c-.994 0-1.86-.217-2.597-.651-.737-.439-1.304-1.055-1.701-1.848-.392-.793-.588-1.71-.588-2.751 0-1.04.196-1.958.588-2.751.397-.793.964-1.407 1.701-1.841.737-.439 1.603-.658 2.597-.658.761 0 1.447.128 2.058.385.611.257 1.129.625 1.554 1.106.429.476.751 1.043.966 1.701l-1.918.532c-.191-.62-.511-1.097-.959-1.428-.448-.336-1.015-.504-1.701-.504-.63 0-1.16.142-1.589.427-.429.28-.754.679-.973 1.197-.215.513-.322 1.125-.322 1.834 0 .71.107 1.323.322 1.841.219.513.544.912.973 1.197.429.28.959.42 1.589.42.686 0 1.253-.166 1.701-.497.448-.336.768-.814.959-1.435l1.918.532c-.215.658-.537 1.227-.966 1.708-.425.476-.943.842-1.554 1.099-.611.257-1.297.385-2.058.385z"/>
    </g>
    <path fill="#D6D6E3" d="M43.306 157.21c-.994 0-1.86-.217-2.597-.651-.737-.439-1.304-1.055-1.701-1.848-.392-.793-.588-1.71-.588-2.751s.196-1.958.588-2.751c.397-.793.964-1.407 1.701-1.841.737-.439 1.603-.658 2.597-.658s1.86.219 2.597.658c.737.434 1.302 1.048 1.694 1.841.397.793.595 1.71.595 2.751s-.198 1.958-.595 2.751c-.392.793-.957 1.409-1.694 1.848-.737.434-1.603.651-2.597.651zm0-1.792c.625.009 1.153-.126 1.582-.406.43-.285.751-.686.966-1.204.215-.523.322-1.139.322-1.848 0-1.073-.243-1.913-.728-2.52-.485-.611-1.2-.924-2.142-.938-.625-.009-1.153.128-1.582.413-.43.28-.751.681-.966 1.204-.215.518-.322 1.132-.322 1.841 0 1.073.243 1.916.728 2.527.485.607 1.2.917 2.142.931zm9.615-6.188c.71 0 1.335.17 1.876.511.546.341.966.814 1.26 1.421.299.607.448 1.293.448 2.058 0 .751-.147 1.43-.44 2.037-.29.607-.7 1.085-1.233 1.435-.527.345-1.131.518-1.813.518-.69 0-1.292-.161-1.806-.483v3.633h-1.918v-10.92h1.68v.42c.537-.42 1.186-.63 1.946-.63zm-.21 6.286c.588 0 1.032-.212 1.33-.637.299-.429.448-.982.448-1.659 0-.434-.067-.824-.203-1.169-.135-.345-.34-.618-.616-.819-.275-.205-.618-.308-1.029-.308-.574 0-.996.203-1.267.609-.266.406-.399.968-.399 1.687 0 1.531.579 2.296 1.736 2.296zm6.686-1.764c.07.541.254.957.553 1.246.303.289.709.434 1.218.434.368 0 .686-.082.952-.245.27-.163.476-.399.616-.707l1.904.546c-.187.453-.45.845-.791 1.176-.341.327-.733.576-1.176.749-.444.173-.908.259-1.393.259-.766 0-1.447-.166-2.044-.497-.593-.331-1.057-.793-1.393-1.386-.332-.593-.497-1.262-.497-2.009 0-.812.16-1.526.483-2.142.326-.621.779-1.099 1.358-1.435.578-.341 1.239-.511 1.98-.511.729 0 1.361.161 1.898.483.536.322.947.779 1.232 1.372.289.593.434 1.288.434 2.086 0 .126-.01.32-.028.581h-5.306zm1.855-2.87c-1.004 0-1.606.485-1.806 1.456h3.332c-.066-.509-.222-.877-.47-1.106-.242-.233-.594-.35-1.056-.35zm7.243-1.078c.425-.261.929-.392 1.512-.392.159 0 .304.009.434.028v1.778c-.144-.047-.324-.07-.539-.07-.354 0-.67.065-.945.196-.336.154-.592.383-.77.686-.177.303-.266.672-.266 1.106V157h-1.918v-7.56h1.68v1.218c.21-.378.48-.663.812-.854zm8.895.798c.135.252.22.509.252.77.037.257.056.593.056 1.008V157h-1.666v-.924c-.336.401-.705.691-1.106.868-.401.177-.891.266-1.47.266-.523 0-.975-.1-1.358-.301-.378-.205-.667-.483-.868-.833-.196-.35-.294-.737-.294-1.162 0-.551.128-1.015.385-1.393.257-.378.68-.674 1.267-.889.327-.121.726-.224 1.197-.308.471-.089 1.15-.198 2.037-.329-.037-.355-.168-.614-.392-.777-.22-.168-.55-.252-.994-.252-.322 0-.628.075-.917.224-.29.149-.488.383-.595.7l-1.722-.546c.196-.653.565-1.169 1.106-1.547.541-.378 1.25-.567 2.128-.567 1.489 0 2.473.457 2.954 1.372zm-1.778 4.102c.121-.247.187-.637.196-1.169-.658.112-1.14.201-1.449.266-.308.065-.567.138-.777.217-.275.112-.476.238-.602.378-.121.135-.182.299-.182.49 0 .257.093.46.28.609.191.145.453.217.784.217.322 0 .604-.056.847-.168.243-.117.436-.252.581-.406.15-.154.257-.299.322-.434zm5.978-1.022v.399c0 .243.01.439.028.588.019.149.06.273.126.371.192.303.57.455 1.134.455.215 0 .513-.026.896-.077V157c-.485.089-.938.133-1.358.133-.57 0-1.064-.084-1.484-.252-.42-.173-.733-.446-.938-.819-.126-.233-.21-.471-.252-.714-.042-.243-.063-.53-.063-.861l.007-.693v-2.884h-1.288v-1.47h1.288v-2.1h1.904v2.1h2.184v1.47H81.59v2.772zm3.729-6.972h1.904v1.68h-1.904v-1.68zm0 2.73h1.904V157h-1.904v-7.56zm7.852-.224c.887 0 1.547.226 1.981.679.44.453.71.931.813 1.435.107.504.16.98.16 1.428V157h-1.931v-3.57c0-.383-.029-.742-.085-1.078-.055-.336-.205-.644-.447-.924-.239-.28-.603-.42-1.093-.42-.438 0-.816.152-1.133.455-.318.299-.477.866-.477 1.701V157h-1.931v-7.56h1.694v.777c.284-.317.632-.562 1.043-.735.41-.177.88-.266 1.406-.266zm11.267.224v8.078c0 .397-.037.737-.112 1.022-.177.667-.576 1.171-1.197 1.512-.616.345-1.36.518-2.233.518-.635 0-1.223-.149-1.764-.448-.541-.299-.957-.695-1.246-1.19l1.764-.854c.116.219.287.387.511.504.229.121.478.182.749.182.294 0 .565-.049.812-.147.252-.098.453-.243.602-.434.149-.191.219-.422.21-.693v-.763c-.513.322-1.115.483-1.806.483-.681 0-1.288-.173-1.82-.518-.528-.35-.938-.828-1.232-1.435-.29-.607-.434-1.286-.434-2.037 0-.765.147-1.451.44-2.058.3-.607.72-1.08 1.26-1.421.547-.341 1.175-.511 1.884-.511.761 0 1.409.21 1.946.63v-.42h1.666zm-3.402 6.076c1.157 0 1.736-.765 1.736-2.296 0-.719-.135-1.281-.406-1.687-.266-.406-.686-.609-1.26-.609-.411 0-.754.103-1.029.308-.275.201-.48.474-.616.819-.135.345-.203.735-.203 1.169 0 .677.15 1.23.448 1.659.299.425.742.637 1.33.637zm11.413 1.694c-.742 0-1.416-.133-2.023-.399-.602-.266-1.094-.646-1.477-1.141s-.625-1.078-.728-1.75l1.988-.294c.093.378.254.705.483.98.229.271.504.476.826.616.327.14.679.21 1.057.21.322 0 .63-.049.924-.147.294-.103.532-.252.714-.448.187-.196.28-.427.28-.693 0-.224-.072-.42-.217-.588-.145-.168-.399-.308-.763-.42l-2.618-.77c-.383-.107-.735-.245-1.057-.413-.317-.168-.602-.434-.854-.798-.247-.364-.371-.838-.371-1.421 0-.653.166-1.206.497-1.659.331-.457.782-.798 1.351-1.022.569-.224 1.209-.334 1.918-.329 1.05.014 1.923.275 2.618.784.7.504 1.171 1.227 1.414 2.17l-2.058.35c-.075-.327-.217-.604-.427-.833-.205-.229-.453-.401-.742-.518-.285-.117-.588-.175-.91-.175-.294 0-.567.047-.819.14-.252.093-.455.226-.609.399-.154.173-.231.371-.231.595 0 .294.121.52.364.679.243.159.569.292.98.399l1.75.476c.499.135.94.292 1.323.469.387.177.728.457 1.022.84.294.383.441.884.441 1.505 0 .691-.189 1.279-.567 1.764-.373.481-.868.842-1.484 1.085-.616.238-1.281.357-1.995.357zm10.264-7.77h1.904l-4.27 10.92h-1.764l1.246-3.423-3.052-7.497h1.974l1.988 5.145 1.974-5.145zm5.562 7.77c-.952 0-1.722-.215-2.31-.644-.583-.429-.938-1.041-1.064-1.834l1.946-.294c.08.359.255.639.525.84.276.196.623.294 1.043.294.341 0 .605-.065.791-.196.192-.135.287-.322.287-.56 0-.159-.039-.28-.119-.364-.074-.089-.233-.175-.476-.259-.238-.084-.646-.203-1.225-.357-.625-.159-1.12-.336-1.484-.532-.364-.196-.627-.429-.791-.7-.163-.271-.245-.602-.245-.994 0-.481.124-.901.371-1.26.248-.359.598-.635 1.05-.826.453-.196.983-.294 1.589-.294.588 0 1.111.091 1.568.273.462.182.833.443 1.113.784.285.336.46.73.525 1.183l-1.946.35c-.032-.28-.154-.502-.364-.665-.21-.163-.494-.259-.854-.287l-.147-.007c-.308 0-.555.058-.742.175-.182.117-.273.275-.273.476 0 .135.047.247.14.336.094.084.276.173.546.266.271.089.714.21 1.33.364.579.149 1.041.324 1.386.525.346.196.598.432.756.707.159.275.238.611.238 1.008 0 .513-.126.959-.378 1.337-.252.373-.616.66-1.092.861-.476.196-1.04.294-1.694.294zm6.774-3.528v.399c0 .243.01.439.028.588.019.149.061.273.126.371.192.303.57.455 1.134.455.215 0 .514-.026.896-.077V157c-.485.089-.938.133-1.358.133-.569 0-1.064-.084-1.484-.252-.42-.173-.732-.446-.938-.819-.126-.233-.21-.471-.252-.714-.042-.243-.063-.53-.063-.861l.007-.693v-2.884h-1.288v-1.47h1.288v-2.1h1.904v2.1h2.184v1.47h-2.184v2.772zm4.796.07c.07.541.255.957.553 1.246.304.289.71.434 1.218.434.369 0 .686-.082.952-.245.271-.163.476-.399.616-.707l1.904.546c-.186.453-.45.845-.791 1.176-.34.327-.732.576-1.176.749-.443.173-.907.259-1.393.259-.765 0-1.446-.166-2.044-.497-.592-.331-1.057-.793-1.393-1.386-.331-.593-.497-1.262-.497-2.009 0-.812.161-1.526.483-2.142.327-.621.78-1.099 1.358-1.435.579-.341 1.239-.511 1.981-.511.728 0 1.361.161 1.897.483.537.322.948.779 1.232 1.372.29.593.434 1.288.434 2.086 0 .126-.009.32-.028.581h-5.306zm1.855-2.87c-1.003 0-1.605.485-1.806 1.456h3.332c-.065-.509-.221-.877-.469-1.106-.242-.233-.595-.35-1.057-.35zm12.933-1.624c.564 0 1.043.114 1.435.343.392.229.686.553.882.973.2.415.301.901.301 1.456V157h-1.904v-4.466c0-.495-.119-.882-.357-1.162-.234-.28-.558-.42-.973-.42-.262 0-.493.063-.693.189-.196.121-.35.294-.462.518-.108.219-.161.474-.161.763V157h-1.904v-4.466c0-.495-.119-.882-.357-1.162-.234-.28-.558-.42-.973-.42-.262 0-.493.063-.693.189-.196.121-.35.294-.462.518-.108.219-.161.474-.161.763V157h-1.918v-7.56h1.68v.826c.256-.317.576-.565.959-.742.387-.177.805-.266 1.253-.266.522 0 .968.105 1.337.315.368.205.655.492.861.861.247-.369.574-.656.98-.861.406-.21.849-.315 1.33-.315zm7.112 7.952c-.952 0-1.722-.215-2.31-.644-.583-.429-.938-1.041-1.064-1.834l1.946-.294c.079.359.254.639.525.84.275.196.623.294 1.043.294.341 0 .604-.065.791-.196.191-.135.287-.322.287-.56 0-.159-.04-.28-.119-.364-.075-.089-.233-.175-.476-.259-.238-.084-.646-.203-1.225-.357-.625-.159-1.12-.336-1.484-.532-.364-.196-.628-.429-.791-.7-.163-.271-.245-.602-.245-.994 0-.481.124-.901.371-1.26s.597-.635 1.05-.826c.453-.196.982-.294 1.589-.294.588 0 1.111.091 1.568.273.462.182.833.443 1.113.784.285.336.46.73.525 1.183l-1.946.35c-.033-.28-.154-.502-.364-.665-.21-.163-.495-.259-.854-.287l-.147-.007c-.308 0-.555.058-.742.175-.182.117-.273.275-.273.476 0 .135.047.247.14.336.093.084.275.173.546.266.271.089.714.21 1.33.364.579.149 1.041.324 1.386.525.345.196.597.432.756.707.159.275.238.611.238 1.008 0 .513-.126.959-.378 1.337-.252.373-.616.66-1.092.861-.476.196-1.041.294-1.694.294zM48.385 81.92c.322 0 .602.019.84.056.872.135 1.523.495 1.953 1.078.434.579.65 1.311.65 2.198 0 .882-.216 1.615-.65 2.198-.434.583-1.085.943-1.953 1.078-.238.037-.518.056-.84.056h-2.352V92h-1.904V81.92h4.256zm-.084 4.886c.266 0 .48-.023.644-.07.35-.093.597-.28.742-.56.15-.285.224-.593.224-.924 0-.331-.075-.637-.224-.917-.145-.285-.392-.474-.742-.567-.164-.047-.378-.07-.644-.07h-2.268v3.108H48.3zm7.145-2.002c.425-.261.929-.392 1.512-.392.159 0 .304.01.434.028v1.778c-.144-.047-.324-.07-.539-.07-.354 0-.67.065-.945.196-.336.154-.592.383-.77.686-.177.303-.266.672-.266 1.106V92h-1.918v-7.56h1.68v1.218c.21-.378.48-.663.812-.854zm6.263 7.406c-.751 0-1.416-.168-1.995-.504-.579-.34-1.029-.812-1.351-1.414-.317-.607-.476-1.297-.476-2.072 0-.78.161-1.47.483-2.072.327-.607.78-1.078 1.358-1.414.583-.336 1.244-.504 1.981-.504.751 0 1.416.17 1.995.511.583.336 1.036.807 1.358 1.414.322.607.483 1.295.483 2.065 0 .775-.163 1.465-.49 2.072-.322.602-.775 1.073-1.358 1.414-.579.336-1.241.504-1.988.504zm0-1.778c.593 0 1.043-.2 1.351-.602.313-.401.469-.938.469-1.61 0-.686-.156-1.225-.469-1.617-.313-.397-.763-.595-1.351-.595-.602 0-1.055.198-1.358.595-.299.392-.448.931-.448 1.617 0 .69.154 1.232.462 1.624.313.392.76.588 1.344.588zm8.707-6.202c.71 0 1.335.17 1.876.511.546.34.966.814 1.26 1.421.299.607.448 1.293.448 2.058 0 .751-.147 1.43-.44 2.037-.29.607-.7 1.085-1.233 1.435-.527.345-1.131.518-1.813.518-.798 0-1.479-.215-2.044-.644V92h-1.68V81.92h1.918v2.772c.49-.308 1.06-.462 1.708-.462zm-.21 6.286c.588 0 1.032-.212 1.33-.637.299-.43.448-.982.448-1.659 0-.434-.067-.824-.203-1.169-.135-.345-.34-.618-.616-.819-.275-.205-.618-.308-1.029-.308-.574 0-.996.203-1.267.609-.266.406-.399.968-.399 1.687 0 1.53.579 2.296 1.736 2.296zm5.195-8.806h1.904V92H75.4V81.71zm5.353 7.042c.07.541.255.957.553 1.246.304.29.71.434 1.218.434.369 0 .686-.082.952-.245.27-.163.476-.399.616-.707l1.904.546c-.186.453-.45.845-.79 1.176-.341.327-.733.576-1.177.749-.443.173-.907.259-1.393.259-.765 0-1.446-.166-2.044-.497-.592-.331-1.057-.793-1.393-1.386-.331-.593-.497-1.262-.497-2.009 0-.812.161-1.526.483-2.142.327-.62.78-1.099 1.358-1.435.579-.34 1.24-.511 1.981-.511.728 0 1.36.161 1.897.483.537.322.948.78 1.232 1.372.29.593.434 1.288.434 2.086 0 .126-.01.32-.028.581h-5.306zm1.855-2.87c-1.003 0-1.605.485-1.806 1.456h3.332c-.065-.509-.221-.877-.469-1.106-.242-.233-.595-.35-1.057-.35zm12.933-1.624c.564 0 1.043.114 1.435.343.392.229.686.553.882.973.2.415.3.9.3 1.456V92h-1.903v-4.466c0-.495-.12-.882-.357-1.162-.234-.28-.558-.42-.973-.42-.262 0-.493.063-.693.189-.196.121-.35.294-.462.518-.108.22-.161.474-.161.763V92h-1.904v-4.466c0-.495-.12-.882-.357-1.162-.234-.28-.558-.42-.973-.42-.262 0-.493.063-.693.189-.196.121-.35.294-.462.518-.108.22-.161.474-.161.763V92h-1.918v-7.56h1.68v.826c.256-.317.576-.565.959-.742.387-.177.805-.266 1.253-.266.522 0 .968.105 1.337.315.368.205.655.492.86.861.248-.369.575-.656.98-.861.407-.21.85-.315 1.33-.315zM53.419 107.21c-.742 0-1.416-.133-2.023-.399-.602-.266-1.094-.646-1.477-1.141s-.625-1.078-.728-1.75l1.988-.294c.093.378.255.705.483.98.229.271.504.476.826.616.327.14.68.21 1.057.21.322 0 .63-.049.924-.147.294-.103.532-.252.714-.448.187-.196.28-.427.28-.693 0-.224-.072-.42-.217-.588-.145-.168-.399-.308-.763-.42l-2.618-.77c-.383-.107-.735-.245-1.057-.413-.317-.168-.602-.434-.854-.798-.247-.364-.37-.838-.37-1.421 0-.653.165-1.206.496-1.659.331-.457.782-.798 1.351-1.022.57-.224 1.209-.334 1.918-.329 1.05.014 1.923.275 2.618.784.7.504 1.172 1.227 1.414 2.17l-2.058.35c-.075-.327-.217-.604-.427-.833-.205-.229-.453-.401-.742-.518-.285-.117-.588-.175-.91-.175-.294 0-.567.047-.819.14-.252.093-.455.226-.609.399-.154.173-.23.371-.23.595 0 .294.12.52.363.679.243.159.57.292.98.399l1.75.476c.5.135.94.292 1.323.469.387.177.728.457 1.022.84.294.383.441.884.441 1.505 0 .691-.189 1.279-.567 1.764-.373.481-.868.842-1.484 1.085-.616.238-1.28.357-1.995.357zm8.707 0c-.752 0-1.417-.168-1.995-.504-.579-.341-1.03-.812-1.351-1.414-.318-.607-.476-1.297-.476-2.072 0-.779.16-1.47.483-2.072.326-.607.78-1.078 1.358-1.414.583-.336 1.243-.504 1.98-.504.752 0 1.417.17 1.996.511.583.336 1.036.807 1.358 1.414.322.607.483 1.295.483 2.065 0 .775-.164 1.465-.49 2.072-.322.602-.775 1.073-1.358 1.414-.579.336-1.242.504-1.988.504zm0-1.778c.592 0 1.043-.201 1.35-.602.313-.401.47-.938.47-1.61 0-.686-.157-1.225-.47-1.617-.312-.397-.762-.595-1.35-.595-.602 0-1.055.198-1.358.595-.299.392-.448.931-.448 1.617 0 .691.154 1.232.462 1.624.312.392.76.588 1.344.588zm5.235-8.722h1.904V107h-1.904V96.71zm3.023 2.73h1.904l1.792 5.236 1.792-5.236h1.904L75.032 107h-1.904l-2.744-7.56zm8.517-2.73h1.904v1.68H78.9v-1.68zm0 2.73h1.904V107H78.9v-7.56zm7.852-.224c.887 0 1.547.226 1.981.679.439.453.71.931.812 1.435.108.504.161.98.161 1.428V107h-1.932v-3.57c0-.383-.028-.742-.084-1.078-.056-.336-.205-.644-.448-.924-.238-.28-.602-.42-1.092-.42-.438 0-.816.152-1.134.455-.317.299-.476.866-.476 1.701V107H82.61v-7.56h1.694v.777c.285-.317.633-.562 1.043-.735.41-.177.88-.266 1.407-.266zm11.267.224v8.078c0 .397-.038.737-.112 1.022-.178.667-.577 1.171-1.197 1.512-.616.345-1.36.518-2.233.518-.635 0-1.223-.149-1.764-.448-.542-.299-.957-.695-1.246-1.19l1.764-.854c.116.219.287.387.51.504.23.121.479.182.75.182.294 0 .564-.049.812-.147.252-.098.452-.243.602-.434.149-.191.219-.422.21-.693v-.763c-.514.322-1.116.483-1.806.483-.682 0-1.288-.173-1.82-.518-.528-.35-.938-.828-1.232-1.435-.29-.607-.434-1.286-.434-2.037 0-.765.147-1.451.44-2.058.3-.607.72-1.08 1.26-1.421.547-.34 1.174-.511 1.884-.511.76 0 1.409.21 1.946.63v-.42h1.666zm-3.402 6.076c1.157 0 1.736-.765 1.736-2.296 0-.719-.136-1.281-.406-1.687-.266-.406-.686-.609-1.26-.609-.411 0-.754.103-1.03.308-.275.201-.48.474-.615.819-.136.345-.203.735-.203 1.169 0 .677.149 1.23.448 1.659.298.425.742.637 1.33.637zM71.242 33.92c.495 0 .896.019 1.204.056.789.093 1.468.371 2.037.833.574.462 1.01 1.055 1.309 1.778.299.719.448 1.51.448 2.373 0 .863-.15 1.657-.448 2.38-.299.719-.735 1.309-1.309 1.771-.57.462-1.248.74-2.037.833-.308.037-.71.056-1.204.056H67.98V33.92h3.262zm0 8.288c.495 0 .859-.023 1.092-.07.42-.084.77-.282 1.05-.595.285-.317.495-.7.63-1.148.14-.453.21-.931.21-1.435 0-.518-.072-1.003-.217-1.456-.14-.453-.352-.833-.637-1.141-.28-.308-.625-.502-1.036-.581-.233-.047-.597-.07-1.092-.07h-1.33v6.496h1.33zm12.431-4.606c.136.252.22.509.252.77.038.257.056.593.056 1.008V44h-1.665v-.924c-.337.401-.705.69-1.106.868-.402.177-.892.266-1.47.266-.523 0-.976-.1-1.358-.301-.379-.205-.668-.483-.869-.833-.196-.35-.294-.737-.294-1.162 0-.55.129-1.015.386-1.393.256-.378.678-.674 1.266-.889.327-.121.726-.224 1.198-.308.47-.089 1.15-.198 2.037-.329-.038-.355-.168-.614-.392-.777-.22-.168-.551-.252-.995-.252-.322 0-.627.075-.916.224-.29.15-.488.383-.596.7l-1.721-.546c.195-.653.564-1.169 1.105-1.547.542-.378 1.251-.567 2.129-.567 1.488 0 2.473.457 2.954 1.372zm-1.778 4.102c.122-.247.187-.637.197-1.169-.659.112-1.141.2-1.45.266-.307.065-.566.138-.776.217-.276.112-.477.238-.603.378-.12.135-.181.299-.181.49 0 .257.093.46.28.609.19.145.452.217.784.217.322 0 .604-.056.847-.168.242-.117.436-.252.58-.406.15-.154.257-.299.323-.434zm5.979-1.022v.399c0 .243.009.439.028.588.018.15.06.273.126.371.19.303.569.455 1.134.455.214 0 .513-.026.896-.077V44c-.486.089-.938.133-1.358.133-.57 0-1.064-.084-1.484-.252-.42-.173-.733-.446-.938-.819-.126-.233-.21-.471-.252-.714-.042-.243-.063-.53-.063-.861l.007-.693V37.91h-1.288v-1.47h1.288v-2.1h1.904v2.1h2.184v1.47h-2.184v2.772zm9.622-3.08c.136.252.22.509.252.77.038.257.056.593.056 1.008V44h-1.666v-.924c-.336.401-.704.69-1.106.868-.401.177-.891.266-1.47.266-.522 0-.975-.1-1.358-.301-.378-.205-.667-.483-.868-.833-.196-.35-.294-.737-.294-1.162 0-.55.129-1.015.385-1.393.257-.378.68-.674 1.267-.889.327-.121.726-.224 1.197-.308.472-.089 1.15-.198 2.037-.329-.037-.355-.168-.614-.392-.777-.22-.168-.55-.252-.994-.252-.322 0-.627.075-.917.224-.29.15-.487.383-.595.7l-1.722-.546c.196-.653.565-1.169 1.106-1.547.542-.378 1.25-.567 2.128-.567 1.489 0 2.474.457 2.954 1.372zm-1.778 4.102c.122-.247.187-.637.196-1.169-.658.112-1.14.2-1.449.266-.308.065-.567.138-.777.217-.275.112-.476.238-.602.378-.121.135-.182.299-.182.49 0 .257.094.46.28.609.192.145.453.217.784.217.322 0 .605-.056.847-.168.243-.117.437-.252.581-.406.15-.154.257-.299.322-.434zm9.957 2.506c-.742 0-1.416-.133-2.023-.399-.602-.266-1.094-.646-1.477-1.141s-.625-1.078-.728-1.75l1.988-.294c.093.378.254.705.483.98.229.27.504.476.826.616.327.14.679.21 1.057.21.322 0 .63-.049.924-.147.294-.103.532-.252.714-.448.187-.196.28-.427.28-.693 0-.224-.072-.42-.217-.588-.145-.168-.399-.308-.763-.42l-2.618-.77c-.383-.107-.735-.245-1.057-.413-.317-.168-.602-.434-.854-.798-.247-.364-.371-.838-.371-1.421 0-.653.166-1.206.497-1.659.331-.457.782-.798 1.351-1.022.569-.224 1.209-.334 1.918-.329 1.05.014 1.923.275 2.618.784.7.504 1.171 1.227 1.414 2.17l-2.058.35c-.075-.327-.217-.604-.427-.833-.205-.229-.453-.401-.742-.518-.285-.117-.588-.175-.91-.175-.294 0-.567.047-.819.14-.252.093-.455.226-.609.399-.154.173-.231.371-.231.595 0 .294.121.52.364.679.243.159.569.292.98.399l1.75.476c.499.135.94.292 1.323.469.387.177.728.457 1.022.84.294.383.441.884.441 1.505 0 .69-.189 1.279-.567 1.764-.373.48-.868.842-1.484 1.085-.616.238-1.281.357-1.995.357zm7.657-3.528v.399c0 .243.009.439.028.588.018.15.06.273.126.371.191.303.569.455 1.134.455.214 0 .513-.026.896-.077V44c-.486.089-.938.133-1.358.133-.57 0-1.064-.084-1.484-.252-.42-.173-.733-.446-.938-.819-.126-.233-.21-.471-.252-.714-.042-.243-.063-.53-.063-.861l.007-.693V37.91h-1.288v-1.47h1.288v-2.1h1.904v2.1h2.184v1.47h-2.184v2.772zm6.08-3.878c.425-.261.929-.392 1.512-.392.159 0 .304.01.434.028v1.778c-.144-.047-.324-.07-.539-.07-.354 0-.669.065-.945.196-.336.154-.592.383-.77.686-.177.303-.266.672-.266 1.106V44h-1.918v-7.56h1.68v1.218c.21-.378.481-.663.812-.854zm9.942-.364V44h-1.68v-.777c-.285.317-.632.565-1.043.742-.411.173-.88.259-1.407.259-.887 0-1.549-.226-1.988-.679-.434-.453-.705-.931-.812-1.435-.103-.504-.154-.98-.154-1.428V36.44h1.932v3.57c0 .383.028.742.084 1.078.056.336.203.644.441.924.243.28.609.42 1.099.42.439 0 .817-.15 1.134-.448.317-.303.476-.873.476-1.708V36.44h1.918zm5.008 7.77c-.765 0-1.432-.173-2.002-.518-.564-.345-.998-.819-1.302-1.421-.298-.607-.448-1.29-.448-2.051 0-.765.154-1.449.462-2.051.313-.607.754-1.08 1.323-1.421.574-.345 1.239-.518 1.995-.518.588 0 1.118.103 1.589.308.476.2.868.492 1.176.875.313.378.525.824.637 1.337l-1.904.504c-.112-.387-.305-.69-.581-.91-.275-.224-.59-.336-.945-.336-.578 0-1.012.203-1.302.609-.289.406-.434.94-.434 1.603 0 .677.15 1.216.448 1.617.299.397.728.595 1.288.595.411 0 .731-.093.959-.28.234-.187.409-.471.525-.854l1.946.406c-.214.803-.62 1.421-1.218 1.855-.597.434-1.334.651-2.212.651zm6.902-3.528v.399c0 .243.01.439.028.588.019.15.061.273.126.371.192.303.57.455 1.134.455.215 0 .514-.026.896-.077V44c-.485.089-.938.133-1.358.133-.569 0-1.064-.084-1.484-.252-.42-.173-.732-.446-.938-.819-.126-.233-.21-.471-.252-.714-.042-.243-.063-.53-.063-.861l.007-.693V37.91h-1.288v-1.47h1.288v-2.1h1.904v2.1h2.184v1.47h-2.184v2.772zm10.533-4.242V44h-1.68v-.777c-.285.317-.632.565-1.043.742-.411.173-.88.259-1.407.259-.887 0-1.549-.226-1.988-.679-.434-.453-.705-.931-.812-1.435-.103-.504-.154-.98-.154-1.428V36.44h1.932v3.57c0 .383.028.742.084 1.078.056.336.203.644.441.924.243.28.609.42 1.099.42.439 0 .817-.15 1.134-.448.317-.303.476-.873.476-1.708V36.44h1.918zm4.169.364c.424-.261.928-.392 1.512-.392.158 0 .303.01.434.028v1.778c-.145-.047-.325-.07-.539-.07-.355 0-.67.065-.945.196-.336.154-.593.383-.77.686-.178.303-.266.672-.266 1.106V44h-1.918v-7.56h1.68v1.218c.21-.378.48-.663.812-.854zm4.491 3.948c.07.541.255.957.553 1.246.304.29.71.434 1.218.434.369 0 .686-.082.952-.245.271-.163.476-.399.616-.707l1.904.546c-.186.453-.45.845-.791 1.176-.34.327-.732.576-1.176.749-.443.173-.907.259-1.393.259-.765 0-1.446-.166-2.044-.497-.592-.331-1.057-.793-1.393-1.386-.331-.593-.497-1.262-.497-2.009 0-.812.161-1.526.483-2.142.327-.62.78-1.099 1.358-1.435.579-.34 1.239-.511 1.981-.511.728 0 1.361.161 1.897.483.537.322.948.78 1.232 1.372.29.593.434 1.288.434 2.086 0 .126-.009.32-.028.581h-5.306zm1.855-2.87c-1.003 0-1.605.485-1.806 1.456h3.332c-.065-.509-.221-.877-.469-1.106-.242-.233-.595-.35-1.057-.35zm7.706 6.328c-.952 0-1.722-.215-2.31-.644-.583-.43-.938-1.04-1.064-1.834l1.946-.294c.079.36.254.64.525.84.275.196.623.294 1.043.294.341 0 .604-.065.791-.196.191-.135.287-.322.287-.56 0-.159-.04-.28-.119-.364-.075-.089-.233-.175-.476-.259-.238-.084-.646-.203-1.225-.357-.625-.159-1.12-.336-1.484-.532-.364-.196-.628-.43-.791-.7-.163-.27-.245-.602-.245-.994 0-.48.124-.9.371-1.26s.597-.635 1.05-.826c.453-.196.982-.294 1.589-.294.588 0 1.111.091 1.568.273.462.182.833.443 1.113.784.285.336.46.73.525 1.183l-1.946.35c-.033-.28-.154-.502-.364-.665-.21-.163-.495-.259-.854-.287l-.147-.007c-.308 0-.555.058-.742.175-.182.117-.273.275-.273.476 0 .135.047.247.14.336.093.084.275.173.546.266.271.089.714.21 1.33.364.579.15 1.041.324 1.386.525.345.196.597.432.756.707.159.275.238.611.238 1.008 0 .513-.126.959-.378 1.337-.252.373-.616.66-1.092.861-.476.196-1.041.294-1.694.294zM359.12 11.92h1.904v8.302h4.34V22h-6.244V11.92zm10.556 10.29c-.751 0-1.416-.168-1.995-.504-.578-.34-1.029-.812-1.351-1.414-.317-.607-.476-1.297-.476-2.072 0-.78.161-1.47.483-2.072.327-.607.78-1.078 1.358-1.414.584-.336 1.244-.504 1.981-.504.752 0 1.417.17 1.995.511.584.336 1.036.807 1.358 1.414.322.607.483 1.295.483 2.065 0 .775-.163 1.465-.49 2.072-.322.602-.774 1.073-1.358 1.414-.578.336-1.241.504-1.988.504zm0-1.778c.593 0 1.043-.2 1.351-.602.313-.401.469-.938.469-1.61 0-.686-.156-1.225-.469-1.617-.312-.397-.763-.595-1.351-.595-.602 0-1.054.198-1.358.595-.298.392-.448.931-.448 1.617 0 .69.154 1.232.462 1.624.313.392.761.588 1.344.588zm11.872-5.992v8.078c0 .397-.038.737-.112 1.022-.178.667-.577 1.171-1.197 1.512-.616.345-1.361.518-2.233.518-.635 0-1.223-.15-1.764-.448-.542-.299-.957-.695-1.246-1.19l1.764-.854c.116.22.287.387.511.504.228.121.478.182.749.182.294 0 .564-.049.812-.147.252-.098.452-.243.602-.434.149-.191.219-.422.21-.693v-.763c-.514.322-1.116.483-1.806.483-.682 0-1.288-.173-1.82-.518-.528-.35-.938-.828-1.232-1.435-.29-.607-.434-1.286-.434-2.037 0-.765.147-1.451.441-2.058.298-.607.718-1.08 1.26-1.421.546-.34 1.173-.511 1.883-.511.76 0 1.409.21 1.946.63v-.42h1.666zm-3.402 6.076c1.157 0 1.736-.765 1.736-2.296 0-.719-.136-1.281-.406-1.687-.266-.406-.686-.609-1.26-.609-.411 0-.754.103-1.029.308-.276.2-.481.474-.616.819-.136.345-.203.735-.203 1.169 0 .677.149 1.23.448 1.659.298.425.742.637 1.33.637zm5.222-8.806h1.904v1.68h-1.904v-1.68zm0 2.73h1.904V22h-1.904v-7.56zm7.054 7.77c-.765 0-1.432-.173-2.002-.518-.564-.345-.998-.819-1.302-1.421-.298-.607-.448-1.29-.448-2.051 0-.765.154-1.449.462-2.051.313-.607.754-1.08 1.323-1.421.574-.345 1.239-.518 1.995-.518.588 0 1.118.103 1.589.308.476.2.868.492 1.176.875.313.378.525.824.637 1.337l-1.904.504c-.112-.387-.305-.69-.581-.91-.275-.224-.59-.336-.945-.336-.578 0-1.012.203-1.302.609-.289.406-.434.94-.434 1.603 0 .677.15 1.216.448 1.617.299.397.728.595 1.288.595.411 0 .731-.093.959-.28.234-.187.409-.471.525-.854l1.946.406c-.214.803-.62 1.421-1.218 1.855-.597.434-1.334.651-2.212.651zm13.177-5.509c.458.191.808.49 1.05.896.243.401.364.852.364 1.351 0 .611-.114 1.146-.343 1.603-.224.457-.564.814-1.022 1.071-.452.252-1.015.378-1.687.378h-4.466V11.92h4.032c.682 0 1.249.138 1.701.413.453.275.787.628 1.001 1.057.215.43.322.882.322 1.358 0 .453-.084.845-.252 1.176-.163.331-.396.59-.7.777zm-4.172-.847h2.072c.341 0 .612-.089.812-.266.206-.177.308-.443.308-.798 0-.317-.098-.579-.294-.784-.196-.205-.471-.308-.826-.308h-2.072v2.156zm2.338 4.354c.257 0 .486-.054.686-.161.201-.112.357-.268.469-.469.117-.2.175-.434.175-.7 0-.373-.114-.674-.343-.903-.228-.229-.557-.343-.987-.343h-2.338v2.576h2.338zm11.308-5.768V22h-1.68v-.777c-.284.317-.632.565-1.043.742-.41.173-.879.259-1.407.259-.886 0-1.549-.226-1.988-.679-.434-.453-.704-.931-.812-1.435-.102-.504-.154-.98-.154-1.428V14.44h1.932v3.57c0 .383.028.742.084 1.078.056.336.203.644.441.924.243.28.609.42 1.099.42.439 0 .817-.15 1.134-.448.318-.303.476-.873.476-1.708V14.44h1.918zm1.817-2.73h1.904v1.68h-1.904v-1.68zm0 2.73h1.904V22h-1.904v-7.56zm3.862-2.73h1.904V22h-1.904V11.71zm10.513.21V22h-1.68v-.434c-.565.43-1.246.644-2.044.644-.681 0-1.288-.173-1.82-.518-.527-.35-.938-.828-1.232-1.435-.289-.607-.434-1.286-.434-2.037 0-.765.147-1.451.441-2.058.299-.607.719-1.08 1.26-1.421.546-.34 1.174-.511 1.883-.511.649 0 1.218.154 1.708.462V11.92h1.918zm-3.416 8.596c1.157 0 1.736-.765 1.736-2.296 0-.719-.135-1.281-.406-1.687-.266-.406-.686-.609-1.26-.609-.411 0-.754.103-1.029.308-.275.2-.481.474-.616.819s-.203.735-.203 1.169c0 .677.149 1.23.448 1.659.299.425.742.637 1.33.637zm5.236-8.806h1.904v1.68h-1.904v-1.68zm0 2.73h1.904V22h-1.904v-7.56zm7.852-.224c.887 0 1.547.226 1.981.679.439.453.71.931.812 1.435.108.504.161.98.161 1.428V22h-1.932v-3.57c0-.383-.028-.742-.084-1.078-.056-.336-.205-.644-.448-.924-.238-.28-.602-.42-1.092-.42-.438 0-.816.152-1.134.455-.317.299-.476.866-.476 1.701V22h-1.932v-7.56h1.694v.777c.285-.317.633-.562 1.043-.735.411-.177.88-.266 1.407-.266zm11.267.224v8.078c0 .397-.037.737-.112 1.022-.177.667-.576 1.171-1.197 1.512-.616.345-1.36.518-2.233.518-.635 0-1.223-.15-1.764-.448-.541-.299-.957-.695-1.246-1.19l1.764-.854c.117.22.287.387.511.504.229.121.478.182.749.182.294 0 .565-.049.812-.147.252-.098.453-.243.602-.434.149-.191.219-.422.21-.693v-.763c-.513.322-1.115.483-1.806.483-.681 0-1.288-.173-1.82-.518-.527-.35-.938-.828-1.232-1.435-.289-.607-.434-1.286-.434-2.037 0-.765.147-1.451.441-2.058.299-.607.719-1.08 1.26-1.421.546-.34 1.174-.511 1.883-.511.761 0 1.409.21 1.946.63v-.42h1.666zm-3.402 6.076c1.157 0 1.736-.765 1.736-2.296 0-.719-.135-1.281-.406-1.687-.266-.406-.686-.609-1.26-.609-.411 0-.754.103-1.029.308-.275.2-.481.474-.616.819s-.203.735-.203 1.169c0 .677.149 1.23.448 1.659.299.425.742.637 1.33.637zM287.306 27.21c-.994 0-1.86-.217-2.597-.651-.737-.439-1.304-1.055-1.701-1.848-.392-.793-.588-1.71-.588-2.751 0-1.04.196-1.958.588-2.751.397-.793.964-1.407 1.701-1.841.737-.439 1.603-.658 2.597-.658.761 0 1.447.128 2.058.385.611.257 1.129.625 1.554 1.106.429.476.751 1.043.966 1.701l-1.918.532c-.191-.62-.511-1.097-.959-1.428-.448-.336-1.015-.504-1.701-.504-.63 0-1.16.142-1.589.427-.429.28-.754.679-.973 1.197-.215.513-.322 1.125-.322 1.834 0 .71.107 1.323.322 1.841.219.513.544.912.973 1.197.429.28.959.42 1.589.42.686 0 1.253-.166 1.701-.497.448-.336.768-.814.959-1.435l1.918.532c-.215.658-.537 1.227-.966 1.708-.425.476-.943.842-1.554 1.099-.611.257-1.297.385-2.058.385zm8.121-4.522h-2.422v-1.47h2.422V18.81h1.47v2.408h2.408v1.47h-2.408v2.422h-1.47v-2.422zm7.705 0h-2.422v-1.47h2.422V18.81h1.47v2.408h2.408v1.47h-2.408v2.422h-1.47v-2.422zM417.236 93.92c.322 0 .602.019.84.056.873.135 1.524.495 1.953 1.078.434.579.651 1.311.651 2.198 0 .882-.217 1.615-.651 2.198-.434.583-1.085.943-1.953 1.078-.238.037-.518.056-.84.056h-2.352V104h-1.904V93.92h4.256zm-.084 4.886c.266 0 .481-.023.644-.07.35-.093.597-.28.742-.56.149-.285.224-.593.224-.924 0-.331-.075-.637-.224-.917-.145-.285-.392-.474-.742-.567-.163-.047-.378-.07-.644-.07h-2.268v3.108h2.268zm9.749-2.366h1.904l-4.27 10.92h-1.764l1.246-3.423-3.052-7.497h1.974l1.988 5.145 1.974-5.145zm5.521 4.242v.399c0 .243.01.439.028.588.019.149.061.273.126.371.192.303.57.455 1.134.455.215 0 .514-.026.896-.077V104c-.485.089-.938.133-1.358.133-.569 0-1.064-.084-1.484-.252-.42-.173-.732-.446-.938-.819-.126-.233-.21-.471-.252-.714-.042-.243-.063-.53-.063-.861l.007-.693V97.91h-1.288v-1.47h1.288v-2.1h1.904v2.1h2.184v1.47h-2.184v2.772zm7.719-4.466c.887 0 1.547.226 1.981.679.439.453.709.931.812 1.435.107.504.161.98.161 1.428V104h-1.932v-3.57c0-.383-.028-.742-.084-1.078-.056-.336-.205-.644-.448-.924-.238-.28-.602-.42-1.092-.42-.439 0-.817.152-1.134.455-.317.299-.476.866-.476 1.701V104h-1.932V93.92h1.694v3.297c.285-.317.632-.562 1.043-.735.411-.177.88-.266 1.407-.266zm7.892 7.994c-.751 0-1.416-.168-1.995-.504-.578-.341-1.029-.812-1.351-1.414-.317-.607-.476-1.297-.476-2.072 0-.78.161-1.47.483-2.072.327-.607.78-1.078 1.358-1.414.584-.336 1.244-.504 1.981-.504.752 0 1.417.17 1.995.511.584.336 1.036.807 1.358 1.414.322.607.483 1.295.483 2.065 0 .775-.163 1.465-.49 2.072-.322.602-.774 1.073-1.358 1.414-.578.336-1.241.504-1.988.504zm0-1.778c.593 0 1.043-.201 1.351-.602.313-.401.469-.938.469-1.61 0-.686-.156-1.225-.469-1.617-.312-.397-.763-.595-1.351-.595-.602 0-1.054.198-1.358.595-.298.392-.448.931-.448 1.617 0 .691.154 1.232.462 1.624.313.392.761.588 1.344.588zm9.226-6.216c.886 0 1.547.226 1.981.679.438.453.709.931.812 1.435.107.504.161.98.161 1.428V104h-1.932v-3.57c0-.383-.028-.742-.084-1.078-.056-.336-.206-.644-.448-.924-.238-.28-.602-.42-1.092-.42-.439 0-.817.152-1.134.455-.318.299-.476.866-.476 1.701V104h-1.932v-7.56h1.694v.777c.284-.317.632-.562 1.043-.735.41-.177.879-.266 1.407-.266zM393.094 207.21c-.789 0-1.447-.201-1.974-.602-.523-.401-.896-.961-1.12-1.68l1.876-.448c.028.168.098.327.21.476.117.145.257.261.42.35.168.084.336.126.504.126.196 0 .392-.051.588-.154.196-.107.336-.261.42-.462.051-.121.082-.266.091-.434.014-.173.021-.42.021-.742v-6.72h1.932v7.301c0 .355-.021.646-.063.875-.042.224-.133.457-.273.7-.28.481-.646.838-1.099 1.071-.448.229-.959.343-1.533.343zm10.818-6.608c.135.252.219.509.252.77.037.257.056.593.056 1.008V207h-1.666v-.924c-.336.401-.705.691-1.106.868-.402.177-.892.266-1.47.266-.523 0-.976-.1-1.358-.301-.378-.205-.668-.483-.868-.833-.196-.35-.294-.737-.294-1.162 0-.551.128-1.015.385-1.393.256-.378.679-.674 1.267-.889.326-.121.725-.224 1.197-.308.471-.089 1.15-.198 2.037-.329-.038-.355-.168-.614-.392-.777-.22-.168-.551-.252-.994-.252-.322 0-.628.075-.917.224-.29.149-.488.383-.595.7l-1.722-.546c.196-.653.564-1.169 1.106-1.547.541-.378 1.25-.567 2.128-.567 1.488 0 2.473.457 2.954 1.372zm-1.778 4.102c.121-.247.186-.637.196-1.169-.658.112-1.141.201-1.449.266-.308.065-.567.138-.777.217-.276.112-.476.238-.602.378-.122.135-.182.299-.182.49 0 .257.093.46.28.609.191.145.452.217.784.217.322 0 .604-.056.847-.168.242-.117.436-.252.581-.406.149-.154.256-.299.322-.434zm2.652-5.264h1.904l1.792 5.236 1.792-5.236h1.904l-2.744 7.56h-1.904l-2.744-7.56zm13.988 1.162c.135.252.219.509.252.77.037.257.056.593.056 1.008V207h-1.666v-.924c-.336.401-.705.691-1.106.868-.402.177-.892.266-1.47.266-.523 0-.976-.1-1.358-.301-.378-.205-.668-.483-.868-.833-.196-.35-.294-.737-.294-1.162 0-.551.128-1.015.385-1.393.256-.378.679-.674 1.267-.889.326-.121.725-.224 1.197-.308.471-.089 1.15-.198 2.037-.329-.038-.355-.168-.614-.392-.777-.22-.168-.551-.252-.994-.252-.322 0-.628.075-.917.224-.29.149-.488.383-.595.7l-1.722-.546c.196-.653.564-1.169 1.106-1.547.541-.378 1.25-.567 2.128-.567 1.488 0 2.473.457 2.954 1.372zm-1.778 4.102c.121-.247.186-.637.196-1.169-.658.112-1.141.201-1.449.266-.308.065-.567.138-.777.217-.276.112-.476.238-.602.378-.122.135-.182.299-.182.49 0 .257.093.46.28.609.191.145.452.217.784.217.322 0 .604-.056.847-.168.242-.117.436-.252.581-.406.149-.154.256-.299.322-.434zM100.322 195l-.651-2.1h-3.794l-.637 2.1h-1.96l3.08-10.08h2.842l3.08 10.08h-1.96zm-3.906-3.878h2.709l-1.365-4.417-1.344 4.417zm6.981-6.202h1.904V195h-1.904v-10.08zm10.697 0L111.406 195h-1.904l2.688-10.08h1.904zm4.066 0h1.708l3.332 6.692 3.332-6.692h1.708V195h-1.778v-6.02l-2.926 6.02h-.672l-2.926-6.02V195h-1.778v-10.08zm11.905 0h1.904v8.302h4.34V195h-6.244v-10.08zM392.322 149l-.651-2.1h-3.794l-.637 2.1h-1.96l3.08-10.08h2.842l3.08 10.08h-1.96zm-3.906-3.878h2.709l-1.365-4.417-1.344 4.417zm6.981-6.412h1.904V149h-1.904v-10.29zm10.498 2.73v8.078c0 .397-.037.737-.112 1.022-.177.667-.576 1.171-1.197 1.512-.616.345-1.36.518-2.233.518-.634 0-1.222-.149-1.764-.448-.541-.299-.956-.695-1.246-1.19l1.764-.854c.117.219.287.387.511.504.229.121.479.182.749.182.294 0 .565-.049.812-.147.252-.098.453-.243.602-.434.15-.191.22-.422.21-.693v-.763c-.513.322-1.115.483-1.806.483-.681 0-1.288-.173-1.82-.518-.527-.35-.938-.828-1.232-1.435-.289-.607-.434-1.286-.434-2.037 0-.765.147-1.451.441-2.058.299-.607.719-1.08 1.26-1.421.546-.341 1.174-.511 1.883-.511.761 0 1.41.21 1.946.63v-.42h1.666zm-3.402 6.076c1.158 0 1.736-.765 1.736-2.296 0-.719-.135-1.281-.406-1.687-.266-.406-.686-.609-1.26-.609-.41 0-.753.103-1.029.308-.275.201-.48.474-.616.819-.135.345-.203.735-.203 1.169 0 .677.15 1.23.448 1.659.299.425.742.637 1.33.637zm8.485 1.694c-.752 0-1.417-.168-1.995-.504-.579-.341-1.029-.812-1.351-1.414-.318-.607-.476-1.297-.476-2.072 0-.779.161-1.47.483-2.072.326-.607.779-1.078 1.358-1.414.583-.336 1.243-.504 1.981-.504.751 0 1.416.17 1.995.511.583.336 1.036.807 1.358 1.414.322.607.483 1.295.483 2.065 0 .775-.164 1.465-.49 2.072-.322.602-.775 1.073-1.358 1.414-.579.336-1.242.504-1.988.504zm0-1.778c.592 0 1.043-.201 1.351-.602.312-.401.469-.938.469-1.61 0-.686-.157-1.225-.469-1.617-.313-.397-.763-.595-1.351-.595-.602 0-1.055.198-1.358.595-.299.392-.448.931-.448 1.617 0 .691.154 1.232.462 1.624.312.392.76.588 1.344.588zm7.587-5.628c.425-.261.929-.392 1.512-.392.159 0 .303.009.434.028v1.778c-.145-.047-.324-.07-.539-.07-.355 0-.67.065-.945.196-.336.154-.593.383-.77.686-.177.303-.266.672-.266 1.106V149h-1.918v-7.56h1.68v1.218c.21-.378.481-.663.812-.854zm3.137-3.094h1.904v1.68h-1.904v-1.68zm0 2.73h1.904V149h-1.904v-7.56zm6.075 4.242v.399c0 .243.009.439.028.588.019.149.061.273.126.371.191.303.569.455 1.134.455.215 0 .513-.026.896-.077V149c-.485.089-.938.133-1.358.133-.569 0-1.064-.084-1.484-.252-.42-.173-.733-.446-.938-.819-.126-.233-.21-.471-.252-.714-.042-.243-.063-.53-.063-.861l.007-.693v-2.884h-1.288v-1.47h1.288v-2.1h1.904v2.1h2.184v1.47h-2.184v2.772zm7.719-4.466c.886 0 1.547.226 1.981.679.438.453.709.931.812 1.435.107.504.161.98.161 1.428V149h-1.932v-3.57c0-.383-.028-.742-.084-1.078-.056-.336-.206-.644-.448-.924-.238-.28-.602-.42-1.092-.42-.439 0-.817.152-1.134.455-.318.299-.476.866-.476 1.701V149h-1.932v-10.08h1.694v3.297c.284-.317.632-.562 1.043-.735.41-.177.879-.266 1.407-.266zm12.876.042c.565 0 1.043.114 1.435.343.392.229.686.553.882.973.201.415.301.901.301 1.456V149h-1.904v-4.466c0-.495-.119-.882-.357-1.162-.233-.28-.558-.42-.973-.42-.261 0-.492.063-.693.189-.196.121-.35.294-.462.518-.107.219-.161.474-.161.763V149h-1.904v-4.466c0-.495-.119-.882-.357-1.162-.233-.28-.558-.42-.973-.42-.261 0-.492.063-.693.189-.196.121-.35.294-.462.518-.107.219-.161.474-.161.763V149h-1.918v-7.56h1.68v.826c.257-.317.576-.565.959-.742.387-.177.805-.266 1.253-.266.523 0 .968.105 1.337.315.369.205.656.492.861.861.247-.369.574-.656.98-.861.406-.21.849-.315 1.33-.315zm7.112 7.952c-.952 0-1.722-.215-2.31-.644-.583-.429-.938-1.041-1.064-1.834l1.946-.294c.08.359.255.639.525.84.276.196.623.294 1.043.294.341 0 .605-.065.791-.196.192-.135.287-.322.287-.56 0-.159-.039-.28-.119-.364-.074-.089-.233-.175-.476-.259-.238-.084-.646-.203-1.225-.357-.625-.159-1.12-.336-1.484-.532-.364-.196-.627-.429-.791-.7-.163-.271-.245-.602-.245-.994 0-.481.124-.901.371-1.26.248-.359.598-.635 1.05-.826.453-.196.983-.294 1.589-.294.588 0 1.111.091 1.568.273.462.182.833.443 1.113.784.285.336.46.73.525 1.183l-1.946.35c-.032-.28-.154-.502-.364-.665-.21-.163-.494-.259-.854-.287l-.147-.007c-.308 0-.555.058-.742.175-.182.117-.273.275-.273.476 0 .135.047.247.14.336.094.084.276.173.546.266.271.089.714.21 1.33.364.579.149 1.041.324 1.386.525.346.196.598.432.756.707.159.275.238.611.238 1.008 0 .513-.126.959-.378 1.337-.252.373-.616.66-1.092.861-.476.196-1.04.294-1.694.294z"/>
    <defs>
        <linearGradient id="paint0_linear" x1="268.165" x2="268.165" y1="179.315" y2="45.586" gradientUnits="userSpaceOnUse">
            <stop stop-color="gray" stop-opacity=".25"/>
            <stop offset=".54" stop-color="gray" stop-opacity=".12"/>
            <stop offset="1" stop-color="gray" stop-opacity=".1"/>
        </linearGradient>
        <clipPath id="clip0">
            <path fill="#fff" d="M0 0H222.919V194H0z" transform="translate(153.944 34)"/>
        </clipPath>
    </defs>
</svg>
