<svg xmlns="http://www.w3.org/2000/svg" width="100" height="100" fill="none" viewBox="0 0 100 100">
    <path fill="#FFCCB6" d="M43 47H57V73H43zM63 65H77V73H63z"/>
    <path fill="#FF824B" d="M42.723 45.638c-.165.032-.314.122-.42.255-.106.133-.163.3-.16.472v26.18h-4.286V60.909c0-.193-.075-.378-.21-.514-.133-.137-.315-.213-.504-.213H22.857c-.19 0-.371.076-.505.213-.134.136-.21.321-.21.514v11.636H20v1.454h60v-1.454h-2.143V53.637c0-.193-.075-.378-.21-.514-.133-.137-.315-.213-.504-.213H62.857c-.19 0-.371.076-.505.213-.134.136-.21.321-.21.514v18.908h-4.285v-26.18c0-.193-.075-.378-.21-.515-.133-.136-.315-.212-.504-.212H42.857c-.022-.002-.044-.002-.067 0-.022-.002-.044-.002-.067 0zm.848 1.454H56.43v25.089H43.57V47.092zm20 7.272H76.43v17.817H63.57V54.364zm-40 7.272H36.43v10.545H23.57V61.636z"/>
    <path fill="#D93D04" d="M29.046 39.98c.18-.386.729-.386.908 0l2.115 4.57c.072.157.222.266.394.286l5 .6c.422.05.592.573.28.863l-3.693 3.423c-.127.118-.184.294-.15.464l.975 4.94c.082.418-.362.74-.734.533l-4.397-2.453c-.152-.085-.336-.085-.488 0l-4.397 2.453c-.372.208-.816-.115-.734-.533l.975-4.94c.034-.17-.023-.346-.15-.464L21.256 46.3c-.312-.29-.142-.813.28-.863l5-.6c.172-.02.322-.129.394-.286l2.115-4.57zM50.046 25.98c.18-.386.729-.386.908 0l2.115 4.57c.072.157.222.266.394.286l5 .6c.422.05.592.573.28.863l-3.693 3.423c-.127.118-.184.294-.15.464l.975 4.94c.082.418-.362.74-.734.533l-4.397-2.453c-.152-.085-.336-.085-.488 0l-4.397 2.453c-.372.208-.816-.115-.734-.533l.975-4.94c.034-.17-.023-.346-.15-.464L42.257 32.3c-.312-.29-.142-.813.28-.863l5-.6c.172-.02.322-.129.394-.286l2.115-4.57zM70.046 32.98c.18-.386.729-.386.908 0l2.115 4.57c.072.157.222.266.394.286l5 .6c.422.05.592.573.28.863l-3.692 3.423c-.128.118-.185.294-.151.464l.975 4.94c.082.418-.362.74-.734.533l-4.397-2.453c-.152-.085-.336-.085-.488 0l-4.397 2.453c-.372.208-.816-.115-.734-.533l.975-4.94c.034-.17-.023-.346-.15-.464L62.257 39.3c-.312-.29-.142-.813.28-.863l5-.6c.172-.02.322-.129.394-.286l2.115-4.57z"/>
</svg>
