<svg xmlns="http://www.w3.org/2000/svg" width="112" height="260" fill="none" viewBox="0 0 112 260">
    <circle cx="24.5" cy="2.5" r="2.5" fill="#FF824B" fill-opacity=".2"/>
    <circle cx="75.5" cy="2.5" r="2.5" fill="#FF824B" fill-opacity=".2"/>
    <circle cx="41.5" cy="2.5" r="2.5" fill="#FF824B" fill-opacity=".2"/>
    <circle cx="92.5" cy="2.5" r="2.5" fill="#FF824B" fill-opacity=".2"/>
    <circle cx="58.5" cy="2.5" r="2.5" fill="#FF824B" fill-opacity=".2"/>
    <circle cx="7.5" cy="2.5" r="2.5" fill="#FF824B" fill-opacity=".2"/>
    <circle cx="109.5" cy="2.5" r="2.5" fill="#FF824B" fill-opacity=".2"/>
    <circle cx="24.5" cy="70.5" r="2.5" fill="#FF824B" fill-opacity=".2"/>
    <circle cx="75.5" cy="70.5" r="2.5" fill="#FF824B" fill-opacity=".2"/>
    <circle cx="41.5" cy="70.5" r="2.5" fill="#FF824B" fill-opacity=".2"/>
    <circle cx="92.5" cy="70.5" r="2.5" fill="#FF824B" fill-opacity=".2"/>
    <circle cx="58.5" cy="70.5" r="2.5" fill="#FF824B" fill-opacity=".2"/>
    <circle cx="7.5" cy="70.5" r="2.5" fill="#FF824B" fill-opacity=".2"/>
    <circle cx="109.5" cy="70.5" r="2.5" fill="#FF824B" fill-opacity=".2"/>
    <circle cx="24.5" cy="36.5" r="2.5" fill="#FF824B" fill-opacity=".2"/>
    <circle cx="75.5" cy="36.5" r="2.5" fill="#FF824B" fill-opacity=".2"/>
    <circle cx="41.5" cy="36.5" r="2.5" fill="#FF824B" fill-opacity=".2"/>
    <circle cx="92.5" cy="36.5" r="2.5" fill="#FF824B" fill-opacity=".2"/>
    <circle cx="58.5" cy="36.5" r="2.5" fill="#FF824B" fill-opacity=".2"/>
    <circle cx="7.5" cy="36.5" r="2.5" fill="#FF824B" fill-opacity=".2"/>
    <circle cx="109.5" cy="36.5" r="2.5" fill="#FF824B" fill-opacity=".2"/>
    <circle cx="24.5" cy="104.5" r="2.5" fill="#FF824B" fill-opacity=".2"/>
    <circle cx="75.5" cy="104.5" r="2.5" fill="#FF824B" fill-opacity=".2"/>
    <circle cx="41.5" cy="104.5" r="2.5" fill="#FF824B" fill-opacity=".2"/>
    <circle cx="92.5" cy="104.5" r="2.5" fill="#FF824B" fill-opacity=".2"/>
    <circle cx="58.5" cy="104.5" r="2.5" fill="#FF824B" fill-opacity=".2"/>
    <circle cx="7.5" cy="104.5" r="2.5" fill="#FF824B" fill-opacity=".2"/>
    <circle cx="109.5" cy="104.5" r="2.5" fill="#FF824B" fill-opacity=".2"/>
    <circle cx="24.5" cy="19.5" r="2.5" fill="#FF824B" fill-opacity=".2"/>
    <circle cx="75.5" cy="19.5" r="2.5" fill="#FF824B" fill-opacity=".2"/>
    <circle cx="41.5" cy="19.5" r="2.5" fill="#FF824B" fill-opacity=".2"/>
    <circle cx="92.5" cy="19.5" r="2.5" fill="#FF824B" fill-opacity=".2"/>
    <circle cx="58.5" cy="19.5" r="2.5" fill="#FF824B" fill-opacity=".2"/>
    <circle cx="7.5" cy="19.5" r="2.5" fill="#FF824B" fill-opacity=".2"/>
    <circle cx="109.5" cy="19.5" r="2.5" fill="#FF824B" fill-opacity=".2"/>
    <circle cx="24.5" cy="87.5" r="2.5" fill="#FF824B" fill-opacity=".2"/>
    <circle cx="75.5" cy="87.5" r="2.5" fill="#FF824B" fill-opacity=".2"/>
    <circle cx="41.5" cy="87.5" r="2.5" fill="#FF824B" fill-opacity=".2"/>
    <circle cx="92.5" cy="87.5" r="2.5" fill="#FF824B" fill-opacity=".2"/>
    <circle cx="58.5" cy="87.5" r="2.5" fill="#FF824B" fill-opacity=".2"/>
    <circle cx="7.5" cy="87.5" r="2.5" fill="#FF824B" fill-opacity=".2"/>
    <circle cx="109.5" cy="87.5" r="2.5" fill="#FF824B" fill-opacity=".2"/>
    <circle cx="24.5" cy="53.5" r="2.5" fill="#FF824B" fill-opacity=".2"/>
    <circle cx="75.5" cy="53.5" r="2.5" fill="#FF824B" fill-opacity=".2"/>
    <circle cx="41.5" cy="53.5" r="2.5" fill="#FF824B" fill-opacity=".2"/>
    <circle cx="92.5" cy="53.5" r="2.5" fill="#FF824B" fill-opacity=".2"/>
    <circle cx="58.5" cy="53.5" r="2.5" fill="#FF824B" fill-opacity=".2"/>
    <circle cx="7.5" cy="53.5" r="2.5" fill="#FF824B" fill-opacity=".2"/>
    <circle cx="109.5" cy="53.5" r="2.5" fill="#FF824B" fill-opacity=".2"/>
    <circle cx="24.5" cy="121.5" r="2.5" fill="#FF824B" fill-opacity=".2"/>
    <circle cx="75.5" cy="121.5" r="2.5" fill="#FF824B" fill-opacity=".2"/>
    <circle cx="41.5" cy="121.5" r="2.5" fill="#FF824B" fill-opacity=".2"/>
    <circle cx="92.5" cy="121.5" r="2.5" fill="#FF824B" fill-opacity=".2"/>
    <circle cx="58.5" cy="121.5" r="2.5" fill="#FF824B" fill-opacity=".2"/>
    <circle cx="7.5" cy="121.5" r="2.5" fill="#FF824B" fill-opacity=".2"/>
    <circle cx="109.5" cy="121.5" r="2.5" fill="#FF824B" fill-opacity=".2"/>
    <circle cx="24.5" cy="138.5" r="2.5" fill="#FF824B" fill-opacity=".2"/>
    <circle cx="75.5" cy="138.5" r="2.5" fill="#FF824B" fill-opacity=".2"/>
    <circle cx="41.5" cy="138.5" r="2.5" fill="#FF824B" fill-opacity=".2"/>
    <circle cx="92.5" cy="138.5" r="2.5" fill="#FF824B" fill-opacity=".2"/>
    <circle cx="58.5" cy="138.5" r="2.5" fill="#FF824B" fill-opacity=".2"/>
    <circle cx="7.5" cy="138.5" r="2.5" fill="#FF824B" fill-opacity=".2"/>
    <circle cx="109.5" cy="138.5" r="2.5" fill="#FF824B" fill-opacity=".2"/>
    <circle cx="24.5" cy="206.5" r="2.5" fill="#FF824B" fill-opacity=".2"/>
    <circle cx="75.5" cy="206.5" r="2.5" fill="#FF824B" fill-opacity=".2"/>
    <circle cx="41.5" cy="206.5" r="2.5" fill="#FF824B" fill-opacity=".2"/>
    <circle cx="92.5" cy="206.5" r="2.5" fill="#FF824B" fill-opacity=".2"/>
    <circle cx="58.5" cy="206.5" r="2.5" fill="#FF824B" fill-opacity=".2"/>
    <circle cx="7.5" cy="206.5" r="2.5" fill="#FF824B" fill-opacity=".2"/>
    <circle cx="109.5" cy="206.5" r="2.5" fill="#FF824B" fill-opacity=".2"/>
    <circle cx="24.5" cy="172.5" r="2.5" fill="#FF824B" fill-opacity=".2"/>
    <circle cx="75.5" cy="172.5" r="2.5" fill="#FF824B" fill-opacity=".2"/>
    <circle cx="41.5" cy="172.5" r="2.5" fill="#FF824B" fill-opacity=".2"/>
    <circle cx="92.5" cy="172.5" r="2.5" fill="#FF824B" fill-opacity=".2"/>
    <circle cx="58.5" cy="172.5" r="2.5" fill="#FF824B" fill-opacity=".2"/>
    <circle cx="7.5" cy="172.5" r="2.5" fill="#FF824B" fill-opacity=".2"/>
    <circle cx="109.5" cy="172.5" r="2.5" fill="#FF824B" fill-opacity=".2"/>
    <circle cx="24.5" cy="240.5" r="2.5" fill="#FF824B" fill-opacity=".2"/>
    <circle cx="75.5" cy="240.5" r="2.5" fill="#FF824B" fill-opacity=".2"/>
    <circle cx="41.5" cy="240.5" r="2.5" fill="#FF824B" fill-opacity=".2"/>
    <circle cx="92.5" cy="240.5" r="2.5" fill="#FF824B" fill-opacity=".2"/>
    <circle cx="58.5" cy="240.5" r="2.5" fill="#FF824B" fill-opacity=".2"/>
    <circle cx="7.5" cy="240.5" r="2.5" fill="#FF824B" fill-opacity=".2"/>
    <circle cx="109.5" cy="240.5" r="2.5" fill="#FF824B" fill-opacity=".2"/>
    <circle cx="24.5" cy="155.5" r="2.5" fill="#FF824B" fill-opacity=".2"/>
    <circle cx="75.5" cy="155.5" r="2.5" fill="#FF824B" fill-opacity=".2"/>
    <circle cx="41.5" cy="155.5" r="2.5" fill="#FF824B" fill-opacity=".2"/>
    <circle cx="92.5" cy="155.5" r="2.5" fill="#FF824B" fill-opacity=".2"/>
    <circle cx="58.5" cy="155.5" r="2.5" fill="#FF824B" fill-opacity=".2"/>
    <circle cx="7.5" cy="155.5" r="2.5" fill="#FF824B" fill-opacity=".2"/>
    <circle cx="109.5" cy="155.5" r="2.5" fill="#FF824B" fill-opacity=".2"/>
    <circle cx="24.5" cy="223.5" r="2.5" fill="#FF824B" fill-opacity=".2"/>
    <circle cx="75.5" cy="223.5" r="2.5" fill="#FF824B" fill-opacity=".2"/>
    <circle cx="41.5" cy="223.5" r="2.5" fill="#FF824B" fill-opacity=".2"/>
    <circle cx="92.5" cy="223.5" r="2.5" fill="#FF824B" fill-opacity=".2"/>
    <circle cx="58.5" cy="223.5" r="2.5" fill="#FF824B" fill-opacity=".2"/>
    <circle cx="7.5" cy="223.5" r="2.5" fill="#FF824B" fill-opacity=".2"/>
    <circle cx="109.5" cy="223.5" r="2.5" fill="#FF824B" fill-opacity=".2"/>
    <circle cx="24.5" cy="189.5" r="2.5" fill="#FF824B" fill-opacity=".2"/>
    <circle cx="75.5" cy="189.5" r="2.5" fill="#FF824B" fill-opacity=".2"/>
    <circle cx="41.5" cy="189.5" r="2.5" fill="#FF824B" fill-opacity=".2"/>
    <circle cx="92.5" cy="189.5" r="2.5" fill="#FF824B" fill-opacity=".2"/>
    <circle cx="58.5" cy="189.5" r="2.5" fill="#FF824B" fill-opacity=".2"/>
    <circle cx="7.5" cy="189.5" r="2.5" fill="#FF824B" fill-opacity=".2"/>
    <circle cx="109.5" cy="189.5" r="2.5" fill="#FF824B" fill-opacity=".2"/>
    <circle cx="24.5" cy="257.5" r="2.5" fill="#FF824B" fill-opacity=".2"/>
    <circle cx="75.5" cy="257.5" r="2.5" fill="#FF824B" fill-opacity=".2"/>
    <circle cx="41.5" cy="257.5" r="2.5" fill="#FF824B" fill-opacity=".2"/>
    <circle cx="92.5" cy="257.5" r="2.5" fill="#FF824B" fill-opacity=".2"/>
    <circle cx="58.5" cy="257.5" r="2.5" fill="#FF824B" fill-opacity=".2"/>
    <circle cx="7.5" cy="257.5" r="2.5" fill="#FF824B" fill-opacity=".2"/>
    <circle cx="109.5" cy="257.5" r="2.5" fill="#FF824B" fill-opacity=".2"/>
</svg>
