<svg xmlns="http://www.w3.org/2000/svg" width="146" height="124" fill="none" viewBox="0 0 146 124">
    <circle cx="2.5" cy="2.5" r="2.5" fill="#6A2C70" fill-opacity=".2"/>
    <circle cx="104.5" cy="2.5" r="2.5" fill="#6A2C70" fill-opacity=".2"/>
    <circle cx="53.5" cy="2.5" r="2.5" fill="#6A2C70" fill-opacity=".2"/>
    <circle cx="19.5" cy="2.5" r="2.5" fill="#6A2C70" fill-opacity=".2"/>
    <circle cx="121.5" cy="2.5" r="2.5" fill="#6A2C70" fill-opacity=".2"/>
    <circle cx="70.5" cy="2.5" r="2.5" fill="#6A2C70" fill-opacity=".2"/>
    <circle cx="36.5" cy="2.5" r="2.5" fill="#6A2C70" fill-opacity=".2"/>
    <circle cx="138.5" cy="2.5" r="2.5" fill="#6A2C70" fill-opacity=".2"/>
    <circle cx="87.5" cy="2.5" r="2.5" fill="#6A2C70" fill-opacity=".2"/>
    <circle cx="2.5" cy="70.5" r="2.5" fill="#6A2C70" fill-opacity=".2"/>
    <circle cx="104.5" cy="70.5" r="2.5" fill="#6A2C70" fill-opacity=".2"/>
    <circle cx="53.5" cy="70.5" r="2.5" fill="#6A2C70" fill-opacity=".2"/>
    <circle cx="19.5" cy="70.5" r="2.5" fill="#6A2C70" fill-opacity=".2"/>
    <circle cx="121.5" cy="70.5" r="2.5" fill="#6A2C70" fill-opacity=".2"/>
    <circle cx="70.5" cy="70.5" r="2.5" fill="#6A2C70" fill-opacity=".2"/>
    <circle cx="36.5" cy="70.5" r="2.5" fill="#6A2C70" fill-opacity=".2"/>
    <circle cx="138.5" cy="70.5" r="2.5" fill="#6A2C70" fill-opacity=".2"/>
    <circle cx="87.5" cy="70.5" r="2.5" fill="#6A2C70" fill-opacity=".2"/>
    <circle cx="2.5" cy="36.5" r="2.5" fill="#6A2C70" fill-opacity=".2"/>
    <circle cx="104.5" cy="36.5" r="2.5" fill="#6A2C70" fill-opacity=".2"/>
    <circle cx="53.5" cy="36.5" r="2.5" fill="#6A2C70" fill-opacity=".2"/>
    <circle cx="19.5" cy="36.5" r="2.5" fill="#6A2C70" fill-opacity=".2"/>
    <circle cx="121.5" cy="36.5" r="2.5" fill="#6A2C70" fill-opacity=".2"/>
    <circle cx="70.5" cy="36.5" r="2.5" fill="#6A2C70" fill-opacity=".2"/>
    <circle cx="36.5" cy="36.5" r="2.5" fill="#6A2C70" fill-opacity=".2"/>
    <circle cx="138.5" cy="36.5" r="2.5" fill="#6A2C70" fill-opacity=".2"/>
    <circle cx="87.5" cy="36.5" r="2.5" fill="#6A2C70" fill-opacity=".2"/>
    <circle cx="2.5" cy="104.5" r="2.5" fill="#6A2C70" fill-opacity=".2"/>
    <circle cx="104.5" cy="104.5" r="2.5" fill="#6A2C70" fill-opacity=".2"/>
    <circle cx="53.5" cy="104.5" r="2.5" fill="#6A2C70" fill-opacity=".2"/>
    <circle cx="19.5" cy="104.5" r="2.5" fill="#6A2C70" fill-opacity=".2"/>
    <circle cx="121.5" cy="104.5" r="2.5" fill="#6A2C70" fill-opacity=".2"/>
    <circle cx="70.5" cy="104.5" r="2.5" fill="#6A2C70" fill-opacity=".2"/>
    <circle cx="36.5" cy="104.5" r="2.5" fill="#6A2C70" fill-opacity=".2"/>
    <circle cx="138.5" cy="104.5" r="2.5" fill="#6A2C70" fill-opacity=".2"/>
    <circle cx="87.5" cy="104.5" r="2.5" fill="#6A2C70" fill-opacity=".2"/>
    <circle cx="2.5" cy="19.5" r="2.5" fill="#6A2C70" fill-opacity=".2"/>
    <circle cx="104.5" cy="19.5" r="2.5" fill="#6A2C70" fill-opacity=".2"/>
    <circle cx="53.5" cy="19.5" r="2.5" fill="#6A2C70" fill-opacity=".2"/>
    <circle cx="19.5" cy="19.5" r="2.5" fill="#6A2C70" fill-opacity=".2"/>
    <circle cx="121.5" cy="19.5" r="2.5" fill="#6A2C70" fill-opacity=".2"/>
    <circle cx="70.5" cy="19.5" r="2.5" fill="#6A2C70" fill-opacity=".2"/>
    <circle cx="36.5" cy="19.5" r="2.5" fill="#6A2C70" fill-opacity=".2"/>
    <circle cx="138.5" cy="19.5" r="2.5" fill="#6A2C70" fill-opacity=".2"/>
    <circle cx="87.5" cy="19.5" r="2.5" fill="#6A2C70" fill-opacity=".2"/>
    <circle cx="2.5" cy="87.5" r="2.5" fill="#6A2C70" fill-opacity=".2"/>
    <circle cx="104.5" cy="87.5" r="2.5" fill="#6A2C70" fill-opacity=".2"/>
    <circle cx="53.5" cy="87.5" r="2.5" fill="#6A2C70" fill-opacity=".2"/>
    <circle cx="19.5" cy="87.5" r="2.5" fill="#6A2C70" fill-opacity=".2"/>
    <circle cx="121.5" cy="87.5" r="2.5" fill="#6A2C70" fill-opacity=".2"/>
    <circle cx="70.5" cy="87.5" r="2.5" fill="#6A2C70" fill-opacity=".2"/>
    <circle cx="36.5" cy="87.5" r="2.5" fill="#6A2C70" fill-opacity=".2"/>
    <circle cx="138.5" cy="87.5" r="2.5" fill="#6A2C70" fill-opacity=".2"/>
    <circle cx="87.5" cy="87.5" r="2.5" fill="#6A2C70" fill-opacity=".2"/>
    <circle cx="2.5" cy="53.5" r="2.5" fill="#6A2C70" fill-opacity=".2"/>
    <circle cx="104.5" cy="53.5" r="2.5" fill="#6A2C70" fill-opacity=".2"/>
    <circle cx="53.5" cy="53.5" r="2.5" fill="#6A2C70" fill-opacity=".2"/>
    <circle cx="19.5" cy="53.5" r="2.5" fill="#6A2C70" fill-opacity=".2"/>
    <circle cx="121.5" cy="53.5" r="2.5" fill="#6A2C70" fill-opacity=".2"/>
    <circle cx="70.5" cy="53.5" r="2.5" fill="#6A2C70" fill-opacity=".2"/>
    <circle cx="36.5" cy="53.5" r="2.5" fill="#6A2C70" fill-opacity=".2"/>
    <circle cx="138.5" cy="53.5" r="2.5" fill="#6A2C70" fill-opacity=".2"/>
    <circle cx="87.5" cy="53.5" r="2.5" fill="#6A2C70" fill-opacity=".2"/>
    <circle cx="2.5" cy="121.5" r="2.5" fill="#6A2C70" fill-opacity=".2"/>
    <circle cx="104.5" cy="121.5" r="2.5" fill="#6A2C70" fill-opacity=".2"/>
    <circle cx="53.5" cy="121.5" r="2.5" fill="#6A2C70" fill-opacity=".2"/>
    <circle cx="19.5" cy="121.5" r="2.5" fill="#6A2C70" fill-opacity=".2"/>
    <circle cx="121.5" cy="121.5" r="2.5" fill="#6A2C70" fill-opacity=".2"/>
    <circle cx="70.5" cy="121.5" r="2.5" fill="#6A2C70" fill-opacity=".2"/>
    <circle cx="36.5" cy="121.5" r="2.5" fill="#6A2C70" fill-opacity=".2"/>
    <circle cx="138.5" cy="121.5" r="2.5" fill="#6A2C70" fill-opacity=".2"/>
    <circle cx="87.5" cy="121.5" r="2.5" fill="#6A2C70" fill-opacity=".2"/>
</svg>
