<svg xmlns="http://www.w3.org/2000/svg" width="24" height="25" fill="none" viewBox="0 0 24 25">
    <g clip-path="url(#clip0)">
        <path fill="#fff" d="M23.998 12.5c0-6.628-5.372-12-11.999-12C5.372.5 0 5.872 0 12.5c0 5.988 4.388 10.952 10.124 11.852v-8.384H7.078v-3.469h3.046V9.856c0-3.008 1.792-4.669 4.532-4.669 1.313 0 2.686.234 2.686.234v2.953H15.83c-1.49 0-1.955.925-1.955 1.874V12.5h3.328l-.532 3.469h-2.796v8.384c5.736-.9 10.124-5.864 10.124-11.853z"/>
    </g>
    <defs>
        <clipPath id="clip0">
            <path fill="#fff" d="M0 0H24V24H0z" transform="translate(0 .5)"/>
        </clipPath>
    </defs>
</svg>
