<svg xmlns="http://www.w3.org/2000/svg" width="100" height="100" fill="none" viewBox="0 0 100 100">
    <path fill="#0065FF" fill-rule="evenodd" stroke="#0065FF" stroke-width=".2" d="M42.5 31.707l-2.825 2.595-.925.85.925.85 2.014 1.85c.517.474.811 1.144.811 1.846v2.343c0 1.383 1.12 2.505 2.5 2.505h32.5c1.38 0 2.5-1.122 2.5-2.505V28.263c0-1.384-1.12-2.505-2.5-2.505H45c-1.38 0-2.5 1.121-2.5 2.505v3.444zm-1.9 3.445l1.934 1.776c.775.712 1.216 1.717 1.216 2.77v2.343c0 .691.56 1.252 1.25 1.252h32.5c.69 0 1.25-.56 1.25-1.252V28.263c0-.692-.56-1.253-1.25-1.253H45c-.69 0-1.25.561-1.25 1.253v3.995l-.405.373-2.745 2.52zm8.15-1.879h25V32.02h-25v1.253zm25 5.01h-25v-1.252h25v1.252zM60.325 64.99L57.5 62.394V58.95c0-1.384-1.12-2.505-2.5-2.505H22.5c-1.38 0-2.5 1.121-2.5 2.505v13.778c0 1.383 1.12 2.505 2.5 2.505H55c1.38 0 2.5-1.122 2.5-2.505v-2.343c0-.702.294-1.372.81-1.847l2.015-1.85.925-.85-.925-.849zm-2.859 2.626L59.4 65.84l-2.745-2.521-.405-.373V58.95c0-.692-.56-1.253-1.25-1.253H22.5c-.69 0-1.25.561-1.25 1.253v13.778c0 .691.56 1.252 1.25 1.252H55c.69 0 1.25-.56 1.25-1.252v-2.343c0-1.053.441-2.058 1.216-2.77zM51.25 63.96v-1.253h-25v1.253h25zm0 3.757v1.253h-25v-1.253h25z" clip-rule="evenodd"/>
    <path fill="#BAD6FF" d="M20 42.5c0-4.142 3.358-7.5 7.5-7.5 4.142 0 7.5 3.358 7.5 7.5V46c0 1.105-.895 2-2 2H22c-1.105 0-2-.895-2-2v-3.5z"/>
    <circle cx="27.5" cy="27.5" r="5.5" fill="#264A80"/>
    <path fill="#BAD6FF" d="M65 72.5c0-4.142 3.358-7.5 7.5-7.5 4.142 0 7.5 3.358 7.5 7.5V76c0 1.105-.895 2-2 2H67c-1.105 0-2-.895-2-2v-3.5z"/>
    <circle cx="72.5" cy="57.5" r="5.5" fill="#264A80"/>
    <path fill="#0065FF" d="M43.5 32l-3 3c.833 1.167 2.5 3.6 2.5 4 0 .4.667 2.833 1 4l.5.5 34.25.219V26.5c-10.417.166-31.35.4-31.75 0-.4-.4-2.5.166-3.5.5v5z"/>
    <path fill="#fff" d="M49 32H74V34H49zM49 37H74V39H49z"/>
    <path fill="#0065FF" d="M57.25 68.718l3-3C59.417 64.552 57 62.9 57 62.5c0-.4.083-3.615-.25-4.781l-.5-.5L21 57.5V74c11 .5 32.35-.182 32.75.218.4.4 2.5-.167 3.5-.5v-5z"/>
    <path fill="#fff" d="M51.75 68.719H76.75V70.719H51.75z" transform="rotate(-180 51.75 68.719)"/>
    <path fill="#fff" d="M51.75 63.719H76.75V65.719H51.75z" transform="rotate(-180 51.75 63.719)"/>
</svg>
