<svg xmlns="http://www.w3.org/2000/svg" width="100" height="100" fill="none" viewBox="0 0 100 100">
    <path fill="#EEF5FF" d="M25 35.5v29L50 79l26-14.5v-29C67.5 30.667 50.4 21 50 21c-.4 0-16.833 9.667-25 14.5z"/>
    <path fill="#0065FF" d="M39 43.5L38.5 57l1.5 1 9 8.5 2.5.5L63 57l3-16-15.5-8.5-11.5 11z"/>
    <path fill="#264A80" fill-rule="evenodd" d="M74.628 35.185L51.043 21.568v.047H49.66v-.047L26.075 35.185l.04.024-.172.3-.346.598-.173.3-.04-.024v27.234l.04-.024.173.3.345.599.173.3-.04.023L49.66 78.43v-.047h1.383v.047l23.585-13.616-.04-.024.172-.3.346-.598.173-.3.04.024V36.383l-.04.023-.173-.299-.346-.599-.172-.3.04-.023zM51.734 20.371c-.855-.494-1.91-.494-2.766 0L25.383 33.987c-.856.495-1.383 1.408-1.383 2.396v27.234c0 .988.527 1.901 1.383 2.396l23.585 13.616c.856.495 1.91.495 2.766 0L75.32 66.012c.855-.494 1.383-1.407 1.383-2.395V36.383c0-.988-.528-1.901-1.383-2.396L51.734 20.371zm-2.074 6.65v-2.703h1.383v2.704H49.66zm0 5.164v-2.46h1.383v2.22c.364.032.725.135 1.061.313l13.334 7.075c.326.174.607.406.832.678l1.294-.747.173.3.346.598.173.3-1.396.805c.067.358.064.732-.017 1.104l-3.15 14.32c-.131.594-.455 1.128-.92 1.52l-10.59 8.919c-.34.286-.732.478-1.14.575v2.57H49.66V67.68c-.396-.11-.773-.31-1.097-.598l-9.731-8.65c-.219-.194-.403-.42-.548-.666l-.463.267-.173-.3-.346-.598-.173-.3.775-.447V44.277c0-.212.024-.421.07-.624l-.845-.488.173-.3.346-.599.173-.299.794.458c.05-.055.101-.108.155-.16l10.138-9.574c.226-.213.48-.382.752-.506zM39.287 44.41l.184.106.173-.299.345-.599.173-.3-.305-.176 10.001-9.446c.431-.407 1.074-.494 1.598-.216l13.333 7.075c.549.291.836.912.703 1.519l-3.098 14.08-1.162-.67-.173.299-.345.599-.173.3 1.128.65-10.378 8.74c-.525.443-1.296.432-1.81-.024l-9.73-8.65c-.107-.094-.197-.204-.269-.324l.68-.393-.173-.3-.345-.598-.173-.3-.184.107V44.41zm10.373-6.575v-2.703h1.383v2.703H49.66zm0 5.407v-2.704h1.383v2.704H49.66zm0 5.406v-2.703h1.383v2.703H49.66zm0 5.407v-2.703h1.383v2.703H49.66zm0 5.407v-2.704h1.383v2.703H49.66zm0 5.406v-2.703h1.383v2.703H49.66zm0 10.813v-2.703h1.383v2.703H49.66zm22.586-39.12l-2.34 1.351.172.3.346.598.173.3 2.341-1.352-.173-.3-.346-.598-.173-.3zm-9.364 5.406l-2.341 1.352.173.3.345.598.173.3 2.341-1.352-.172-.3-.346-.599-.173-.299zM58.2 44.67l-2.342 1.352.173.3.346.598.173.3 2.341-1.352-.173-.3-.345-.598-.173-.3zm-4.683 2.704l-2.34 1.351.172.3.346.599.173.3 2.34-1.353-.172-.3-.346-.598-.173-.3zm-4.682 2.703l-2.341 1.352.173.299.346.599.172.3 2.342-1.352-.173-.3-.346-.599-.173-.3zm-4.682 2.703l-2.341 1.352.173.3.345.598.173.3 2.341-1.352-.172-.3-.346-.598-.173-.3zm-9.365 5.407l-2.34 1.352.172.299.346.599.173.3 2.34-1.352-.172-.3-.346-.599-.173-.3zm-4.682 2.703l-2.341 1.352.173.3.346.598.172.3 2.342-1.352-.173-.3-.346-.598-.173-.3zm40.49 0l2.342 1.352-.173.3-.346.598-.173.3-2.34-1.352.172-.3.346-.598.173-.3zm-4.681-2.703l2.34 1.352-.172.299-.346.599-.173.3-2.341-1.352.173-.3.346-.599.173-.3zM56.55 52.78l2.341 1.352-.173.3-.345.598-.173.3-2.342-1.352.173-.3.346-.598.173-.3zm-4.682-2.703l2.34 1.352-.172.299-.346.599-.173.3-2.34-1.352.172-.3.346-.599.173-.3zm-4.683-2.703l2.342 1.351-.173.3-.346.599-.173.299-2.341-1.352.173-.3.346-.598.172-.3zm-4.682-2.704l2.341 1.352-.172.3-.346.598-.173.3-2.341-1.352.173-.3.345-.598.173-.3zm-9.364-5.406l2.34 1.351-.172.3-.346.599-.173.3-2.34-1.353.172-.299.346-.599.173-.3zm-4.683-2.704l2.342 1.352-.173.3-.346.598-.173.3-2.341-1.352.173-.3.346-.598.172-.3z" clip-rule="evenodd"/>
    <mask id="79svmq17ba" width="53" height="60" x="24" y="20" maskUnits="userSpaceOnUse">
        <path fill="#264A80" fill-rule="evenodd" d="M74.628 35.185L51.043 21.568v.047H49.66v-.047L26.075 35.185l.04.024-.172.3-.346.598-.173.3-.04-.024v27.234l.04-.024.173.3.345.599.173.3-.04.023L49.66 78.43v-.047h1.383v.047l23.585-13.616-.04-.024.172-.3.346-.598.173-.3.04.024V36.383l-.04.023-.173-.299-.346-.599-.172-.3.04-.023zM51.734 20.371c-.855-.494-1.91-.494-2.766 0L25.383 33.987c-.856.495-1.383 1.408-1.383 2.396v27.234c0 .988.527 1.901 1.383 2.396l23.585 13.616c.856.495 1.91.495 2.766 0L75.32 66.012c.855-.494 1.383-1.407 1.383-2.395V36.383c0-.988-.528-1.901-1.383-2.396L51.734 20.371zm-2.074 6.65v-2.703h1.383v2.704H49.66zm0 5.164v-2.46h1.383v2.22c.364.032.725.135 1.061.313l13.334 7.075c.326.174.607.406.832.678l1.294-.747.173.3.346.598.173.3-1.396.805c.067.358.064.732-.017 1.104l-3.15 14.32c-.131.594-.455 1.128-.92 1.52l-10.59 8.919c-.34.286-.732.478-1.14.575v2.57H49.66V67.68c-.396-.11-.773-.31-1.097-.598l-9.731-8.65c-.219-.194-.403-.42-.548-.666l-.463.267-.173-.3-.346-.598-.173-.3.775-.447V44.277c0-.212.024-.421.07-.624l-.845-.488.173-.3.346-.599.173-.299.794.458c.05-.055.101-.108.155-.16l10.138-9.574c.226-.213.48-.382.752-.506zM39.287 44.41l.184.106.173-.299.345-.599.173-.3-.305-.176 10.001-9.446c.431-.407 1.074-.494 1.598-.216l13.333 7.075c.549.291.836.912.703 1.519l-3.098 14.08-1.162-.67-.173.299-.345.599-.173.3 1.128.65-10.378 8.74c-.525.443-1.296.432-1.81-.024l-9.73-8.65c-.107-.094-.197-.204-.269-.324l.68-.393-.173-.3-.345-.598-.173-.3-.184.107V44.41zm10.373-6.575v-2.703h1.383v2.703H49.66zm0 5.407v-2.704h1.383v2.704H49.66zm0 5.406v-2.703h1.383v2.703H49.66zm0 5.407v-2.703h1.383v2.703H49.66zm0 5.407v-2.704h1.383v2.703H49.66zm0 5.406v-2.703h1.383v2.703H49.66zm0 10.813v-2.703h1.383v2.703H49.66zm22.586-39.12l-2.34 1.351.172.3.346.598.173.3 2.341-1.352-.173-.3-.346-.598-.173-.3zm-9.364 5.406l-2.341 1.352.173.3.345.598.173.3 2.341-1.352-.172-.3-.346-.599-.173-.299zM58.2 44.67l-2.342 1.352.173.3.346.598.173.3 2.341-1.352-.173-.3-.345-.598-.173-.3zm-4.683 2.704l-2.34 1.351.172.3.346.599.173.3 2.34-1.353-.172-.3-.346-.598-.173-.3zm-4.682 2.703l-2.341 1.352.173.299.346.599.172.3 2.342-1.352-.173-.3-.346-.599-.173-.3zm-4.682 2.703l-2.341 1.352.173.3.345.598.173.3 2.341-1.352-.172-.3-.346-.598-.173-.3zm-9.365 5.407l-2.34 1.352.172.299.346.599.173.3 2.34-1.352-.172-.3-.346-.599-.173-.3zm-4.682 2.703l-2.341 1.352.173.3.346.598.172.3 2.342-1.352-.173-.3-.346-.598-.173-.3zm40.49 0l2.342 1.352-.173.3-.346.598-.173.3-2.34-1.352.172-.3.346-.598.173-.3zm-4.681-2.703l2.34 1.352-.172.299-.346.599-.173.3-2.341-1.352.173-.3.346-.599.173-.3zM56.55 52.78l2.341 1.352-.173.3-.345.598-.173.3-2.342-1.352.173-.3.346-.598.173-.3zm-4.682-2.703l2.34 1.352-.172.299-.346.599-.173.3-2.34-1.352.172-.3.346-.599.173-.3zm-4.683-2.703l2.342 1.351-.173.3-.346.599-.173.299-2.341-1.352.173-.3.346-.598.172-.3zm-4.682-2.704l2.341 1.352-.172.3-.346.598-.173.3-2.341-1.352.173-.3.345-.598.173-.3zm-9.364-5.406l2.34 1.351-.172.3-.346.599-.173.3-2.34-1.353.172-.299.346-.599.173-.3zm-4.683-2.704l2.342 1.352-.173.3-.346.598-.173.3-2.341-1.352.173-.3.346-.598.172-.3z" clip-rule="evenodd"/>
    </mask>
    <g mask="url(#79svmq17ba)">
        <path fill="#fff" d="M41 44v13l8.5 8.5H51l9.5-11L65 42l-14.5-8L41 44z"/>
    </g>
</svg>
