<svg xmlns="http://www.w3.org/2000/svg" width="100" height="100" fill="none" viewBox="0 0 100 100">
    <path fill="#FF824B" d="M56.775 27.752C56.775 25.132 54.633 23 52 23c-2.633 0-4.775 2.132-4.775 4.752 0 2.62 2.142 4.753 4.775 4.753 2.633 0 4.775-2.132 4.775-4.753zm-8.05 0c0-1.793 1.47-3.252 3.275-3.252s3.275 1.459 3.275 3.252c0 1.794-1.47 3.253-3.275 3.253s-3.275-1.459-3.275-3.253zM34.138 39.91c1.272-.003 2.469-.502 3.37-1.403.901-.901 1.4-2.098 1.403-3.37.004-1.273-.49-2.469-1.387-3.367-.895-.895-2.086-1.387-3.354-1.387h-.013c-1.272.004-2.468.502-3.37 1.403-.902.901-1.4 2.098-1.403 3.37-.004 1.273.489 2.469 1.387 3.367.895.895 2.085 1.387 3.353 1.387h.014zm-2.29-7.063c.618-.62 1.44-.962 2.312-.964h.01c.868 0 1.682.336 2.293.948 1.268 1.268 1.26 3.338-.016 4.615-.619.62-1.44.962-2.313.964h-.01c-.867 0-1.681-.336-2.293-.948-1.267-1.268-1.26-3.338.016-4.615zM26.753 57.775c2.62 0 4.752-2.142 4.752-4.775 0-2.633-2.132-4.775-4.752-4.775C24.133 48.225 22 50.367 22 53c0 2.633 2.132 4.775 4.753 4.775zm0-8.05c1.793 0 3.252 1.469 3.252 3.275 0 1.805-1.46 3.275-3.252 3.275-1.794 0-3.253-1.47-3.253-3.275 0-1.806 1.459-3.275 3.253-3.275zM29.384 70.844c.003 1.272.501 2.469 1.403 3.37.902.901 2.098 1.4 3.37 1.403h.013c1.268 0 2.459-.492 3.354-1.387.898-.898 1.39-2.094 1.387-3.367-.004-1.272-.502-2.469-1.403-3.37-.901-.901-2.098-1.4-3.37-1.403-1.29.02-2.47.489-3.367 1.387-.898.898-1.391 2.094-1.387 3.367zm2.447-2.306c.612-.612 1.426-.948 2.293-.948h.01c.872.002 1.694.344 2.313.964 1.277 1.277 1.284 3.347.016 4.615-.611.612-1.425.948-2.293.948h-.01c-.872-.002-1.694-.345-2.313-.964-1.276-1.277-1.284-3.347-.016-4.615zM69.862 66.09c-1.272.003-2.469.502-3.37 1.403-.901.901-1.4 2.098-1.403 3.37-.004 1.273.49 2.469 1.387 3.367.895.895 2.085 1.387 3.354 1.387h.013c1.272-.004 2.468-.502 3.37-1.403.902-.901 1.4-2.098 1.404-3.37.003-1.273-.49-2.469-1.388-3.367-.895-.895-2.085-1.387-3.353-1.387h-.014zm2.29 7.063c-.618.62-1.44.962-2.312.964h-.01c-.868 0-1.681-.336-2.293-.948-1.268-1.268-1.26-3.338.016-4.615.619-.62 1.44-.962 2.313-.964h.01c.867 0 1.681.336 2.293.948 1.267 1.268 1.26 3.338-.016 4.615z"/>
    <circle cx="70" cy="71" r="4" fill="#FF824B"/>
    <circle cx="77" cy="53" r="4" fill="#FF824B"/>
    <circle cx="70" cy="35" r="4" fill="#FF824B"/>
    <circle cx="52" cy="28" r="4" fill="#FF824B"/>
    <circle cx="34" cy="35" r="4" fill="#FF824B"/>
    <circle cx="27" cy="53" r="4" fill="#FF824B"/>
    <circle cx="34" cy="71" r="4" fill="#FF824B"/>
    <path fill="#FF824B" d="M77.247 48.225c-2.62 0-4.752 2.142-4.752 4.775 0 2.633 2.132 4.775 4.752 4.775C79.867 57.775 82 55.633 82 53c0-2.633-2.132-4.775-4.753-4.775zm0 8.05c-1.793 0-3.252-1.47-3.252-3.275 0-1.806 1.46-3.275 3.252-3.275 1.794 0 3.253 1.469 3.253 3.275 0 1.805-1.459 3.275-3.253 3.275zM74.617 35.156c-.004-1.272-.502-2.469-1.404-3.37-.901-.901-2.097-1.4-3.37-1.403h-.013c-1.269 0-2.459.492-3.354 1.387-.898.898-1.39 2.094-1.387 3.367.004 1.272.502 2.469 1.404 3.37.9.901 2.097 1.4 3.37 1.403h.013c1.268 0 2.458-.492 3.353-1.387.898-.898 1.391-2.094 1.388-3.367zm-2.448 2.306c-.612.612-1.426.948-2.293.948h-.01c-.872-.002-1.694-.344-2.313-.964-1.277-1.277-1.284-3.347-.016-4.615.611-.612 1.425-.948 2.293-.948h.01c.872.002 1.694.345 2.313.964 1.276 1.277 1.283 3.347.016 4.615z"/>
    <path fill="#FFCCB6" d="M63.916 31.59c.116.065.242.095.365.095.263 0 .519-.138.656-.384.202-.362.072-.819-.29-1.02-1.652-.922-3.408-1.663-5.22-2.203-.398-.118-.814.109-.932.505-.118.397.108.815.505.933 1.706.508 3.36 1.206 4.916 2.074zM40.054 31.51c.12 0 .243-.03.356-.091 1.566-.847 3.23-1.524 4.945-2.01.398-.114.63-.528.516-.927-.113-.398-.528-.628-.926-.516-1.82.516-3.586 1.234-5.248 2.134-.365.197-.5.652-.303 1.016.136.251.394.393.66.393zM30.395 39.97c-.362-.202-.819-.072-1.02.29-.923 1.653-1.664 3.41-2.202 5.22-.119.397.108.814.505.933.07.02.143.031.214.031.323 0 .621-.21.718-.537.508-1.704 1.206-3.359 2.074-4.916.203-.362.073-.819-.289-1.02zM28.502 59.55c-.114-.398-.531-.628-.926-.516-.4.113-.63.528-.517.926.516 1.821 1.234 3.587 2.133 5.248.137.251.394.393.661.393.12 0 .243-.029.357-.09.364-.197.5-.653.302-1.017-.847-1.565-1.524-3.228-2.01-4.943zM76.322 59.4c-.398-.118-.814.11-.932.505-.508 1.705-1.206 3.36-2.074 4.917-.203.362-.073.819.289 1.02.116.065.241.096.365.096.263 0 .518-.139.655-.385.923-1.653 1.664-3.41 2.202-5.22.119-.397-.108-.814-.505-.933zM75.498 46.26c.094.33.394.545.721.545.068 0 .137-.01.205-.029.4-.113.63-.528.517-.926-.516-1.821-1.234-3.587-2.133-5.248-.198-.364-.654-.5-1.018-.302-.364.197-.5.652-.302 1.016.847 1.565 1.524 3.228 2.01 4.943z"/>
    <path fill="#FFF1EB" d="M40 77.5c-.167 1.167-.5 3.7-.5 4.5h24c.5 0 .5 0 .5-.5v-3l-1-1c-.4-.4-.667-.333-1-.5 0-.167.1-2.1.5-2.5.4-.4-1.333-1.167-2-2l-1-.5c-.167-.333.4-1.1 0-1.5-.5-.5-1-2-1-2.5s-.5-3.5-.5-4c0-.4-.667-3.167-1-4.5v-2l1.5-.5c0-.5.1-1.6.5-2 .5-.5 0-1.5-.5-2s-3-.5-5.5-.5-3.5.5-5 .5c-1.2 0-2.167-.167-2.5 0l-.5 1 .5 3 1.5.5L45 72h-1.5l-.5.5-1.5 1.5v3l-1.5.5z"/>
    <path fill="#D93D04" d="M58 52H46l-.155-.31c-.892-1.783-1.512-3.69-1.84-5.656L44 46l1-3.5 4-3.5 5-.5 4 3 2.5 4.5-2.5 6z"/>
    <path fill="#D93D04" d="M38.895 82.25c0 .414.335.75.75.75h24.71c.415 0 .75-.336.75-.75v-3.633c0-1.091-.787-2-1.823-2.194v-1.79c0-1.754-1.42-3.18-3.17-3.192l-2.299-13.615h.212c1.003 0 1.82-.817 1.82-1.82v-2.33c0-.588-.285-1.106-.719-1.44 1.288-1.606 1.994-3.58 1.994-5.678 0-5.03-4.091-9.12-9.12-9.12-5.029 0-9.12 4.09-9.12 9.12 0 2.099.706 4.072 1.994 5.679-.434.333-.718.85-.718 1.438v2.33c0 1.004.816 1.82 1.82 1.82h.21L43.89 71.442c-1.75.012-3.171 1.438-3.171 3.191v1.791c-1.036.195-1.823 1.103-1.823 2.194v3.633zM52 38.937c4.202 0 7.62 3.42 7.62 7.621 0 2.003-.768 3.87-2.155 5.298h-10.93c-1.387-1.428-2.155-3.295-2.155-5.298 0-4.202 3.418-7.62 7.62-7.62zm-6.344 17.069v-2.33c0-.177.143-.32.32-.32h12.049c.176 0 .32.143.32.32v2.33c0 .176-.144.32-.32.32h-12.05c-.176 0-.32-.144-.32-.32zm10.636 1.82l2.297 13.613H45.411l2.297-13.613h8.584zM43.91 72.939h16.18c.933 0 1.692.76 1.692 1.693v1.75H42.218v-1.75c0-.933.76-1.693 1.692-1.693zm-3.515 5.678c0-.405.33-.735.734-.735h21.742c.405 0 .734.33.734.735V81.5h-23.21v-2.883z"/>
</svg>
