<svg xmlns="http://www.w3.org/2000/svg" width="155" height="155" fill="none" viewBox="0 0 155 155">
    <g filter="url(#filter0_d)">
        <rect width="120" height="120" fill="#fff" rx="22" transform="scale(-1 1) rotate(-11.219 60.103 766.883)"/>
    </g>
    <path fill="#FFBFBF" d="M120.299 44.29c.391.159.633.617.544 1.029l-14.046 70.815c-.092.464-.597.802-1.061.71l-70.815-14.046c-.464-.092-.802-.598-.71-1.061l14.046-70.815c.092-.464.597-.802 1.06-.71L120.3 44.291zm-1.402 1.563L85.26 39.18l-6.672 33.637 33.637 6.672 6.672-33.637zM83.489 38.83l-33.637-6.672-6.672 33.637 33.637 6.672L83.49 38.83zm16.774 13.418c.424.141.697.632.594 1.067l-1.054 5.31c1.818.361 3.673.73 5.477 1.087.455.136.746.673.61 1.128-.135.454-.672.745-1.127.61l-5.311-1.054-1.053 5.311c-.087.47-.596.815-1.064.723-.467-.093-.806-.607-.707-1.074l1.054-5.31-5.312-1.054c-.469-.086-.815-.596-.722-1.064.093-.467.607-.806 1.074-.707l5.31 1.054 1.054-5.311c.082-.516.682-.88 1.177-.716zm-32.218-4.55c.657.198.803 1.257.224 1.626l-5.608 3.775L66.41 58.7c.26.398.134.996-.264 1.256-.397.26-.996.134-1.255-.264l-3.748-5.602-5.602 3.748c-.392.269-.993.156-1.262-.236-.268-.392-.156-.993.236-1.261l5.602-3.748-3.742-5.63c-.418-.6.258-1.572.966-1.39.226.055.43.2.553.398l3.748 5.602 5.602-3.748c.228-.164.535-.213.802-.128zm43.829 33.562L78.237 74.59l-6.672 33.637 33.637 6.672 6.672-33.638zm-35.408-7.023L42.83 67.566l-6.672 33.637 33.637 6.672 6.672-33.638zm-12.739 9.434c.455.135.746.672.61 1.127-.135.455-.672.746-1.127.61L50.818 82.95c-.47-.086-.815-.595-.723-1.063.093-.468.607-.806 1.074-.707l12.558 2.491zm32.584 11.983c.455.135.746.672.61 1.127-.135.455-.672.746-1.127.61l-12.392-2.458c-.47-.086-.816-.595-.723-1.063.093-.468.607-.806 1.074-.707l12.558 2.491zm-34.34-3.131c.456.135.746.672.61 1.127-.135.455-.672.746-1.126.61l-12.393-2.458c-.47-.086-.815-.595-.722-1.063.092-.468.607-.806 1.073-.707 4.18.83 8.391 1.664 12.559 2.49z"/>
    <defs>
        <filter id="filter0_d" width="153.342" height="153.342" x=".856" y=".857" color-interpolation-filters="sRGB" filterUnits="userSpaceOnUse">
            <feFlood flood-opacity="0" result="BackgroundImageFix"/>
            <feColorMatrix in="SourceAlpha" values="0 0 0 0 0 0 0 0 0 0 0 0 0 0 0 0 0 0 127 0"/>
            <feOffset dy="4"/>
            <feGaussianBlur stdDeviation="5"/>
            <feColorMatrix values="0 0 0 0 0 0 0 0 0 0 0 0 0 0 0 0 0 0 0.05 0"/>
            <feBlend in2="BackgroundImageFix" result="effect1_dropShadow"/>
            <feBlend in="SourceGraphic" in2="effect1_dropShadow" result="shape"/>
        </filter>
    </defs>
</svg>
