<svg xmlns="http://www.w3.org/2000/svg" width="116" height="116" fill="none" viewBox="0 0 116 116">
    <g filter="url(#filter0_d)">
        <rect width="88.713" height="88.713" x="26.194" fill="#fff" rx="30.039" transform="rotate(14.488 26.194 0)"/>
    </g>
    <path fill="#FFBFBF" d="M80.399 49.817c.089-1.23-.098-2.463-.545-3.611-2.495-7.067-9.1-6.984-11.439-6.71-.63-1.065-2.264-2.763-6.452-3.797-4.277-1.056-7.032.711-8.295 2.248-2.505-.984-5.225-1.287-7.885-.88-4.441.634-6.05 4.428-6.53 5.994-3.091.755-7.842 3.486-7.2 9.52.387 3.642 1.744 6.353 4.033 8.066 1.842 1.299 4.05 1.975 6.304 1.931.331 0 .605-.015.858-.033.121.4.276.79.461 1.166 2.627 5.252 8.948 4.525 11.308 4.044.595 1.11 2.085 2.823 5.766 3.73.983.242 1.992.364 3.005.365 1.344.012 2.678-.23 3.932-.714 1.778.906 3.731 1.419 5.725 1.504.767.01 1.529-.112 2.254-.36.78-.282 1.486-.733 2.07-1.322.583-.59 1.028-1.3 1.302-2.082.328-.824.55-1.686.662-2.565 1.151-.176 4.14-1.158 5.242-6.624.976-4.814-2.28-8.348-4.576-9.87zm2.602 9.47c-.762 3.764-2.447 4.72-3.248 4.964-.124-1.184-.52-2.323-1.16-3.327-.862-1.239-2.005-2.256-3.335-2.968-1.33-.712-2.81-1.098-4.32-1.128-.267-.013-.528.08-.727.26-.198.18-.317.43-.33.698-.014.268.08.53.259.728.18.198.43.317.698.33 1.189.014 2.357.308 3.41.86 1.053.55 1.96 1.343 2.648 2.312.55.917.865 1.955.918 3.023.053 1.068-.158 2.132-.615 3.099-.17.512-.453.98-.828 1.37-.375.389-.832.688-1.339.877-1.685.598-3.814.016-5.232-.534.135-.123.263-.254.383-.393.494-.59.803-1.312.887-2.077.083-.766-.062-1.538-.417-2.22-.056-.121-.134-.23-.231-.32-.098-.09-.212-.159-.336-.205-.124-.046-.256-.067-.388-.062-.132.005-.262.036-.383.092-.12.055-.228.134-.318.23-.09.098-.16.212-.206.336-.046.124-.067.256-.062.389.005.132.036.262.092.382.195.338.28.728.246 1.116-.034.388-.188.757-.439 1.055-1.072 1.295-4.118 2.16-7.36 1.361-4.178-1.028-4.624-3.036-4.638-3.094-.02-.143-.07-.28-.149-.402-.078-.121-.18-.225-.302-.303-.121-.078-.258-.13-.4-.15-.144-.021-.29-.011-.428.029-.075.02-7.4 2.078-9.836-2.797-.47-.728-.664-1.598-.55-2.457.113-.858.528-1.648 1.17-2.229 1.475-1.401 3.552-1.707 3.992-1.459.13.073.274.117.422.128.149.011.298-.01.437-.064.138-.054.264-.137.367-.245.102-.107.18-.236.227-.377.22-.616.559-1.182.998-1.666.439-.485.969-.877 1.56-1.156 1.236-.46 2.76-.156 4.526.896.23.133.502.17.76.103.256-.067.476-.232.611-.46.136-.229.176-.5.113-.758-.064-.258-.227-.48-.454-.618-2.319-1.383-4.436-1.735-6.275-1.048-1.476.616-2.674 1.752-3.37 3.192-1.97-.035-3.874.707-5.301 2.064-.543.494-.98 1.093-1.286 1.76-.306.666-.476 1.388-.497 2.122-2.015.153-4.021-.386-5.687-1.53-1.816-1.358-2.901-3.596-3.224-6.647-.659-6.196 5.9-7.405 6.178-7.454.202-.034.389-.128.535-.271.147-.143.247-.327.286-.528.038-.182.944-4.473 5.01-5.053 2.53-.41 5.125-.05 7.449 1.032.117.066.246.108.379.124.133.015.268.005.397-.032.13-.037.25-.1.355-.183.105-.084.192-.188.256-.305.073-.132 1.827-3.214 6.578-2.044 4.75 1.17 5.335 3.133 5.343 3.133.025.134.076.261.151.375.075.113.173.21.287.286.113.074.241.126.375.15.134.024.272.02.404-.01.303-.067 7.486-1.608 9.92 5.287.572 1.62.908 3.746-.775 4.662-1.778.97-4.918.241-5.878-.994-1.606-2.064-.793-3.274-.773-3.305.085-.103.149-.223.187-.352.038-.129.05-.264.036-.398-.015-.133-.056-.263-.121-.38-.065-.118-.154-.22-.26-.304-.105-.083-.227-.144-.356-.179-.13-.035-.265-.044-.399-.026-.133.017-.261.062-.377.13-.116.068-.217.158-.297.266-.077.101-1.842 2.431.769 5.786 1.506 1.94 5.695 3.025 8.436 1.526.642-.355 1.185-.864 1.579-1.483 1.445 1.11 4.038 3.68 3.273 7.462zm-23.23-13.58c-.57.894-1.458 1.539-2.485 1.803-.09.027-.184.04-.279.04-.243 0-.478-.087-.662-.247-.184-.16-.304-.38-.338-.621-.034-.242.02-.487.154-.69.133-.205.335-.354.57-.42.328-.065.636-.21.896-.423.26-.212.462-.486.59-.796.113-.453.12-.925.023-1.381-.098-.456-.299-.884-.587-1.25-.076-.11-.129-.232-.157-.361-.028-.13-.03-.264-.007-.394.024-.13.073-.255.145-.366.072-.111.164-.207.273-.283.11-.075.232-.128.361-.156.13-.028.263-.03.393-.007.13.024.255.073.366.145.112.071.208.164.283.273.674.938 1.032 2.065 1.024 3.22 1.714.538 4.9 2.328 5.089 8.252.008.267-.09.527-.272.722-.183.195-.436.31-.703.318h-.033c-.262 0-.514-.102-.702-.284-.188-.182-.298-.43-.306-.692-.15-4.746-2.485-6.046-3.636-6.402zm7.158 17.226c.037.13.047.265.03.398-.016.133-.06.262-.126.378-.067.116-.156.218-.263.3-.107.08-.23.14-.36.174-.13.033-.264.04-.397.021-.133-.02-.26-.065-.376-.135-.114-.069-.214-.16-.293-.27-.08-.108-.136-.231-.167-.362-.096-.57-.318-1.112-.651-1.585-.333-.473-.768-.865-1.273-1.148-1.143-.422-2.4-.415-3.538.021-.08 1.095-.471 2.144-1.127 3.025-.152.217-.384.365-.644.412-.26.048-.53-.009-.748-.158-.22-.148-.37-.377-.422-.637-.052-.26 0-.53.146-.75.293-.345.507-.748.629-1.183.122-.435.148-.892.077-1.338-.154-.307-.366-.581-.626-.806-.26-.225-.56-.396-.886-.505-.127-.039-.245-.102-.347-.187-.102-.084-.186-.188-.248-.305-.062-.117-.1-.245-.112-.377-.013-.132.001-.265.04-.392.04-.127.103-.244.187-.346.085-.102.189-.186.306-.248.117-.062.245-.1.377-.113.132-.012.265.002.391.04 1.02.344 1.899 1.013 2.5 1.904 1.591-.557 3.33-.52 4.895.106.781.402 1.46.977 1.986 1.682.525.705.882 1.52 1.043 2.384h-.003zM51.043 47.876c-.064.116-.15.218-.254.3-.103.084-.222.145-.349.182-.127.037-.26.048-.392.034-.132-.015-.26-.055-.375-.12-1.034-.51-1.851-1.371-2.306-2.43-1.305.207-2.506.834-3.422 1.786-.916.951-1.497 2.175-1.654 3.487.874.32 1.67.821 2.337 1.472.097.09.175.198.23.318.056.12.088.25.093.383.005.132-.016.264-.062.389-.046.124-.116.238-.206.335-.09.097-.198.176-.318.231-.12.056-.25.087-.383.092-.132.005-.264-.016-.388-.062-.124-.045-.238-.115-.336-.205-.303-.352-.68-.635-1.102-.828-.423-.193-.883-.292-1.348-.29-.322.108-.618.283-.87.512-.251.229-.453.507-.592.818-.08.176-.21.326-.373.431-.164.105-.354.161-.548.162-.141 0-.28-.03-.41-.09-.242-.108-.431-.308-.527-.556-.096-.247-.09-.523.017-.766.266-.574.647-1.087 1.12-1.506.474-.42 1.028-.738 1.63-.934.181-1.794.956-3.475 2.201-4.779 1.246-1.303 2.89-2.154 4.674-2.416.143-.862.489-1.678 1.008-2.38.168-.202.407-.33.668-.358.26-.028.521.047.727.208.207.162.342.397.378.656.036.26-.03.523-.185.734-.457.611-.666 1.373-.587 2.132.115.373.31.717.571 1.008.261.291.583.522.942.676.116.065.218.151.3.255.083.104.144.223.18.35.037.128.047.262.032.394-.015.131-.056.259-.121.375z"/>
    <defs>
        <filter id="filter0_d" width="114.981" height="114.981" x=".553" y=".553" color-interpolation-filters="sRGB" filterUnits="userSpaceOnUse">
            <feFlood flood-opacity="0" result="BackgroundImageFix"/>
            <feColorMatrix in="SourceAlpha" values="0 0 0 0 0 0 0 0 0 0 0 0 0 0 0 0 0 0 127 0"/>
            <feOffset dy="4"/>
            <feGaussianBlur stdDeviation="5"/>
            <feColorMatrix values="0 0 0 0 0 0 0 0 0 0 0 0 0 0 0 0 0 0 0.05 0"/>
            <feBlend in2="BackgroundImageFix" result="effect1_dropShadow"/>
            <feBlend in="SourceGraphic" in2="effect1_dropShadow" result="shape"/>
        </filter>
    </defs>
</svg>
