<svg xmlns="http://www.w3.org/2000/svg" width="81" height="81" fill="none" viewBox="0 0 81 81">
    <g filter="url(#filter0_d)">
        <rect width="60.08" height="60.08" x="19.031" fill="#fff" rx="30.04" transform="rotate(14.488 19.03 0)"/>
    </g>
    <path fill="#FFBFBF" d="M47.052 23.744l-17.78 2.804c-1.634.258-2.755 1.796-2.497 3.431l2.804 17.78c.258 1.635 1.798 2.754 3.431 2.496l17.78-2.804c1.634-.257 2.754-1.796 2.496-3.43l-2.804-17.78c-.257-1.635-1.797-2.754-3.43-2.497zM52.1 44.208c.154.98-.517 1.903-1.498 2.058l-14.817 2.337-.747-4.742c-.258-1.634.862-3.173 2.496-3.43l3.556-.561c2.288-.361 3.855-2.515 3.494-4.803l-.428-2.718 2.945 2.142c.134.098.295.132.447.108.151-.023.294-.105.392-.239.195-.267.135-.643-.132-.838l-4.117-2.995c-.268-.195-.643-.136-.838.132l-2.995 4.117c-.195.267-.136.643.132.838.267.195.643.135.838-.132l2.142-2.946.429 2.718c.258 1.634-.863 3.173-2.496 3.43l-3.556.561c-2.288.361-3.855 2.515-3.495 4.803l.748 4.742-1.778.28c-.98.155-1.904-.517-2.058-1.498l-2.804-17.78c-.155-.98.517-1.904 1.497-2.058l17.78-2.804c.98-.155 1.904.517 2.059 1.497l2.804 17.78z"/>
    <path fill="#FFBFBF" d="M33.388 29.544c-1.633.258-2.754 1.796-2.496 3.431s1.798 2.754 3.43 2.496c1.634-.257 2.755-1.796 2.497-3.43-.258-1.635-1.797-2.754-3.43-2.497zm.748 4.742c-.98.154-1.904-.517-2.059-1.498-.154-.98.518-1.904 1.498-2.058.98-.155 1.904.517 2.059 1.497.154.98-.518 1.904-1.498 2.059zM47.745 40.82c-.267-.194-.643-.135-.838.132l-1.145 1.574-1.573-1.144c-.267-.194-.643-.135-.838.132-.194.268-.135.644.132.838l1.573 1.145-1.144 1.572c-.195.268-.136.644.132.838.133.098.294.133.446.109.152-.024.294-.106.392-.24l1.144-1.572 1.573 1.144c.134.096.295.13.447.107.152-.024.294-.106.392-.24.195-.267.136-.643-.132-.838l-1.574-1.145 1.144-1.572c.196-.27.137-.644-.13-.84z"/>
    <defs>
        <filter id="filter0_d" width="80.095" height="80.095" x=".553" y=".553" color-interpolation-filters="sRGB" filterUnits="userSpaceOnUse">
            <feFlood flood-opacity="0" result="BackgroundImageFix"/>
            <feColorMatrix in="SourceAlpha" values="0 0 0 0 0 0 0 0 0 0 0 0 0 0 0 0 0 0 127 0"/>
            <feOffset dy="4"/>
            <feGaussianBlur stdDeviation="5"/>
            <feColorMatrix values="0 0 0 0 0 0 0 0 0 0 0 0 0 0 0 0 0 0 0.05 0"/>
            <feBlend in2="BackgroundImageFix" result="effect1_dropShadow"/>
            <feBlend in="SourceGraphic" in2="effect1_dropShadow" result="shape"/>
        </filter>
    </defs>
</svg>
