<svg xmlns="http://www.w3.org/2000/svg" width="100" height="100" fill="none" viewBox="0 0 100 100">
    <circle cx="50.5" cy="49.5" r="29.5" fill="#EEF5FF"/>
    <path fill="#264A80" d="M44 38l-1 2h13l.5-2.5h-6c-1.5 0-4-.5-5-.5-.8 0-1.333.667-1.5 1z"/>
    <path fill="#0065FF" fill-rule="evenodd" d="M38.18 22.285c-3.63 1.498-6.83 3.657-9.521 6.348-2.692 2.692-4.85 5.89-6.348 9.522-1.473 3.605-2.286 7.592-2.286 11.832 0 4.24.813 8.227 2.286 11.833 1.498 3.63 3.656 6.83 6.348 9.521 2.691 2.692 5.89 4.85 9.521 6.348 3.606 1.473 7.592 2.286 11.833 2.286 4.24 0 8.227-.813 11.832-2.286 3.631-1.498 6.83-3.656 9.522-6.347 2.691-2.692 4.85-5.891 6.348-9.522C79.187 58.214 80 54.228 80 49.987c0-4.24-.813-8.227-2.285-11.832-1.498-3.631-3.657-6.83-6.348-9.522-2.692-2.691-5.89-4.85-9.522-6.348C58.24 20.812 54.253 20 50.013 20c-4.24 0-8.227.813-11.833 2.285zm.711 53.602c-3.351-1.371-6.373-3.403-8.887-5.891-2.488-2.514-4.52-5.536-5.89-8.887-1.397-3.403-2.159-7.135-2.159-11.122 0-3.986.762-7.719 2.158-11.121 1.372-3.352 3.403-6.373 5.891-8.887 2.514-2.488 5.536-4.52 8.887-5.891 3.403-1.396 7.135-2.158 11.122-2.158 3.986 0 7.719.762 11.121 2.158 3.352 1.371 6.373 3.402 8.887 5.89 2.489 2.515 4.52 5.536 5.891 8.888C77.308 42.268 78.07 46 78.07 49.987c0 3.987-.761 7.72-2.158 11.122-1.371 3.351-3.403 6.373-5.89 8.887-2.515 2.488-5.536 4.52-8.888 5.89-3.402 1.397-7.135 2.159-11.121 2.159-3.987 0-7.72-.762-11.122-2.158z" clip-rule="evenodd"/>
    <path fill="#264A80" d="M34 47v-5.5l3-1h28l2 2V47l-13.5 4H47l-13-4zM47 51H52V54H47z"/>
    <path fill="#0065FF" d="M33.5 48v13l2.234 1.5H62.5l3-.5 1.5-1.5-.5-13-14 4c0 .667.9 1.1.5 1.5-.4.4-.5.833-.5 1-1 .167-3.1.5-3.5.5-.4 0-1.167-.667-1.5-1l-.5-2L33.5 48z"/>
    <path fill="#fff" fill-rule="evenodd" d="M64.765 41.43c.102 0 .178.025.254.076.152.076.33.178.457.33.127.127.254.28.33.457l.076.229c.026.076.026.152.026.228v3.58L51.84 50.19H48.31L34.27 46.356V42.75c0-.076 0-.152.025-.228l.077-.229c.076-.178.203-.33.33-.457.152-.152.304-.254.482-.33.076-.05.153-.076.229-.076.076-.026.152-.026.228-.026h28.921c.076 0 .152 0 .203.026zm1.143 18.79c0 .05 0 .127-.026.203l-.076.228c-.076.178-.203.356-.33.483-.152.127-.305.254-.482.33-.076.05-.153.076-.229.076-.05.025-.127.05-.203.05h-28.92c-.077 0-.153-.025-.204-.05-.102 0-.178-.026-.254-.076-.178-.076-.33-.203-.457-.33-.152-.153-.254-.305-.355-.483l-.077-.228c-.025-.077-.025-.153-.025-.204V48.362l12.239 3.326c-.026.076-.051.152-.077.203-.025.153-.05.305-.05.483v.863c0 .152.025.305.05.457.051.127.077.254.153.406.101.229.28.457.482.66.178.204.407.356.66.483.128.05.28.101.407.127.152.05.304.076.457.076h2.996c.152 0 .305-.025.457-.076.152-.026.28-.076.406-.153.254-.101.483-.279.66-.482.204-.178.356-.406.458-.66.076-.127.127-.254.152-.407.025-.152.05-.304.05-.431v-.863c0-.153-.025-.305-.05-.458l-.076-.228 12.264-3.352V60.22zm-33.492.634c.051.229.127.432.204.61.177.38.431.736.736 1.04.305.28.635.534 1.016.712.203.101.406.152.609.203.228.05.432.101.66.101h28.921c.228 0 .432-.05.66-.101.203-.05.407-.102.61-.203.355-.178.71-.432 1.015-.737.28-.279.534-.634.711-1.015.076-.203.153-.407.203-.61.051-.203.077-.431.077-.635V42.75c0-.228-.026-.457-.077-.66-.05-.203-.127-.406-.203-.61-.178-.38-.431-.71-.71-1.015-.305-.305-.66-.533-1.016-.711-.203-.101-.407-.178-.61-.203-.228-.05-.431-.076-.66-.076h-6.957v-.99c0-.178-.026-.33-.051-.508-.025-.153-.076-.305-.152-.432-.127-.28-.305-.533-.508-.736-.229-.229-.483-.407-.736-.534-.153-.05-.305-.101-.432-.152-.178-.025-.33-.05-.508-.05H44.985c-.178 0-.33.025-.508.05-.127.05-.279.102-.431.152-.254.127-.508.305-.737.534-.203.203-.406.457-.533.71l-.152.458c-.026.152-.051.33-.051.508v.99h-6.932c-.228 0-.431.025-.66.076-.203.025-.406.102-.61.203-.355.152-.71.406-1.015.711-.305.28-.559.635-.711 1.016-.102.177-.178.38-.229.609-.05.203-.076.432-.076.66v17.47c0 .203.026.431.076.634zm12.036-21.38v-.99-.05c.025-.026.025-.051.025-.076.051-.077.102-.153.153-.204.05-.05.127-.101.203-.152.025 0 .05-.025.076-.025H55.268c.026 0 .051.025.102.025.051.05.127.102.178.152.05.051.102.127.152.178 0 .05 0 .076.026.102v1.04H44.452zm7.135 12.646h.05c.026.025.077.05.102.076.026.05.077.076.077.127.025 0 .025.025.025.025v.889s0 .025-.026.025l-.076.153c-.05.025-.076.05-.127.076h-.025v.025h-2.996v-.025h-.026c-.05-.026-.101-.051-.152-.102-.025-.025-.05-.076-.076-.127-.026-.025-.026-.025-.026-.05v-.838-.051l.102-.102c.05-.05.076-.076.127-.101H51.587z" clip-rule="evenodd"/>
</svg>
