<svg xmlns="http://www.w3.org/2000/svg" width="42" height="42" fill="none" viewBox="0 0 42 42">
    <mask id="q0jjwrthea" width="42" height="42" x="0" y="0" maskUnits="userSpaceOnUse">
        <path fill="#C4C4C4" d="M0 0H42V42H0z"/>
    </mask>
    <g mask="url(#q0jjwrthea)">
        <path fill="#6A2C70" d="M26.059 23.475c1.667.483 3.1 1.283 4.3 2.4 1.2 1.117 2.108 2.433 2.725 3.95.617 1.517.925 3.125.925 4.825 0 2.217-.575 4.242-1.725 6.075-1.133 1.833-2.658 3.283-4.575 4.35-1.917 1.05-4 1.575-6.25 1.575-1.8 0-3.525-.358-5.175-1.075-1.633-.733-3.058-1.767-4.275-3.1-1.2-1.333-2.05-2.875-2.55-4.625l6.6-1.75c.333 1.283 1 2.3 2 3.05 1.017.733 2.15 1.1 3.4 1.1 1.017 0 1.958-.25 2.825-.75.867-.5 1.55-1.175 2.05-2.025.517-.867.775-1.808.775-2.825 0-1.033-.242-1.975-.725-2.825-.483-.867-1.158-1.55-2.025-2.05-.85-.517-1.817-.775-2.9-.775-.967 0-1.9.267-2.8.8l-3.05-5.35 9.7-8.05h-14.45V10h22.5v6.4l-7.3 7.075z" opacity=".15"/>
    </g>
</svg>
