<svg xmlns="http://www.w3.org/2000/svg" width="50" height="50" fill="none" viewBox="0 0 50 50">
    <path fill="#fff" d="M0 0H50V50H0z"/>
    <rect width="36.429" height="36.429" x="7.143" y="7.143" fill="#6A2C70" rx="2"/>
    <path fill="#6A2C70" d="M7.871 8.6H25.357V25.357H7.871zM26.086 25.357H42.843V42.114000000000004H26.086z"/>
    <path fill="#E1D5E2" d="M8.6 25.357H25.357V42.114000000000004H8.6zM26.086 7.871H42.843V24.628H26.086z"/>
    <path fill="#6A2C70" d="M40.97 7.143H9.744c-1.431 0-2.602 1.17-2.602 2.602v31.224c0 1.431 1.17 2.602 2.602 2.602h31.224c1.431 0 2.602-1.17 2.602-2.602V9.745c0-1.431-1.17-2.602-2.602-2.602zm.867 2.602V24.49H26.224V8.877H40.97c.477 0 .868.39.868.868zM9.745 8.877H24.49V24.49H8.878V9.745c0-.477.39-.868.867-.868zM8.878 40.97V26.224H24.49v15.613H9.745c-.477 0-.867-.39-.867-.868zm32.091.867H26.224V26.224h15.613V40.97c0 .477-.39.867-.868.867z"/>
    <path fill="#6A2C70" d="M20.89 33.096c0-.442-.358-.8-.8-.8h-1.87c-.44 0-.8-.359-.8-.8v-1.87c0-.442-.357-.8-.8-.8h-.134c-.442 0-.8.358-.8.8v1.87c0 .441-.358.8-.8.8h-1.87c-.441 0-.8.358-.8.8v.134c0 .442.359.8.8.8h1.87c.442 0 .8.358.8.8v1.87c0 .441.358.8.8.8h.135c.442 0 .8-.358.8-.8v-1.87c0-.442.358-.8.8-.8h1.87c.441 0 .8-.358.8-.8v-.134z"/>
    <path fill="#fff" d="M20.023 16.121h-6.939c-.479 0-.867.388-.867.867 0 .48.388.868.867.868h6.939c.479 0 .867-.389.867-.868s-.388-.867-.867-.867zM37.24 35.33H30.3c-.479 0-.867.388-.867.867 0 .48.388.868.867.868h6.939c.479 0 .867-.389.867-.868s-.388-.867-.867-.867zM37.24 30.56H30.3c-.479 0-.867.389-.867.868s.388.867.867.867h6.939c.479 0 .867-.388.867-.867 0-.48-.388-.867-.867-.867z"/>
    <path fill="#6A2C70" d="M30.691 18.808c-.337.337-.341.882-.01 1.225.34.352.9.357 1.246.011l1.13-1.13c.393-.392 1.031-.39 1.42.007l1.096 1.115c.343.35.907.347 1.246-.005.33-.342.325-.884-.01-1.22l-1.123-1.123c-.389-.388-.391-1.016-.007-1.408l1.135-1.155c.332-.338.33-.88-.005-1.214-.337-.337-.883-.337-1.22 0l-1.118 1.117c-.388.389-1.016.391-1.408.007l-1.152-1.133c-.34-.333-.884-.33-1.22.006-.336.336-.338.88-.005 1.22l1.132 1.152c.385.392.382 1.02-.006 1.408l-1.12 1.12z"/>
</svg>
