<svg xmlns="http://www.w3.org/2000/svg" width="50" height="50" fill="none" viewBox="0 0 50 50">
    <path fill="#fff" d="M0 0H50V50H0z"/>
    <path fill="#E1D5E2" d="M14.643 8.93H8.929l-.358 8.572 1.072 3.928 3.571 2.858 2.143 1.071 1.429 3.214 3.571 2.5 2.143 1.429v5h-5.714l-.715.714.358 3.929h17.5v-2.857l-.715-1.429-5.357-.357-.357-3.929.714-1.071 5.715-3.929L35 24.645l3.571-.715 2.858-4.642L41.07 8.93h-5.357l-1.071-1.429H15.357l-.714 1.429z"/>
    <path fill="#fff" d="M35.714 8.572v15.715h2.143l1.429-1.429 1.785-2.143V8.572h-5.357zM14.643 8.572v15.715H12.5l-1.429-1.429-1.785-2.143-.357-2.5V8.572h5.714z"/>
    <path fill="#6A2C70" d="M16.429 37.857H33.572V42.143H16.429zM23.929 15.358l-3.215 1.071 2.143 1.786-.714 3.214L25 20.001l2.857 1.071-.357-2.857 2.143-2.143-3.214-.357-1.429-2.5-1.071 2.143z"/>
    <path fill="#6A2C70" stroke="#6A2C70" stroke-width=".2" d="M26.27 32.934h-2.54c-2.526 0-4.948-.998-6.734-2.776-1.786-1.778-2.79-4.189-2.79-6.703V7.062c0-.168.067-.329.186-.447.12-.119.28-.185.45-.185h20.317c.168 0 .33.066.449.185.119.118.186.279.186.447v16.393c0 2.514-1.004 4.925-2.79 6.703-1.786 1.778-4.208 2.776-6.734 2.776zM15.476 7.694v15.76c0 2.18.87 4.27 2.418 5.81s3.647 2.407 5.836 2.407h2.54c2.189 0 4.288-.866 5.836-2.407 1.548-1.54 2.418-3.63 2.418-5.81V7.695H15.476zM33.889 43.083H16.11c-.168 0-.33-.066-.449-.185-.119-.118-.186-.279-.186-.447v-3.924c-.01-.23.024-.462.104-.679.08-.217.202-.416.36-.585.52-.5 1.308-.5 2.14-.5h13.84c.826 0 1.613 0 2.14.487.158.17.28.369.36.586.08.217.115.447.104.678v3.937c0 .168-.067.329-.186.447-.12.119-.28.185-.45.185zM16.746 41.82h16.508v-3.292c.013-.132-.016-.265-.083-.38-.146-.12-.742-.12-1.231-.12H18.06c-.415-.057-.837-.013-1.231.127-.067.115-.096.247-.083.38v3.285z"/>
    <path fill="#6A2C70" stroke="#6A2C70" stroke-width=".2" d="M35.159 25.388c-.169 0-.33-.067-.45-.185-.118-.119-.185-.28-.185-.447V8.52c0-.168.067-.329.186-.447.119-.119.28-.185.449-.185h6.349c.168 0 .33.066.449.185.119.118.186.279.186.447v9.915c0 1.844-.736 3.612-2.046 4.916-1.31 1.303-3.086 2.036-4.938 2.036zm.635-16.235v14.933c1.396-.155 2.686-.817 3.623-1.86.937-1.042 1.455-2.391 1.456-3.79V9.153h-5.08zM14.841 25.388c-1.852 0-3.628-.733-4.938-2.036-1.31-1.304-2.046-3.072-2.046-4.916V8.521c0-.168.067-.329.186-.447.12-.119.28-.185.45-.185h6.348c.169 0 .33.066.45.185.118.118.185.279.185.447v16.235c0 .168-.067.328-.186.447-.119.118-.28.185-.449.185zM9.127 9.153v9.283c0 1.399.519 2.748 1.456 3.79.937 1.043 2.227 1.705 3.623 1.86V9.153H9.127zM27.54 38.029h-5.08c-.168 0-.33-.067-.449-.186-.119-.118-.186-.279-.186-.446v-5.189c0-.167.067-.328.186-.447.12-.118.28-.185.45-.185h5.079c.168 0 .33.067.449.185.119.119.186.28.186.447v5.189c0 .167-.067.328-.186.447-.12.118-.28.185-.45.185zm-4.445-1.264h3.81V32.84h-3.81v3.925z"/>
    <path fill="#6A2C70" d="M28.137 22.613c-.102-.001-.203-.027-.293-.076L25 21.052l-2.844 1.485c-.105.055-.222.08-.34.073-.118-.008-.231-.049-.327-.117-.099-.07-.175-.167-.22-.279-.045-.112-.057-.234-.034-.353l.546-3.16-2.305-2.212c-.081-.08-.14-.182-.167-.294-.028-.11-.025-.228.008-.338.036-.113.104-.214.195-.291.09-.077.201-.127.32-.145l3.174-.455 1.423-2.85c.052-.107.133-.197.234-.26.1-.063.218-.096.337-.096.12 0 .236.033.337.096.101.063.182.153.234.26l1.423 2.87 3.174.454c.119.018.23.068.32.145.091.077.159.178.195.291.033.11.036.227.008.338-.028.112-.086.213-.167.294l-2.305 2.231.546 3.16c.023.119.01.241-.034.353-.045.112-.121.209-.22.28-.113.064-.244.093-.374.081zM25 19.7c.103.001.205.025.298.07l2 1.049-.393-2.212c-.017-.101-.009-.204.023-.301s.087-.184.16-.256l1.62-1.573-2.235-.323c-.102-.015-.198-.054-.281-.115-.083-.06-.15-.14-.195-.232L25 13.791l-1.003 2.016c-.045.092-.112.172-.195.232-.083.06-.18.1-.281.115l-2.235.323 1.619 1.573c.073.072.128.16.16.256.032.097.04.2.024.3l-.387 2.219 2-1.05c.092-.046.194-.072.298-.075z"/>
</svg>
