<svg xmlns="http://www.w3.org/2000/svg" width="42" height="42" fill="none" viewBox="0 0 42 42">
    <mask id="tzy0vle7ba" width="42" height="42" x="0" y="0" maskUnits="userSpaceOnUse">
        <path fill="#C4C4C4" d="M0 0H42V42H0z"/>
    </mask>
    <g mask="url(#tzy0vle7ba)">
        <path fill="#6A2C70" d="M19.874 39.55h14.65v6.4h-25.2v-5.9l15.1-13.4c2.067-1.833 3.1-3.6 3.1-5.3 0-1.1-.225-2.075-.675-2.925-.45-.867-1.091-1.542-1.925-2.025-.816-.5-1.766-.75-2.85-.75-1.116 0-2.125.258-3.025.775-.883.517-1.566 1.208-2.05 2.075-.483.867-.708 1.8-.675 2.8h-7c0-2.433.534-4.558 1.6-6.375 1.084-1.817 2.6-3.217 4.55-4.2 1.95-.983 4.2-1.475 6.75-1.475 2.334 0 4.434.517 6.3 1.55 1.867 1.017 3.334 2.45 4.4 4.3 1.067 1.85 1.6 3.967 1.6 6.35 0 1.717-.241 3.158-.725 4.325-.466 1.15-1.116 2.175-1.95 3.075-.833.883-2.141 2.1-3.925 3.65l-8.05 7.05z" opacity=".15"/>
    </g>
</svg>
