<svg xmlns="http://www.w3.org/2000/svg" width="50" height="50" fill="none" viewBox="0 0 50 50">
    <path fill="#fff" d="M0 0H50V50H0z"/>
    <path fill="#E1D5E2" d="M8.571 8.572H42.857V42.143H8.571z"/>
    <path fill="#6A2C70" d="M8.571 8.572H42.857V12.857999999999999H8.571z"/>
    <path fill="#fff" d="M13.571 17.857H26.427999999999997V27.857H13.571z"/>
    <path fill="#6A2C70" d="M7.143 7.92v34.873c0 .102.02.203.06.298.038.094.095.18.168.252.072.072.158.13.252.169.095.039.196.06.298.06h34.872c.103 0 .204-.021.298-.06.095-.04.18-.096.253-.169.072-.072.13-.158.168-.252.04-.095.06-.196.06-.298V7.921c0-.103-.02-.204-.06-.298-.039-.095-.096-.18-.168-.253-.073-.072-.158-.13-.253-.168-.094-.04-.195-.06-.298-.06H7.921c-.102 0-.203.02-.298.06-.094.039-.18.096-.252.168-.073.073-.13.158-.169.253-.039.094-.06.195-.06.298zm1.556 34.095V14.081h33.316v27.934H8.7zM42.015 8.7v3.826H8.7V8.699h33.316z"/>
    <path fill="#fff" d="M11.481 11.472c.387 0 .7-.314.7-.7 0-.388-.313-.702-.7-.702-.387 0-.7.314-.7.701 0 .387.313.7.7.7zM15.256 11.472c.387 0 .7-.314.7-.7 0-.388-.313-.702-.7-.702-.387 0-.7.314-.7.701 0 .387.313.7.7.7zM19.031 11.472c.387 0 .701-.314.701-.7 0-.388-.314-.702-.7-.702-.388 0-.702.314-.702.701 0 .387.314.701.701.701z"/>
    <path fill="#6A2C70" d="M13.489 28.571h13.022c.078-.001.154-.017.226-.046l.03-.01c.063-.029.122-.069.173-.118l.03-.031c.014-.014.029-.026.041-.041.013-.023.025-.046.035-.07.047-.072.076-.156.082-.242.006-.025.011-.05.015-.076v-10.16c0-.084-.017-.166-.048-.243-.032-.077-.078-.147-.137-.206-.059-.059-.128-.105-.205-.137-.077-.032-.159-.048-.242-.048H13.489c-.083 0-.165.016-.242.048-.076.032-.146.078-.205.137-.059.06-.105.13-.137.206-.031.077-.048.16-.048.243v10.16c0 .083.017.166.048.243.032.077.079.146.137.205.059.06.129.106.205.138.077.032.159.048.242.048zm12.39-1.926l-4.733-3.674 4.733-3.674v7.348zm-1.218.658h-9.095l4.548-3.53 4.547 3.53zm-4.547-5.133l-4.842-3.76h9.684l-4.842 3.76zm-1.033.801l-4.96 3.85v-7.7l4.96 3.85z"/>
    <path fill="#A681A9" d="M38.024 17.459H32.36c-.206 0-.404.082-.55.228-.146.146-.227.344-.227.55 0 .206.081.404.227.55.146.146.344.228.55.228h5.663c.206 0 .404-.082.55-.228.146-.146.228-.344.228-.55 0-.206-.082-.404-.228-.55-.146-.146-.344-.228-.55-.228zM38.024 21.521H32.36c-.206 0-.404.082-.55.228-.146.146-.227.344-.227.55 0 .207.081.405.227.55.146.146.344.229.55.229h5.663c.206 0 .404-.082.55-.228.146-.146.228-.344.228-.55 0-.207-.082-.405-.228-.55-.146-.146-.344-.229-.55-.229zM38.024 25.582H32.36c-.206 0-.404.082-.55.228-.146.146-.227.344-.227.55 0 .206.081.404.227.55.146.146.344.228.55.228h5.663c.206 0 .404-.082.55-.228.146-.146.228-.344.228-.55 0-.206-.082-.404-.228-.55-.146-.146-.344-.228-.55-.228zM38.738 34.28H13.341c-.207 0-.404.081-.55.227-.146.146-.228.344-.228.55 0 .207.082.404.228.55.146.146.343.228.55.228h25.397c.206 0 .404-.082.55-.228.146-.145.228-.343.228-.55 0-.206-.082-.404-.228-.55-.146-.146-.344-.228-.55-.228z"/>
</svg>
