<svg xmlns="http://www.w3.org/2000/svg" width="42" height="42" fill="none" viewBox="0 0 42 42">
    <mask id="t2mmxbmlta" width="42" height="42" x="0" y="0" maskUnits="userSpaceOnUse">
        <path fill="#C4C4C4" d="M0 0H42V42H0z"/>
    </mask>
    <g mask="url(#t2mmxbmlta)">
        <path fill="#6A2C70" d="M23.007 25.95c2.233 0 4.216.5 5.95 1.5 1.75 1 3.108 2.392 4.075 4.175.983 1.767 1.475 3.775 1.475 6.025 0 2.217-.584 4.25-1.75 6.1-1.167 1.85-2.734 3.317-4.7 4.4-1.95 1.067-4.05 1.6-6.3 1.6-1.8 0-3.5-.367-5.1-1.1-1.6-.75-2.975-1.8-4.125-3.15-1.15-1.35-1.975-2.9-2.475-4.65l6.55-1.75c.216.833.6 1.567 1.15 2.2.55.617 1.2 1.1 1.95 1.45.75.333 1.516.5 2.3.5 1.016 0 1.958-.25 2.825-.75.866-.5 1.55-1.175 2.05-2.025.516-.867.775-1.808.775-2.825 0-1.017-.259-1.95-.775-2.8-.5-.867-1.184-1.55-2.05-2.05-.867-.5-1.809-.75-2.825-.75-1.95 0-3.584.617-4.9 1.85l-5.75-1.75 1.1-19.15h19.65v6.35H18.482l-.5 7.85c.766-.417 1.591-.725 2.475-.925.883-.217 1.733-.325 2.55-.325z" opacity=".15"/>
    </g>
</svg>
