<svg xmlns="http://www.w3.org/2000/svg" width="50" height="50" fill="none" viewBox="0 0 50 50">
    <path fill="#fff" d="M0 0H50V50H0z"/>
    <path fill="#E1D5E2" d="M35.66 42.607H20.527v-4.223h-5.63v-5.63l-5.28-2.463 3.168-3.167c-.117-1.642-.352-4.997-.352-5.279V20.79c0-.845 1.173-4.106 1.76-5.63.469-.705 1.407-2.183 1.407-2.464 0-.282 3.05-2.463 4.575-3.52l4.574-2.11c3.167-.352 10.205.351 13.02 5.982 3.52 7.038 3.871 11.964.704 17.243-1.634 2.724-2.282 3.642-2.474 3.793l-.34 8.523z"/>
    <circle cx="26.158" cy="14.81" r="1.408" fill="#fff"/>
    <circle cx="33.9" cy="21.849" r="1.408" fill="#fff"/>
    <circle cx="26.51" cy="22.2" r="2.463" fill="#fff"/>
    <circle cx="19.12" cy="21.849" r="1.408" fill="#fff"/>
    <circle cx="26.158" cy="29.589" r="1.408" fill="#fff"/>
    <path fill="#6A2C70" d="M41.641 22.443c0-8.83-6.79-16.015-15.138-16.015-8.347 0-15.138 7.184-15.138 16.015 0 1.38.175 2.744.502 4.066l-3.763 3.483-.01.011c-.022.021-.041.044-.06.067-.014.018-.029.034-.041.052-.014.02-.025.042-.037.063-.014.025-.027.049-.038.074l-.008.015c-.007.016-.009.033-.014.05-.009.026-.017.052-.023.08-.005.024-.007.049-.01.073l-.006.074c0 .025.002.05.004.075.002.025.005.05.01.074.004.024.01.047.018.07.007.025.014.05.023.073.01.023.02.045.032.067.012.022.022.044.036.066.015.023.033.045.05.067l.031.04c.004.005.008.007.012.01.023.025.049.045.075.066.016.013.03.027.047.038.022.015.047.027.071.04.023.012.045.025.069.035l.008.005 5.665 2.245v5.042c0 .426.346.773.773.773h4.48v3.394c0 .427.345.773.772.773h15.94c.426 0 .772-.346.772-.773V34.23c3.114-3.03 4.896-7.303 4.896-11.786zM26.503 7.973c7.496 0 13.594 6.491 13.594 14.47 0 4.174-1.696 8.146-4.65 10.897l-.009.01c-.022.021-.04.045-.06.07-.013.015-.028.03-.04.046-.015.023-.027.048-.04.072-.011.02-.024.039-.032.059-.01.023-.017.048-.025.072-.008.024-.016.046-.022.07-.005.022-.006.045-.009.067-.003.029-.008.057-.008.086l-.001.013v8.054H20.806v-3.395c0-.426-.346-.772-.773-.772h-4.48v-4.794-.008c0-.033-.005-.065-.01-.097-.002-.019-.002-.038-.006-.057-.006-.024-.015-.047-.023-.07-.007-.025-.013-.05-.023-.073-.008-.02-.02-.036-.03-.054-.013-.026-.024-.052-.04-.076-.016-.022-.034-.04-.052-.062-.014-.017-.027-.036-.043-.051-.017-.017-.037-.031-.056-.047-.02-.016-.04-.034-.06-.048-.016-.01-.034-.018-.05-.027-.028-.016-.056-.033-.087-.045l-.007-.004-5.013-1.987 3.196-2.957.027-.03c.02-.02.038-.041.056-.064l.04-.058c.014-.022.027-.043.038-.067.012-.022.022-.044.03-.067.01-.024.018-.047.025-.072.006-.023.012-.046.016-.07.005-.025.008-.05.01-.076.002-.024.002-.049.002-.073 0-.025-.001-.05-.004-.074-.003-.027-.008-.055-.014-.081-.003-.014-.003-.028-.007-.042-.37-1.33-.558-2.715-.558-4.118 0-7.979 6.098-14.47 13.593-14.47z"/>
    <path fill="#6A2C70" d="M19.153 24.411c1.047 0 1.936-.678 2.258-1.616h1.805c.292 1.243 1.271 2.222 2.515 2.515v1.805c-.939.322-1.616 1.211-1.616 2.258 0 1.317 1.071 2.389 2.388 2.389 1.318 0 2.39-1.071 2.39-2.39 0-1.046-.678-1.935-1.617-2.257V25.31c1.244-.292 2.223-1.271 2.515-2.515h1.805c.322.938 1.211 1.616 2.258 1.616 1.317 0 2.389-1.072 2.389-2.389 0-1.317-1.071-2.389-2.39-2.389-1.046 0-1.935.678-2.257 1.617H29.79c-.292-1.244-1.271-2.223-2.515-2.515V16.93c.939-.322 1.616-1.211 1.616-2.258 0-1.318-1.071-2.389-2.389-2.389-1.317 0-2.388 1.072-2.388 2.389 0 1.046.677 1.936 1.616 2.258v1.805c-1.244.293-2.223 1.272-2.515 2.515H21.41c-.322-.939-1.211-1.616-2.258-1.616-1.317 0-2.39 1.071-2.39 2.389 0 1.317 1.073 2.388 2.39 2.388zm7.35 5.806c-.465 0-.844-.379-.844-.845 0-.465.379-.843.844-.843.466 0 .845.378.845.843 0 .466-.38.845-.845.845zm7.35-9.04c.466 0 .845.38.845.845 0 .466-.379.844-.845.844-.465 0-.843-.378-.843-.844 0-.466.379-.844.843-.844zm-7.35-7.35c.466 0 .845.38.845.845 0 .465-.379.843-.845.843-.465 0-.844-.378-.844-.844 0-.465.379-.843.844-.843zm0 6.36c1.012 0 1.835.823 1.835 1.835s-.823 1.835-1.835 1.835-1.835-.823-1.835-1.835.823-1.835 1.835-1.835zm-7.35.99c.465 0 .844.38.844.845 0 .466-.379.844-.844.844-.465 0-.844-.378-.844-.844 0-.466.379-.844.844-.844z"/>
</svg>
