<svg xmlns="http://www.w3.org/2000/svg" width="42" height="42" fill="none" viewBox="0 0 42 42">
    <mask id="6ooef55xva" width="42" height="42" x="0" y="0" maskUnits="userSpaceOnUse">
        <path fill="#C4C4C4" d="M0 0H42V42H0z"/>
    </mask>
    <g mask="url(#6ooef55xva)">
        <path fill="#6A2C70" d="M22.997 25.9c2.233 0 4.216.51 5.95 1.526 1.75 1 3.108 2.391 4.075 4.175.983 1.783 1.474 3.8 1.474 6.05 0 2.216-.575 4.25-1.724 6.1-1.134 1.85-2.667 3.317-4.6 4.4-1.917 1.066-3.992 1.6-6.226 1.6-2.366 0-4.508-.559-6.425-1.675-1.9-1.117-3.4-2.684-4.5-4.7-1.083-2.017-1.625-4.309-1.625-6.875V26.05c0-2.8.542-5.234 1.625-7.3 1.1-2.084 2.659-3.675 4.675-4.775 2.017-1.117 4.367-1.675 7.05-1.675 3.784 0 6.9 1.133 9.35 3.4l-4.85 4.85c-.6-.6-1.3-1.067-2.1-1.4-.783-.334-1.583-.5-2.4-.5-1.25 0-2.366.3-3.35.9-.966.6-1.716 1.391-2.25 2.375-.533.966-.8 2.008-.8 3.125v3.075c.95-.717 1.992-1.267 3.125-1.65 1.15-.384 2.326-.575 3.526-.575zm-1.05 17.35c1.016 0 1.958-.25 2.825-.75.866-.5 1.55-1.174 2.05-2.024.516-.867.774-1.809.774-2.825 0-1.017-.25-1.959-.75-2.825-.5-.867-1.183-1.55-2.05-2.05-.85-.517-1.783-.775-2.8-.775-1.016 0-1.958.258-2.824.775-.867.5-1.559 1.183-2.076 2.05-.5.866-.75 1.808-.75 2.825 0 .983.25 1.908.75 2.775.5.85 1.175 1.533 2.026 2.05.866.516 1.808.775 2.825.775z" opacity=".15"/>
    </g>
</svg>
