<svg xmlns="http://www.w3.org/2000/svg" width="972" height="307" fill="none" viewBox="0 0 972 307">
    <g filter="url(#filter0_d)">
        <path fill="#fff" d="M264 40H474V118H264z"/>
    </g>
    <path fill="#6A2C70" d="M351.513 64.2c.33 0 .617.02.862.06.91.14 1.595.52 2.055 1.14.465.615.698 1.387.698 2.317 0 .606-.103 1.15-.308 1.636-.2.485-.507.885-.922 1.2-.41.315-.918.52-1.523.615-.245.04-.532.06-.862.06h-2.655V75h-1.808V64.2h4.463zm-.075 5.34c.28 0 .507-.025.682-.075.415-.105.715-.323.9-.653.19-.33.285-.694.285-1.094 0-.4-.095-.766-.285-1.096-.185-.335-.485-.555-.9-.66-.18-.044-.407-.067-.682-.067h-2.58v3.645h2.58zm7.6-2.213c.225-.154.48-.27.765-.344.285-.08.577-.12.877-.12.155 0 .325.012.51.037v1.688c-.19-.05-.385-.075-.585-.075-.415 0-.777.09-1.087.27-.36.195-.63.472-.81.832-.175.36-.263.782-.263 1.267V75h-1.815v-8.1h1.598v1.297c.22-.38.49-.67.81-.87zm9.775.856c.13.26.213.53.248.81.04.275.06.62.06 1.035V75h-1.583v-1.088c-.345.456-.745.788-1.2.998-.455.21-1.002.315-1.642.315-.57 0-1.06-.107-1.47-.322-.405-.22-.715-.516-.93-.886-.21-.37-.315-.782-.315-1.237 0-.595.147-1.093.442-1.493.3-.4.768-.71 1.403-.93.355-.114.762-.212 1.222-.292.465-.085 1.128-.192 1.988-.322l.315-.045c-.035-.47-.185-.816-.45-1.035-.26-.22-.663-.33-1.208-.33-.4 0-.765.092-1.095.277-.325.185-.55.47-.675.855l-1.65-.517c.205-.71.595-1.265 1.17-1.665.575-.406 1.325-.608 2.25-.608.75 0 1.393.123 1.928.368.54.244.937.624 1.192 1.14zm-1.665 4.26c.11-.266.17-.686.18-1.26-.785.124-1.35.22-1.695.284-.34.06-.64.136-.9.225-.325.12-.57.266-.735.436-.165.17-.247.38-.247.63 0 .305.112.552.337.742.23.19.553.285.968.285.385 0 .722-.067 1.012-.203.295-.14.533-.312.713-.517.18-.205.302-.412.367-.623zm7.443 2.782c-.815 0-1.523-.182-2.123-.547-.595-.37-1.05-.878-1.365-1.523-.315-.65-.475-1.385-.48-2.205 0-.825.163-1.56.488-2.205.325-.65.787-1.157 1.387-1.523.605-.364 1.31-.547 2.115-.547.61 0 1.163.105 1.658.315.495.21.907.51 1.237.9.335.385.565.843.69 1.373l-1.8.487c-.135-.43-.367-.767-.697-1.013-.325-.244-.695-.367-1.11-.367-.68 0-1.193.235-1.538.705-.34.47-.512 1.095-.517 1.875.005.795.182 1.425.532 1.89.35.46.858.69 1.523.69.47 0 .845-.105 1.125-.315.28-.215.492-.538.637-.968l1.845.413c-.25.825-.687 1.46-1.312 1.905-.625.44-1.39.66-2.295.66zm7.48-3.637v.427c0 .26.01.47.03.63.02.16.065.293.135.398.115.19.275.325.48.404.21.08.468.12.773.12.28 0 .6-.027.96-.082V75c-.49.095-.948.142-1.373.142-.58 0-1.087-.09-1.522-.27-.435-.184-.76-.475-.975-.87-.13-.234-.215-.477-.255-.727-.04-.25-.06-.547-.06-.893l.007-.69v-3.374h-1.47V66.9h1.47v-2.25h1.8v2.25h2.378v1.417h-2.378v3.27zm4.27-7.575h1.807v1.657h-1.807v-1.657zm0 2.887h1.807V75h-1.807v-8.1zm7.571 8.325c-.815 0-1.522-.182-2.122-.547-.595-.37-1.05-.878-1.365-1.523-.315-.65-.475-1.385-.48-2.205 0-.825.162-1.56.487-2.205.325-.65.788-1.157 1.388-1.523.605-.364 1.31-.547 2.115-.547.61 0 1.162.105 1.657.315.495.21.908.51 1.238.9.335.385.565.843.69 1.373l-1.8.487c-.135-.43-.368-.767-.698-1.013-.325-.244-.695-.367-1.11-.367-.68 0-1.192.235-1.537.705-.34.47-.513 1.095-.518 1.875.005.795.183 1.425.533 1.89.35.46.857.69 1.522.69.47 0 .845-.105 1.125-.315.28-.215.493-.538.638-.968l1.845.413c-.25.825-.688 1.46-1.313 1.905-.625.44-1.39.66-2.295.66zm6.376-3.772c.07.67.282 1.184.637 1.544.36.356.845.533 1.455.533.44 0 .823-.097 1.148-.293.325-.2.575-.487.75-.862l1.785.54c-.205.48-.49.895-.855 1.245-.36.345-.775.61-1.245.795-.465.18-.958.27-1.478.27-.81 0-1.527-.177-2.152-.532-.625-.355-1.113-.85-1.463-1.486-.345-.634-.517-1.357-.517-2.167 0-.875.167-1.64.502-2.295.34-.66.815-1.17 1.425-1.53.61-.36 1.31-.54 2.1-.54.78 0 1.455.172 2.025.517.57.346 1.008.838 1.313 1.478.305.635.457 1.382.457 2.242 0 .17-.007.35-.022.54h-5.865zm2.167-3.196c-1.2 0-1.907.61-2.122 1.83h3.99c-.08-.63-.273-1.092-.578-1.387-.3-.295-.73-.443-1.29-.443zM347.2 84.2h1.808v9.105h4.77V95H347.2V84.2zm11.426 11.025c-.8 0-1.505-.18-2.115-.54-.61-.365-1.083-.87-1.418-1.515-.33-.65-.495-1.39-.495-2.22 0-.84.168-1.582.503-2.228.34-.65.815-1.152 1.425-1.507.61-.36 1.31-.54 2.1-.54.805 0 1.512.183 2.122.547.61.36 1.083.866 1.418 1.516.335.644.502 1.382.502 2.212 0 .835-.17 1.578-.51 2.227-.335.645-.81 1.148-1.425 1.508-.61.36-1.312.54-2.107.54zm0-1.695c.695 0 1.222-.233 1.582-.698.365-.464.548-1.092.548-1.882 0-.8-.183-1.43-.548-1.89-.36-.46-.887-.69-1.582-.69-.705 0-1.235.233-1.59.697-.35.46-.525 1.088-.525 1.883 0 .805.18 1.438.54 1.897.365.456.89.683 1.575.683zm12.835-6.63v8.49c0 .435-.038.815-.113 1.14-.18.76-.592 1.332-1.237 1.718-.64.384-1.435.577-2.385.577-.68 0-1.308-.157-1.883-.472-.575-.31-1.02-.74-1.335-1.29l1.665-.826c.145.28.358.496.638.645.28.15.587.225.922.225.585 0 1.053-.152 1.403-.457.355-.3.527-.73.517-1.29v-.772c-.575.425-1.27.637-2.085.637-.73 0-1.377-.185-1.942-.555-.56-.375-.993-.885-1.298-1.53-.305-.65-.457-1.38-.457-2.19 0-.82.155-1.553.465-2.198.31-.65.75-1.157 1.32-1.522.57-.37 1.23-.555 1.98-.555.9 0 1.647.27 2.242.81V86.9h1.583zm-3.615 6.705c.695 0 1.207-.235 1.537-.705.33-.475.495-1.125.495-1.95s-.162-1.472-.487-1.943c-.325-.475-.82-.712-1.485-.712-.47 0-.865.117-1.185.352-.315.23-.55.545-.705.945-.155.4-.233.853-.233 1.358 0 .51.075.965.225 1.365.155.4.385.715.69.945.31.23.693.345 1.148.345zm5.868-9.593h1.807v1.658h-1.807v-1.657zm0 2.888h1.807V95h-1.807v-8.1zm7.571 8.325c-.815 0-1.522-.182-2.122-.547-.595-.37-1.05-.878-1.365-1.523-.315-.65-.475-1.385-.48-2.205 0-.825.162-1.56.487-2.205.325-.65.788-1.157 1.388-1.523.605-.364 1.31-.547 2.115-.547.61 0 1.162.105 1.657.315.495.21.908.51 1.238.9.335.385.565.843.69 1.373l-1.8.487c-.135-.43-.368-.767-.698-1.013-.325-.244-.695-.367-1.11-.367-.68 0-1.192.235-1.537.705-.34.47-.513 1.095-.518 1.875.005.795.183 1.425.533 1.89.35.46.857.69 1.522.69.47 0 .845-.105 1.125-.315.28-.215.493-.538.638-.968l1.845.413c-.25.825-.688 1.46-1.313 1.905-.625.44-1.39.66-2.295.66z"/>
    <path fill="#fff" d="M268 44H338V114H268z"/>
    <path fill="#E1D5E2" d="M317.923 103.651h-21.184v-5.912h-7.883v-7.883l-7.39-3.448 4.434-4.434c-.164-2.3-.493-6.996-.493-7.39v-1.478c0-1.182 1.643-5.747 2.464-7.882.657-.986 1.97-3.055 1.97-3.449 0-.394 4.27-3.449 6.405-4.927l6.404-2.956c4.434-.492 14.287.493 18.229 8.376 4.926 9.853 5.419 16.75.985 24.14-2.288 3.814-3.196 5.099-3.464 5.31l-.477 11.933z"/>
    <circle cx="304.621" cy="64.732" r="1.971" fill="#fff"/>
    <circle cx="315.46" cy="74.586" r="1.971" fill="#fff"/>
    <circle cx="305.114" cy="75.078" r="3.449" fill="#fff"/>
    <circle cx="294.768" cy="74.586" r="1.971" fill="#fff"/>
    <circle cx="304.621" cy="85.424" r="1.971" fill="#fff"/>
    <path fill="#6A2C70" d="M326.298 75.422c0-12.363-9.508-22.422-21.193-22.422-11.686 0-21.194 10.059-21.194 22.422 0 1.932.245 3.84.703 5.692l-5.269 4.876-.015.016c-.029.03-.056.061-.082.093-.02.025-.041.048-.058.073-.02.028-.035.058-.052.089-.019.034-.038.067-.053.102-.003.008-.008.014-.011.021-.009.023-.012.047-.02.07-.012.037-.024.074-.032.112-.007.034-.01.069-.014.103-.004.034-.007.069-.008.104 0 .035.003.07.006.105.003.034.006.069.012.103.007.034.017.066.026.099.01.034.02.068.033.102.013.032.029.062.045.093.016.031.031.061.05.092.022.033.046.063.071.094.015.019.026.039.042.057l.017.014c.032.034.068.062.105.092.022.017.043.037.066.053.031.021.066.037.1.056.031.017.062.035.095.05.005.001.008.004.012.006l7.932 3.144v7.058c0 .597.484 1.081 1.081 1.081h6.271v4.753c0 .597.485 1.081 1.082 1.081h22.315c.597 0 1.082-.484 1.082-1.081V91.922c4.359-4.242 6.855-10.224 6.855-16.5zm-21.193-20.26c10.493 0 19.03 9.09 19.03 20.26 0 5.844-2.373 11.404-6.51 15.255l-.011.014c-.031.03-.058.063-.086.097l-.054.065c-.022.033-.039.068-.058.102-.015.027-.032.053-.044.082-.014.032-.023.067-.034.101-.011.033-.024.064-.031.099-.007.03-.009.061-.013.093-.004.04-.011.079-.011.12l-.002.019v11.274h-20.153v-4.752c0-.597-.484-1.082-1.081-1.082h-6.272v-6.711l-.001-.011c0-.046-.007-.09-.013-.136-.003-.026-.004-.053-.01-.08-.007-.033-.02-.066-.031-.099-.011-.034-.019-.069-.033-.101-.011-.027-.027-.05-.041-.076-.019-.035-.035-.072-.058-.105-.021-.031-.047-.058-.071-.087-.021-.024-.038-.05-.061-.072-.023-.024-.052-.044-.079-.065-.028-.023-.054-.048-.084-.068-.022-.014-.046-.025-.069-.038-.04-.022-.079-.046-.122-.063l-.009-.005-7.019-2.782 4.474-4.14c.014-.013.024-.029.038-.042.027-.03.054-.058.078-.09.021-.026.04-.054.058-.081.019-.03.036-.06.053-.093.015-.031.029-.062.042-.095.013-.032.024-.065.034-.1.009-.032.017-.064.023-.098.006-.035.011-.07.014-.106.002-.034.003-.069.003-.103-.001-.034-.002-.069-.006-.103-.004-.039-.011-.077-.02-.114-.004-.02-.004-.038-.01-.058-.518-1.862-.781-3.802-.781-5.765 0-11.17 8.537-20.26 19.031-20.26z"/>
    <path fill="#6A2C70" d="M294.814 78.175c1.465 0 2.711-.95 3.162-2.264h2.526c.409 1.741 1.78 3.112 3.521 3.522v2.526c-1.314.451-2.263 1.697-2.263 3.162 0 1.844 1.501 3.345 3.345 3.345 1.844 0 3.344-1.5 3.344-3.345 0-1.465-.949-2.71-2.263-3.162v-2.526c1.741-.41 3.112-1.78 3.521-3.522h2.527c.451 1.315 1.696 2.264 3.161 2.264 1.845 0 3.345-1.5 3.345-3.345 0-1.844-1.5-3.345-3.345-3.345-1.465 0-2.71.95-3.161 2.264h-2.527c-.409-1.742-1.78-3.112-3.521-3.521V67.7c1.314-.451 2.263-1.696 2.263-3.161 0-1.845-1.5-3.345-3.344-3.345-1.844 0-3.345 1.5-3.345 3.345 0 1.465.949 2.71 2.263 3.16v2.528c-1.741.41-3.112 1.78-3.521 3.521h-2.526c-.451-1.314-1.697-2.263-3.162-2.263-1.844 0-3.345 1.5-3.345 3.344 0 1.845 1.501 3.345 3.345 3.345zm10.291 8.127c-.652 0-1.182-.53-1.182-1.182 0-.65.529-1.181 1.182-1.181.652 0 1.181.53 1.181 1.181 0 .652-.53 1.182-1.181 1.182zm10.29-12.654c.651 0 1.182.53 1.182 1.182 0 .652-.53 1.182-1.182 1.182-.651 0-1.181-.53-1.181-1.182 0-.652.53-1.182 1.181-1.182zm-10.29-10.29c.651 0 1.181.53 1.181 1.18 0 .653-.529 1.182-1.181 1.182-.653 0-1.182-.53-1.182-1.181 0-.652.53-1.181 1.182-1.181zm0 8.902c1.416 0 2.569 1.153 2.569 2.57 0 1.416-1.153 2.57-2.569 2.57-1.417 0-2.57-1.154-2.57-2.57 0-1.417 1.153-2.57 2.57-2.57zm-10.291 1.388c.652 0 1.182.53 1.182 1.182 0 .652-.53 1.182-1.182 1.182-.651 0-1.182-.53-1.182-1.182 0-.652.531-1.182 1.182-1.182z"/>
    <g filter="url(#filter1_d)">
        <path fill="#fff" d="M499 189H709V267H499z"/>
    </g>
    <path fill="#6A2C70" d="M586.618 224.225c-1.06 0-1.98-.232-2.76-.698-.775-.47-1.37-1.13-1.785-1.98-.415-.85-.623-1.832-.623-2.947s.208-2.098.623-2.948c.415-.85 1.01-1.507 1.785-1.972.78-.47 1.7-.705 2.76-.705.815 0 1.547.14 2.197.42.655.275 1.205.672 1.65 1.192.45.515.788 1.128 1.013 1.838l-1.823.502c-.215-.72-.577-1.275-1.087-1.665-.51-.39-1.16-.585-1.95-.585-.71 0-1.31.163-1.8.488-.485.32-.85.775-1.095 1.365-.245.585-.37 1.275-.375 2.07 0 .795.122 1.487.367 2.077.245.585.613 1.04 1.103 1.365.49.32 1.09.48 1.8.48.79 0 1.44-.195 1.95-.585.51-.39.872-.945 1.087-1.665l1.823.503c-.225.71-.563 1.325-1.013 1.845-.445.515-.995.912-1.65 1.192-.65.276-1.382.413-2.197.413zm10.084 0c-.8 0-1.505-.18-2.115-.54-.61-.365-1.083-.87-1.418-1.515-.33-.65-.495-1.39-.495-2.22 0-.84.168-1.583.503-2.228.34-.65.815-1.152 1.425-1.507.61-.36 1.31-.54 2.1-.54.805 0 1.512.182 2.122.547.61.36 1.083.865 1.418 1.515.335.645.502 1.383.502 2.213 0 .835-.17 1.577-.51 2.227-.335.645-.81 1.148-1.425 1.508-.61.36-1.312.54-2.107.54zm0-1.695c.695 0 1.222-.233 1.582-.698.365-.465.548-1.092.548-1.882 0-.8-.183-1.43-.548-1.89-.36-.46-.887-.69-1.582-.69-.705 0-1.235.232-1.59.697-.35.46-.525 1.088-.525 1.883 0 .805.18 1.437.54 1.897.365.455.89.683 1.575.683zm14.455-6.832c.585 0 1.085.122 1.5.367.42.24.737.58.952 1.02.215.435.323.947.323 1.537V224h-1.808v-4.92c0-.55-.137-.983-.412-1.298-.275-.315-.648-.472-1.118-.472-.29 0-.552.067-.787.202-.23.135-.413.333-.548.593-.13.255-.195.557-.195.907V224h-1.8v-4.898c0-.56-.137-.997-.412-1.312-.275-.32-.65-.48-1.125-.48-.305 0-.573.072-.803.217-.23.14-.407.34-.532.6-.125.255-.188.55-.188.885V224h-1.822v-8.1h1.597v.877c.27-.34.608-.605 1.013-.795.41-.189.855-.284 1.335-.284.555 0 1.032.114 1.432.344.4.225.71.54.93.945.25-.405.593-.72 1.028-.945.435-.23.915-.344 1.44-.344zm8.556-.023c.75 0 1.41.185 1.98.555.57.365 1.01.872 1.32 1.522.31.645.465 1.378.465 2.198 0 .81-.153 1.54-.458 2.19-.305.645-.74 1.155-1.305 1.53-.56.37-1.205.555-1.935.555-.815 0-1.51-.213-2.085-.638v4.013h-1.822v-11.7h1.597v.585c.595-.54 1.343-.81 2.243-.81zm-.21 6.93c.455 0 .835-.115 1.14-.345.31-.23.54-.545.69-.945.155-.4.232-.855.232-1.365 0-.505-.077-.958-.232-1.358-.155-.4-.393-.715-.713-.945-.315-.235-.707-.352-1.177-.352-.665 0-1.16.237-1.485.712-.325.47-.488 1.118-.488 1.943s.165 1.475.495 1.95c.33.47.843.705 1.538.705zm7.113-2.153c.07.67.283 1.185.638 1.545.36.355.845.533 1.455.533.44 0 .822-.098 1.147-.293.325-.2.575-.487.75-.862l1.785.54c-.205.48-.49.895-.855 1.245-.36.345-.775.61-1.245.795-.465.18-.957.27-1.477.27-.81 0-1.528-.177-2.153-.533-.625-.355-1.112-.85-1.462-1.485-.345-.635-.518-1.357-.518-2.167 0-.875.168-1.64.503-2.295.34-.66.815-1.17 1.425-1.53.61-.36 1.31-.54 2.1-.54.78 0 1.455.172 2.025.517.57.345 1.007.838 1.312 1.478.305.635.458 1.382.458 2.242 0 .17-.008.35-.023.54h-5.865zm2.168-3.195c-1.2 0-1.908.61-2.123 1.83h3.99c-.08-.63-.272-1.092-.577-1.387-.3-.295-.73-.443-1.29-.443zm7.74 3.33v.428c0 .26.01.47.03.63.02.16.065.292.135.397.115.19.275.325.48.405.21.08.468.12.773.12.28 0 .6-.027.96-.082V224c-.49.095-.948.143-1.373.143-.58 0-1.087-.09-1.522-.271-.435-.185-.76-.475-.975-.87-.13-.235-.215-.477-.255-.727-.04-.25-.06-.548-.06-.893l.007-.69v-3.375h-1.47V215.9h1.47v-2.25h1.8v2.25h2.378v1.417h-2.378v3.27zm4.27-7.575h1.807v1.658h-1.807v-1.658zm0 2.888h1.807v8.1h-1.807v-8.1zm6.424 4.687v.428c0 .26.01.47.03.63.02.16.065.292.135.397.115.19.275.325.48.405.21.08.467.12.772.12.28 0 .6-.027.96-.082V224c-.49.095-.947.143-1.372.143-.58 0-1.088-.09-1.523-.271-.435-.185-.76-.475-.975-.87-.13-.235-.215-.477-.255-.727-.04-.25-.06-.548-.06-.893l.008-.69v-3.375h-1.47V215.9h1.47v-2.25h1.8v2.25h2.377v1.417h-2.377v3.27zm4.269-7.575h1.808v1.658h-1.808v-1.658zm0 2.888h1.808v8.1h-1.808v-8.1zm3.304 0h1.808l2.04 5.872 2.032-5.872h1.815l-2.94 8.1h-1.815l-2.94-8.1zm10.233 4.552c.07.67.283 1.185.638 1.545.36.355.845.533 1.455.533.44 0 .822-.098 1.147-.293.325-.2.575-.487.75-.862l1.785.54c-.205.48-.49.895-.855 1.245-.36.345-.775.61-1.245.795-.465.18-.957.27-1.477.27-.81 0-1.528-.177-2.153-.533-.625-.355-1.112-.85-1.462-1.485-.345-.635-.518-1.357-.518-2.167 0-.875.168-1.64.503-2.295.34-.66.815-1.17 1.425-1.53.61-.36 1.31-.54 2.1-.54.78 0 1.455.172 2.025.517.57.345 1.007.838 1.312 1.478.305.635.458 1.382.458 2.242 0 .17-.008.35-.023.54h-5.865zm2.168-3.195c-1.2 0-1.908.61-2.123 1.83h3.99c-.08-.63-.272-1.092-.577-1.387-.3-.295-.73-.443-1.29-.443zm-80.574 26.968c-1.06 0-1.98-.232-2.76-.698-.775-.47-1.37-1.13-1.785-1.98-.415-.85-.623-1.832-.623-2.947s.208-2.098.623-2.948c.415-.85 1.01-1.507 1.785-1.972.78-.47 1.7-.705 2.76-.705.815 0 1.547.14 2.197.42.655.275 1.205.672 1.65 1.192.45.515.788 1.128 1.013 1.838l-1.823.502c-.215-.72-.577-1.275-1.087-1.665-.51-.39-1.16-.585-1.95-.585-.71 0-1.31.163-1.8.488-.485.32-.85.775-1.095 1.365-.245.585-.37 1.275-.375 2.07 0 .795.122 1.487.367 2.077.245.585.613 1.04 1.103 1.365.49.32 1.09.48 1.8.48.79 0 1.44-.195 1.95-.585.51-.39.872-.945 1.087-1.665l1.823.503c-.225.71-.563 1.325-1.013 1.845-.445.515-.995.912-1.65 1.192-.65.276-1.382.413-2.197.413zm10.084 0c-.8 0-1.505-.18-2.115-.54-.61-.365-1.083-.87-1.418-1.515-.33-.65-.495-1.39-.495-2.22 0-.84.168-1.583.503-2.228.34-.65.815-1.152 1.425-1.507.61-.36 1.31-.54 2.1-.54.805 0 1.512.182 2.122.547.61.36 1.083.865 1.418 1.515.335.645.502 1.383.502 2.213 0 .835-.17 1.577-.51 2.227-.335.645-.81 1.148-1.425 1.508-.61.36-1.312.54-2.107.54zm0-1.695c.695 0 1.222-.233 1.582-.698.365-.465.548-1.092.548-1.882 0-.8-.183-1.43-.548-1.89-.36-.46-.887-.69-1.582-.69-.705 0-1.235.232-1.59.697-.35.46-.525 1.088-.525 1.883 0 .805.18 1.437.54 1.897.365.455.89.683 1.575.683zm12.85-9.33V244h-1.598v-.6c-.605.55-1.375.825-2.31.825-.73 0-1.377-.185-1.942-.555-.56-.375-.993-.885-1.298-1.53-.305-.65-.457-1.38-.457-2.19 0-.82.155-1.553.465-2.198.31-.65.75-1.157 1.32-1.522.57-.37 1.23-.555 1.98-.555.78 0 1.452.207 2.017.622V233.2h1.823zm-3.63 9.405c.695 0 1.207-.235 1.537-.705.33-.475.495-1.125.495-1.95s-.162-1.473-.487-1.943c-.325-.475-.82-.712-1.485-.712-.47 0-.865.117-1.185.352-.315.23-.55.545-.705.945-.155.4-.233.853-.233 1.358 0 .51.075.965.225 1.365.155.4.385.715.69.945.31.23.693.345 1.148.345zm5.882-9.593h1.808v1.658h-1.808v-1.658zm0 2.888h1.808v8.1h-1.808v-8.1zm8.3-.233c.905 0 1.592.23 2.062.69.47.455.775.963.915 1.523.14.56.21 1.092.21 1.597V244h-1.83v-3.9c0-1.82-.63-2.73-1.89-2.73-.545 0-.997.187-1.357.562-.36.37-.54 1.005-.54 1.905V244h-1.83v-8.1h1.612v.9c.305-.36.68-.638 1.125-.833.445-.2.953-.3 1.523-.3zm12.284.233v8.49c0 .435-.037.815-.112 1.14-.18.76-.593 1.333-1.238 1.718-.64.385-1.435.577-2.385.577-.68 0-1.307-.157-1.882-.472-.575-.31-1.02-.74-1.335-1.29l1.665-.825c.145.28.357.495.637.645.28.15.588.225.923.225.585 0 1.052-.153 1.402-.458.355-.3.528-.73.518-1.29v-.773c-.575.425-1.27.638-2.085.638-.73 0-1.378-.185-1.943-.555-.56-.375-.992-.885-1.297-1.53-.305-.65-.458-1.38-.458-2.19 0-.82.155-1.553.465-2.198.31-.65.75-1.157 1.32-1.522.57-.37 1.23-.555 1.98-.555.9 0 1.648.27 2.243.81v-.585h1.582zm-3.615 6.705c.695 0 1.208-.235 1.538-.705.33-.475.495-1.125.495-1.95s-.163-1.473-.488-1.943c-.325-.475-.82-.712-1.485-.712-.47 0-.865.117-1.185.352-.315.23-.55.545-.705.945-.155.4-.232.853-.232 1.358 0 .51.075.965.225 1.365.155.4.385.715.69.945.31.23.692.345 1.147.345z"/>
    <path fill="#fff" d="M503 193H573V263H503z"/>
    <path fill="#E1D5E2" d="M523.5 205.5h-8l-.5 12 1.5 5.5 5 4 3 1.5 2 4.5 5 3.5 3 2v7h-8l-1 1 .5 5.5h24.5v-4l-1-2-7.5-.5-.5-5.5 1-1.5 8-5.5 1.5-5.5 5-1 4-6.5-.5-14.5H553l-1.5-2h-27l-1 2z"/>
    <path fill="#fff" d="M553 205v22h3l2-2 2.5-3v-17H553zM523.5 205v22h-3l-2-2-2.5-3-.5-3.5V205h8z"/>
    <path fill="#6A2C70" d="M526 246H550V252H526zM536.5 214.5L532 216l3 2.5-1 4.5 4-2 4 1.5-.5-4 3-3-4.5-.5-2-3.5-1.5 3z"/>
    <path fill="#6A2C70" stroke="#6A2C70" stroke-width=".2" d="M539.778 239.107h-3.556c-3.536 0-6.927-1.399-9.428-3.887-2.5-2.489-3.905-5.865-3.905-9.385v-22.95c0-.235.094-.46.26-.626.167-.166.393-.259.629-.259h28.444c.236 0 .462.093.629.259.166.166.26.391.26.626v22.95c0 3.52-1.405 6.896-3.905 9.385-2.501 2.488-5.892 3.887-9.428 3.887zm-15.111-35.337v22.065c0 3.051 1.217 5.976 3.384 8.133 2.167 2.157 5.107 3.369 8.171 3.369h3.556c3.065 0 6.004-1.212 8.171-3.369s3.384-5.082 3.384-8.133V203.77h-26.666zM550.444 253.314h-24.888c-.236 0-.462-.093-.629-.259-.167-.166-.26-.391-.26-.625v-5.495c-.016-.323.034-.646.145-.95.112-.303.283-.582.504-.819.728-.699 1.831-.699 2.995-.699h19.378c1.155 0 2.258 0 2.995.681.221.237.393.516.504.82.111.304.161.626.145.95v5.512c0 .234-.093.459-.26.625-.167.166-.393.259-.629.259zm-24-1.769h23.112v-4.61c.018-.184-.022-.37-.116-.531-.204-.168-1.04-.168-1.724-.168h-19.432c-.58-.08-1.172-.019-1.724.177-.093.161-.134.346-.116.531v4.601z"/>
    <path fill="#6A2C70" stroke="#6A2C70" stroke-width=".2" d="M552.222 228.542c-.236 0-.462-.093-.628-.259-.167-.166-.261-.391-.261-.626v-22.729c0-.235.094-.46.261-.626.166-.166.392-.259.628-.259h8.889c.236 0 .462.093.629.259.166.166.26.391.26.626v13.882c0 2.581-1.03 5.056-2.864 6.881-1.834 1.825-4.321 2.851-6.914 2.851zm.889-22.73v20.907c1.955-.217 3.761-1.144 5.073-2.603 1.312-1.459 2.037-3.348 2.038-5.306v-12.998h-7.111zM523.778 228.542c-2.593 0-5.08-1.026-6.914-2.851-1.834-1.825-2.864-4.3-2.864-6.881v-13.882c0-.235.094-.46.26-.626.167-.166.393-.259.629-.259h8.889c.236 0 .462.093.628.259.167.166.261.391.261.626v22.729c0 .235-.094.46-.261.626-.166.166-.392.259-.628.259zm-8-22.73v12.998c.001 1.958.726 3.847 2.038 5.306 1.312 1.459 3.118 2.386 5.073 2.603v-20.907h-7.111zM541.556 246.238h-7.112c-.235 0-.461-.093-.628-.259-.167-.166-.26-.391-.26-.625v-7.264c0-.235.093-.46.26-.626.167-.166.393-.259.628-.259h7.112c.235 0 .461.093.628.259.167.166.26.391.26.626v7.264c0 .234-.093.459-.26.625-.167.166-.393.259-.628.259zm-6.223-1.769h5.334v-5.494h-5.334v5.494z"/>
    <path fill="#6A2C70" d="M542.391 224.658c-.143-.002-.283-.039-.409-.106l-3.982-2.08-3.982 2.08c-.146.077-.311.112-.476.101-.165-.011-.323-.068-.458-.163-.137-.099-.244-.234-.307-.391s-.08-.328-.048-.494l.764-4.424-3.226-3.097c-.115-.113-.196-.255-.235-.411-.039-.156-.035-.32.012-.473.051-.159.145-.301.272-.409.127-.108.283-.178.448-.202l4.445-.637 1.991-3.99c.073-.15.186-.276.328-.364.141-.088.305-.135.472-.135.167 0 .331.047.472.135.142.088.255.214.328.364l1.991 4.017 4.445.637c.165.024.321.094.448.202.127.108.221.249.272.408.047.154.051.317.012.473-.039.156-.12.299-.235.412l-3.226 3.123.764 4.424c.032.166.015.337-.048.494-.063.157-.17.292-.307.391-.159.091-.342.131-.525.115zM538 220.579c.145.002.287.035.418.097l2.8 1.469-.551-3.097c-.024-.14-.012-.285.033-.42.044-.136.122-.259.224-.358l2.267-2.203-3.129-.451c-.142-.022-.277-.077-.393-.162-.117-.085-.21-.196-.273-.325L538 212.307l-1.404 2.822c-.064.129-.157.24-.273.325-.117.085-.252.14-.394.162l-3.129.451 2.267 2.203c.103.099.18.222.225.358.045.135.056.28.032.42l-.542 3.106 2.8-1.469c.13-.065.273-.101.418-.106z"/>
    <g filter="url(#filter2_d)">
        <path fill="#fff" d="M732 40H942V118H732z"/>
    </g>
    <path fill="#6A2C70" d="M819.513 64.2c.33 0 .617.02.862.06.91.14 1.595.52 2.055 1.14.465.615.698 1.387.698 2.317 0 .606-.103 1.15-.308 1.636-.2.485-.507.885-.922 1.2-.41.315-.918.52-1.523.615-.245.04-.532.06-.862.06h-2.655V75h-1.808V64.2h4.463zm-.075 5.34c.28 0 .507-.025.682-.075.415-.105.715-.323.9-.653.19-.33.285-.694.285-1.094 0-.4-.095-.766-.285-1.096-.185-.335-.485-.555-.9-.66-.18-.044-.407-.067-.682-.067h-2.58v3.645h2.58zm7.6-2.213c.225-.154.48-.27.765-.344.285-.08.577-.12.877-.12.155 0 .325.012.51.037v1.688c-.19-.05-.385-.075-.585-.075-.415 0-.777.09-1.087.27-.36.195-.63.472-.81.832-.175.36-.263.782-.263 1.267V75h-1.815v-8.1h1.598v1.297c.22-.38.49-.67.81-.87zm7.014 7.898c-.8 0-1.505-.18-2.115-.54-.61-.365-1.082-.87-1.417-1.515-.33-.65-.495-1.39-.495-2.22 0-.84.167-1.582.502-2.228.34-.65.815-1.152 1.425-1.507.61-.36 1.31-.54 2.1-.54.805 0 1.513.183 2.123.547.61.36 1.082.866 1.417 1.516.335.644.503 1.382.503 2.212 0 .835-.17 1.578-.51 2.227-.335.645-.81 1.148-1.425 1.508-.61.36-1.313.54-2.108.54zm0-1.695c.695 0 1.223-.233 1.583-.698.365-.464.547-1.092.547-1.882 0-.8-.182-1.43-.547-1.89-.36-.46-.888-.69-1.583-.69-.705 0-1.235.233-1.59.697-.35.46-.525 1.088-.525 1.883 0 .805.18 1.438.54 1.897.365.456.89.683 1.575.683zm12.835-6.63v8.49c0 .435-.037.815-.112 1.14-.18.76-.593 1.332-1.238 1.718-.64.384-1.435.577-2.385.577-.68 0-1.307-.157-1.882-.472-.575-.31-1.02-.74-1.335-1.29l1.665-.826c.145.28.357.496.637.645.28.15.588.225.923.225.585 0 1.052-.152 1.402-.457.355-.3.528-.73.518-1.29v-.772c-.575.425-1.27.637-2.085.637-.73 0-1.378-.185-1.943-.555-.56-.375-.992-.885-1.297-1.53-.305-.65-.458-1.38-.458-2.19 0-.82.155-1.553.465-2.198.31-.65.75-1.157 1.32-1.522.57-.37 1.23-.555 1.98-.555.9 0 1.648.27 2.243.81V66.9h1.582zm-3.615 6.705c.695 0 1.208-.235 1.538-.705.33-.475.495-1.125.495-1.95s-.163-1.472-.488-1.943c-.325-.475-.82-.712-1.485-.712-.47 0-.865.117-1.185.352-.315.23-.55.545-.705.945-.155.4-.232.853-.232 1.358 0 .51.075.965.225 1.365.155.4.385.715.69.945.31.23.692.345 1.147.345zm8.126-6.278c.225-.154.48-.27.765-.344.285-.08.577-.12.877-.12.155 0 .325.012.51.037v1.688c-.19-.05-.385-.075-.585-.075-.415 0-.777.09-1.087.27-.36.195-.63.472-.81.832-.175.36-.263.782-.263 1.267V75h-1.815v-8.1h1.598v1.297c.22-.38.49-.67.81-.87zm9.776.856c.13.26.212.53.247.81.04.275.06.62.06 1.035V75h-1.582v-1.088c-.345.456-.745.788-1.2.998-.455.21-1.003.315-1.643.315-.57 0-1.06-.107-1.47-.322-.405-.22-.715-.516-.93-.886-.21-.37-.315-.782-.315-1.237 0-.595.148-1.093.443-1.493.3-.4.767-.71 1.402-.93.355-.114.763-.212 1.223-.292.465-.085 1.127-.192 1.987-.322l.315-.045c-.035-.47-.185-.816-.45-1.035-.26-.22-.662-.33-1.207-.33-.4 0-.765.092-1.095.277-.325.185-.55.47-.675.855l-1.65-.517c.205-.71.595-1.265 1.17-1.665.575-.406 1.325-.608 2.25-.608.75 0 1.392.123 1.927.368.54.244.938.624 1.193 1.14zm-1.665 4.26c.11-.266.17-.686.18-1.26-.785.124-1.35.22-1.695.284-.34.06-.64.136-.9.225-.325.12-.57.266-.735.436-.165.17-.248.38-.248.63 0 .305.113.552.338.742.23.19.552.285.967.285.385 0 .723-.067 1.013-.203.295-.14.532-.312.712-.517.18-.205.303-.412.368-.623zm12.685-5.745c.585 0 1.085.122 1.5.367.42.24.737.58.952 1.02.215.435.323.948.323 1.538V75h-1.808v-4.92c0-.55-.137-.983-.412-1.297-.275-.316-.648-.473-1.118-.473-.29 0-.552.067-.787.203-.23.134-.413.332-.548.592-.13.255-.195.557-.195.907V75h-1.8v-4.897c0-.56-.137-.998-.412-1.313-.275-.32-.65-.48-1.125-.48-.305 0-.573.072-.803.218-.23.14-.407.34-.532.6-.125.254-.188.55-.188.885V75h-1.822v-8.1h1.597v.877c.27-.34.608-.605 1.013-.794.41-.19.855-.285 1.335-.285.555 0 1.032.115 1.432.345.4.224.71.54.93.944.25-.404.593-.72 1.028-.944.435-.23.915-.346 1.44-.346zm13.491 0c.585 0 1.085.122 1.5.367.42.24.738.58.953 1.02.215.435.322.948.322 1.538V75h-1.807v-4.92c0-.55-.138-.983-.413-1.297-.275-.316-.647-.473-1.117-.473-.29 0-.553.067-.788.203-.23.134-.412.332-.547.592-.13.255-.195.557-.195.907V75h-1.8v-4.897c0-.56-.138-.998-.413-1.313-.275-.32-.65-.48-1.125-.48-.305 0-.572.072-.802.218-.23.14-.408.34-.533.6-.125.254-.187.55-.187.885V75h-1.823v-8.1h1.598v.877c.27-.34.607-.605 1.012-.794.41-.19.855-.285 1.335-.285.555 0 1.033.115 1.433.345.4.224.71.54.93.944.25-.404.592-.72 1.027-.944.435-.23.915-.346 1.44-.346zm4.881-2.685h1.808v1.657h-1.808v-1.657zm0 2.887h1.808V75h-1.808v-8.1zm8.299-.233c.905 0 1.593.23 2.063.69.47.456.775.963.915 1.523.14.56.21 1.093.21 1.598V75h-1.83v-3.9c0-1.82-.63-2.73-1.89-2.73-.545 0-.998.188-1.358.563-.36.37-.54 1.004-.54 1.904V75h-1.83v-8.1h1.613v.9c.305-.36.68-.638 1.125-.832.445-.2.952-.3 1.522-.3zm12.285.233v8.49c0 .435-.038.815-.113 1.14-.18.76-.592 1.332-1.237 1.718-.64.384-1.435.577-2.385.577-.68 0-1.308-.157-1.883-.472-.575-.31-1.02-.74-1.335-1.29l1.665-.826c.145.28.358.496.638.645.28.15.587.225.922.225.585 0 1.053-.152 1.403-.457.355-.3.527-.73.517-1.29v-.772c-.575.425-1.27.637-2.085.637-.73 0-1.377-.185-1.942-.555-.56-.375-.993-.885-1.298-1.53-.305-.65-.457-1.38-.457-2.19 0-.82.155-1.553.465-2.198.31-.65.75-1.157 1.32-1.522.57-.37 1.23-.555 1.98-.555.9 0 1.647.27 2.242.81V66.9h1.583zm-3.615 6.705c.695 0 1.207-.235 1.537-.705.33-.475.495-1.125.495-1.95s-.162-1.472-.487-1.943c-.325-.475-.82-.712-1.485-.712-.47 0-.865.117-1.185.352-.315.23-.55.545-.705.945-.155.4-.233.853-.233 1.358 0 .51.075.965.225 1.365.155.4.385.715.69.945.31.23.693.345 1.148.345zM815.2 84.2h1.808v9.105h4.77V95H815.2V84.2zm14.231 3.983c.13.26.212.53.247.81.04.275.06.62.06 1.035V95h-1.582v-1.088c-.345.456-.745.788-1.2.998-.455.21-1.003.315-1.643.315-.57 0-1.06-.107-1.47-.322-.405-.22-.715-.516-.93-.886-.21-.37-.315-.782-.315-1.237 0-.595.148-1.093.443-1.493.3-.4.767-.71 1.402-.93.355-.114.763-.212 1.223-.292.465-.085 1.127-.192 1.987-.322l.315-.045c-.035-.47-.185-.816-.45-1.035-.26-.22-.662-.33-1.207-.33-.4 0-.765.092-1.095.277-.325.185-.55.47-.675.855l-1.65-.517c.205-.71.595-1.265 1.17-1.665.575-.406 1.325-.608 2.25-.608.75 0 1.392.123 1.927.368.54.244.938.624 1.193 1.14zm-1.665 4.26c.11-.266.17-.686.18-1.26-.785.124-1.35.22-1.695.284-.34.06-.64.136-.9.225-.325.12-.57.266-.735.436-.165.17-.248.38-.248.63 0 .305.113.552.338.742.23.19.552.285.967.285.385 0 .723-.067 1.013-.203.295-.14.532-.312.712-.517.18-.205.303-.412.368-.623zm8.17-5.775c.905 0 1.592.23 2.062.69.47.454.775.962.915 1.522s.21 1.093.21 1.598V95h-1.83v-3.9c0-1.82-.63-2.73-1.89-2.73-.545 0-.997.188-1.357.563-.36.37-.54 1.004-.54 1.904V95h-1.83v-8.1h1.612v.9c.305-.36.68-.638 1.125-.832.445-.2.953-.3 1.523-.3zm12.284.232v8.49c0 .435-.037.815-.112 1.14-.18.76-.593 1.332-1.238 1.718-.64.384-1.435.577-2.385.577-.68 0-1.307-.157-1.882-.472-.575-.31-1.02-.74-1.335-1.29l1.665-.826c.145.28.357.496.637.645.28.15.588.225.923.225.585 0 1.052-.152 1.402-.457.355-.3.528-.73.518-1.29v-.772c-.575.425-1.27.637-2.085.637-.73 0-1.378-.185-1.943-.555-.56-.375-.992-.885-1.297-1.53-.305-.65-.458-1.38-.458-2.19 0-.82.155-1.553.465-2.198.31-.65.75-1.157 1.32-1.522.57-.37 1.23-.555 1.98-.555.9 0 1.648.27 2.243.81V86.9h1.582zm-3.615 6.705c.695 0 1.208-.235 1.538-.705.33-.475.495-1.125.495-1.95s-.163-1.472-.488-1.943c-.325-.475-.82-.712-1.485-.712-.47 0-.865.117-1.185.352-.315.23-.55.545-.705.945-.155.4-.232.853-.232 1.358 0 .51.075.965.225 1.365.155.4.385.715.69.945.31.23.692.345 1.147.345zm13.001-6.705V95h-1.598v-.9c-.305.36-.68.64-1.125.84-.445.195-.952.293-1.522.293-.905 0-1.593-.228-2.063-.683-.47-.46-.775-.97-.915-1.53s-.21-1.093-.21-1.597V86.9h1.83v3.9c0 1.82.63 2.73 1.89 2.73.545 0 .998-.185 1.358-.555.36-.375.54-1.012.54-1.912V86.9h1.815zm8.49 1.282c.13.26.212.53.247.81.04.275.06.62.06 1.035V95h-1.582v-1.088c-.345.456-.745.788-1.2.998-.455.21-1.003.315-1.643.315-.57 0-1.06-.107-1.47-.322-.405-.22-.715-.516-.93-.886-.21-.37-.315-.782-.315-1.237 0-.595.148-1.093.443-1.493.3-.4.767-.71 1.402-.93.355-.114.763-.212 1.223-.292.465-.085 1.127-.192 1.987-.322l.315-.045c-.035-.47-.185-.816-.45-1.035-.26-.22-.662-.33-1.207-.33-.4 0-.765.092-1.095.277-.325.185-.55.47-.675.855l-1.65-.517c.205-.71.595-1.265 1.17-1.665.575-.406 1.325-.608 2.25-.608.75 0 1.392.123 1.927.368.54.244.938.624 1.193 1.14zm-1.665 4.26c.11-.264.17-.684.18-1.26-.785.126-1.35.22-1.695.285-.34.06-.64.136-.9.225-.325.12-.57.266-.735.436-.165.17-.248.38-.248.63 0 .305.113.552.338.742.23.19.552.285.967.285.385 0 .723-.067 1.013-.203.295-.14.532-.312.712-.517.18-.205.303-.412.368-.623zm11.065-5.542v8.49c0 .435-.038.815-.113 1.14-.18.76-.592 1.332-1.237 1.718-.64.384-1.435.577-2.385.577-.68 0-1.308-.157-1.883-.472-.575-.31-1.02-.74-1.335-1.29l1.665-.826c.145.28.358.496.638.645.28.15.587.225.922.225.585 0 1.053-.152 1.403-.457.355-.3.527-.73.517-1.29v-.772c-.575.425-1.27.637-2.085.637-.73 0-1.377-.185-1.942-.555-.56-.375-.993-.885-1.298-1.53-.305-.65-.457-1.38-.457-2.19 0-.82.155-1.553.465-2.198.31-.65.75-1.157 1.32-1.522.57-.37 1.23-.555 1.98-.555.9 0 1.647.27 2.242.81V86.9h1.583zm-3.615 6.705c.695 0 1.207-.235 1.537-.705.33-.475.495-1.125.495-1.95s-.162-1.472-.487-1.943c-.325-.475-.82-.712-1.485-.712-.47 0-.865.117-1.185.352-.315.23-.55.545-.705.945-.155.4-.233.853-.233 1.358 0 .51.075.965.225 1.365.155.4.385.715.69.945.31.23.693.345 1.148.345zm7.203-2.153c.07.67.282 1.186.637 1.546.36.355.845.532 1.455.532.44 0 .823-.097 1.148-.293.325-.2.575-.487.75-.862l1.785.54c-.205.48-.49.895-.855 1.245-.36.345-.775.61-1.245.795-.465.18-.958.27-1.478.27-.81 0-1.527-.177-2.152-.532-.625-.355-1.113-.85-1.463-1.486-.345-.634-.517-1.357-.517-2.167 0-.875.167-1.64.502-2.295.34-.66.815-1.17 1.425-1.53.61-.36 1.31-.54 2.1-.54.78 0 1.455.172 2.025.517.57.346 1.008.838 1.313 1.478.305.635.457 1.382.457 2.242 0 .17-.007.35-.022.54h-5.865zm2.167-3.195c-1.2 0-1.907.61-2.122 1.83h3.99c-.08-.63-.273-1.092-.578-1.387-.3-.295-.73-.443-1.29-.443z"/>
    <path fill="#fff" d="M736 44H806V114H736z"/>
    <rect width="49" height="19" x="747" y="70" fill="#E1D5E2" stroke="#6A2C70" stroke-width="2" rx="3"/>
    <rect width="49" height="19" x="781" y="55" fill="#E1D5E2" stroke="#6A2C70" stroke-width="2" rx="3" transform="rotate(90 781 55)"/>
    <path fill="#C4C4C4" d="M760 71H767V78H760z"/>
    <path fill="#6A2C70" d="M762 58v11.5l-.5.5h-12l-2 2.5v14l2.5 3h12.5V79H781V58l-2-2.5-14-.5-2 1-1 2z"/>
    <path stroke="#6A2C70" stroke-linecap="round" stroke-linejoin="round" stroke-width="2" d="M762 70L771 70M772 89L781 89M763 79L781 79"/>
    <path fill="#E1D5E2" d="M778 80H785V88H778z"/>
    <path fill="#6A2C70" d="M760 77H767V85H760z"/>
    <circle cx="769" cy="61" r="2" fill="#fff"/>
    <circle cx="774" cy="98" r="2" fill="#6A2C70"/>
    <path fill="#E1D5E2" d="M763 83c0-1.657 1.343-3 3-3h4v8h-7v-5zM784 80c0 1.657-1.343 3-3 3h-4v-8h7v5z"/>
    <path fill="#6A2C70" d="M782 77c0 1.657-1.343 3-3 3h-4v-8h7v5z"/>
    <g filter="url(#filter3_d)">
        <path fill="#fff" d="M30 40H240V118H30z"/>
    </g>
    <path fill="#6A2C70" d="M113.05 64.2h1.628l3.735 7.65 3.735-7.65h1.627V75h-1.687v-6.922L118.773 75h-.72l-3.308-6.922V75h-1.695V64.2zm19.215 3.983c.13.26.212.53.247.81.04.275.06.62.06 1.035V75h-1.582v-1.088c-.345.456-.745.788-1.2.998-.455.21-1.003.315-1.643.315-.57 0-1.06-.107-1.47-.322-.405-.22-.715-.516-.93-.886-.21-.37-.315-.782-.315-1.237 0-.595.148-1.093.443-1.493.3-.4.767-.71 1.402-.93.355-.114.763-.212 1.223-.292.465-.085 1.127-.192 1.987-.322l.315-.045c-.035-.47-.185-.816-.45-1.035-.26-.22-.662-.33-1.207-.33-.4 0-.765.092-1.095.277-.325.185-.55.47-.675.855l-1.65-.517c.205-.71.595-1.265 1.17-1.665.575-.406 1.325-.608 2.25-.608.75 0 1.392.123 1.927.368.54.244.938.624 1.193 1.14zm-1.665 4.26c.11-.266.17-.686.18-1.26-.785.124-1.35.22-1.695.284-.34.06-.64.136-.9.225-.325.12-.57.266-.735.436-.165.17-.248.38-.248.63 0 .305.113.552.338.742.23.19.552.285.967.285.385 0 .723-.067 1.013-.203.295-.14.532-.312.712-.517.18-.205.303-.412.368-.623zm6.295-.855v.427c0 .26.01.47.03.63.02.16.065.293.135.398.115.19.275.325.48.404.21.08.467.12.772.12.28 0 .6-.027.96-.082V75c-.49.095-.947.142-1.372.142-.58 0-1.088-.09-1.523-.27-.435-.184-.76-.475-.975-.87-.13-.234-.215-.477-.255-.727-.04-.25-.06-.547-.06-.893l.008-.69v-3.374h-1.47V66.9h1.47v-2.25h1.8v2.25h2.377v1.417h-2.377v3.27zm8.364-4.92c.905 0 1.592.23 2.062.69.47.454.775.962.915 1.522s.21 1.093.21 1.598V75h-1.83v-3.9c0-1.82-.63-2.73-1.89-2.73-.545 0-.997.188-1.357.563-.36.37-.54 1.004-.54 1.904V75h-1.83V64.2h1.612v3.6c.305-.36.68-.638 1.125-.832.445-.2.953-.3 1.523-.3zm8.272 8.557c-1 0-1.812-.225-2.437-.675-.625-.45-1.005-1.082-1.14-1.897l1.845-.285c.09.404.297.722.622.952.33.225.743.338 1.238.338.43 0 .765-.085 1.005-.255.24-.175.36-.413.36-.713 0-.195-.048-.345-.143-.45-.09-.105-.272-.207-.547-.307-.275-.106-.733-.243-1.373-.413-.685-.18-1.227-.373-1.627-.578-.395-.21-.68-.454-.855-.734-.175-.285-.263-.633-.263-1.043 0-.5.13-.938.39-1.313.265-.374.638-.665 1.118-.87.485-.204 1.045-.307 1.68-.307.625 0 1.182.097 1.672.293.49.194.885.474 1.185.84.305.36.49.78.555 1.26l-1.845.33c-.05-.346-.21-.618-.48-.818-.265-.2-.617-.313-1.057-.337-.425-.02-.768.047-1.028.202-.26.15-.39.36-.39.63 0 .165.053.3.158.405.11.105.317.212.622.322.305.105.783.24 1.433.405.655.17 1.172.36 1.552.57.385.21.663.463.833.758.175.29.262.648.262 1.073 0 .54-.135 1.007-.405 1.402-.265.39-.65.69-1.155.9-.5.21-1.095.315-1.785.315zM113.05 84.2h6.503v1.807h-4.695V88.7h3.795v1.8h-3.795V95h-1.808V84.2zm11.209 11.025c-.8 0-1.505-.18-2.115-.54-.61-.365-1.082-.87-1.417-1.515-.33-.65-.495-1.39-.495-2.22 0-.84.167-1.582.502-2.228.34-.65.815-1.152 1.425-1.507.61-.36 1.31-.54 2.1-.54.805 0 1.513.183 2.123.547.61.36 1.082.866 1.417 1.516.335.644.503 1.382.503 2.212 0 .835-.17 1.578-.51 2.227-.335.645-.81 1.148-1.425 1.508-.61.36-1.313.54-2.108.54zm0-1.695c.695 0 1.223-.233 1.583-.698.365-.464.547-1.092.547-1.882 0-.8-.182-1.43-.547-1.89-.36-.46-.888-.69-1.583-.69-.705 0-1.235.233-1.59.697-.35.46-.525 1.088-.525 1.883 0 .805.18 1.438.54 1.897.365.456.89.683 1.575.683zm12.978-6.63V95h-1.598v-.9c-.305.36-.68.64-1.125.84-.445.195-.952.293-1.522.293-.905 0-1.593-.228-2.063-.683-.47-.46-.775-.97-.915-1.53s-.21-1.093-.21-1.597V86.9h1.83v3.9c0 1.82.63 2.73 1.89 2.73.545 0 .998-.185 1.358-.555.36-.375.54-1.012.54-1.912V86.9h1.815zm6.352-.233c.905 0 1.592.23 2.062.69.47.456.775.963.915 1.523.14.56.21 1.093.21 1.598V95h-1.83v-3.9c0-1.82-.63-2.73-1.89-2.73-.545 0-.997.188-1.357.563-.36.37-.54 1.004-.54 1.904V95h-1.83v-8.1h1.612v.9c.305-.36.68-.638 1.125-.832.445-.2.953-.3 1.523-.3zm12.168-2.467V95h-1.598v-.6c-.605.55-1.375.825-2.31.825-.73 0-1.377-.185-1.942-.555-.56-.375-.993-.885-1.298-1.53-.305-.65-.457-1.38-.457-2.19 0-.82.155-1.553.465-2.198.31-.65.75-1.157 1.32-1.522.57-.37 1.23-.555 1.98-.555.78 0 1.452.207 2.017.623V84.2h1.823zm-3.63 9.405c.695 0 1.207-.235 1.537-.705.33-.475.495-1.125.495-1.95s-.162-1.472-.487-1.943c-.325-.475-.82-.712-1.485-.712-.47 0-.865.117-1.185.352-.315.23-.55.545-.705.945-.155.4-.233.853-.233 1.358 0 .51.075.965.225 1.365.155.4.385.715.69.945.31.23.693.345 1.148.345zm12.115-5.422c.13.26.213.53.248.81.04.275.06.62.06 1.035V95h-1.583v-1.088c-.345.456-.745.788-1.2.998-.455.21-1.002.315-1.642.315-.57 0-1.06-.107-1.47-.322-.405-.22-.715-.516-.93-.886-.21-.37-.315-.782-.315-1.237 0-.595.147-1.093.442-1.493.3-.4.768-.71 1.403-.93.355-.114.762-.212 1.222-.292.465-.085 1.128-.192 1.988-.322l.315-.045c-.035-.47-.185-.816-.45-1.035-.26-.22-.663-.33-1.208-.33-.4 0-.765.092-1.095.277-.325.185-.55.47-.675.855l-1.65-.517c.205-.71.595-1.265 1.17-1.665.575-.406 1.325-.608 2.25-.608.75 0 1.393.123 1.928.368.54.244.937.624 1.192 1.14zm-1.665 4.26c.11-.266.17-.686.18-1.26-.785.124-1.35.22-1.695.284-.34.06-.64.136-.9.225-.325.12-.57.266-.735.436-.165.17-.247.38-.247.63 0 .305.112.552.337.742.23.19.553.285.968.285.385 0 .722-.067 1.012-.203.295-.14.533-.312.713-.517.18-.205.302-.412.367-.623zm6.295-.855v.427c0 .26.01.47.03.63.02.16.065.293.135.398.115.19.275.325.48.404.21.08.468.12.773.12.28 0 .6-.027.96-.082V95c-.49.095-.948.142-1.373.142-.58 0-1.087-.09-1.522-.27-.435-.184-.76-.475-.975-.87-.13-.234-.215-.477-.255-.727-.04-.25-.06-.547-.06-.893l.007-.69v-3.374h-1.47V86.9h1.47v-2.25h1.8v2.25h2.378v1.417h-2.378v3.27zm4.269-7.575h1.808v1.657h-1.808v-1.657zm0 2.887h1.808V95h-1.808v-8.1zm7.632 8.325c-.8 0-1.505-.18-2.115-.54-.61-.365-1.082-.87-1.417-1.515-.33-.65-.495-1.39-.495-2.22 0-.84.167-1.582.502-2.228.34-.65.815-1.152 1.425-1.507.61-.36 1.31-.54 2.1-.54.805 0 1.513.183 2.123.547.61.36 1.082.866 1.417 1.516.335.644.503 1.382.503 2.212 0 .835-.17 1.578-.51 2.227-.335.645-.81 1.148-1.425 1.508-.61.36-1.313.54-2.108.54zm0-1.695c.695 0 1.223-.233 1.583-.698.365-.464.547-1.092.547-1.882 0-.8-.182-1.43-.547-1.89-.36-.46-.888-.69-1.583-.69-.705 0-1.235.233-1.59.697-.35.46-.525 1.088-.525 1.883 0 .805.18 1.438.54 1.897.365.456.89.683 1.575.683zm9.94-6.862c.905 0 1.592.23 2.062.69.47.454.775.962.915 1.522s.21 1.093.21 1.598V95h-1.83v-3.9c0-1.82-.63-2.73-1.89-2.73-.545 0-.997.188-1.357.563-.36.37-.54 1.004-.54 1.904V95h-1.83v-8.1h1.612v.9c.305-.36.68-.638 1.125-.832.445-.2.953-.3 1.523-.3z"/>
    <path fill="#fff" d="M34 44H104V114H34z"/>
    <rect width="51" height="51" x="44" y="54" fill="#6A2C70" rx="2"/>
    <path fill="#6A2C70" d="M45.02 56.039H69.5V79.499H45.02zM70.52 79.5H93.97999999999999V102.96000000000001H70.52z"/>
    <path fill="#E1D5E2" d="M46.04 79.5H69.5V102.96000000000001H46.04zM70.52 55.02H93.97999999999999V78.48H70.52z"/>
    <path fill="#6A2C70" d="M91.357 54H47.643C45.639 54 44 55.64 44 57.643v43.714c0 2.004 1.64 3.643 3.643 3.643h43.714c2.004 0 3.643-1.639 3.643-3.643V57.643C95 55.639 93.36 54 91.357 54zm1.214 3.643v20.643H70.714V56.429h20.643c.668 0 1.214.546 1.214 1.214zm-44.928-1.214h20.643v21.857H46.429V57.643c0-.668.546-1.214 1.214-1.214zm-1.214 44.928V80.714h21.857v21.857H47.643c-.668 0-1.214-.546-1.214-1.214zm44.928 1.214H70.714V80.714h21.857v20.643c0 .668-.546 1.214-1.214 1.214z"/>
    <path fill="#6A2C70" d="M63.246 90.015c0-.442-.358-.8-.8-.8H59.19c-.441 0-.8-.359-.8-.8v-3.258c0-.441-.358-.8-.8-.8h-.828c-.442 0-.8.359-.8.8v3.258c0 .441-.358.8-.8.8h-3.257c-.442 0-.8.358-.8.8v.828c0 .442.358.8.8.8h3.257c.441 0 .8.358.8.8V95.7c0 .442.358.8.8.8h.828c.442 0 .8-.358.8-.8v-3.257c0-.442.358-.8.8-.8h3.257c.442 0 .8-.358.8-.8v-.828z"/>
    <path fill="#fff" d="M62.246 66.568H52.104c-.553 0-1 .448-1 1v.429c0 .552.447 1 1 1h10.142c.553 0 1-.448 1-1v-.429c0-.552-.447-1-1-1zM86.35 93.463H76.207c-.552 0-1 .448-1 1v.428c0 .553.448 1 1 1H86.35c.552 0 1-.447 1-1v-.428c0-.552-.448-1-1-1zM86.35 86.785H76.207c-.552 0-1 .448-1 1v.429c0 .552.448 1 1 1H86.35c.552 0 1-.448 1-1v-.429c0-.552-.448-1-1-1z"/>
    <path fill="#6A2C70" d="M76.813 70.487c-.386.386-.392 1.01-.013 1.402l.311.321c.388.403 1.031.408 1.426.013l2.028-2.028c.393-.393 1.031-.39 1.42.007l1.974 2.008c.394.401 1.042.399 1.433-.006l.304-.315c.379-.393.374-1.016-.012-1.402l-2.005-2.004c-.388-.388-.39-1.017-.006-1.408l2.01-2.047c.386-.391.383-1.02-.005-1.408l-.292-.292c-.39-.39-1.024-.39-1.414 0L81.98 65.32c-.389.388-1.017.391-1.409.006l-2.046-2.01c-.392-.385-1.02-.382-1.408.006l-.298.298c-.388.388-.391 1.017-.007 1.408l2.011 2.047c.385.391.382 1.02-.006 1.408l-2.004 2.004z"/>
    <g filter="url(#filter4_d)">
        <path fill="#fff" d="M265 189H475V267H265z"/>
    </g>
    <path fill="#6A2C70" d="M354.253 224l-1.83-3.773h-2.565V224h-1.808v-10.8h4.463c.33 0 .617.02.862.06.91.14 1.595.52 2.055 1.14.465.615.698 1.387.698 2.317 0 .745-.155 1.395-.465 1.95-.305.555-.758.968-1.358 1.238L356.3 224h-2.047zm-4.395-5.46h2.58c.28 0 .507-.025.682-.075.415-.105.715-.323.9-.653.19-.33.285-.695.285-1.095s-.095-.765-.285-1.095c-.185-.335-.485-.555-.9-.66-.18-.045-.407-.067-.682-.067h-2.58v3.645zm9.579 1.912c.07.67.283 1.185.638 1.545.36.355.845.533 1.455.533.44 0 .822-.098 1.147-.293.325-.2.575-.487.75-.862l1.785.54c-.205.48-.49.895-.855 1.245-.36.345-.775.61-1.245.795-.465.18-.957.27-1.477.27-.81 0-1.528-.177-2.153-.533-.625-.355-1.112-.85-1.462-1.485-.345-.635-.518-1.357-.518-2.167 0-.875.168-1.64.503-2.295.34-.66.815-1.17 1.425-1.53.61-.36 1.31-.54 2.1-.54.78 0 1.455.172 2.025.517.57.345 1.007.838 1.312 1.478.305.635.458 1.382.458 2.242 0 .17-.008.35-.023.54h-5.865zm2.168-3.195c-1.2 0-1.908.61-2.123 1.83h3.99c-.08-.63-.272-1.092-.577-1.387-.3-.295-.73-.443-1.29-.443zm11.607-.075c.13.26.212.53.247.81.04.275.06.62.06 1.035V224h-1.582v-1.088c-.345.455-.745.788-1.2.998-.455.21-1.003.315-1.643.315-.57 0-1.06-.107-1.47-.323-.405-.22-.715-.515-.93-.885-.21-.37-.315-.782-.315-1.237 0-.595.148-1.093.443-1.493.3-.4.767-.71 1.402-.93.355-.115.763-.212 1.223-.292.465-.085 1.127-.193 1.987-.323l.315-.045c-.035-.47-.185-.815-.45-1.035-.26-.22-.662-.33-1.207-.33-.4 0-.765.093-1.095.278-.325.185-.55.47-.675.855l-1.65-.518c.205-.71.595-1.265 1.17-1.665.575-.405 1.325-.607 2.25-.607.75 0 1.392.122 1.927.367.54.245.938.625 1.193 1.14zm-1.665 4.26c.11-.265.17-.685.18-1.26-.785.125-1.35.22-1.695.285-.34.06-.64.135-.9.225-.325.12-.57.265-.735.435-.165.17-.248.38-.248.63 0 .305.113.553.338.743.23.19.552.285.967.285.385 0 .723-.068 1.013-.203.295-.14.532-.312.712-.517.18-.205.303-.413.368-.623zm4.075-8.467h1.807V224h-1.807v-11.025zm3.904 5.587h4.5v1.418h-4.5v-1.418zm6.599-5.587h1.807V224h-1.807v-11.025zm4.204.037h1.807v1.658h-1.807v-1.658zm0 2.888h1.807v8.1h-1.807v-8.1zm7.587-1.455c-.335 0-.59.085-.765.255-.17.17-.255.397-.255.682v.518h1.957v1.417h-1.957V224h-1.808v-6.683h-1.305V215.9h1.305v-.128c0-.305.008-.562.023-.772.015-.215.06-.44.135-.675.08-.24.205-.453.375-.638.265-.3.56-.492.885-.577.33-.09.697-.135 1.102-.135h1.245v1.47h-.937zm3.328 6.007c.07.67.282 1.185.637 1.545.36.355.845.533 1.455.533.44 0 .823-.098 1.148-.293.325-.2.575-.487.75-.862l1.785.54c-.205.48-.49.895-.855 1.245-.36.345-.775.61-1.245.795-.465.18-.958.27-1.478.27-.81 0-1.527-.177-2.152-.533-.625-.355-1.113-.85-1.463-1.485-.345-.635-.517-1.357-.517-2.167 0-.875.167-1.64.502-2.295.34-.66.815-1.17 1.425-1.53.61-.36 1.31-.54 2.1-.54.78 0 1.455.172 2.025.517.57.345 1.008.838 1.313 1.478.305.635.457 1.382.457 2.242 0 .17-.007.35-.022.54h-5.865zm2.167-3.195c-1.2 0-1.907.61-2.122 1.83h3.99c-.08-.63-.273-1.092-.578-1.387-.3-.295-.73-.443-1.29-.443zM352.513 233.2c.33 0 .617.02.862.06.91.14 1.595.52 2.055 1.14.465.615.698 1.387.698 2.317 0 .605-.103 1.15-.308 1.635-.2.485-.507.885-.922 1.2-.41.315-.918.52-1.523.615-.245.04-.532.06-.862.06h-2.655V244h-1.808v-10.8h4.463zm-.075 5.34c.28 0 .507-.025.682-.075.415-.105.715-.323.9-.653.19-.33.285-.695.285-1.095s-.095-.765-.285-1.095c-.185-.335-.485-.555-.9-.66-.18-.045-.407-.067-.682-.067h-2.58v3.645h2.58zm7.6-2.213c.225-.155.48-.27.765-.345.285-.08.577-.12.877-.12.155 0 .325.013.51.038v1.687c-.19-.05-.385-.075-.585-.075-.415 0-.777.09-1.087.27-.36.195-.63.473-.81.833-.175.36-.263.782-.263 1.267V244h-1.815v-8.1h1.598v1.297c.22-.38.49-.67.81-.87zm7.014 7.898c-.8 0-1.505-.18-2.115-.54-.61-.365-1.082-.87-1.417-1.515-.33-.65-.495-1.39-.495-2.22 0-.84.167-1.583.502-2.228.34-.65.815-1.152 1.425-1.507.61-.36 1.31-.54 2.1-.54.805 0 1.513.182 2.123.547.61.36 1.082.865 1.417 1.515.335.645.503 1.383.503 2.213 0 .835-.17 1.577-.51 2.227-.335.645-.81 1.148-1.425 1.508-.61.36-1.313.54-2.108.54zm0-1.695c.695 0 1.223-.233 1.583-.698.365-.465.547-1.092.547-1.882 0-.8-.182-1.43-.547-1.89-.36-.46-.888-.69-1.583-.69-.705 0-1.235.232-1.59.697-.35.46-.525 1.088-.525 1.883 0 .805.18 1.437.54 1.897.365.455.89.683 1.575.683zm6.093-9.518h1.8v1.658h-1.8v-1.658zm-1.215 12.893c.43 0 .74-.1.93-.3.19-.2.285-.505.285-.915v-8.79h1.8v9.6c0 .655-.193 1.168-.578 1.538-.385.375-.915.562-1.59.562h-1.23v-1.695h.383zm6.624-5.453c.07.67.282 1.185.637 1.545.36.355.845.533 1.455.533.44 0 .823-.098 1.148-.293.325-.2.575-.487.75-.862l1.785.54c-.205.48-.49.895-.855 1.245-.36.345-.775.61-1.245.795-.465.18-.958.27-1.478.27-.81 0-1.527-.177-2.152-.533-.625-.355-1.113-.85-1.463-1.485-.345-.635-.517-1.357-.517-2.167 0-.875.167-1.64.502-2.295.34-.66.815-1.17 1.425-1.53.61-.36 1.31-.54 2.1-.54.78 0 1.455.172 2.025.517.57.345 1.008.838 1.313 1.478.305.635.457 1.382.457 2.242 0 .17-.007.35-.022.54h-5.865zm2.167-3.195c-1.2 0-1.907.61-2.122 1.83h3.99c-.08-.63-.273-1.092-.578-1.387-.3-.295-.73-.443-1.29-.443zm8.888 6.968c-.815 0-1.522-.182-2.122-.548-.595-.37-1.05-.877-1.365-1.522-.315-.65-.475-1.385-.48-2.205 0-.825.162-1.56.487-2.205.325-.65.788-1.158 1.388-1.523.605-.365 1.31-.547 2.115-.547.61 0 1.162.105 1.657.315.495.21.908.51 1.238.9.335.385.565.842.69 1.372l-1.8.488c-.135-.43-.368-.768-.698-1.013-.325-.245-.695-.367-1.11-.367-.68 0-1.192.235-1.537.705-.34.47-.513 1.095-.518 1.875.005.795.183 1.425.533 1.89.35.46.857.69 1.522.69.47 0 .845-.105 1.125-.315.28-.215.493-.538.638-.968l1.845.413c-.25.825-.688 1.46-1.313 1.905-.625.44-1.39.66-2.295.66zm7.481-3.638v.428c0 .26.01.47.03.63.02.16.065.292.135.397.115.19.275.325.48.405.21.08.467.12.772.12.28 0 .6-.027.96-.082V244c-.49.095-.947.143-1.372.143-.58 0-1.088-.09-1.523-.271-.435-.185-.76-.475-.975-.87-.13-.235-.215-.477-.255-.727-.04-.25-.06-.548-.06-.893l.008-.69v-3.375h-1.47V235.9h1.47v-2.25h1.8v2.25h2.377v1.417h-2.377v3.27zm7.247 3.638c-1 0-1.813-.225-2.438-.675-.625-.45-1.005-1.083-1.14-1.898l1.845-.285c.09.405.298.723.623.953.33.225.742.337 1.237.337.43 0 .765-.085 1.005-.255.24-.175.36-.412.36-.712 0-.195-.047-.345-.142-.45-.09-.105-.273-.208-.548-.308-.275-.105-.732-.242-1.372-.412-.685-.18-1.228-.373-1.628-.578-.395-.21-.68-.455-.855-.735-.175-.285-.262-.632-.262-1.042 0-.5.13-.938.39-1.313.265-.375.637-.664 1.117-.87.485-.205 1.045-.307 1.68-.307.625 0 1.183.097 1.673.292.49.195.885.475 1.185.84.305.36.49.78.555 1.26l-1.845.33c-.05-.345-.21-.617-.48-.817-.265-.2-.618-.313-1.058-.338-.425-.02-.767.048-1.027.203-.26.15-.39.36-.39.63 0 .165.052.3.157.405.11.105.318.212.623.322.305.105.782.24 1.432.405.655.17 1.173.36 1.553.57.385.21.662.463.832.758.175.29.263.647.263 1.072 0 .54-.135 1.008-.405 1.403-.265.39-.65.69-1.155.9-.5.21-1.095.315-1.785.315z"/>
    <path fill="#fff" d="M269 193H339V263H269z"/>
    <path fill="#E1D5E2" d="M281 205H329V252H281z"/>
    <path fill="#6A2C70" d="M281 205H329V211H281z"/>
    <path fill="#fff" d="M288 218H306V232H288z"/>
    <path fill="#6A2C70" d="M279 204.089v48.822c0 .143.028.284.083.417.055.132.135.252.236.353.101.101.221.181.353.236.133.055.274.083.417.083h48.822c.143 0 .284-.028.417-.083.132-.055.252-.135.353-.236.101-.101.181-.221.236-.353.055-.133.083-.274.083-.417v-48.822c0-.143-.028-.284-.083-.417-.055-.132-.135-.252-.236-.353-.101-.101-.221-.181-.353-.236-.133-.055-.274-.083-.417-.083h-48.822c-.143 0-.284.028-.417.083-.132.055-.252.135-.353.236-.101.101-.181.221-.236.353-.055.133-.083.274-.083.417zm2.178 47.733v-39.109h46.644v39.109h-46.644zm46.644-46.644v5.357h-46.644v-5.357h46.644z"/>
    <path fill="#fff" d="M285.073 209.06c.542 0 .982-.439.982-.981s-.44-.981-.982-.981c-.541 0-.981.439-.981.981s.44.981.981.981zM290.359 209.06c.541 0 .981-.439.981-.981s-.44-.981-.981-.981c-.542 0-.982.439-.982.981s.44.981.982.981zM295.644 209.06c.542 0 .981-.439.981-.981s-.439-.981-.981-.981-.982.439-.982.981.44.981.982.981z"/>
    <path fill="#6A2C70" d="M287.885 233h18.231c.108-.002.215-.024.315-.064.014-.005.028-.008.042-.014.089-.041.172-.097.243-.165l.043-.044c.019-.02.04-.036.057-.058.018-.031.034-.064.048-.098.067-.101.106-.218.115-.339.009-.035.016-.07.021-.106v-14.224c0-.117-.023-.232-.067-.34-.045-.108-.11-.206-.192-.288-.082-.082-.18-.148-.287-.192-.107-.045-.222-.068-.339-.068h-18.23c-.117 0-.232.023-.339.068-.107.044-.205.11-.287.192-.082.082-.147.18-.192.288-.044.108-.067.223-.067.34v14.224c0 .117.023.232.067.34.045.108.11.206.192.288.082.082.18.148.287.192.107.045.222.068.339.068zm17.346-2.697l-6.626-5.143 6.626-5.143v10.286zm-1.705.921h-12.733l6.366-4.942 6.367 4.942zm-6.367-7.186l-6.779-5.262h13.558l-6.779 5.262zm-1.445 1.122l-6.945 5.391v-10.782l6.945 5.391z"/>
    <path fill="#A681A9" d="M322.233 217.443h-7.927c-.289 0-.566.115-.77.319-.204.205-.319.482-.319.771 0 .288.115.565.319.77.204.204.481.319.77.319h7.927c.289 0 .566-.115.771-.319.204-.205.319-.482.319-.77 0-.289-.115-.566-.319-.771-.205-.204-.482-.319-.771-.319zM322.233 223.131h-7.927c-.289 0-.566.115-.77.319-.204.204-.319.481-.319.77 0 .289.115.566.319.77.204.205.481.319.77.319h7.927c.289 0 .566-.114.771-.319.204-.204.319-.481.319-.77 0-.289-.115-.566-.319-.77-.205-.204-.482-.319-.771-.319zM322.233 228.814h-7.927c-.289 0-.566.115-.77.319-.204.205-.319.482-.319.771 0 .289.115.566.319.77.204.204.481.319.77.319h7.927c.289 0 .566-.115.771-.319.204-.204.319-.481.319-.77 0-.289-.115-.566-.319-.771-.205-.204-.482-.319-.771-.319zM323.233 240.99h-35.556c-.289 0-.566.115-.77.319-.204.205-.319.482-.319.77 0 .289.115.566.319.771.204.204.481.319.77.319h35.556c.289 0 .566-.115.77-.319.205-.205.32-.482.32-.771 0-.288-.115-.565-.32-.77-.204-.204-.481-.319-.77-.319z"/>
    <g filter="url(#filter5_d)">
        <path fill="#fff" d="M498 40H708V118H498z"/>
    </g>
    <path fill="#6A2C70" d="M585.618 75.225c-1.06 0-1.98-.232-2.76-.697-.775-.47-1.37-1.13-1.785-1.98-.415-.85-.623-1.833-.623-2.948s.208-2.097.623-2.947c.415-.85 1.01-1.508 1.785-1.973.78-.47 1.7-.705 2.76-.705.815 0 1.547.14 2.197.42.655.275 1.205.672 1.65 1.193.45.515.788 1.127 1.013 1.837l-1.823.502c-.215-.72-.577-1.275-1.087-1.665-.51-.39-1.16-.585-1.95-.585-.71 0-1.31.163-1.8.488-.485.32-.85.775-1.095 1.365-.245.585-.37 1.275-.375 2.07 0 .795.122 1.488.367 2.078.245.585.613 1.04 1.103 1.365.49.32 1.09.48 1.8.48.79 0 1.44-.195 1.95-.585.51-.39.872-.945 1.087-1.666l1.823.503c-.225.71-.563 1.325-1.013 1.845-.445.515-.995.912-1.65 1.192-.65.276-1.382.413-2.197.413zm10.084 0c-.8 0-1.505-.18-2.115-.54-.61-.365-1.083-.87-1.418-1.515-.33-.65-.495-1.39-.495-2.22 0-.84.168-1.582.503-2.228.34-.65.815-1.152 1.425-1.507.61-.36 1.31-.54 2.1-.54.805 0 1.512.183 2.122.547.61.36 1.083.866 1.418 1.516.335.644.502 1.382.502 2.212 0 .835-.17 1.578-.51 2.227-.335.645-.81 1.148-1.425 1.508-.61.36-1.312.54-2.107.54zm0-1.695c.695 0 1.222-.233 1.582-.698.365-.464.548-1.092.548-1.882 0-.8-.183-1.43-.548-1.89-.36-.46-.887-.69-1.582-.69-.705 0-1.235.233-1.59.697-.35.46-.525 1.088-.525 1.883 0 .805.18 1.438.54 1.897.365.456.89.683 1.575.683zm12.85-9.33V75h-1.598v-.6c-.605.55-1.375.825-2.31.825-.73 0-1.377-.185-1.942-.555-.56-.375-.993-.885-1.298-1.53-.305-.65-.457-1.38-.457-2.19 0-.82.155-1.553.465-2.198.31-.65.75-1.157 1.32-1.522.57-.37 1.23-.555 1.98-.555.78 0 1.452.207 2.017.623V64.2h1.823zm-3.63 9.405c.695 0 1.207-.235 1.537-.705.33-.475.495-1.125.495-1.95s-.162-1.472-.487-1.943c-.325-.475-.82-.712-1.485-.712-.47 0-.865.117-1.185.352-.315.23-.55.545-.705.945-.155.4-.233.853-.233 1.358 0 .51.075.965.225 1.365.155.4.385.715.69.945.31.23.693.345 1.148.345zm5.882-9.593h1.808v1.658h-1.808v-1.657zm0 2.888h1.808V75h-1.808v-8.1zm8.3-.233c.905 0 1.592.23 2.062.69.47.456.775.963.915 1.523.14.56.21 1.093.21 1.598V75h-1.83v-3.9c0-1.82-.63-2.73-1.89-2.73-.545 0-.997.188-1.357.563-.36.37-.54 1.004-.54 1.904V75h-1.83v-8.1h1.612v.9c.305-.36.68-.638 1.125-.832.445-.2.953-.3 1.523-.3zm12.284.233v8.49c0 .435-.037.815-.112 1.14-.18.76-.593 1.332-1.238 1.718-.64.384-1.435.577-2.385.577-.68 0-1.307-.157-1.882-.472-.575-.31-1.02-.74-1.335-1.29l1.665-.826c.145.28.357.496.637.645.28.15.588.225.923.225.585 0 1.052-.152 1.402-.457.355-.3.528-.73.518-1.29v-.772c-.575.425-1.27.637-2.085.637-.73 0-1.378-.185-1.943-.555-.56-.375-.992-.885-1.297-1.53-.305-.65-.458-1.38-.458-2.19 0-.82.155-1.553.465-2.198.31-.65.75-1.157 1.32-1.522.57-.37 1.23-.555 1.98-.555.9 0 1.648.27 2.243.81V66.9h1.582zm-3.615 6.705c.695 0 1.208-.235 1.538-.705.33-.475.495-1.125.495-1.95s-.163-1.472-.488-1.943c-.325-.475-.82-.712-1.485-.712-.47 0-.865.117-1.185.352-.315.23-.55.545-.705.945-.155.4-.232.853-.232 1.358 0 .51.075.965.225 1.365.155.4.385.715.69.945.31.23.692.345 1.147.345zM581.05 84.2h6.503v1.807h-4.695V88.7h3.795v1.8h-3.795V95h-1.808V84.2zm15.134 2.7V95h-1.597v-.9c-.305.36-.68.64-1.125.84-.445.195-.953.293-1.523.293-.905 0-1.592-.228-2.062-.683-.47-.46-.775-.97-.915-1.53s-.21-1.093-.21-1.597V86.9h1.83v3.9c0 1.82.63 2.73 1.89 2.73.545 0 .997-.185 1.357-.555.36-.375.54-1.012.54-1.912V86.9h1.815zm6.352-.233c.905 0 1.593.23 2.063.69.47.456.775.963.915 1.523.14.56.21 1.093.21 1.598V95h-1.83v-3.9c0-1.82-.63-2.73-1.89-2.73-.545 0-.998.188-1.358.563-.36.37-.54 1.004-.54 1.904V95h-1.83v-8.1h1.613v.9c.305-.36.68-.638 1.125-.832.445-.2.952-.3 1.522-.3zm12.168-2.467V95h-1.597v-.6c-.605.55-1.375.825-2.31.825-.73 0-1.378-.185-1.943-.555-.56-.375-.992-.885-1.297-1.53-.305-.65-.458-1.38-.458-2.19 0-.82.155-1.553.465-2.198.31-.65.75-1.157 1.32-1.522.57-.37 1.23-.555 1.98-.555.78 0 1.453.207 2.018.623V84.2h1.822zm-3.63 9.405c.695 0 1.208-.235 1.538-.705.33-.475.495-1.125.495-1.95s-.163-1.472-.488-1.943c-.325-.475-.82-.712-1.485-.712-.47 0-.865.117-1.185.352-.315.23-.55.545-.705.945-.155.4-.232.853-.232 1.358 0 .51.075.965.225 1.365.155.4.385.715.69.945.31.23.692.345 1.147.345zm12.115-5.422c.13.26.213.53.248.81.04.275.06.62.06 1.035V95h-1.583v-1.088c-.345.456-.745.788-1.2.998-.455.21-1.002.315-1.642.315-.57 0-1.06-.107-1.47-.322-.405-.22-.715-.516-.93-.886-.21-.37-.315-.782-.315-1.237 0-.595.147-1.093.442-1.493.3-.4.768-.71 1.403-.93.355-.114.762-.212 1.222-.292.465-.085 1.128-.192 1.988-.322l.315-.045c-.035-.47-.185-.816-.45-1.035-.26-.22-.663-.33-1.208-.33-.4 0-.765.092-1.095.277-.325.185-.55.47-.675.855l-1.65-.517c.205-.71.595-1.265 1.17-1.665.575-.406 1.325-.608 2.25-.608.75 0 1.393.123 1.928.368.54.244.937.624 1.192 1.14zm-1.665 4.26c.11-.266.17-.686.18-1.26-.785.124-1.35.22-1.695.284-.34.06-.64.136-.9.225-.325.12-.57.266-.735.436-.165.17-.247.38-.247.63 0 .305.112.552.337.742.23.19.553.285.968.285.385 0 .722-.067 1.012-.203.295-.14.533-.312.713-.517.18-.205.302-.412.367-.623zm12.685-5.745c.585 0 1.085.122 1.5.367.42.24.738.58.953 1.02.215.435.322.948.322 1.538V95h-1.807v-4.92c0-.55-.138-.983-.413-1.297-.275-.316-.647-.473-1.117-.473-.29 0-.553.067-.788.203-.23.134-.412.332-.547.592-.13.255-.195.557-.195.907V95h-1.8v-4.897c0-.56-.138-.998-.413-1.313-.275-.32-.65-.48-1.125-.48-.305 0-.572.072-.802.218-.23.14-.408.34-.533.6-.125.254-.187.55-.187.885V95h-1.823v-8.1h1.598v.877c.27-.34.607-.605 1.012-.794.41-.19.855-.285 1.335-.285.555 0 1.033.115 1.433.345.4.224.71.54.93.944.25-.404.592-.72 1.027-.944.435-.23.915-.346 1.44-.346zm6.085 4.755c.07.67.282 1.184.637 1.544.36.356.845.533 1.455.533.44 0 .823-.097 1.148-.293.325-.2.575-.487.75-.862l1.785.54c-.205.48-.49.895-.855 1.245-.36.345-.775.61-1.245.795-.465.18-.958.27-1.478.27-.81 0-1.527-.177-2.152-.532-.625-.355-1.113-.85-1.463-1.486-.345-.634-.517-1.357-.517-2.167 0-.875.167-1.64.502-2.295.34-.66.815-1.17 1.425-1.53.61-.36 1.31-.54 2.1-.54.78 0 1.455.172 2.025.517.57.346 1.008.838 1.313 1.478.305.635.457 1.382.457 2.242 0 .17-.007.35-.022.54h-5.865zm2.167-3.196c-1.2 0-1.907.61-2.122 1.83h3.99c-.08-.63-.273-1.092-.578-1.387-.3-.295-.73-.443-1.29-.443zm9.397-1.59c.905 0 1.592.23 2.062.69.47.456.775.963.915 1.523.14.56.21 1.093.21 1.598V95h-1.83v-3.9c0-1.82-.63-2.73-1.89-2.73-.545 0-.997.188-1.357.563-.36.37-.54 1.004-.54 1.904V95h-1.83v-8.1h1.612v.9c.305-.36.68-.638 1.125-.832.445-.2.953-.3 1.523-.3zm7.514 4.92v.428c0 .26.01.47.03.63.02.16.065.293.135.398.115.19.275.325.48.404.21.08.468.12.773.12.28 0 .6-.027.96-.082V95c-.49.095-.948.142-1.373.142-.58 0-1.087-.09-1.522-.27-.435-.184-.76-.475-.975-.87-.13-.234-.215-.477-.255-.727-.04-.25-.06-.547-.06-.893l.007-.69v-3.374h-1.47V86.9h1.47v-2.25h1.8v2.25h2.378v1.417h-2.378v3.27zm10.502-3.404c.13.26.212.53.247.81.04.275.06.62.06 1.035V95h-1.582v-1.088c-.345.456-.745.788-1.2.998-.455.21-1.003.315-1.643.315-.57 0-1.06-.107-1.47-.322-.405-.22-.715-.516-.93-.886-.21-.37-.315-.782-.315-1.237 0-.595.148-1.093.443-1.493.3-.4.767-.71 1.402-.93.355-.114.763-.212 1.223-.292.465-.085 1.127-.192 1.987-.322l.315-.045c-.035-.47-.185-.816-.45-1.035-.26-.22-.662-.33-1.207-.33-.4 0-.765.092-1.095.277-.325.185-.55.47-.675.855l-1.65-.517c.205-.71.595-1.265 1.17-1.665.575-.406 1.325-.608 2.25-.608.75 0 1.392.123 1.927.368.54.244.938.624 1.193 1.14zm-1.665 4.26c.11-.266.17-.686.18-1.26-.785.124-1.35.22-1.695.284-.34.06-.64.136-.9.225-.325.12-.57.266-.735.436-.165.17-.248.38-.248.63 0 .305.113.552.338.742.23.19.552.285.967.285.385 0 .723-.067 1.013-.203.295-.14.532-.312.712-.517.18-.205.303-.412.368-.623zm4.075-8.468h1.807V95h-1.807V83.975zm7.182 11.25c-1 0-1.813-.225-2.438-.675-.625-.45-1.005-1.082-1.14-1.897l1.845-.285c.09.404.298.722.623.952.33.225.742.338 1.237.338.43 0 .765-.085 1.005-.255.24-.175.36-.413.36-.713 0-.195-.047-.345-.142-.45-.09-.105-.273-.207-.548-.307-.275-.106-.732-.243-1.372-.413-.685-.18-1.228-.373-1.628-.578-.395-.21-.68-.454-.855-.734-.175-.285-.262-.633-.262-1.043 0-.5.13-.938.39-1.313.265-.374.637-.665 1.117-.87.485-.204 1.045-.307 1.68-.307.625 0 1.183.097 1.673.293.49.194.885.474 1.185.84.305.36.49.78.555 1.26l-1.845.33c-.05-.346-.21-.618-.48-.818-.265-.2-.618-.313-1.058-.337-.425-.02-.767.047-1.027.202-.26.15-.39.36-.39.63 0 .165.052.3.157.405.11.105.318.212.623.322.305.105.782.24 1.432.405.655.17 1.173.36 1.553.57.385.21.662.463.832.758.175.29.263.648.263 1.073 0 .54-.135 1.007-.405 1.402-.265.39-.65.69-1.155.9-.5.21-1.095.315-1.785.315z"/>
    <path fill="#fff" d="M502 44H572V114H502z"/>
    <path fill="#6A2C70" d="M515.042 55.041H559.9590000000001V64.229H515.042z"/>
    <mask id="vgcqkaj0ea" fill="#fff">
        <rect width="49" height="51.042" x="513" y="53" rx="2"/>
    </mask>
    <rect width="49" height="51.042" x="513" y="53" fill="#6A2C70" fill-opacity=".2" stroke="#6A2C70" stroke-width="4.4" mask="url(#vgcqkaj0ea)" rx="2"/>
    <path stroke="#6A2C70" stroke-linecap="round" stroke-linejoin="round" stroke-width="2.2" d="M530.224 74.438l-5.995 6.564 6.125 6.706M544.776 87.709l5.995-6.564-6.125-6.707"/>
    <circle cx="549.24" cy="59.635" r="1.531" fill="#fff"/>
    <circle cx="544.135" cy="59.635" r="1.531" fill="#fff"/>
    <circle cx="554.344" cy="59.635" r="1.531" fill="#fff"/>
    <path stroke="#A681A9" stroke-linecap="round" stroke-width="2.2" d="M535.056 85.138L540.081 76.434"/>
    <mask id="r7ph35r6sb" width="42" height="42" x="198" y="76" maskUnits="userSpaceOnUse">
        <path fill="#C4C4C4" d="M198 76H240V118H198z"/>
    </mask>
    <g mask="url(#r7ph35r6sb)">
        <path fill="#6A2C70" d="M222.045 93.4l-6.75 4.15v-7.5l6.75-4.05h6.95v36h-6.95V93.4z" opacity=".15"/>
    </g>
    <mask id="8tp47omshc" width="42" height="42" x="432" y="76" maskUnits="userSpaceOnUse">
        <path fill="#C4C4C4" d="M432 76H474V118H432z"/>
    </mask>
    <g mask="url(#8tp47omshc)">
        <path fill="#6A2C70" d="M451.874 115.55h14.65v6.4h-25.2v-5.9l15.1-13.4c2.067-1.833 3.1-3.6 3.1-5.3 0-1.1-.225-2.075-.675-2.925-.45-.867-1.091-1.542-1.925-2.025-.816-.5-1.766-.75-2.85-.75-1.116 0-2.125.258-3.025.775-.883.517-1.566 1.208-2.05 2.075-.483.867-.708 1.8-.675 2.8h-7c0-2.433.534-4.558 1.6-6.375 1.084-1.817 2.6-3.217 4.55-4.2 1.95-.983 4.2-1.475 6.75-1.475 2.334 0 4.434.517 6.3 1.55 1.867 1.017 3.334 2.45 4.4 4.3 1.067 1.85 1.6 3.967 1.6 6.35 0 1.717-.241 3.158-.725 4.325-.466 1.15-1.116 2.175-1.95 3.075-.833.883-2.141 2.1-3.925 3.65l-8.05 7.05z" opacity=".15"/>
    </g>
    <mask id="kmsk8xl1ed" width="42" height="42" x="433" y="225" maskUnits="userSpaceOnUse">
        <path fill="#C4C4C4" d="M433 225H475V267H433z"/>
    </mask>
    <g mask="url(#kmsk8xl1ed)">
        <path fill="#6A2C70" d="M455.996 250.901c2.234 0 4.217.508 5.95 1.525 1.75 1 3.109 2.391 4.075 4.175.984 1.783 1.475 3.8 1.475 6.05 0 2.216-.575 4.25-1.725 6.1-1.133 1.85-2.666 3.316-4.6 4.4-1.916 1.066-3.991 1.6-6.225 1.6-2.366 0-4.508-.559-6.425-1.675-1.9-1.117-3.4-2.684-4.5-4.7-1.083-2.017-1.625-4.309-1.625-6.875v-10.45c0-2.8.542-5.234 1.625-7.3 1.1-2.084 2.659-3.675 4.675-4.775 2.017-1.117 4.367-1.675 7.05-1.675 3.784 0 6.9 1.133 9.35 3.4l-4.85 4.85c-.6-.6-1.3-1.067-2.1-1.4-.783-.334-1.583-.5-2.4-.5-1.25 0-2.366.3-3.35.9-.966.6-1.716 1.391-2.25 2.375-.533.966-.8 2.008-.8 3.125v3.075c.95-.717 1.992-1.267 3.125-1.65 1.15-.384 2.325-.575 3.525-.575zm-1.05 17.35c1.017 0 1.959-.25 2.825-.75.867-.5 1.55-1.175 2.05-2.025.517-.867.775-1.809.775-2.825 0-1.017-.25-1.959-.75-2.825-.5-.867-1.183-1.55-2.05-2.05-.85-.517-1.783-.775-2.8-.775-1.016 0-1.958.258-2.825.775-.866.5-1.558 1.183-2.075 2.05-.5.866-.75 1.808-.75 2.825 0 .983.25 1.908.75 2.775.5.85 1.175 1.533 2.025 2.05.867.516 1.809.775 2.825.775z" opacity=".15"/>
    </g>
    <mask id="aaveak9y6e" width="42" height="42" x="666" y="76" maskUnits="userSpaceOnUse">
        <path fill="#C4C4C4" d="M666 76H708V118H666z"/>
    </mask>
    <g mask="url(#aaveak9y6e)">
        <path fill="#6A2C70" d="M692.059 99.475c1.667.483 3.1 1.283 4.3 2.4 1.2 1.117 2.108 2.433 2.725 3.95.617 1.517.925 3.125.925 4.825 0 2.217-.575 4.242-1.725 6.075-1.133 1.833-2.658 3.283-4.575 4.35-1.917 1.05-4 1.575-6.25 1.575-1.8 0-3.525-.358-5.175-1.075-1.633-.733-3.058-1.767-4.275-3.1-1.2-1.333-2.05-2.875-2.55-4.625l6.6-1.75c.333 1.283 1 2.3 2 3.05 1.017.733 2.15 1.1 3.4 1.1 1.017 0 1.958-.25 2.825-.75.867-.5 1.55-1.175 2.05-2.025.517-.867.775-1.808.775-2.825 0-1.033-.242-1.975-.725-2.825-.483-.867-1.158-1.55-2.025-2.05-.85-.517-1.817-.775-2.9-.775-.967 0-1.9.267-2.8.8l-3.05-5.35 9.7-8.05h-14.45V86h22.5v6.4l-7.3 7.075z" opacity=".15"/>
    </g>
    <mask id="unpiq2jsof" width="42" height="42" x="667" y="225" maskUnits="userSpaceOnUse">
        <path fill="#C4C4C4" d="M667 225H709V267H667z"/>
    </mask>
    <g mask="url(#unpiq2jsof)">
        <path fill="#6A2C70" d="M690.007 250.95c2.233 0 4.216.5 5.95 1.5 1.75 1 3.108 2.392 4.075 4.175.983 1.767 1.475 3.775 1.475 6.025 0 2.217-.584 4.25-1.75 6.1-1.167 1.85-2.734 3.317-4.7 4.4-1.95 1.067-4.05 1.6-6.3 1.6-1.8 0-3.5-.367-5.1-1.1-1.6-.75-2.975-1.8-4.125-3.15-1.15-1.35-1.975-2.9-2.475-4.65l6.55-1.75c.216.833.6 1.567 1.15 2.2.55.617 1.2 1.1 1.95 1.45.75.333 1.516.5 2.3.5 1.016 0 1.958-.25 2.825-.75.866-.5 1.55-1.175 2.05-2.025.516-.867.775-1.808.775-2.825 0-1.017-.259-1.95-.775-2.8-.5-.867-1.184-1.55-2.05-2.05-.867-.5-1.809-.75-2.825-.75-1.95 0-3.584.617-4.9 1.85l-5.75-1.75 1.1-19.15h19.65v6.35h-13.625l-.5 7.85c.766-.417 1.591-.725 2.475-.925.883-.217 1.733-.325 2.55-.325z" opacity=".15"/>
    </g>
    <mask id="0bg2ufcfbg" width="42" height="42" x="901" y="76" maskUnits="userSpaceOnUse">
        <path fill="#C4C4C4" d="M901 76H943V118H901z"/>
    </mask>
    <g mask="url(#0bg2ufcfbg)">
        <path fill="#6A2C70" d="M924.388 116.4h-15.65v-6.35L920.088 86h7.8l-11.35 24.05h7.85v-9h6.9v9h3.2v6.35h-3.2v5.6h-6.9v-5.6z" opacity=".15"/>
    </g>
    <path stroke="#E1D5E2" stroke-dasharray="5 5" stroke-width="2" d="M119 39.5V9h223v30.5"/>
    <path stroke="#E1D5E2" stroke-linecap="round" stroke-width="3" d="M227 2l7 7-7 7"/>
    <path stroke="#E1D5E2" stroke-dasharray="5 5" stroke-width="2" d="M627 39.5V9h223v30.5"/>
    <path stroke="#E1D5E2" stroke-linecap="round" stroke-width="3" d="M735 2l7 7-7 7"/>
    <path stroke="#E1D5E2" stroke-dasharray="5 5" stroke-width="2" d="M356.5 118v30.5h223V118"/>
    <path stroke="#E1D5E2" stroke-linecap="round" stroke-width="3" d="M475 142l7 7-7 7"/>
    <path stroke="#E1D5E2" stroke-dasharray="5 5" stroke-width="2" d="M852 118.5V161H639.5v28"/>
    <path stroke="#E1D5E2" stroke-linecap="round" stroke-width="3" d="M767 155l-7 7 7 7"/>
    <path stroke="#E1D5E2" stroke-dasharray="5 5" stroke-width="2" d="M356.5 267.5V298h223v-30.5"/>
    <path stroke="#E1D5E2" stroke-linecap="round" stroke-width="3" d="M482 305l-7-7 7-7"/>
    <defs>
        <filter id="filter0_d" width="270" height="138" x="234" y="20" color-interpolation-filters="sRGB" filterUnits="userSpaceOnUse">
            <feFlood flood-opacity="0" result="BackgroundImageFix"/>
            <feColorMatrix in="SourceAlpha" values="0 0 0 0 0 0 0 0 0 0 0 0 0 0 0 0 0 0 127 0"/>
            <feOffset dy="10"/>
            <feGaussianBlur stdDeviation="15"/>
            <feColorMatrix values="0 0 0 0 0 0 0 0 0 0 0 0 0 0 0 0 0 0 0.06 0"/>
            <feBlend in2="BackgroundImageFix" result="effect1_dropShadow"/>
            <feBlend in="SourceGraphic" in2="effect1_dropShadow" result="shape"/>
        </filter>
        <filter id="filter1_d" width="270" height="138" x="469" y="169" color-interpolation-filters="sRGB" filterUnits="userSpaceOnUse">
            <feFlood flood-opacity="0" result="BackgroundImageFix"/>
            <feColorMatrix in="SourceAlpha" values="0 0 0 0 0 0 0 0 0 0 0 0 0 0 0 0 0 0 127 0"/>
            <feOffset dy="10"/>
            <feGaussianBlur stdDeviation="15"/>
            <feColorMatrix values="0 0 0 0 0 0 0 0 0 0 0 0 0 0 0 0 0 0 0.06 0"/>
            <feBlend in2="BackgroundImageFix" result="effect1_dropShadow"/>
            <feBlend in="SourceGraphic" in2="effect1_dropShadow" result="shape"/>
        </filter>
        <filter id="filter2_d" width="270" height="138" x="702" y="20" color-interpolation-filters="sRGB" filterUnits="userSpaceOnUse">
            <feFlood flood-opacity="0" result="BackgroundImageFix"/>
            <feColorMatrix in="SourceAlpha" values="0 0 0 0 0 0 0 0 0 0 0 0 0 0 0 0 0 0 127 0"/>
            <feOffset dy="10"/>
            <feGaussianBlur stdDeviation="15"/>
            <feColorMatrix values="0 0 0 0 0 0 0 0 0 0 0 0 0 0 0 0 0 0 0.06 0"/>
            <feBlend in2="BackgroundImageFix" result="effect1_dropShadow"/>
            <feBlend in="SourceGraphic" in2="effect1_dropShadow" result="shape"/>
        </filter>
        <filter id="filter3_d" width="270" height="138" x="0" y="20" color-interpolation-filters="sRGB" filterUnits="userSpaceOnUse">
            <feFlood flood-opacity="0" result="BackgroundImageFix"/>
            <feColorMatrix in="SourceAlpha" values="0 0 0 0 0 0 0 0 0 0 0 0 0 0 0 0 0 0 127 0"/>
            <feOffset dy="10"/>
            <feGaussianBlur stdDeviation="15"/>
            <feColorMatrix values="0 0 0 0 0 0 0 0 0 0 0 0 0 0 0 0 0 0 0.06 0"/>
            <feBlend in2="BackgroundImageFix" result="effect1_dropShadow"/>
            <feBlend in="SourceGraphic" in2="effect1_dropShadow" result="shape"/>
        </filter>
        <filter id="filter4_d" width="270" height="138" x="235" y="169" color-interpolation-filters="sRGB" filterUnits="userSpaceOnUse">
            <feFlood flood-opacity="0" result="BackgroundImageFix"/>
            <feColorMatrix in="SourceAlpha" values="0 0 0 0 0 0 0 0 0 0 0 0 0 0 0 0 0 0 127 0"/>
            <feOffset dy="10"/>
            <feGaussianBlur stdDeviation="15"/>
            <feColorMatrix values="0 0 0 0 0 0 0 0 0 0 0 0 0 0 0 0 0 0 0.06 0"/>
            <feBlend in2="BackgroundImageFix" result="effect1_dropShadow"/>
            <feBlend in="SourceGraphic" in2="effect1_dropShadow" result="shape"/>
        </filter>
        <filter id="filter5_d" width="270" height="138" x="468" y="20" color-interpolation-filters="sRGB" filterUnits="userSpaceOnUse">
            <feFlood flood-opacity="0" result="BackgroundImageFix"/>
            <feColorMatrix in="SourceAlpha" values="0 0 0 0 0 0 0 0 0 0 0 0 0 0 0 0 0 0 127 0"/>
            <feOffset dy="10"/>
            <feGaussianBlur stdDeviation="15"/>
            <feColorMatrix values="0 0 0 0 0 0 0 0 0 0 0 0 0 0 0 0 0 0 0.06 0"/>
            <feBlend in2="BackgroundImageFix" result="effect1_dropShadow"/>
            <feBlend in="SourceGraphic" in2="effect1_dropShadow" result="shape"/>
        </filter>
    </defs>
</svg>
