<svg xmlns="http://www.w3.org/2000/svg" width="518" height="200" fill="none" viewBox="0 0 518 200">
    <g filter="url(#filter0_d)">
        <path fill="url(#paint0_linear)" d="M18 107c0-2.761 2.239-5 5-5h90c2.761 0 5 2.239 5 5v32H18v-32z"/>
        <path stroke="#DDD" stroke-width=".7" d="M18.35 107c0-2.568 2.082-4.65 4.65-4.65h90c2.568 0 4.65 2.082 4.65 4.65v31.65h-99.3V107z"/>
    </g>
    <g filter="url(#filter1_d)">
        <path fill="url(#paint1_linear)" d="M141 86c0-2.761 2.239-5 5-5h90c2.761 0 5 2.239 5 5v53H141V86z"/>
        <path stroke="#DDD" stroke-width=".7" d="M141.35 86c0-2.568 2.082-4.65 4.65-4.65h90c2.568 0 4.65 2.082 4.65 4.65v52.65h-99.3V86z"/>
    </g>
    <g filter="url(#filter2_d)">
        <path fill="url(#paint2_linear)" d="M264 86c0-2.761 2.239-5 5-5h90c2.761 0 5 2.239 5 5v53H264V86z"/>
        <path stroke="#DDD" stroke-width=".7" d="M264.35 86c0-2.568 2.082-4.65 4.65-4.65h90c2.568 0 4.65 2.082 4.65 4.65v52.65h-99.3V86z"/>
    </g>
    <g filter="url(#filter3_d)">
        <path fill="url(#paint3_linear)" d="M387 70c0-2.761 2.239-5 5-5h90c2.761 0 5 2.239 5 5v69H387V70z"/>
        <path stroke="#DDD" stroke-width=".7" d="M387.35 70c0-2.568 2.082-4.65 4.65-4.65h90c2.568 0 4.65 2.082 4.65 4.65v68.65h-99.3V70z"/>
    </g>
    <path fill="#fff" d="M45.064 126.15c-.703 0-1.308-.157-1.815-.47-.503-.313-.886-.752-1.15-1.315-.263-.567-.395-1.222-.395-1.965 0-.743.132-1.397.395-1.96.264-.567.647-1.007 1.15-1.32.507-.313 1.112-.47 1.815-.47.547 0 1.034.095 1.46.285.427.19.784.462 1.07.815.29.35.504.765.64 1.245l-.905.24c-.15-.55-.416-.977-.8-1.28-.383-.303-.871-.455-1.465-.455-.523 0-.966.12-1.33.36-.36.24-.631.578-.815 1.015-.18.433-.271.942-.275 1.525-.003.58.085 1.088.265 1.525.184.437.457.775.82 1.015.364.24.809.36 1.335.36.594 0 1.082-.152 1.465-.455.384-.303.65-.73.8-1.28l.905.24c-.136.48-.35.897-.64 1.25-.286.35-.643.62-1.07.81-.426.19-.913.285-1.46.285zm4.367-7.5h.89V126h-.89v-7.35zm6.54 2.855c.07.153.117.323.14.51.023.183.035.398.035.645V126h-.79v-.84c-.43.66-1.097.99-2 .99-.39 0-.723-.072-1-.215-.277-.147-.485-.342-.625-.585-.14-.243-.21-.513-.21-.81 0-.797.442-1.325 1.325-1.585.26-.07.558-.132.895-.185.337-.053.74-.112 1.21-.175l.32-.045c-.013-.437-.123-.757-.33-.96-.207-.207-.54-.31-1-.31-.34 0-.632.078-.875.235-.24.153-.407.39-.5.71l-.845-.255c.13-.483.383-.857.76-1.12.38-.267.87-.4 1.47-.4.497 0 .918.09 1.265.27.35.177.602.438.755.785zm-2.48 3.9c.31 0 .583-.055.82-.165.237-.113.428-.263.575-.45.147-.19.242-.4.285-.63.033-.113.055-.24.065-.38.013-.14.022-.297.025-.47l-.245.03c-.47.063-.832.115-1.085.155-.25.04-.478.09-.685.15-.257.08-.462.19-.615.33-.15.14-.225.327-.225.56 0 .157.038.302.115.435.077.13.197.235.36.315.163.08.367.12.61.12zm5.995.74c-.427 0-.805-.063-1.135-.19-.33-.127-.598-.31-.805-.55-.207-.24-.34-.528-.4-.865l.91-.145c.073.297.242.53.505.7.263.17.59.255.98.255.367 0 .655-.075.865-.225.213-.153.32-.363.32-.63 0-.16-.037-.285-.11-.375-.07-.09-.208-.175-.415-.255-.207-.083-.54-.187-1-.31-.483-.13-.86-.262-1.13-.395-.27-.137-.463-.293-.58-.47-.117-.177-.175-.397-.175-.66 0-.313.087-.588.26-.825.173-.24.417-.425.73-.555.313-.133.675-.2 1.085-.2.407 0 .772.067 1.095.2.327.13.588.315.785.555.2.237.318.512.355.825l-.91.165c-.043-.293-.19-.525-.44-.695-.247-.17-.563-.255-.95-.255-.22 0-.415.032-.585.095-.167.06-.297.147-.39.26-.093.11-.14.238-.14.385 0 .137.04.25.12.34.083.09.233.177.45.26.217.08.542.175.975.285.483.123.86.255 1.13.395.27.14.463.305.58.495.12.19.18.427.18.71 0 .347-.087.647-.26.9-.173.25-.422.442-.745.575-.323.133-.708.2-1.155.2zm5.303 0c-.427 0-.805-.063-1.135-.19-.33-.127-.599-.31-.805-.55-.207-.24-.34-.528-.4-.865l.91-.145c.073.297.241.53.505.7.263.17.59.255.98.255.367 0 .655-.075.865-.225.213-.153.32-.363.32-.63 0-.16-.037-.285-.11-.375-.07-.09-.209-.175-.415-.255-.207-.083-.54-.187-1-.31-.484-.13-.86-.262-1.13-.395-.27-.137-.464-.293-.58-.47-.117-.177-.175-.397-.175-.66 0-.313.087-.588.26-.825.173-.24.416-.425.73-.555.313-.133.675-.2 1.085-.2.406 0 .772.067 1.095.2.326.13.588.315.785.555.2.237.318.512.355.825l-.91.165c-.044-.293-.19-.525-.44-.695-.247-.17-.563-.255-.95-.255-.22 0-.415.032-.585.095-.167.06-.297.147-.39.26-.094.11-.14.238-.14.385 0 .137.04.25.12.34.083.09.233.177.45.26.216.08.541.175.975.285.483.123.86.255 1.13.395.27.14.463.305.58.495.12.19.18.427.18.71 0 .347-.087.647-.26.9-.173.25-.422.442-.745.575-.323.133-.709.2-1.155.2zm6.904-7.207l-1.62.99v-1.596l1.62-.972h1.477V126h-1.477v-7.062zm9.027 7.242c-.496 0-.956-.074-1.38-.222-.42-.148-.768-.37-1.044-.666-.224-.244-.39-.512-.498-.804-.108-.296-.168-.622-.18-.978 0-.344.05-.67.15-.978.1-.308.25-.58.45-.816.144-.168.326-.32.546-.456-.252-.28-.436-.544-.552-.792-.112-.248-.168-.532-.168-.852 0-.504.136-.956.408-1.356.272-.4.642-.688 1.11-.864.36-.132.772-.198 1.236-.198.396 0 .766.06 1.11.18.344.12.632.302.864.546.152.144.28.31.384.498.108.184.188.376.24.576l-1.428.306c-.06-.184-.158-.338-.294-.462-.208-.192-.512-.288-.912-.288-.256 0-.482.046-.678.138-.196.092-.342.216-.438.372-.092.156-.138.346-.138.57 0 .184.03.334.09.45.06.116.158.248.294.396.132.144.328.332.588.564l2.172 2.01c.004-.104.006-.28.006-.528v-1.056h1.272v1.566c0 .512-.03.888-.09 1.128l1.074.984-.93.99-.834-.792c-.2.188-.422.344-.666.468-.24.124-.488.21-.744.258-.308.072-.648.108-1.02.108zm.06-1.374c.272 0 .496-.03.672-.09.244-.076.464-.19.66-.342l-2.286-2.1c-.208.076-.378.196-.51.36-.16.208-.24.472-.24.792.004.34.108.63.312.87.136.172.332.3.588.384.26.084.528.126.804.126zm9.505-.18h3.708v1.362h-5.946v-1.26l3.696-3.294c.272-.244.468-.48.588-.708.12-.228.18-.454.18-.678 0-.284-.062-.54-.186-.768-.12-.232-.292-.412-.516-.54-.22-.132-.47-.198-.75-.198-.292 0-.556.07-.792.21-.232.136-.412.318-.54.546-.128.228-.188.474-.18.738H88.06c0-.568.128-1.068.384-1.5.256-.432.612-.766 1.068-1.002.46-.236.986-.354 1.578-.354.548 0 1.042.124 1.482.372.444.244.792.586 1.044 1.026.252.436.378.932.378 1.488 0 .396-.054.734-.162 1.014-.108.276-.26.524-.456.744-.196.22-.488.5-.876.84l-2.214 1.962z"/>
    <path fill="#fff" fill-opacity=".9" d="M51.335 155l-.57-1.685H47.69L47.125 155H46.2l2.41-7.2h1.24l2.41 7.2h-.925zm-3.365-2.52h2.515l-1.265-3.745-1.25 3.745zm9.785-2.88v5.435c0 .323-.022.6-.065.83-.103.563-.357.985-.76 1.265-.403.28-.933.42-1.59.42-.443 0-.857-.102-1.24-.305-.38-.2-.678-.493-.895-.88l.815-.43c.127.253.308.442.545.565.24.127.5.19.78.19 1.02 0 1.525-.555 1.515-1.665v-.52c-.197.207-.428.367-.695.48-.267.11-.563.165-.89.165-.493 0-.923-.123-1.29-.37-.363-.25-.643-.59-.84-1.02-.193-.433-.29-.922-.29-1.465 0-.54.097-1.025.29-1.455.197-.433.477-.773.84-1.02.367-.247.795-.37 1.285-.37.36 0 .682.065.965.195.283.13.527.317.73.56v-.605h.79zm-2.37 4.735c.523 0 .917-.185 1.18-.555.267-.37.4-.865.4-1.485 0-.62-.132-1.113-.395-1.48s-.65-.55-1.16-.55c-.353 0-.652.088-.895.265-.24.177-.42.418-.54.725-.117.303-.175.65-.175 1.04 0 .393.058.743.175 1.05.12.307.298.548.535.725.24.177.532.265.875.265zm4.421-1.785c.037.563.195.997.475 1.3.284.303.674.455 1.17.455.353 0 .662-.082.925-.245.267-.163.475-.398.625-.705l.855.295c-.21.473-.525.842-.945 1.105-.42.263-.893.395-1.42.395-.526 0-.99-.117-1.39-.35-.396-.233-.705-.563-.925-.99-.217-.427-.325-.918-.325-1.475 0-.583.107-1.092.32-1.525.217-.437.52-.772.91-1.005.393-.237.85-.355 1.37-.355.517 0 .962.117 1.335.35.377.23.665.562.865.995.2.43.3.942.3 1.535 0 .097-.002.17-.005.22h-4.14zm1.675-2.3c-.483 0-.865.135-1.145.405s-.451.663-.515 1.18h3.2c-.11-1.057-.623-1.585-1.54-1.585zm5.618 4.895c-.426 0-.805-.063-1.135-.19-.33-.127-.598-.31-.805-.55-.206-.24-.34-.528-.4-.865l.91-.145c.074.297.242.53.505.7.264.17.59.255.98.255.367 0 .655-.075.865-.225.214-.153.32-.363.32-.63 0-.16-.036-.285-.11-.375-.07-.09-.208-.175-.415-.255-.206-.083-.54-.187-1-.31-.483-.13-.86-.262-1.13-.395-.27-.137-.463-.293-.58-.47-.116-.177-.175-.397-.175-.66 0-.313.087-.588.26-.825.174-.24.417-.425.73-.555.314-.133.675-.2 1.085-.2.407 0 .772.067 1.095.2.327.13.589.315.785.555.2.237.319.512.355.825l-.91.165c-.043-.293-.19-.525-.44-.695-.246-.17-.563-.255-.95-.255-.22 0-.415.032-.585.095-.166.06-.296.147-.39.26-.093.11-.14.238-.14.385 0 .137.04.25.12.34.084.09.234.177.45.26.217.08.542.175.975.285.484.123.86.255 1.13.395.27.14.464.305.58.495.12.19.18.427.18.71 0 .347-.086.647-.26.9-.173.25-.421.442-.745.575-.323.133-.708.2-1.155.2zm7.825-4.78c.44 0 .838.105 1.195.315.36.207.642.492.845.855.207.363.31.765.31 1.205 0 .437-.112.84-.335 1.21-.22.37-.518.663-.895.88-.377.213-.785.32-1.225.32-.453 0-.868-.11-1.245-.33-.373-.22-.668-.522-.885-.905-.217-.387-.325-.817-.325-1.29v-2.395c0-.497.108-.94.325-1.33.217-.393.517-.698.9-.915.387-.22.823-.33 1.31-.33.397 0 .765.082 1.105.245.343.16.632.392.865.695l-.665.59c-.147-.21-.337-.377-.57-.5-.23-.123-.475-.185-.735-.185-.31 0-.59.075-.84.225-.247.15-.44.35-.58.6-.14.25-.21.518-.21.805v.98c.21-.233.458-.415.745-.545.29-.133.593-.2.91-.2zm-.105 3.925c.283 0 .543-.068.78-.205.237-.14.425-.328.565-.565.14-.237.21-.497.21-.78 0-.283-.07-.543-.21-.78-.137-.237-.323-.425-.56-.565-.237-.14-.497-.21-.78-.21-.283 0-.543.07-.78.21-.237.14-.425.328-.565.565-.14.237-.21.497-.21.78 0 .28.068.538.205.775.14.237.328.425.565.565.24.14.5.21.78.21zm3.656-3.26h3v.735h-3v-.735zm7.964.115c.307.193.54.447.7.76.164.313.245.66.245 1.04 0 .433-.1.817-.3 1.15-.2.333-.48.593-.84.78-.356.183-.763.275-1.22.275-.456 0-.863-.092-1.22-.275-.356-.183-.635-.442-.835-.775-.196-.337-.295-.722-.295-1.155 0-.383.079-.73.235-1.04.16-.31.395-.565.705-.765-.246-.173-.436-.392-.57-.655-.13-.263-.195-.552-.195-.865 0-.397.092-.743.275-1.04.187-.3.444-.53.77-.69.33-.16.707-.24 1.13-.24.424 0 .799.08 1.125.24.33.16.587.39.77.69.187.297.28.643.28 1.04 0 .317-.065.607-.195.87-.126.263-.315.482-.565.655zm-1.415-2.635c-.376 0-.676.095-.9.285-.22.19-.33.465-.33.825 0 .36.11.635.33.825.224.19.524.285.9.285.377 0 .675-.095.895-.285.224-.19.335-.465.335-.825 0-.36-.111-.635-.335-.825-.22-.19-.518-.285-.895-.285zm0 5.79c.284 0 .53-.052.74-.155.214-.107.379-.262.495-.465.12-.203.18-.448.18-.735 0-.433-.128-.768-.385-1.005-.253-.237-.596-.355-1.03-.355-.433 0-.776.118-1.03.355-.253.237-.38.572-.38 1.005 0 .43.127.763.38 1 .257.237.6.355 1.03.355z"/>
    <path fill="#fff" d="M165.14 126.15c-.703 0-1.308-.157-1.815-.47-.503-.313-.886-.752-1.15-1.315-.263-.567-.395-1.222-.395-1.965 0-.743.132-1.397.395-1.96.264-.567.647-1.007 1.15-1.32.507-.313 1.112-.47 1.815-.47.547 0 1.034.095 1.46.285.427.19.784.462 1.07.815.29.35.504.765.64 1.245l-.905.24c-.15-.55-.416-.977-.8-1.28-.383-.303-.871-.455-1.465-.455-.523 0-.966.12-1.33.36-.36.24-.631.578-.815 1.015-.18.433-.271.942-.275 1.525-.003.58.085 1.088.265 1.525.184.437.457.775.82 1.015.364.24.809.36 1.335.36.594 0 1.082-.152 1.465-.455.384-.303.65-.73.8-1.28l.905.24c-.136.48-.35.897-.64 1.25-.286.35-.643.62-1.07.81-.426.19-.913.285-1.46.285zm4.367-7.5h.89V126h-.89v-7.35zm6.54 2.855c.07.153.117.323.14.51.024.183.035.398.035.645V126h-.79v-.84c-.43.66-1.096.99-2 .99-.39 0-.723-.072-1-.215-.276-.147-.485-.342-.625-.585-.14-.243-.21-.513-.21-.81 0-.797.442-1.325 1.325-1.585.26-.07.559-.132.895-.185.337-.053.74-.112 1.21-.175l.32-.045c-.013-.437-.123-.757-.33-.96-.206-.207-.54-.31-1-.31-.34 0-.631.078-.875.235-.24.153-.406.39-.5.71l-.845-.255c.13-.483.384-.857.76-1.12.38-.267.87-.4 1.47-.4.497 0 .919.09 1.265.27.35.177.602.438.755.785zm-2.48 3.9c.31 0 .584-.055.82-.165.237-.113.429-.263.575-.45.147-.19.242-.4.285-.63.034-.113.055-.24.065-.38.014-.14.022-.297.025-.47l-.245.03c-.47.063-.831.115-1.085.155-.25.04-.478.09-.685.15-.256.08-.461.19-.615.33-.15.14-.225.327-.225.56 0 .157.039.302.115.435.077.13.197.235.36.315.164.08.367.12.61.12zm5.995.74c-.426 0-.805-.063-1.135-.19-.33-.127-.598-.31-.805-.55-.206-.24-.34-.528-.4-.865l.91-.145c.074.297.242.53.505.7.264.17.59.255.98.255.367 0 .655-.075.865-.225.214-.153.32-.363.32-.63 0-.16-.036-.285-.11-.375-.07-.09-.208-.175-.415-.255-.206-.083-.54-.187-1-.31-.483-.13-.86-.262-1.13-.395-.27-.137-.463-.293-.58-.47-.116-.177-.175-.397-.175-.66 0-.313.087-.588.26-.825.174-.24.417-.425.73-.555.314-.133.675-.2 1.085-.2.407 0 .772.067 1.095.2.327.13.589.315.785.555.2.237.319.512.355.825l-.91.165c-.043-.293-.19-.525-.44-.695-.246-.17-.563-.255-.95-.255-.22 0-.415.032-.585.095-.166.06-.296.147-.39.26-.093.11-.14.238-.14.385 0 .137.04.25.12.34.084.09.234.177.45.26.217.08.542.175.975.285.484.123.86.255 1.13.395.27.14.464.305.58.495.12.19.18.427.18.71 0 .347-.086.647-.26.9-.173.25-.421.442-.745.575-.323.133-.708.2-1.155.2zm5.303 0c-.427 0-.805-.063-1.135-.19-.33-.127-.598-.31-.805-.55-.207-.24-.34-.528-.4-.865l.91-.145c.073.297.242.53.505.7.263.17.59.255.98.255.367 0 .655-.075.865-.225.213-.153.32-.363.32-.63 0-.16-.037-.285-.11-.375-.07-.09-.208-.175-.415-.255-.207-.083-.54-.187-1-.31-.483-.13-.86-.262-1.13-.395-.27-.137-.463-.293-.58-.47-.117-.177-.175-.397-.175-.66 0-.313.087-.588.26-.825.173-.24.417-.425.73-.555.313-.133.675-.2 1.085-.2.407 0 .772.067 1.095.2.327.13.588.315.785.555.2.237.318.512.355.825l-.91.165c-.043-.293-.19-.525-.44-.695-.247-.17-.563-.255-.95-.255-.22 0-.415.032-.585.095-.167.06-.297.147-.39.26-.093.11-.14.238-.14.385 0 .137.04.25.12.34.083.09.233.177.45.26.217.08.542.175.975.285.483.123.86.255 1.13.395.27.14.463.305.58.495.12.19.18.427.18.71 0 .347-.087.647-.26.9-.173.25-.422.442-.745.575-.323.133-.708.2-1.155.2zm8.729-5.545c.432.088.806.262 1.122.522.316.256.556.574.72.954.168.376.252.784.252 1.224 0 .536-.132 1.022-.396 1.458-.264.436-.622.78-1.074 1.032-.448.248-.94.372-1.476.372-.432 0-.842-.084-1.23-.252-.384-.172-.718-.412-1.002-.72-.28-.312-.48-.674-.6-1.086l1.398-.378c.096.336.276.6.54.792.264.188.56.28.888.276.28 0 .532-.066.756-.198.224-.132.4-.31.528-.534.132-.228.198-.482.198-.762s-.064-.534-.192-.762c-.124-.232-.3-.414-.528-.546-.224-.132-.478-.198-.762-.198-.252 0-.502.068-.75.204l-.66-1.14 2.496-2.136h-3.576v-1.362h5.298v1.368l-1.95 1.872zm7.947 2.67v.342c0 .208.008.376.024.504s.052.234.108.318c.092.152.22.26.384.324.168.064.374.096.618.096.224 0 .48-.022.768-.066V126c-.392.076-.758.114-1.098.114-.464 0-.87-.072-1.218-.216-.348-.148-.608-.38-.78-.696-.104-.188-.172-.382-.204-.582-.032-.2-.048-.438-.048-.714l.006-.552v-2.7h-1.176v-1.134h1.176v-1.8h1.44v1.8h1.902v1.134h-1.902v2.616zm5.829 2.91c-.64 0-1.204-.144-1.692-.432-.488-.292-.866-.696-1.134-1.212-.264-.52-.396-1.112-.396-1.776 0-.672.134-1.266.402-1.782.272-.52.652-.922 1.14-1.206.488-.288 1.048-.432 1.68-.432.644 0 1.21.146 1.698.438.488.288.866.692 1.134 1.212.268.516.402 1.106.402 1.77 0 .668-.136 1.262-.408 1.782-.268.516-.648.918-1.14 1.206-.488.288-1.05.432-1.686.432zm0-1.356c.556 0 .978-.186 1.266-.558.292-.372.438-.874.438-1.506 0-.64-.146-1.144-.438-1.512-.288-.368-.71-.552-1.266-.552-.564 0-.988.186-1.272.558-.28.368-.42.87-.42 1.506 0 .644.144 1.15.432 1.518.292.364.712.546 1.26.546zm9.772-4.368c.532 0 1.008.122 1.428.366.424.244.754.58.99 1.008.24.428.36.91.36 1.446 0 .528-.14 1.014-.42 1.458-.276.444-.646.796-1.11 1.056-.464.26-.964.39-1.5.39-.432 0-.84-.09-1.224-.27-.384-.18-.714-.432-.99-.756s-.472-.696-.588-1.116l1.392-.372c.056.224.158.422.306.594s.324.304.528.396c.204.092.414.138.63.138.276 0 .53-.068.762-.204.236-.136.422-.32.558-.552.136-.236.204-.49.204-.762 0-.276-.07-.528-.21-.756-.136-.232-.322-.416-.558-.552-.232-.136-.484-.204-.756-.204-.304 0-.566.054-.786.162-.22.108-.4.242-.54.402l-1.236-.396.264-4.572h4.692v1.356h-3.408l-.132 2.124c.204-.124.422-.218.654-.282.236-.068.466-.102.69-.102z"/>
    <path fill="#fff" fill-opacity=".9" d="M173.335 155l-.57-1.685h-3.075l-.565 1.685h-.925l2.41-7.2h1.24l2.41 7.2h-.925zm-3.365-2.52h2.515l-1.265-3.745-1.25 3.745zm9.785-2.88v5.435c0 .323-.022.6-.065.83-.103.563-.357.985-.76 1.265-.403.28-.933.42-1.59.42-.443 0-.857-.102-1.24-.305-.38-.2-.678-.493-.895-.88l.815-.43c.127.253.308.442.545.565.24.127.5.19.78.19 1.02 0 1.525-.555 1.515-1.665v-.52c-.197.207-.428.367-.695.48-.267.11-.563.165-.89.165-.493 0-.923-.123-1.29-.37-.363-.25-.643-.59-.84-1.02-.193-.433-.29-.922-.29-1.465 0-.54.097-1.025.29-1.455.197-.433.477-.773.84-1.02.367-.247.795-.37 1.285-.37.36 0 .682.065.965.195.283.13.527.317.73.56v-.605h.79zm-2.37 4.735c.523 0 .917-.185 1.18-.555.267-.37.4-.865.4-1.485 0-.62-.132-1.113-.395-1.48s-.65-.55-1.16-.55c-.353 0-.652.088-.895.265-.24.177-.42.418-.54.725-.117.303-.175.65-.175 1.04 0 .393.058.743.175 1.05.12.307.298.548.535.725.24.177.532.265.875.265zm4.421-1.785c.037.563.195.997.475 1.3.284.303.674.455 1.17.455.354 0 .662-.082.925-.245.267-.163.475-.398.625-.705l.855.295c-.21.473-.525.842-.945 1.105-.42.263-.893.395-1.42.395-.526 0-.99-.117-1.39-.35-.396-.233-.705-.563-.925-.99-.216-.427-.325-.918-.325-1.475 0-.583.107-1.092.32-1.525.217-.437.52-.772.91-1.005.394-.237.85-.355 1.37-.355.517 0 .962.117 1.335.35.377.23.665.562.865.995.2.43.3.942.3 1.535 0 .097-.001.17-.005.22h-4.14zm1.675-2.3c-.483 0-.865.135-1.145.405s-.451.663-.515 1.18h3.2c-.11-1.057-.623-1.585-1.54-1.585zm5.618 4.895c-.426 0-.805-.063-1.135-.19-.33-.127-.598-.31-.805-.55-.206-.24-.34-.528-.4-.865l.91-.145c.074.297.242.53.505.7.264.17.59.255.98.255.367 0 .655-.075.865-.225.214-.153.32-.363.32-.63 0-.16-.036-.285-.11-.375-.07-.09-.208-.175-.415-.255-.206-.083-.54-.187-1-.31-.483-.13-.86-.262-1.13-.395-.27-.137-.463-.293-.58-.47-.116-.177-.175-.397-.175-.66 0-.313.087-.588.26-.825.174-.24.417-.425.73-.555.314-.133.675-.2 1.085-.2.407 0 .772.067 1.095.2.327.13.589.315.785.555.2.237.319.512.355.825l-.91.165c-.043-.293-.19-.525-.44-.695-.246-.17-.563-.255-.95-.255-.22 0-.415.032-.585.095-.166.06-.296.147-.39.26-.093.11-.14.238-.14.385 0 .137.04.25.12.34.084.09.234.177.45.26.217.08.542.175.975.285.484.123.86.255 1.13.395.27.14.464.305.58.495.12.19.18.427.18.71 0 .347-.086.647-.26.9-.173.25-.421.442-.745.575-.323.133-.708.2-1.155.2zm8.93-4c.307.193.54.447.7.76.163.313.245.66.245 1.04 0 .433-.1.817-.3 1.15-.2.333-.48.593-.84.78-.357.183-.763.275-1.22.275-.457 0-.863-.092-1.22-.275-.357-.183-.635-.442-.835-.775-.197-.337-.295-.722-.295-1.155 0-.383.078-.73.235-1.04.16-.31.395-.565.705-.765-.247-.173-.437-.392-.57-.655-.13-.263-.195-.552-.195-.865 0-.397.092-.743.275-1.04.187-.3.443-.53.77-.69.33-.16.707-.24 1.13-.24.423 0 .798.08 1.125.24.33.16.587.39.77.69.187.297.28.643.28 1.04 0 .317-.065.607-.195.87-.127.263-.315.482-.565.655zm-1.415-2.635c-.377 0-.677.095-.9.285-.22.19-.33.465-.33.825 0 .36.11.635.33.825.223.19.523.285.9.285s.675-.095.895-.285c.223-.19.335-.465.335-.825 0-.36-.112-.635-.335-.825-.22-.19-.518-.285-.895-.285zm0 5.79c.283 0 .53-.052.74-.155.213-.107.378-.262.495-.465.12-.203.18-.448.18-.735 0-.433-.128-.768-.385-1.005-.253-.237-.597-.355-1.03-.355-.433 0-.777.118-1.03.355s-.38.572-.38 1.005c0 .43.127.763.38 1 .257.237.6.355 1.03.355zm3.558-3.27h3v.735h-3v-.735zm5.554-2.245l-1.355.82v-.995l1.355-.81h.905v7.2h-.905v-6.215zm4.063 0l-1.355.82v-.995l1.355-.81h.905v7.2h-.905v-6.215z"/>
    <path fill="#fff" d="M287.742 126.15c-.703 0-1.308-.157-1.815-.47-.503-.313-.887-.752-1.15-1.315-.263-.567-.395-1.222-.395-1.965 0-.743.132-1.397.395-1.96.263-.567.647-1.007 1.15-1.32.507-.313 1.112-.47 1.815-.47.547 0 1.033.095 1.46.285.427.19.783.462 1.07.815.29.35.503.765.64 1.245l-.905.24c-.15-.55-.417-.977-.8-1.28-.383-.303-.872-.455-1.465-.455-.523 0-.967.12-1.33.36-.36.24-.632.578-.815 1.015-.18.433-.272.942-.275 1.525-.003.58.085 1.088.265 1.525.183.437.457.775.82 1.015.363.24.808.36 1.335.36.593 0 1.082-.152 1.465-.455.383-.303.65-.73.8-1.28l.905.24c-.137.48-.35.897-.64 1.25-.287.35-.643.62-1.07.81-.427.19-.913.285-1.46.285zm4.367-7.5h.89V126h-.89v-7.35zm6.54 2.855c.07.153.116.323.14.51.023.183.035.398.035.645V126h-.79v-.84c-.43.66-1.097.99-2 .99-.39 0-.724-.072-1-.215-.277-.147-.485-.342-.625-.585-.14-.243-.21-.513-.21-.81 0-.797.441-1.325 1.325-1.585.26-.07.558-.132.895-.185.336-.053.74-.112 1.21-.175l.32-.045c-.014-.437-.124-.757-.33-.96-.207-.207-.54-.31-1-.31-.34 0-.632.078-.875.235-.24.153-.407.39-.5.71l-.845-.255c.13-.483.383-.857.76-1.12.38-.267.87-.4 1.47-.4.496 0 .918.09 1.265.27.35.177.601.438.755.785zm-2.48 3.9c.31 0 .583-.055.82-.165.236-.113.428-.263.575-.45.146-.19.241-.4.285-.63.033-.113.055-.24.065-.38.013-.14.021-.297.025-.47l-.245.03c-.47.063-.832.115-1.085.155-.25.04-.479.09-.685.15-.257.08-.462.19-.615.33-.15.14-.225.327-.225.56 0 .157.038.302.115.435.076.13.196.235.36.315.163.08.366.12.61.12zm5.995.74c-.427 0-.805-.063-1.135-.19-.33-.127-.599-.31-.805-.55-.207-.24-.34-.528-.4-.865l.91-.145c.073.297.241.53.505.7.263.17.59.255.98.255.366 0 .655-.075.865-.225.213-.153.32-.363.32-.63 0-.16-.037-.285-.11-.375-.07-.09-.209-.175-.415-.255-.207-.083-.54-.187-1-.31-.484-.13-.86-.262-1.13-.395-.27-.137-.464-.293-.58-.47-.117-.177-.175-.397-.175-.66 0-.313.086-.588.26-.825.173-.24.416-.425.73-.555.313-.133.675-.2 1.085-.2.406 0 .771.067 1.095.2.326.13.588.315.785.555.2.237.318.512.355.825l-.91.165c-.044-.293-.19-.525-.44-.695-.247-.17-.564-.255-.95-.255-.22 0-.415.032-.585.095-.167.06-.297.147-.39.26-.094.11-.14.238-.14.385 0 .137.04.25.12.34.083.09.233.177.45.26.216.08.541.175.975.285.483.123.86.255 1.13.395.27.14.463.305.58.495.12.19.18.427.18.71 0 .347-.087.647-.26.9-.174.25-.422.442-.745.575-.324.133-.709.2-1.155.2zm5.303 0c-.427 0-.805-.063-1.135-.19-.33-.127-.599-.31-.805-.55-.207-.24-.34-.528-.4-.865l.91-.145c.073.297.241.53.505.7.263.17.59.255.98.255.366 0 .655-.075.865-.225.213-.153.32-.363.32-.63 0-.16-.037-.285-.11-.375-.07-.09-.209-.175-.415-.255-.207-.083-.54-.187-1-.31-.484-.13-.86-.262-1.13-.395-.27-.137-.464-.293-.58-.47-.117-.177-.175-.397-.175-.66 0-.313.086-.588.26-.825.173-.24.416-.425.73-.555.313-.133.675-.2 1.085-.2.406 0 .771.067 1.095.2.326.13.588.315.785.555.2.237.318.512.355.825l-.91.165c-.044-.293-.19-.525-.44-.695-.247-.17-.564-.255-.95-.255-.22 0-.415.032-.585.095-.167.06-.297.147-.39.26-.094.11-.14.238-.14.385 0 .137.04.25.12.34.083.09.233.177.45.26.216.08.541.175.975.285.483.123.86.255 1.13.395.27.14.463.305.58.495.12.19.18.427.18.71 0 .347-.087.647-.26.9-.174.25-.422.442-.745.575-.324.133-.709.2-1.155.2zm8.602-5.695c.532 0 1.01.124 1.434.372.424.244.754.582.99 1.014.24.428.36.91.36 1.446 0 .528-.136 1.014-.408 1.458-.272.444-.638.796-1.098 1.056-.456.256-.952.384-1.488.384-.56 0-1.068-.134-1.524-.402-.452-.268-.81-.64-1.074-1.116-.26-.476-.39-1.014-.39-1.614v-2.628c0-.648.13-1.214.39-1.698.264-.488.634-.864 1.11-1.128.476-.268 1.026-.402 1.65-.402.452 0 .87.076 1.254.228.388.148.732.378 1.032.69l-1.044 1.014c-.152-.18-.338-.322-.558-.426-.22-.104-.448-.156-.684-.156-.324 0-.614.078-.87.234-.256.156-.454.364-.594.624-.14.256-.21.53-.21.822v.876c.24-.208.508-.368.804-.48.296-.112.602-.168.918-.168zm-.21 4.344c.276 0 .53-.068.762-.204.236-.136.422-.318.558-.546.14-.232.21-.486.21-.762s-.068-.53-.204-.762c-.136-.236-.32-.422-.552-.558-.232-.14-.486-.21-.762-.21s-.532.07-.768.21c-.232.136-.416.322-.552.558-.136.232-.204.486-.204.762 0 .268.068.518.204.75.136.232.318.418.546.558.232.136.486.204.762.204zm8.764-1.524v.342c0 .208.008.376.024.504s.052.234.108.318c.092.152.22.26.384.324.168.064.374.096.618.096.224 0 .48-.022.768-.066V126c-.392.076-.758.114-1.098.114-.464 0-.87-.072-1.218-.216-.348-.148-.608-.38-.78-.696-.104-.188-.172-.382-.204-.582-.032-.2-.048-.438-.048-.714l.006-.552v-2.7h-1.176v-1.134h1.176v-1.8h1.44v1.8h1.902v1.134h-1.902v2.616zm5.829 2.91c-.64 0-1.204-.144-1.692-.432-.488-.292-.866-.696-1.134-1.212-.264-.52-.396-1.112-.396-1.776 0-.672.134-1.266.402-1.782.272-.52.652-.922 1.14-1.206.488-.288 1.048-.432 1.68-.432.644 0 1.21.146 1.698.438.488.288.866.692 1.134 1.212.268.516.402 1.106.402 1.77 0 .668-.136 1.262-.408 1.782-.268.516-.648.918-1.14 1.206-.488.288-1.05.432-1.686.432zm0-1.356c.556 0 .978-.186 1.266-.558.292-.372.438-.874.438-1.506 0-.64-.146-1.144-.438-1.512-.288-.368-.71-.552-1.266-.552-.564 0-.988.186-1.272.558-.28.368-.42.87-.42 1.506 0 .644.144 1.15.432 1.518.292.364.712.546 1.26.546zm11.77-3.462c.312.244.552.55.72.918.172.364.258.754.258 1.17 0 .528-.128 1-.384 1.416-.252.412-.604.734-1.056.966-.448.232-.956.348-1.524.348-.564 0-1.07-.116-1.518-.348-.448-.232-.798-.554-1.05-.966-.252-.416-.378-.888-.378-1.416 0-.42.084-.81.252-1.17.168-.364.41-.67.726-.918-.504-.484-.756-1.064-.756-1.74 0-.488.114-.916.342-1.284.232-.368.554-.652.966-.852.416-.204.888-.306 1.416-.306.528 0 .998.102 1.41.306.416.2.74.484.972.852.232.368.348.796.348 1.284 0 .68-.248 1.26-.744 1.74zm-1.986-2.82c-.364 0-.654.092-.87.276-.216.184-.324.452-.324.804 0 .356.106.626.318.81.216.18.508.27.876.27s.66-.09.876-.27c.216-.184.324-.454.324-.81 0-.352-.108-.62-.324-.804-.216-.184-.508-.276-.876-.276zm0 6.276c.436 0 .784-.118 1.044-.354.26-.24.39-.578.39-1.014 0-.436-.13-.774-.39-1.014s-.608-.36-1.044-.36c-.432 0-.776.12-1.032.36s-.384.578-.384 1.014c0 .436.128.774.384 1.014.256.236.6.354 1.032.354z"/>
    <path fill="#fff" fill-opacity=".9" d="M294.335 155l-.57-1.685h-3.075l-.565 1.685h-.925l2.41-7.2h1.24l2.41 7.2h-.925zm-3.365-2.52h2.515l-1.265-3.745-1.25 3.745zm9.785-2.88v5.435c0 .323-.022.6-.065.83-.103.563-.357.985-.76 1.265-.403.28-.933.42-1.59.42-.443 0-.857-.102-1.24-.305-.38-.2-.678-.493-.895-.88l.815-.43c.127.253.308.442.545.565.24.127.5.19.78.19 1.02 0 1.525-.555 1.515-1.665v-.52c-.197.207-.428.367-.695.48-.267.11-.563.165-.89.165-.493 0-.923-.123-1.29-.37-.363-.25-.643-.59-.84-1.02-.193-.433-.29-.922-.29-1.465 0-.54.097-1.025.29-1.455.197-.433.477-.773.84-1.02.367-.247.795-.37 1.285-.37.36 0 .682.065.965.195.283.13.527.317.73.56v-.605h.79zm-2.37 4.735c.523 0 .917-.185 1.18-.555.267-.37.4-.865.4-1.485 0-.62-.132-1.113-.395-1.48s-.65-.55-1.16-.55c-.353 0-.652.088-.895.265-.24.177-.42.418-.54.725-.117.303-.175.65-.175 1.04 0 .393.058.743.175 1.05.12.307.298.548.535.725.24.177.532.265.875.265zm4.421-1.785c.037.563.195.997.475 1.3.284.303.674.455 1.17.455.354 0 .662-.082.925-.245.267-.163.475-.398.625-.705l.855.295c-.21.473-.525.842-.945 1.105-.42.263-.893.395-1.42.395-.526 0-.99-.117-1.39-.35-.396-.233-.705-.563-.925-.99-.216-.427-.325-.918-.325-1.475 0-.583.107-1.092.32-1.525.217-.437.52-.772.91-1.005.394-.237.85-.355 1.37-.355.517 0 .962.117 1.335.35.377.23.665.562.865.995.2.43.3.942.3 1.535 0 .097-.001.17-.005.22h-4.14zm1.675-2.3c-.483 0-.865.135-1.145.405s-.451.663-.515 1.18h3.2c-.11-1.057-.623-1.585-1.54-1.585zm5.618 4.895c-.426 0-.805-.063-1.135-.19-.33-.127-.598-.31-.805-.55-.206-.24-.34-.528-.4-.865l.91-.145c.074.297.242.53.505.7.264.17.59.255.98.255.367 0 .655-.075.865-.225.214-.153.32-.363.32-.63 0-.16-.036-.285-.11-.375-.07-.09-.208-.175-.415-.255-.206-.083-.54-.187-1-.31-.483-.13-.86-.262-1.13-.395-.27-.137-.463-.293-.58-.47-.116-.177-.175-.397-.175-.66 0-.313.087-.588.26-.825.174-.24.417-.425.73-.555.314-.133.675-.2 1.085-.2.407 0 .772.067 1.095.2.327.13.589.315.785.555.2.237.319.512.355.825l-.91.165c-.043-.293-.19-.525-.44-.695-.246-.17-.563-.255-.95-.255-.22 0-.415.032-.585.095-.166.06-.296.147-.39.26-.093.11-.14.238-.14.385 0 .137.04.25.12.34.084.09.234.177.45.26.217.08.542.175.975.285.484.123.86.255 1.13.395.27.14.464.305.58.495.12.19.18.427.18.71 0 .347-.086.647-.26.9-.173.25-.421.442-.745.575-.323.133-.708.2-1.155.2zm6.52-6.36l-1.355.82v-.995l1.355-.81h.905v7.2h-.905v-6.215zm4.063 0l-1.355.82v-.995l1.355-.81h.905v7.2h-.905v-6.215zm2.707 2.245h3v.735h-3v-.735zm5.554-2.245l-1.355.82v-.995l1.355-.81h.905v7.2h-.905v-6.215zm5.918 4.89h-3.31v-.845l2.375-5.03h1.01l-2.375 5.03h2.3v-2.025h.9v2.025h.75v.845h-.75V155h-.9v-1.325z"/>
    <path fill="#fff" d="M408.011 126.15c-.704 0-1.309-.157-1.815-.47-.504-.313-.887-.752-1.15-1.315-.264-.567-.395-1.222-.395-1.965 0-.743.131-1.397.395-1.96.263-.567.646-1.007 1.15-1.32.506-.313 1.111-.47 1.815-.47.546 0 1.033.095 1.46.285.426.19.783.462 1.07.815.29.35.503.765.64 1.245l-.905.24c-.15-.55-.417-.977-.8-1.28-.384-.303-.872-.455-1.465-.455-.524 0-.967.12-1.33.36-.36.24-.632.578-.815 1.015-.18.433-.272.942-.275 1.525-.004.58.085 1.088.265 1.525.183.437.456.775.82 1.015.363.24.808.36 1.335.36.593 0 1.081-.152 1.465-.455.383-.303.65-.73.8-1.28l.905.24c-.137.48-.35.897-.64 1.25-.287.35-.644.62-1.07.81-.427.19-.914.285-1.46.285zm4.366-7.5h.89V126h-.89v-7.35zm6.54 2.855c.07.153.117.323.14.51.024.183.035.398.035.645V126h-.79v-.84c-.43.66-1.096.99-2 .99-.39 0-.723-.072-1-.215-.276-.147-.485-.342-.625-.585-.14-.243-.21-.513-.21-.81 0-.797.442-1.325 1.325-1.585.26-.07.559-.132.895-.185.337-.053.74-.112 1.21-.175l.32-.045c-.013-.437-.123-.757-.33-.96-.206-.207-.54-.31-1-.31-.34 0-.631.078-.875.235-.24.153-.406.39-.5.71l-.845-.255c.13-.483.384-.857.76-1.12.38-.267.87-.4 1.47-.4.497 0 .919.09 1.265.27.35.177.602.438.755.785zm-2.48 3.9c.31 0 .584-.055.82-.165.237-.113.429-.263.575-.45.147-.19.242-.4.285-.63.034-.113.055-.24.065-.38.014-.14.022-.297.025-.47l-.245.03c-.47.063-.831.115-1.085.155-.25.04-.478.09-.685.15-.256.08-.461.19-.615.33-.15.14-.225.327-.225.56 0 .157.039.302.115.435.077.13.197.235.36.315.164.08.367.12.61.12zm5.995.74c-.426 0-.805-.063-1.135-.19-.33-.127-.598-.31-.805-.55-.206-.24-.34-.528-.4-.865l.91-.145c.074.297.242.53.505.7.264.17.59.255.98.255.367 0 .655-.075.865-.225.214-.153.32-.363.32-.63 0-.16-.036-.285-.11-.375-.07-.09-.208-.175-.415-.255-.206-.083-.54-.187-1-.31-.483-.13-.86-.262-1.13-.395-.27-.137-.463-.293-.58-.47-.116-.177-.175-.397-.175-.66 0-.313.087-.588.26-.825.174-.24.417-.425.73-.555.314-.133.675-.2 1.085-.2.407 0 .772.067 1.095.2.327.13.589.315.785.555.2.237.319.512.355.825l-.91.165c-.043-.293-.19-.525-.44-.695-.246-.17-.563-.255-.95-.255-.22 0-.415.032-.585.095-.166.06-.296.147-.39.26-.093.11-.14.238-.14.385 0 .137.04.25.12.34.084.09.234.177.45.26.217.08.542.175.975.285.484.123.86.255 1.13.395.27.14.464.305.58.495.12.19.18.427.18.71 0 .347-.086.647-.26.9-.173.25-.421.442-.745.575-.323.133-.708.2-1.155.2zm5.303 0c-.427 0-.805-.063-1.135-.19-.33-.127-.598-.31-.805-.55-.207-.24-.34-.528-.4-.865l.91-.145c.073.297.242.53.505.7.263.17.59.255.98.255.367 0 .655-.075.865-.225.213-.153.32-.363.32-.63 0-.16-.037-.285-.11-.375-.07-.09-.208-.175-.415-.255-.207-.083-.54-.187-1-.31-.483-.13-.86-.262-1.13-.395-.27-.137-.463-.293-.58-.47-.117-.177-.175-.397-.175-.66 0-.313.087-.588.26-.825.173-.24.417-.425.73-.555.313-.133.675-.2 1.085-.2.407 0 .772.067 1.095.2.327.13.588.315.785.555.2.237.318.512.355.825l-.91.165c-.043-.293-.19-.525-.44-.695-.247-.17-.563-.255-.95-.255-.22 0-.415.032-.585.095-.167.06-.297.147-.39.26-.093.11-.14.238-.14.385 0 .137.04.25.12.34.083.09.233.177.45.26.217.08.542.175.975.285.483.123.86.255 1.13.395.27.14.463.305.58.495.12.19.18.427.18.71 0 .347-.087.647-.26.9-.173.25-.422.442-.745.575-.323.133-.708.2-1.155.2zm8.595-8.953c.56 0 1.066.134 1.518.402.456.268.814.64 1.074 1.116.264.476.396 1.014.396 1.614v2.628c0 .648-.132 1.216-.396 1.704-.26.484-.628.86-1.104 1.128-.476.264-1.026.396-1.65.396-.452 0-.872-.074-1.26-.222-.384-.152-.726-.384-1.026-.696l1.044-1.014c.152.18.338.322.558.426.22.104.448.156.684.156.324 0 .614-.078.87-.234.256-.156.454-.362.594-.618.14-.26.21-.536.21-.828v-.876c-.24.208-.508.368-.804.48-.296.112-.602.168-.918.168-.532 0-1.01-.122-1.434-.366-.424-.248-.756-.586-.996-1.014-.236-.432-.354-.916-.354-1.452 0-.528.136-1.014.408-1.458.272-.444.636-.794 1.092-1.05.46-.26.958-.39 1.494-.39zm-.012 4.428c.276 0 .53-.068.762-.204.236-.14.422-.326.558-.558.136-.236.204-.492.204-.768 0-.268-.068-.518-.204-.75-.136-.232-.32-.416-.552-.552-.228-.14-.48-.21-.756-.21s-.532.068-.768.204c-.232.136-.418.32-.558.552-.136.228-.204.48-.204.756s.068.532.204.768c.136.232.32.418.552.558.232.136.486.204.762.204zm8.974 1.65v.342c0 .208.008.376.024.504s.052.234.108.318c.092.152.22.26.384.324.168.064.374.096.618.096.224 0 .48-.022.768-.066V126c-.392.076-.758.114-1.098.114-.464 0-.87-.072-1.218-.216-.348-.148-.608-.38-.78-.696-.104-.188-.172-.382-.204-.582-.032-.2-.048-.438-.048-.714l.006-.552v-2.7h-1.176v-1.134h1.176v-1.8h1.44v1.8h1.902v1.134h-1.902v2.616zm5.829 2.91c-.64 0-1.204-.144-1.692-.432-.488-.292-.866-.696-1.134-1.212-.264-.52-.396-1.112-.396-1.776 0-.672.134-1.266.402-1.782.272-.52.652-.922 1.14-1.206.488-.288 1.048-.432 1.68-.432.644 0 1.21.146 1.698.438.488.288.866.692 1.134 1.212.268.516.402 1.106.402 1.77 0 .668-.136 1.262-.408 1.782-.268.516-.648.918-1.14 1.206-.488.288-1.05.432-1.686.432zm0-1.356c.556 0 .978-.186 1.266-.558.292-.372.438-.874.438-1.506 0-.64-.146-1.144-.438-1.512-.288-.368-.71-.552-1.266-.552-.564 0-.988.186-1.272.558-.28.368-.42.87-.42 1.506 0 .644.144 1.15.432 1.518.292.364.712.546 1.26.546zm8.458-5.886l-1.62.99v-1.596l1.62-.972h1.476V126h-1.476v-7.062zm5.76 5.688h3.708v1.362h-5.946v-1.26l3.696-3.294c.272-.244.468-.48.588-.708.12-.228.18-.454.18-.678 0-.284-.062-.54-.186-.768-.12-.232-.292-.412-.516-.54-.22-.132-.47-.198-.75-.198-.292 0-.556.07-.792.21-.232.136-.412.318-.54.546-.128.228-.188.474-.18.738h-1.488c0-.568.128-1.068.384-1.5.256-.432.612-.766 1.068-1.002.46-.236.986-.354 1.578-.354.548 0 1.042.124 1.482.372.444.244.792.586 1.044 1.026.252.436.378.932.378 1.488 0 .396-.054.734-.162 1.014-.108.276-.26.524-.456.744-.196.22-.488.5-.876.84l-2.214 1.962z"/>
    <path fill="#fff" fill-opacity=".9" d="M416.335 155l-.57-1.685h-3.075l-.565 1.685h-.925l2.41-7.2h1.24l2.41 7.2h-.925zm-3.365-2.52h2.515l-1.265-3.745-1.25 3.745zm9.785-2.88v5.435c0 .323-.022.6-.065.83-.103.563-.357.985-.76 1.265-.403.28-.933.42-1.59.42-.443 0-.857-.102-1.24-.305-.38-.2-.678-.493-.895-.88l.815-.43c.127.253.308.442.545.565.24.127.5.19.78.19 1.02 0 1.525-.555 1.515-1.665v-.52c-.197.207-.428.367-.695.48-.267.11-.563.165-.89.165-.493 0-.923-.123-1.29-.37-.363-.25-.643-.59-.84-1.02-.193-.433-.29-.922-.29-1.465 0-.54.097-1.025.29-1.455.197-.433.477-.773.84-1.02.367-.247.795-.37 1.285-.37.36 0 .682.065.965.195.283.13.527.317.73.56v-.605h.79zm-2.37 4.735c.523 0 .917-.185 1.18-.555.267-.37.4-.865.4-1.485 0-.62-.132-1.113-.395-1.48s-.65-.55-1.16-.55c-.353 0-.652.088-.895.265-.24.177-.42.418-.54.725-.117.303-.175.65-.175 1.04 0 .393.058.743.175 1.05.12.307.298.548.535.725.24.177.532.265.875.265zm4.421-1.785c.037.563.195.997.475 1.3.284.303.674.455 1.17.455.354 0 .662-.082.925-.245.267-.163.475-.398.625-.705l.855.295c-.21.473-.525.842-.945 1.105-.42.263-.893.395-1.42.395-.526 0-.99-.117-1.39-.35-.396-.233-.705-.563-.925-.99-.216-.427-.325-.918-.325-1.475 0-.583.107-1.092.32-1.525.217-.437.52-.772.91-1.005.394-.237.85-.355 1.37-.355.517 0 .962.117 1.335.35.377.23.665.562.865.995.2.43.3.942.3 1.535 0 .097-.001.17-.005.22h-4.14zm1.675-2.3c-.483 0-.865.135-1.145.405s-.451.663-.515 1.18h3.2c-.11-1.057-.623-1.585-1.54-1.585zm5.618 4.895c-.426 0-.805-.063-1.135-.19-.33-.127-.598-.31-.805-.55-.206-.24-.34-.528-.4-.865l.91-.145c.074.297.242.53.505.7.264.17.59.255.98.255.367 0 .655-.075.865-.225.214-.153.32-.363.32-.63 0-.16-.036-.285-.11-.375-.07-.09-.208-.175-.415-.255-.206-.083-.54-.187-1-.31-.483-.13-.86-.262-1.13-.395-.27-.137-.463-.293-.58-.47-.116-.177-.175-.397-.175-.66 0-.313.087-.588.26-.825.174-.24.417-.425.73-.555.314-.133.675-.2 1.085-.2.407 0 .772.067 1.095.2.327.13.589.315.785.555.2.237.319.512.355.825l-.91.165c-.043-.293-.19-.525-.44-.695-.246-.17-.563-.255-.95-.255-.22 0-.415.032-.585.095-.166.06-.296.147-.39.26-.093.11-.14.238-.14.385 0 .137.04.25.12.34.084.09.234.177.45.26.217.08.542.175.975.285.484.123.86.255 1.13.395.27.14.464.305.58.495.12.19.18.427.18.71 0 .347-.086.647-.26.9-.173.25-.421.442-.745.575-.323.133-.708.2-1.155.2zm6.52-6.36l-1.355.82v-.995l1.355-.81h.905v7.2h-.905v-6.215zm5.918 4.89h-3.31v-.845l2.375-5.03h1.01l-2.375 5.03h2.3v-2.025h.9v2.025h.75v.845h-.75V155h-.9v-1.325zm2.747-2.645h3v.735h-3v-.735zm5.554-2.245l-1.355.82v-.995l1.355-.81h.905v7.2h-.905v-6.215zm6.472 2.36c.307.193.54.447.7.76.164.313.245.66.245 1.04 0 .433-.1.817-.3 1.15-.2.333-.48.593-.84.78-.356.183-.763.275-1.22.275-.456 0-.863-.092-1.22-.275-.356-.183-.635-.442-.835-.775-.196-.337-.295-.722-.295-1.155 0-.383.079-.73.235-1.04.16-.31.395-.565.705-.765-.246-.173-.436-.392-.57-.655-.13-.263-.195-.552-.195-.865 0-.397.092-.743.275-1.04.187-.3.444-.53.77-.69.33-.16.707-.24 1.13-.24.424 0 .799.08 1.125.24.33.16.587.39.77.69.187.297.28.643.28 1.04 0 .317-.065.607-.195.87-.126.263-.315.482-.565.655zm-1.415-2.635c-.376 0-.676.095-.9.285-.22.19-.33.465-.33.825 0 .36.11.635.33.825.224.19.524.285.9.285.377 0 .675-.095.895-.285.224-.19.335-.465.335-.825 0-.36-.111-.635-.335-.825-.22-.19-.518-.285-.895-.285zm0 5.79c.284 0 .53-.052.74-.155.214-.107.379-.262.495-.465.12-.203.18-.448.18-.735 0-.433-.128-.768-.385-1.005-.253-.237-.596-.355-1.03-.355-.433 0-.776.118-1.03.355-.253.237-.38.572-.38 1.005 0 .43.127.763.38 1 .257.237.6.355 1.03.355z"/>
    <path fill="#fff" d="M21.757 34.255c-.958 0-1.757-.244-2.397-.731-.635-.487-1.088-1.167-1.36-2.04l2.278-.544c.034.204.119.397.255.578.142.176.312.317.51.425.204.102.408.153.612.153.238 0 .476-.062.714-.187.238-.13.408-.317.51-.561.062-.147.1-.323.11-.527.017-.21.026-.51.026-.901v-8.16h2.346v8.865c0 .431-.026.785-.076 1.063-.052.272-.162.555-.332.85-.34.584-.785 1.017-1.334 1.3-.544.278-1.165.417-1.862.417zm13.476-8.024c.164.306.266.618.306.935.045.312.068.72.068 1.224V34h-2.023v-1.122c-.408.487-.856.839-1.343 1.054-.488.215-1.082.323-1.785.323-.635 0-1.184-.122-1.65-.366-.458-.249-.81-.586-1.053-1.011-.238-.425-.357-.895-.357-1.411 0-.669.156-1.232.467-1.691.312-.46.825-.82 1.539-1.08.396-.147.881-.272 1.453-.374.573-.108 1.397-.24 2.474-.4-.046-.43-.204-.745-.476-.943-.267-.204-.669-.306-1.207-.306-.391 0-.762.09-1.114.272-.351.181-.592.465-.722.85l-2.091-.663c.238-.793.685-1.42 1.343-1.879.657-.459 1.518-.688 2.584-.688 1.807 0 3.003.555 3.587 1.666zm-2.16 4.981c.148-.3.227-.773.239-1.42-.8.136-1.386.244-1.76.323-.374.08-.688.168-.943.264-.335.136-.578.289-.731.459-.148.164-.221.363-.221.595 0 .312.113.558.34.74.232.175.55.263.952.263.39 0 .734-.068 1.028-.204.295-.142.53-.306.706-.493.181-.187.312-.363.39-.527zM43.49 24.82h2.312l-5.185 13.26h-2.142l1.513-4.157-3.706-9.103h2.397l2.414 6.247 2.397-6.247zm10.503 1.411c.164.306.266.618.306.935.045.312.068.72.068 1.224V34h-2.023v-1.122c-.408.487-.856.839-1.343 1.054-.488.215-1.083.323-1.785.323-.635 0-1.185-.122-1.65-.366-.458-.249-.81-.586-1.053-1.011-.238-.425-.357-.895-.357-1.411 0-.669.155-1.232.467-1.691.312-.46.825-.82 1.539-1.08.396-.147.88-.272 1.453-.374.572-.108 1.397-.24 2.474-.4-.046-.43-.204-.745-.476-.943-.267-.204-.67-.306-1.207-.306-.391 0-.763.09-1.114.272-.351.181-.592.465-.722.85l-2.091-.663c.238-.793.685-1.42 1.343-1.879.657-.459 1.518-.688 2.584-.688 1.807 0 3.003.555 3.587 1.666zm-2.16 4.981c.148-.3.227-.773.239-1.42-.8.136-1.386.244-1.76.323-.374.08-.688.168-.943.264-.335.136-.578.289-.731.459-.148.164-.221.363-.221.595 0 .312.113.558.34.74.232.175.55.263.952.263.39 0 .733-.068 1.028-.204.295-.142.53-.306.706-.493.18-.187.311-.363.39-.527zm9.759-6.664c1.076 0 1.878.275 2.405.825.533.55.862 1.13.986 1.742.13.612.196 1.19.196 1.734V34h-2.346v-4.335c0-.465-.034-.901-.102-1.309-.068-.408-.25-.782-.544-1.122-.29-.34-.731-.51-1.326-.51-.533 0-.992.184-1.377.552-.386.363-.578 1.052-.578 2.066V34H56.56V21.76h2.057v4.003c.345-.385.768-.682 1.266-.892.499-.215 1.068-.323 1.709-.323zm9.923 9.707c-.912 0-1.72-.204-2.422-.612-.703-.414-1.25-.986-1.64-1.717-.386-.737-.579-1.575-.579-2.516 0-.946.196-1.785.587-2.516.397-.737.946-1.309 1.649-1.717.708-.408 1.51-.612 2.405-.612.913 0 1.72.207 2.423.62.708.409 1.258.98 1.649 1.718.39.736.586 1.572.586 2.507 0 .94-.198 1.78-.595 2.516-.39.731-.94 1.303-1.649 1.717-.702.408-1.507.612-2.414.612zm0-2.159c.72 0 1.267-.244 1.64-.731.38-.487.57-1.139.57-1.955 0-.833-.19-1.488-.57-1.963-.379-.482-.926-.723-1.64-.723-.73 0-1.28.24-1.649.723-.362.476-.544 1.13-.544 1.963 0 .839.187 1.496.561 1.972.38.476.924.714 1.632.714zM22.102 45.785c.623 0 1.167.16 1.631.481.468.32.825.763 1.072 1.326.247.559.371 1.19.371 1.892 0 .706-.123 1.34-.37 1.904-.248.563-.607 1.005-1.08 1.326-.467.32-1.022.481-1.663.481-.499 0-.943-.102-1.333-.306-.386-.208-.709-.498-.968-.87V53h-.858v-9.36h.962v3.166c.264-.325.582-.577.955-.755.377-.177.804-.266 1.28-.266zm-.137 6.52c.472 0 .873-.122 1.203-.364.329-.243.576-.577.74-1.002.17-.428.254-.914.254-1.456 0-.541-.082-1.022-.247-1.442-.16-.425-.407-.759-.741-1.002-.334-.242-.743-.364-1.229-.364-.476 0-.88.117-1.209.352-.325.233-.57.563-.734.987-.16.42-.24.91-.24 1.47 0 .554.08 1.044.24 1.468.165.42.412.752.741.995.33.238.737.357 1.222.357zm5.269-2.548c.039.806.258 1.427.656 1.865.399.438.947.657 1.645.657.498 0 .936-.115 1.313-.345.377-.234.674-.57.89-1.008l.89.345c-.276.611-.684 1.085-1.221 1.423-.538.334-1.148.501-1.833.501-.676 0-1.268-.152-1.775-.455-.507-.303-.899-.73-1.176-1.28-.273-.555-.41-1.2-.41-1.938 0-.758.135-1.419.403-1.982.273-.563.659-.997 1.157-1.3.503-.303 1.09-.455 1.762-.455.671 0 1.248.152 1.729.455.485.299.856.732 1.111 1.3.26.563.39 1.235.39 2.015v.202h-5.531zm2.327-3.094c-.672 0-1.207.197-1.606.591-.394.394-.628.962-.702 1.703h4.511c-.069-.758-.29-1.33-.663-1.716-.372-.386-.886-.578-1.54-.578zm4.777-3.218h.955V53h-.955v-9.555zm3.034.13h.956v1.072h-.956v-1.072zm0 2.405h.956V53h-.956v-7.02zm3.535 3.777c.039.806.258 1.427.656 1.865.399.438.947.657 1.645.657.498 0 .936-.115 1.313-.345.377-.234.673-.57.89-1.008l.89.345c-.277.611-.684 1.085-1.221 1.423-.538.334-1.149.501-1.833.501-.676 0-1.268-.152-1.775-.455-.507-.303-.899-.73-1.176-1.28-.273-.555-.41-1.2-.41-1.938 0-.758.134-1.419.403-1.982.273-.563.659-.997 1.157-1.3.503-.303 1.09-.455 1.762-.455.671 0 1.248.152 1.729.455.485.299.855.732 1.111 1.3.26.563.39 1.235.39 2.015v.202h-5.531zm2.327-3.094c-.672 0-1.207.197-1.606.591-.394.394-.628.962-.702 1.703h4.511c-.07-.758-.29-1.33-.663-1.716-.373-.386-.886-.578-1.54-.578zm3.743-.683h.968l2.074 5.772 2.06-5.772h.982L50.513 53h-.988l-2.548-7.02zm7.628 3.777c.039.806.258 1.427.657 1.865.398.438.946.657 1.644.657.498 0 .936-.115 1.313-.345.377-.234.674-.57.89-1.008l.891.345c-.277.611-.685 1.085-1.222 1.423-.537.334-1.148.501-1.833.501-.676 0-1.267-.152-1.775-.455-.507-.303-.899-.73-1.176-1.28-.273-.555-.41-1.2-.41-1.938 0-.758.135-1.419.403-1.982.273-.563.66-.997 1.157-1.3.503-.303 1.09-.455 1.762-.455.672 0 1.248.152 1.729.455.485.299.856.732 1.111 1.3.26.563.39 1.235.39 2.015v.202h-5.531zm2.327-3.094c-.672 0-1.207.197-1.605.591-.395.394-.629.962-.703 1.703h4.511c-.069-.758-.29-1.33-.663-1.716-.372-.386-.886-.578-1.54-.578zm7.266 6.526c-.546 0-1.03-.08-1.456-.241-.424-.16-.77-.39-1.04-.689-.264-.303-.435-.665-.513-1.086l.975-.162c.1.403.336.721.708.956.373.233.832.35 1.378.35.533 0 .954-.11 1.261-.331.308-.225.462-.53.462-.916 0-.226-.052-.404-.156-.534-.1-.134-.29-.257-.572-.37-.282-.113-.732-.253-1.352-.422-.646-.174-1.146-.347-1.502-.52-.355-.178-.608-.377-.76-.598-.152-.226-.228-.505-.228-.839 0-.394.11-.743.332-1.047.225-.303.54-.537.942-.702.403-.168.867-.253 1.391-.253.525 0 .997.087 1.417.26.42.169.759.41 1.014.721.256.308.408.663.455 1.067l-.975.175c-.069-.42-.281-.75-.637-.988-.355-.243-.806-.364-1.352-.364-.316 0-.598.046-.845.136-.242.091-.433.22-.572.384-.134.165-.201.353-.201.566 0 .195.056.357.169.487.117.126.318.247.604.364.29.113.718.24 1.28.383.66.17 1.169.345 1.528.527.364.178.624.39.78.637.156.243.234.548.234.916 0 .438-.11.817-.331 1.138-.221.32-.54.568-.956.741-.416.169-.91.253-1.482.253zm6.944-9.614h.955v1.072h-.955v-1.072zm0 2.405h.955V53h-.955v-7.02zm6.121-.175c.663 0 1.205.16 1.625.48.42.321.724.735.91 1.242.187.503.28 1.04.28 1.612V53h-.962v-3.581c0-.828-.165-1.485-.494-1.97-.33-.49-.843-.734-1.54-.734-.668 0-1.182.223-1.541.669-.36.446-.54 1.07-.54 1.872V53h-.962v-7.02h.865v.975c.26-.377.591-.663.994-.858.403-.195.858-.293 1.365-.293zm9.84-1.554c-.368 0-.64.091-.819.273-.177.178-.266.455-.266.832v.624h1.918v.819h-1.918V53h-.956v-6.201h-1.215v-.819h1.216v-.52c0-.325.028-.609.084-.852.06-.242.178-.459.351-.65.19-.207.412-.344.663-.409.251-.07.544-.104.877-.104h.898v.806h-.833zm4.55 8.944c-.685 0-1.278-.156-1.781-.468-.498-.316-.88-.754-1.144-1.313-.264-.559-.396-1.203-.396-1.93 0-.733.134-1.379.403-1.938.268-.559.652-.992 1.15-1.3.503-.307 1.092-.461 1.768-.461.689 0 1.283.156 1.781.468.503.312.886.748 1.15 1.306.265.56.397 1.2.397 1.925 0 .736-.134 1.384-.403 1.943-.264.559-.648.995-1.15 1.306-.499.308-1.09.462-1.775.462zm0-.916c.507 0 .934-.115 1.28-.345.347-.234.605-.559.774-.975.173-.42.26-.912.26-1.476 0-.866-.197-1.546-.591-2.04-.39-.494-.965-.741-1.723-.741-.763 0-1.339.25-1.729.754-.386.498-.579 1.174-.579 2.027 0 .568.087 1.062.26 1.483.178.42.438.745.78.974.347.226.77.339 1.268.339zm10.664-6.299V53h-.858v-.975c-.26.377-.592.663-.995.858-.403.195-.858.292-1.365.292-.663 0-1.204-.16-1.625-.48-.42-.321-.723-.733-.91-1.236-.186-.507-.28-1.046-.28-1.618V45.98h.963v3.582c0 .827.165 1.486.494 1.976.33.485.843.728 1.54.728.668 0 1.181-.224 1.541-.67.36-.446.539-1.07.539-1.872V45.98h.956zm5.034-.175c.663 0 1.205.16 1.625.48.42.321.724.735.91 1.242.186.503.28 1.04.28 1.612V53h-.962v-3.581c0-.828-.165-1.485-.494-1.97-.33-.49-.843-.734-1.541-.734-.667 0-1.181.223-1.54.669-.36.446-.54 1.07-.54 1.872V53h-.962v-7.02h.865v.975c.26-.377.591-.663.994-.858.403-.195.858-.293 1.365-.293zm10.333-2.165V53h-.858v-.981c-.26.372-.585.663-.975.87-.386.204-.828.306-1.326.306-.641 0-1.198-.16-1.67-.481-.468-.32-.826-.763-1.073-1.326-.247-.563-.37-1.198-.37-1.904 0-.703.123-1.333.37-1.892.247-.563.602-1.005 1.066-1.326.468-.32 1.014-.481 1.638-.481.477 0 .901.089 1.274.267.377.177.698.428.962.754V43.64h.962zm-3.061 8.664c.485 0 .892-.119 1.222-.357.329-.243.574-.574.734-.995.165-.424.247-.914.247-1.468 0-.56-.082-1.05-.247-1.47-.16-.424-.405-.754-.734-.988-.325-.234-.726-.35-1.203-.35-.485 0-.895.12-1.228.363-.334.243-.583.577-.748 1.002-.16.42-.24.9-.24 1.443 0 .541.082 1.026.247 1.456.169.424.418.758.747 1 .329.243.73.364 1.203.364zm10.208-5.115c.139.338.208.821.208 1.45V53h-.851v-1.163c-.273.446-.637.784-1.092 1.013-.455.23-.982.345-1.58.345-.511 0-.949-.093-1.313-.28-.36-.186-.63-.437-.812-.754-.182-.316-.273-.665-.273-1.046 0-.546.158-.986.474-1.32.316-.333.754-.574 1.313-.721.342-.082.724-.156 1.144-.221.425-.065.914-.134 1.469-.208l.585-.078c-.009-.646-.16-1.12-.455-1.423-.29-.304-.763-.456-1.417-.456-.494 0-.906.111-1.235.332-.325.221-.552.561-.682 1.02l-.93-.273c.165-.632.49-1.12.975-1.462.49-.347 1.118-.52 1.885-.52.641 0 1.185.121 1.632.364.45.243.769.59.955 1.04zm-3.204 5.18c.433 0 .819-.078 1.157-.233.338-.16.608-.38.812-.657.208-.282.342-.6.403-.956.061-.268.091-.64.091-1.117-.169.017-.29.032-.364.045-.589.07-1.068.132-1.436.188-.369.052-.702.12-1.001.202-.811.238-1.216.663-1.216 1.274 0 .217.052.42.156.611.108.19.28.347.514.468.234.117.528.175.884.175zm6.775-1.95v.384c0 .217.008.392.026.527.017.13.056.247.117.35.104.2.253.343.448.43.195.086.44.13.735.13.247 0 .522-.026.825-.079V53c-.346.07-.669.104-.968.104-.447 0-.837-.076-1.17-.227-.334-.152-.581-.39-.741-.716-.091-.186-.152-.377-.182-.572-.026-.194-.039-.437-.039-.727v-4.063h-1.502v-.819h1.502v-1.95h.949v1.95h2.151v.819h-2.151v3.62zm3.664-6.844h.956v1.072h-.956v-1.072zm0 2.405h.956V53h-.956v-7.02zm5.836 7.215c-.685 0-1.278-.156-1.781-.468-.498-.316-.88-.754-1.144-1.313-.264-.559-.396-1.203-.396-1.93 0-.733.134-1.379.403-1.938.268-.559.652-.992 1.15-1.3.503-.307 1.092-.461 1.768-.461.689 0 1.283.156 1.781.468.503.312.886.748 1.151 1.306.264.56.396 1.2.396 1.925 0 .736-.134 1.384-.403 1.943-.264.559-.648.995-1.15 1.306-.499.308-1.09.462-1.775.462zm0-.916c.507 0 .934-.115 1.281-.345.346-.234.604-.559.773-.975.173-.42.26-.912.26-1.476 0-.866-.197-1.546-.591-2.04-.39-.494-.965-.741-1.723-.741-.763 0-1.339.25-1.729.754-.386.498-.578 1.174-.578 2.027 0 .568.086 1.062.26 1.483.177.42.437.745.78.974.346.226.769.339 1.267.339zm7.979-6.475c.663 0 1.205.16 1.625.481.421.321.724.735.91 1.242.187.503.28 1.04.28 1.612V53h-.962v-3.581c0-.828-.165-1.485-.494-1.97-.329-.49-.843-.734-1.541-.734-.667 0-1.18.223-1.54.669-.36.446-.54 1.07-.54 1.872V53h-.962v-7.02h.865v.975c.26-.377.591-.663.994-.858.403-.195.858-.293 1.365-.293zm9.825 1.385c.139.338.208.821.208 1.45V53h-.851v-1.163c-.273.446-.637.784-1.092 1.013-.455.23-.982.345-1.58.345-.511 0-.949-.093-1.313-.28-.36-.186-.63-.437-.812-.754-.182-.316-.273-.665-.273-1.046 0-.546.158-.986.474-1.32.316-.333.754-.574 1.313-.721.342-.082.724-.156 1.144-.221.425-.065.914-.134 1.469-.208l.585-.078c-.009-.646-.16-1.12-.455-1.423-.29-.304-.763-.456-1.417-.456-.494 0-.906.111-1.235.332-.325.221-.552.561-.682 1.02l-.93-.273c.165-.632.49-1.12.975-1.462.49-.347 1.118-.52 1.885-.52.641 0 1.185.121 1.632.364.45.243.769.59.955 1.04zm-3.204 5.18c.433 0 .819-.078 1.157-.233.338-.16.608-.38.812-.657.208-.282.342-.6.403-.956.061-.268.091-.64.091-1.117-.169.017-.29.032-.364.045-.589.07-1.068.132-1.436.188-.369.052-.702.12-1.001.202-.811.238-1.216.663-1.216 1.274 0 .217.052.42.156.611.108.19.28.347.514.468.234.117.528.175.884.175zm5.234-8.924h.956V53h-.956v-9.555zm10.831 3.744c.138.338.208.821.208 1.45V53h-.852v-1.163c-.273.446-.637.784-1.092 1.013-.455.23-.981.345-1.579.345-.512 0-.949-.093-1.313-.28-.36-.186-.631-.437-.813-.754-.182-.316-.273-.665-.273-1.046 0-.546.158-.986.475-1.32.316-.333.754-.574 1.313-.721.342-.082.723-.156 1.144-.221.424-.065.914-.134 1.469-.208l.585-.078c-.009-.646-.161-1.12-.455-1.423-.291-.304-.763-.456-1.417-.456-.494 0-.906.111-1.235.332-.325.221-.553.561-.683 1.02l-.929-.273c.164-.632.489-1.12.975-1.462.489-.347 1.118-.52 1.885-.52.641 0 1.185.121 1.631.364.451.243.769.59.956 1.04zm-3.205 5.18c.433 0 .819-.078 1.157-.233.338-.16.609-.38.813-.657.208-.282.342-.6.403-.956.06-.268.091-.64.091-1.117-.169.017-.291.032-.364.045-.59.07-1.069.132-1.437.188-.368.052-.702.12-1.001.202-.81.238-1.215.663-1.215 1.274 0 .217.052.42.156.611.108.19.279.347.513.468.234.117.529.175.884.175zm8.322-6.565c.663 0 1.205.16 1.625.481.42.321.724.735.91 1.242.186.503.28 1.04.28 1.612V53h-.962v-3.581c0-.828-.165-1.485-.494-1.97-.33-.49-.843-.734-1.541-.734-.667 0-1.181.223-1.54.669-.36.446-.54 1.07-.54 1.872V53h-.962v-7.02h.865v.975c.26-.377.591-.663.994-.858.403-.195.858-.293 1.365-.293zm10.333-2.164V53h-.858v-.981c-.26.372-.585.663-.975.87-.386.204-.828.306-1.326.306-.641 0-1.198-.16-1.67-.481-.468-.32-.826-.763-1.073-1.326-.247-.563-.37-1.198-.37-1.904 0-.703.123-1.333.37-1.892.247-.563.602-1.005 1.066-1.326.468-.32 1.014-.481 1.638-.481.477 0 .901.089 1.274.267.377.177.698.428.962.754V43.64h.962zm-3.061 8.664c.485 0 .892-.119 1.222-.357.329-.243.574-.574.734-.995.165-.424.247-.914.247-1.468 0-.56-.082-1.05-.247-1.47-.16-.424-.405-.754-.734-.988-.325-.234-.726-.35-1.203-.35-.485 0-.895.12-1.228.363-.334.243-.583.577-.748 1.002-.16.42-.24.9-.24 1.443 0 .541.082 1.026.247 1.456.169.424.418.758.747 1 .329.243.73.364 1.203.364zm13.363-6.324v6.923c0 .428-.026.801-.078 1.117-.247 1.53-1.25 2.295-3.009 2.295-.577 0-1.112-.128-1.606-.383-.489-.256-.877-.644-1.163-1.164l.864-.481c.182.368.444.644.787.825.346.182.719.273 1.118.273.745 0 1.287-.205 1.625-.617.338-.412.505-1.038.5-1.879v-.721c-.26.33-.574.583-.942.76-.369.178-.785.267-1.248.267-.642 0-1.198-.16-1.671-.481-.468-.32-.825-.763-1.072-1.326-.247-.563-.371-1.198-.371-1.904 0-.703.124-1.333.371-1.892.247-.563.602-1.005 1.066-1.326.468-.32 1.014-.481 1.638-.481.507 0 .957.102 1.352.306.394.199.723.485.988.858v-.969h.851zm-3.055 6.325c.486 0 .893-.12 1.222-.358.33-.243.574-.574.735-.995.164-.424.247-.914.247-1.468 0-.56-.083-1.05-.247-1.47-.161-.424-.405-.754-.735-.988-.325-.234-.726-.35-1.202-.35-.486 0-.895.12-1.229.363-.333.243-.583.577-.747 1.002-.161.42-.241.9-.241 1.443 0 .541.083 1.026.247 1.456.169.424.418.758.748 1 .329.243.73.364 1.202.364zm6.277-5.864c.195-.173.426-.303.695-.39.273-.086.548-.13.826-.13.186 0 .361.02.526.059v.897c-.186-.043-.366-.065-.539-.065-.451 0-.83.128-1.138.384-.321.25-.537.572-.65.962-.113.39-.169.836-.169 1.338V53h-.955v-7.02h.858v1.112c.151-.27.333-.486.546-.65zm8.35.748c.138.338.208.821.208 1.45V53h-.852v-1.163c-.273.446-.637.784-1.092 1.013-.455.23-.981.345-1.579.345-.512 0-.949-.093-1.313-.28-.36-.186-.631-.437-.813-.754-.182-.316-.273-.665-.273-1.046 0-.546.158-.986.475-1.32.316-.333.754-.574 1.313-.721.342-.082.723-.156 1.144-.221.424-.065.914-.134 1.469-.208l.585-.078c-.009-.646-.161-1.12-.455-1.423-.291-.304-.763-.456-1.417-.456-.494 0-.906.111-1.235.332-.325.221-.553.561-.683 1.02l-.929-.273c.164-.632.489-1.12.975-1.462.489-.347 1.118-.52 1.885-.52.641 0 1.185.121 1.631.364.451.243.769.59.956 1.04zm-3.205 5.18c.434 0 .819-.078 1.157-.233.338-.16.609-.38.813-.657.208-.282.342-.6.403-.956.06-.268.091-.64.091-1.117-.169.017-.291.032-.364.045-.59.07-1.068.132-1.437.188-.368.052-.702.12-1.001.202-.81.238-1.215.663-1.215 1.274 0 .217.052.42.156.611.108.19.279.347.513.468.234.117.529.175.884.175zm10.987-8.729V53h-.858v-.981c-.26.372-.585.663-.975.87-.385.204-.827.306-1.326.306-.641 0-1.198-.16-1.67-.481-.468-.32-.826-.763-1.073-1.326-.247-.563-.37-1.198-.37-1.904 0-.703.123-1.333.37-1.892.247-.563.603-1.005 1.066-1.326.468-.32 1.014-.481 1.638-.481.477 0 .902.089 1.274.267.377.177.698.428.962.754V43.64h.962zm-3.061 8.664c.485 0 .893-.119 1.222-.357.329-.243.574-.574.734-.995.165-.424.247-.914.247-1.468 0-.56-.082-1.05-.247-1.47-.16-.424-.405-.754-.734-.988-.325-.234-.726-.35-1.203-.35-.485 0-.894.12-1.228.363-.334.243-.583.577-.748 1.002-.16.42-.24.9-.24 1.443 0 .541.082 1.026.247 1.456.169.424.418.758.747 1 .33.243.731.364 1.203.364zm10.787-6.324V53h-.858v-.975c-.26.377-.592.663-.995.858-.403.195-.858.292-1.365.292-.663 0-1.204-.16-1.625-.48-.42-.321-.723-.733-.91-1.236-.186-.507-.279-1.046-.279-1.618V45.98h.962v3.582c0 .827.165 1.486.494 1.976.329.485.843.728 1.54.728.668 0 1.181-.224 1.541-.67.36-.446.539-1.07.539-1.872V45.98h.956zm7.14 1.209c.139.338.208.821.208 1.45V53h-.851v-1.163c-.273.446-.637.784-1.092 1.013-.455.23-.982.345-1.58.345-.511 0-.949-.093-1.313-.28-.36-.186-.63-.437-.812-.754-.182-.316-.273-.665-.273-1.046 0-.546.158-.986.474-1.32.316-.333.754-.574 1.313-.721.342-.082.724-.156 1.144-.221.425-.065.914-.134 1.469-.208l.585-.078c-.009-.646-.16-1.12-.455-1.423-.29-.304-.763-.456-1.417-.456-.494 0-.906.111-1.235.332-.325.221-.552.561-.682 1.02l-.93-.273c.165-.632.49-1.12.975-1.462.49-.347 1.118-.52 1.885-.52.641 0 1.185.121 1.632.364.45.243.769.59.955 1.04zm-3.204 5.18c.433 0 .819-.078 1.157-.233.338-.16.608-.38.812-.657.208-.282.342-.6.403-.956.061-.268.091-.64.091-1.117-.169.017-.29.032-.364.045-.589.07-1.068.132-1.436.188-.369.052-.702.12-1.001.202-.811.238-1.216.663-1.216 1.274 0 .217.052.42.156.611.108.19.28.347.514.468.234.117.528.175.884.175zm5.234-8.924h.956V53h-.956v-9.555zm11.383 2.535v6.923c0 .428-.026.801-.078 1.117-.247 1.53-1.25 2.295-3.009 2.295-.577 0-1.112-.128-1.606-.383-.49-.256-.877-.644-1.163-1.164l.864-.481c.182.368.444.644.787.825.346.182.719.273 1.118.273.745 0 1.287-.205 1.625-.617.338-.412.504-1.038.5-1.879v-.721c-.26.33-.574.583-.942.76-.369.178-.785.267-1.248.267-.642 0-1.199-.16-1.671-.481-.468-.32-.825-.763-1.072-1.326-.247-.563-.371-1.198-.371-1.904 0-.703.124-1.333.371-1.892.247-.563.602-1.005 1.066-1.326.468-.32 1.014-.481 1.638-.481.507 0 .957.102 1.352.306.394.199.723.485.988.858v-.969h.851zm-3.055 6.325c.485 0 .893-.12 1.222-.358.329-.243.574-.574.735-.995.164-.424.247-.914.247-1.468 0-.56-.083-1.05-.247-1.47-.161-.424-.406-.754-.735-.988-.325-.234-.726-.35-1.202-.35-.486 0-.895.12-1.229.363-.334.243-.583.577-.747 1.002-.161.42-.241.9-.241 1.443 0 .541.082 1.026.247 1.456.169.424.418.758.748 1 .329.243.73.364 1.202.364zm6.276-5.864c.195-.173.427-.303.696-.39.273-.086.548-.13.825-.13.187 0 .362.02.527.059v.897c-.186-.043-.366-.065-.54-.065-.45 0-.829.128-1.137.384-.321.25-.537.572-.65.962-.113.39-.169.836-.169 1.338V53h-.956v-7.02h.858v1.112c.152-.27.334-.486.546-.65zm6.085 6.754c-.684 0-1.278-.156-1.781-.468-.498-.316-.879-.754-1.144-1.313-.264-.559-.396-1.203-.396-1.93 0-.733.134-1.379.403-1.938.269-.559.652-.992 1.15-1.3.503-.307 1.092-.461 1.768-.461.689 0 1.283.156 1.781.468.503.312.887.748 1.151 1.306.264.56.396 1.2.396 1.925 0 .736-.134 1.384-.403 1.943-.264.559-.647.995-1.15 1.306-.498.308-1.09.462-1.775.462zm0-.916c.507 0 .934-.115 1.281-.345.347-.234.604-.559.773-.975.174-.42.26-.912.26-1.476 0-.866-.197-1.546-.591-2.04-.39-.494-.964-.741-1.723-.741-.762 0-1.339.25-1.729.754-.385.498-.578 1.174-.578 2.027 0 .568.087 1.062.26 1.483.178.42.438.745.78.974.347.226.769.339 1.267.339zm3.858-6.306l.956.007 1.664 5.454 1.67-5.454h.871l1.671 5.454 1.677-5.454h.949L262.429 53h-.832l-1.755-5.59-1.749 5.59h-.832l-2.145-7.026zm12.299 4.447v.383c0 .217.009.392.026.527.018.13.057.247.117.35.104.2.254.343.449.43.195.086.44.13.734.13.247 0 .523-.026.826-.079V53c-.347.07-.67.104-.969.104-.446 0-.836-.076-1.17-.227-.333-.152-.58-.39-.741-.716-.091-.186-.151-.377-.182-.572-.026-.194-.039-.437-.039-.727v-4.063h-1.501v-.819h1.501v-1.95h.949v1.95h2.152v.819h-2.152v3.62zm6.753-4.616c.663 0 1.204.16 1.625.481.42.321.723.735.91 1.242.186.503.279 1.04.279 1.612V53h-.962v-3.581c0-.828-.165-1.485-.494-1.97-.329-.49-.843-.734-1.54-.734-.668 0-1.181.223-1.541.669-.36.446-.539 1.07-.539 1.872V53h-.962v-9.36h.864v3.315c.26-.377.592-.663.995-.858.403-.195.858-.293 1.365-.293zm10.035 7.391c-.685 0-1.279-.156-1.781-.468-.499-.316-.88-.754-1.144-1.313-.265-.559-.397-1.203-.397-1.93 0-.733.135-1.379.403-1.938.269-.559.652-.992 1.151-1.3.502-.307 1.092-.461 1.768-.461.689 0 1.282.156 1.781.468.502.312.886.748 1.15 1.306.265.56.397 1.2.397 1.925 0 .736-.135 1.384-.403 1.943-.265.559-.648.995-1.151 1.306-.498.308-1.09.462-1.774.462zm0-.916c.507 0 .934-.115 1.28-.345.347-.234.605-.559.774-.975.173-.42.26-.912.26-1.476 0-.866-.197-1.546-.592-2.04-.39-.494-.964-.741-1.722-.741-.763 0-1.339.25-1.729.754-.386.498-.579 1.174-.579 2.027 0 .568.087 1.062.26 1.483.178.42.438.745.78.974.347.226.769.339 1.268.339zm7.498-8.028c-.368 0-.641.091-.819.273-.177.178-.266.455-.266.832v.624h1.917v.819h-1.917V53h-.956v-6.201h-1.215v-.819h1.215v-.52c0-.325.028-.609.085-.852.06-.242.177-.459.351-.65.19-.207.411-.344.663-.409.251-.07.544-.104.877-.104h.897v.806h-.832zm7.094 8.938c-.546 0-1.031-.08-1.456-.241-.425-.16-.771-.39-1.04-.689-.264-.303-.435-.665-.513-1.086l.975-.162c.099.403.335.721.708.956.373.233.832.35 1.378.35.533 0 .953-.11 1.261-.331.308-.225.462-.53.462-.916 0-.226-.052-.404-.156-.534-.1-.134-.291-.257-.572-.37-.282-.113-.733-.253-1.352-.422-.646-.174-1.147-.347-1.502-.52-.355-.178-.609-.377-.76-.598-.152-.226-.228-.505-.228-.839 0-.394.111-.743.332-1.047.225-.303.539-.537.942-.702.403-.168.867-.253 1.391-.253s.997.087 1.417.26c.42.169.758.41 1.014.721.256.308.407.663.455 1.067l-.975.175c-.069-.42-.282-.75-.637-.988-.355-.243-.806-.364-1.352-.364-.316 0-.598.046-.845.136-.243.091-.433.22-.572.384-.134.165-.201.353-.201.566 0 .195.056.357.169.487.117.126.318.247.604.364.29.113.717.24 1.281.383.658.17 1.167.345 1.527.527.364.178.624.39.78.637.156.243.234.548.234.916 0 .438-.11.817-.331 1.138-.221.32-.54.568-.956.741-.416.169-.91.253-1.482.253zm5.881-2.77v.384c0 .217.009.392.026.527.018.13.057.247.117.35.104.2.254.343.449.43.195.086.44.13.734.13.247 0 .522-.026.826-.079V53c-.347.07-.67.104-.969.104-.446 0-.836-.076-1.17-.227-.333-.152-.58-.39-.741-.716-.091-.186-.151-.377-.182-.572-.026-.194-.039-.437-.039-.727v-4.063h-1.501v-.819h1.501v-1.95h.949v1.95h2.152v.819h-2.152v3.62zm9.437-4.439V53h-.858v-.975c-.26.377-.592.663-.995.858-.403.195-.858.292-1.365.292-.663 0-1.204-.16-1.625-.48-.42-.321-.723-.733-.91-1.236-.186-.507-.279-1.046-.279-1.618V45.98h.962v3.582c0 .827.164 1.486.494 1.976.329.485.843.728 1.54.728.668 0 1.181-.224 1.541-.67.359-.446.539-1.07.539-1.872V45.98h.956zm7.699-2.34V53h-.858v-.981c-.26.372-.585.663-.975.87-.386.204-.828.306-1.326.306-.641 0-1.198-.16-1.67-.481-.468-.32-.826-.763-1.073-1.326-.247-.563-.37-1.198-.37-1.904 0-.703.123-1.333.37-1.892.247-.563.602-1.005 1.066-1.326.468-.32 1.014-.481 1.638-.481.477 0 .901.089 1.274.267.377.177.698.428.962.754V43.64h.962zm-3.061 8.664c.485 0 .892-.119 1.222-.357.329-.243.574-.574.734-.995.165-.424.247-.914.247-1.468 0-.56-.082-1.05-.247-1.47-.16-.424-.405-.754-.734-.988-.325-.234-.726-.35-1.203-.35-.485 0-.895.12-1.228.363-.334.243-.583.577-.748 1.002-.16.42-.24.9-.24 1.443 0 .541.082 1.026.247 1.456.169.424.418.758.747 1 .329.243.73.364 1.203.364zm5.515-2.547c.039.806.258 1.427.657 1.865.398.438.946.657 1.644.657.498 0 .936-.115 1.313-.345.377-.234.674-.57.891-1.008l.89.345c-.277.611-.685 1.085-1.222 1.423-.537.334-1.148.501-1.833.501-.676 0-1.267-.152-1.774-.455-.507-.303-.9-.73-1.177-1.28-.273-.555-.409-1.2-.409-1.938 0-.758.134-1.419.403-1.982.273-.563.658-.997 1.157-1.3.502-.303 1.089-.455 1.761-.455.672 0 1.248.152 1.729.455.485.299.856.732 1.112 1.3.26.563.39 1.235.39 2.015v.202h-5.532zm2.327-3.094c-.672 0-1.207.197-1.605.591-.395.394-.629.962-.702 1.703h4.511c-.07-.758-.291-1.33-.663-1.716-.373-.386-.887-.578-1.541-.578zm7.674-.858c.663 0 1.205.16 1.625.48.42.321.724.735.91 1.242.186.503.28 1.04.28 1.612V53h-.962v-3.581c0-.828-.165-1.485-.494-1.97-.33-.49-.843-.734-1.541-.734-.667 0-1.181.223-1.54.669-.36.446-.54 1.07-.54 1.872V53h-.962v-7.02h.865v.975c.26-.377.591-.663.994-.858.403-.195.858-.293 1.365-.293zm6.172 4.614v.384c0 .217.009.392.026.527.017.13.056.247.117.35.104.2.253.343.448.43.195.086.44.13.735.13.247 0 .522-.026.825-.079V53c-.346.07-.669.104-.968.104-.446 0-.836-.076-1.17-.227-.334-.152-.581-.39-.741-.716-.091-.186-.152-.377-.182-.572-.026-.194-.039-.437-.039-.727v-4.063h-1.502v-.819h1.502v-1.95h.949v1.95h2.151v.819h-2.151v3.62zm6.154 2.77c-.546 0-1.031-.08-1.456-.241-.425-.16-.771-.39-1.04-.689-.264-.303-.436-.665-.514-1.086l.975-.162c.1.403.336.721.709.956.373.233.832.35 1.378.35.533 0 .953-.11 1.261-.331.308-.225.461-.53.461-.916 0-.226-.052-.404-.156-.534-.099-.134-.29-.257-.572-.37-.281-.113-.732-.253-1.352-.422-.645-.174-1.146-.347-1.501-.52-.355-.178-.609-.377-.761-.598-.151-.226-.227-.505-.227-.839 0-.394.11-.743.331-1.047.226-.303.54-.537.943-.702.403-.168.867-.253 1.391-.253s.997.087 1.417.26c.42.169.758.41 1.014.721.256.308.407.663.455 1.067l-.975.175c-.069-.42-.282-.75-.637-.988-.355-.243-.806-.364-1.352-.364-.316 0-.598.046-.845.136-.243.091-.433.22-.572.384-.134.165-.202.353-.202.566 0 .195.057.357.169.487.117.126.319.247.605.364.29.113.717.24 1.28.383.659.17 1.168.345 1.528.527.364.178.624.39.78.637.156.243.234.548.234.916 0 .438-.111.817-.332 1.138-.221.32-.539.568-.955.741-.416.169-.91.253-1.482.253zM0 163h518v32c0 2.761-2.239 5-5 5H5c-2.761 0-5-2.239-5-5v-32z"/>
    <path stroke="#D4D4D4" d="M120 182.5L408 182.5"/>
    <path fill="#fff" d="M296 169H351V196H296zM165 169H251V196H165z"/>
    <path fill="#2F2F2F" d="M35.84 179.36h5.28v1.632h-3.648v1.872H40.4v1.632h-2.928V188H35.84v-8.64zm9.103 8.82c-.643 0-1.213-.144-1.71-.432-.495-.292-.881-.696-1.157-1.212-.273-.52-.409-1.112-.409-1.776 0-.668.139-1.26.414-1.776.28-.52.668-.924 1.164-1.212.5-.288 1.067-.432 1.699-.432.643 0 1.213.146 1.71.438.5.288.887.692 1.163 1.212s.414 1.11.414 1.77c0 .664-.14 1.256-.42 1.776-.276.516-.663.92-1.163 1.212-.497.288-1.065.432-1.705.432zm0-1.524c.509 0 .895-.172 1.159-.516.268-.344.402-.804.402-1.38 0-.588-.134-1.05-.402-1.386-.268-.34-.654-.51-1.158-.51-.517 0-.905.17-1.165.51-.256.336-.384.798-.384 1.386 0 .592.133 1.056.396 1.392.269.336.653.504 1.153.504zm10.56-5.136V188h-1.44v-.666c-.244.272-.542.484-.894.636-.352.148-.754.222-1.206.222-.76 0-1.328-.194-1.704-.582-.372-.388-.604-.798-.696-1.23-.088-.432-.132-.84-.132-1.224v-3.636h1.656v3.06c0 .328.024.636.072.924.048.288.174.552.378.792.208.24.522.36.942.36.376 0 .7-.128.972-.384.272-.26.408-.748.408-1.464v-3.288h1.644zm5.217-.192c.76 0 1.326.194 1.698.582.376.388.608.798.696 1.23.092.432.138.84.138 1.224V188h-1.656v-3.06c0-.328-.024-.636-.072-.924-.048-.288-.176-.552-.384-.792-.204-.24-.516-.36-.936-.36-.376 0-.7.13-.972.39-.272.256-.408.742-.408 1.458V188h-1.656v-6.48h1.452v.666c.244-.272.542-.482.894-.63.352-.152.754-.228 1.206-.228zm9.792-1.968V188h-1.44v-.372c-.484.368-1.068.552-1.752.552-.584 0-1.104-.148-1.56-.444-.452-.3-.804-.71-1.056-1.23-.248-.52-.372-1.102-.372-1.746 0-.656.126-1.244.378-1.764.256-.52.616-.926 1.08-1.218.468-.292 1.006-.438 1.614-.438.556 0 1.044.132 1.464.396v-2.376h1.644zm-2.928 7.368c.992 0 1.488-.656 1.488-1.968 0-.616-.116-1.098-.348-1.446-.228-.348-.588-.522-1.08-.522-.352 0-.646.088-.882.264-.236.172-.412.406-.528.702-.116.296-.174.63-.174 1.002 0 .58.128 1.054.384 1.422.256.364.636.546 1.14.546zm9.78-4.212c.116.216.188.436.216.66.032.22.048.508.048.864V188H76.2v-.792c-.288.344-.604.592-.948.744-.344.152-.764.228-1.26.228-.448 0-.836-.086-1.164-.258-.324-.176-.572-.414-.744-.714-.168-.3-.252-.632-.252-.996 0-.472.11-.87.33-1.194.22-.324.582-.578 1.086-.762.28-.104.622-.192 1.026-.264.404-.076.986-.17 1.746-.282-.032-.304-.144-.526-.336-.666-.188-.144-.472-.216-.852-.216-.276 0-.538.064-.786.192s-.418.328-.51.6l-1.476-.468c.168-.56.484-1.002.948-1.326.464-.324 1.072-.486 1.824-.486 1.276 0 2.12.392 2.532 1.176zm-1.524 3.516c.104-.212.16-.546.168-1.002-.564.096-.978.172-1.242.228-.264.056-.486.118-.666.186-.236.096-.408.204-.516.324-.104.116-.156.256-.156.42 0 .22.08.394.24.522.164.124.388.186.672.186.276 0 .518-.048.726-.144.208-.1.374-.216.498-.348.128-.132.22-.256.276-.372zm5.364-.876v.342c0 .208.008.376.024.504s.052.234.108.318c.164.26.488.39.972.39.184 0 .44-.022.768-.066V188c-.416.076-.804.114-1.164.114-.488 0-.912-.072-1.272-.216-.36-.148-.628-.382-.804-.702-.108-.2-.18-.404-.216-.612-.036-.208-.054-.454-.054-.738l.006-.594v-2.472h-1.104v-1.26h1.104v-1.8h1.632v1.8h1.872v1.26h-1.872v2.376zm3.436-5.976h1.632v1.44H84.64v-1.44zm0 2.34h1.632V188H84.64v-6.48zm6.347 6.66c-.644 0-1.215-.144-1.71-.432-.496-.292-.883-.696-1.159-1.212-.271-.52-.407-1.112-.407-1.776 0-.668.138-1.26.413-1.776.28-.52.669-.924 1.165-1.212.5-.288 1.066-.432 1.698-.432.644 0 1.214.146 1.71.438.5.288.888.692 1.163 1.212.276.52.415 1.11.415 1.77 0 .664-.14 1.256-.42 1.776-.276.516-.665.92-1.165 1.212-.495.288-1.064.432-1.703.432zm0-1.524c.508 0 .894-.172 1.157-.516.268-.344.402-.804.402-1.38 0-.588-.134-1.05-.402-1.386-.268-.34-.654-.51-1.157-.51-.516 0-.904.17-1.164.51-.256.336-.384.798-.384 1.386 0 .592.132 1.056.396 1.392.268.336.652.504 1.152.504zm8.147-5.328c.76 0 1.326.194 1.698.582.376.388.608.798.696 1.23.092.432.138.84.138 1.224V188h-1.656v-3.06c0-.328-.024-.636-.072-.924-.048-.288-.176-.552-.384-.792-.204-.24-.516-.36-.936-.36-.376 0-.7.13-.972.39-.272.256-.408.742-.408 1.458V188h-1.656v-6.48h1.452v.666c.244-.272.542-.482.894-.63.352-.152.754-.228 1.206-.228zm9.261 1.188c.116.216.188.436.216.66.032.22.048.508.048.864V188h-1.428v-.792c-.288.344-.604.592-.948.744-.344.152-.764.228-1.26.228-.448 0-.836-.086-1.164-.258-.324-.176-.572-.414-.744-.714-.168-.3-.252-.632-.252-.996 0-.472.11-.87.33-1.194.22-.324.582-.578 1.086-.762.28-.104.622-.192 1.026-.264.404-.076.986-.17 1.746-.282-.032-.304-.144-.526-.336-.666-.188-.144-.472-.216-.852-.216-.276 0-.538.064-.786.192s-.418.328-.51.6l-1.476-.468c.168-.56.484-1.002.948-1.326.464-.324 1.072-.486 1.824-.486 1.276 0 2.12.392 2.532 1.176zm-1.524 3.516c.104-.212.16-.546.168-1.002-.564.096-.978.172-1.242.228-.264.056-.486.118-.666.186-.236.096-.408.204-.516.324-.104.116-.156.256-.156.42 0 .22.08.394.24.522.164.124.388.186.672.186.276 0 .518-.048.726-.144.208-.1.374-.216.498-.348.128-.132.22-.256.276-.372zm3.468-6.852h1.632V188h-1.632v-8.82zM177.488 179.36c.276 0 .516.016.72.048.748.116 1.306.424 1.674.924.372.496.558 1.124.558 1.884 0 .756-.186 1.384-.558 1.884-.372.5-.93.808-1.674.924-.204.032-.444.048-.72.048h-2.016V188h-1.632v-8.64h3.648zm-.072 4.188c.228 0 .412-.02.552-.06.3-.08.512-.24.636-.48.128-.244.192-.508.192-.792 0-.284-.064-.546-.192-.786-.124-.244-.336-.406-.636-.486-.14-.04-.324-.06-.552-.06h-1.944v2.664h1.944zm6.365-1.716c.364-.224.796-.336 1.296-.336.136 0 .26.008.372.024v1.524c-.124-.04-.278-.06-.462-.06-.304 0-.574.056-.81.168-.288.132-.508.328-.66.588-.152.26-.228.576-.228.948V188h-1.644v-6.48h1.44v1.044c.18-.324.412-.568.696-.732zm4.09 3.384c.06.464.218.82.474 1.068.26.248.608.372 1.044.372.316 0 .588-.07.816-.21.232-.14.408-.342.528-.606l1.632.468c-.16.388-.386.724-.678 1.008-.292.28-.628.494-1.008.642-.38.148-.778.222-1.194.222-.656 0-1.24-.142-1.752-.426-.508-.284-.906-.68-1.194-1.188-.284-.508-.426-1.082-.426-1.722 0-.696.138-1.308.414-1.836.28-.532.668-.942 1.164-1.23.496-.292 1.062-.438 1.698-.438.624 0 1.166.138 1.626.414.46.276.812.668 1.056 1.176.248.508.372 1.104.372 1.788 0 .108-.008.274-.024.498h-4.548zm1.59-2.46c-.86 0-1.376.416-1.548 1.248h2.856c-.056-.436-.19-.752-.402-.948-.208-.2-.51-.3-.906-.3zm7.233-1.416c.608 0 1.144.146 1.608.438.468.292.828.698 1.08 1.218.256.52.384 1.108.384 1.764 0 .644-.126 1.226-.378 1.746-.248.52-.6.93-1.056 1.23-.452.296-.97.444-1.554.444-.592 0-1.108-.138-1.548-.414v3.114h-1.644v-9.36h1.44v.36c.46-.36 1.016-.54 1.668-.54zm-.18 5.388c.504 0 .884-.182 1.14-.546.256-.368.384-.842.384-1.422 0-.372-.058-.706-.174-1.002-.116-.296-.292-.53-.528-.702-.236-.176-.53-.264-.882-.264-.492 0-.854.174-1.086.522-.228.348-.342.83-.342 1.446 0 1.312.496 1.968 1.488 1.968zm9.744-4.212c.116.216.188.436.216.66.032.22.048.508.048.864V188h-1.428v-.792c-.288.344-.604.592-.948.744-.344.152-.764.228-1.26.228-.448 0-.836-.086-1.164-.258-.324-.176-.572-.414-.744-.714-.168-.3-.252-.632-.252-.996 0-.472.11-.87.33-1.194.22-.324.582-.578 1.086-.762.28-.104.622-.192 1.026-.264.404-.076.986-.17 1.746-.282-.032-.304-.144-.526-.336-.666-.188-.144-.472-.216-.852-.216-.276 0-.538.064-.786.192s-.418.328-.51.6l-1.476-.468c.168-.56.484-1.002.948-1.326.464-.324 1.072-.486 1.824-.486 1.276 0 2.12.392 2.532 1.176zm-1.524 3.516c.104-.212.16-.546.168-1.002-.564.096-.978.172-1.242.228-.264.056-.486.118-.666.186-.236.096-.408.204-.516.324-.104.116-.156.256-.156.42 0 .22.08.394.24.522.164.124.388.186.672.186.276 0 .518-.048.726-.144.208-.1.374-.216.498-.348.128-.132.22-.256.276-.372zm5.484-4.2c.364-.224.796-.336 1.296-.336.136 0 .26.008.372.024v1.524c-.124-.04-.278-.06-.462-.06-.304 0-.574.056-.81.168-.288.132-.508.328-.66.588-.152.26-.228.576-.228.948V188h-1.644v-6.48h1.44v1.044c.18-.324.412-.568.696-.732zm7.864.684c.116.216.188.436.216.66.032.22.048.508.048.864V188h-1.428v-.792c-.288.344-.604.592-.948.744-.344.152-.764.228-1.26.228-.448 0-.836-.086-1.164-.258-.324-.176-.572-.414-.744-.714-.168-.3-.252-.632-.252-.996 0-.472.11-.87.33-1.194.22-.324.582-.578 1.086-.762.28-.104.622-.192 1.026-.264.404-.076.986-.17 1.746-.282-.032-.304-.144-.526-.336-.666-.188-.144-.472-.216-.852-.216-.276 0-.538.064-.786.192s-.418.328-.51.6l-1.476-.468c.168-.56.484-1.002.948-1.326.464-.324 1.072-.486 1.824-.486 1.276 0 2.12.392 2.532 1.176zm-1.524 3.516c.104-.212.16-.546.168-1.002-.564.096-.978.172-1.242.228-.264.056-.486.118-.666.186-.236.096-.408.204-.516.324-.104.116-.156.256-.156.42 0 .22.08.394.24.522.164.124.388.186.672.186.276 0 .518-.048.726-.144.208-.1.374-.216.498-.348.128-.132.22-.256.276-.372zm5.364-.876v.342c0 .208.008.376.024.504s.052.234.108.318c.164.26.488.39.972.39.184 0 .44-.022.768-.066V188c-.416.076-.804.114-1.164.114-.488 0-.912-.072-1.272-.216-.36-.148-.628-.382-.804-.702-.108-.2-.18-.404-.216-.612-.036-.208-.054-.454-.054-.738l.006-.594v-2.472h-1.104v-1.26h1.104v-1.8h1.632v1.8h1.872v1.26h-1.872v2.376zm5.869 3.024c-.644 0-1.214-.144-1.71-.432-.496-.292-.882-.696-1.158-1.212-.272-.52-.408-1.112-.408-1.776 0-.668.138-1.26.414-1.776.28-.52.668-.924 1.164-1.212.5-.288 1.066-.432 1.698-.432.644 0 1.214.146 1.71.438.5.288.888.692 1.164 1.212.276.52.414 1.11.414 1.77 0 .664-.14 1.256-.42 1.776-.276.516-.664.92-1.164 1.212-.496.288-1.064.432-1.704.432zm0-1.524c.508 0 .894-.172 1.158-.516.268-.344.402-.804.402-1.38 0-.588-.134-1.05-.402-1.386-.268-.34-.654-.51-1.158-.51-.516 0-.904.17-1.164.51-.256.336-.384.798-.384 1.386 0 .592.132 1.056.396 1.392.268.336.652.504 1.152.504zm6.744-4.824c.364-.224.796-.336 1.296-.336.136 0 .26.008.372.024v1.524c-.124-.04-.278-.06-.462-.06-.304 0-.574.056-.81.168-.288.132-.508.328-.66.588-.152.26-.228.576-.228.948V188h-1.644v-6.48h1.44v1.044c.18-.324.412-.568.696-.732zm6.943-.312h1.632l-3.66 9.36h-1.512l1.068-2.934-2.616-6.426h1.692l1.704 4.41 1.692-4.41zM305.84 179.36h1.464l2.856 5.736 2.856-5.736h1.464V188h-1.524v-5.16l-2.508 5.16h-.576l-2.508-5.16V188h-1.524v-8.64zm10.444-.18h1.632v1.44h-1.632v-1.44zm0 2.34h1.632V188h-1.632v-6.48zm9.251-2.16V188h-1.44v-.372c-.484.368-1.068.552-1.752.552-.584 0-1.104-.148-1.56-.444-.452-.3-.804-.71-1.056-1.23-.248-.52-.372-1.102-.372-1.746 0-.656.126-1.244.378-1.764.256-.52.616-.926 1.08-1.218.468-.292 1.006-.438 1.614-.438.556 0 1.044.132 1.464.396v-2.376h1.644zm-2.928 7.368c.992 0 1.488-.656 1.488-1.968 0-.616-.116-1.098-.348-1.446-.228-.348-.588-.522-1.08-.522-.352 0-.646.088-.882.264-.236.172-.412.406-.528.702-.116.296-.174.63-.174 1.002 0 .58.128 1.054.384 1.422.256.364.636.546 1.14.546zm10.428-7.368V188h-1.44v-.372c-.484.368-1.068.552-1.752.552-.584 0-1.104-.148-1.56-.444-.452-.3-.804-.71-1.056-1.23-.248-.52-.372-1.102-.372-1.746 0-.656.126-1.244.378-1.764.256-.52.616-.926 1.08-1.218.468-.292 1.006-.438 1.614-.438.556 0 1.044.132 1.464.396v-2.376h1.644zm-2.928 7.368c.992 0 1.488-.656 1.488-1.968 0-.616-.116-1.098-.348-1.446-.228-.348-.588-.522-1.08-.522-.352 0-.646.088-.882.264-.236.172-.412.406-.528.702-.116.296-.174.63-.174 1.002 0 .58.128 1.054.384 1.422.256.364.636.546 1.14.546zm4.728-7.548h1.632V188h-1.632v-8.82zm4.829 6.036c.06.464.218.82.474 1.068.26.248.608.372 1.044.372.316 0 .588-.07.816-.21.232-.14.408-.342.528-.606l1.632.468c-.16.388-.386.724-.678 1.008-.292.28-.628.494-1.008.642-.38.148-.778.222-1.194.222-.656 0-1.24-.142-1.752-.426-.508-.284-.906-.68-1.194-1.188-.284-.508-.426-1.082-.426-1.722 0-.696.138-1.308.414-1.836.28-.532.668-.942 1.164-1.23.496-.292 1.062-.438 1.698-.438.624 0 1.166.138 1.626.414.46.276.812.668 1.056 1.176.248.508.372 1.104.372 1.788 0 .108-.008.274-.024.498h-4.548zm1.59-2.46c-.86 0-1.376.416-1.548 1.248h2.856c-.056-.436-.19-.752-.402-.948-.208-.2-.51-.3-.906-.3zM416.104 188.18c-.636 0-1.214-.114-1.734-.342-.516-.228-.938-.554-1.266-.978-.328-.424-.536-.924-.624-1.5l1.704-.252c.08.324.218.604.414.84.196.232.432.408.708.528.28.12.582.18.906.18.276 0 .54-.042.792-.126.252-.088.456-.216.612-.384.16-.168.24-.366.24-.594 0-.192-.062-.36-.186-.504-.124-.144-.342-.264-.654-.36l-2.244-.66c-.328-.092-.63-.21-.906-.354-.272-.144-.516-.372-.732-.684-.212-.312-.318-.718-.318-1.218 0-.56.142-1.034.426-1.422.284-.392.67-.684 1.158-.876.488-.192 1.036-.286 1.644-.282.9.012 1.648.236 2.244.672.6.432 1.004 1.052 1.212 1.86l-1.764.3c-.064-.28-.186-.518-.366-.714-.176-.196-.388-.344-.636-.444-.244-.1-.504-.15-.78-.15-.252 0-.486.04-.702.12-.216.08-.39.194-.522.342-.132.148-.198.318-.198.51 0 .252.104.446.312.582.208.136.488.25.84.342l1.5.408c.428.116.806.25 1.134.402.332.152.624.392.876.72.252.328.378.758.378 1.29 0 .592-.162 1.096-.486 1.512-.32.412-.744.722-1.272.93-.528.204-1.098.306-1.71.306zm6.185-2.964c.06.464.218.82.474 1.068.26.248.608.372 1.044.372.316 0 .588-.07.816-.21.232-.14.408-.342.528-.606l1.632.468c-.16.388-.386.724-.678 1.008-.292.28-.628.494-1.008.642-.38.148-.778.222-1.194.222-.656 0-1.24-.142-1.752-.426-.508-.284-.906-.68-1.194-1.188-.284-.508-.426-1.082-.426-1.722 0-.696.138-1.308.414-1.836.28-.532.668-.942 1.164-1.23.496-.292 1.062-.438 1.698-.438.624 0 1.166.138 1.626.414.46.276.812.668 1.056 1.176.248.508.372 1.104.372 1.788 0 .108-.008.274-.024.498h-4.548zm1.59-2.46c-.86 0-1.376.416-1.548 1.248h2.856c-.056-.436-.19-.752-.402-.948-.208-.2-.51-.3-.906-.3zm7.169 5.424c-.656 0-1.228-.148-1.716-.444-.484-.296-.856-.702-1.116-1.218-.256-.52-.384-1.106-.384-1.758 0-.656.132-1.242.396-1.758.268-.52.646-.926 1.134-1.218.492-.296 1.062-.444 1.71-.444.504 0 .958.088 1.362.264.408.172.744.422 1.008.75.268.324.45.706.546 1.146l-1.632.432c-.096-.332-.262-.592-.498-.78-.236-.192-.506-.288-.81-.288-.496 0-.868.174-1.116.522-.248.348-.372.806-.372 1.374 0 .58.128 1.042.384 1.386.256.34.624.51 1.104.51.352 0 .626-.08.822-.24.2-.16.35-.404.45-.732l1.668.348c-.184.688-.532 1.218-1.044 1.59-.512.372-1.144.558-1.896.558zm6.88 0c-.644 0-1.214-.144-1.71-.432-.496-.292-.882-.696-1.158-1.212-.272-.52-.408-1.112-.408-1.776 0-.668.138-1.26.414-1.776.28-.52.668-.924 1.164-1.212.5-.288 1.066-.432 1.698-.432.644 0 1.214.146 1.71.438.5.288.888.692 1.164 1.212.276.52.414 1.11.414 1.77 0 .664-.14 1.256-.42 1.776-.276.516-.664.92-1.164 1.212-.496.288-1.064.432-1.704.432zm0-1.524c.508 0 .894-.172 1.158-.516.268-.344.402-.804.402-1.38 0-.588-.134-1.05-.402-1.386-.268-.34-.654-.51-1.158-.51-.516 0-.904.17-1.164.51-.256.336-.384.798-.384 1.386 0 .592.132 1.056.396 1.392.268.336.652.504 1.152.504zm8.147-5.328c.76 0 1.326.194 1.698.582.376.388.608.798.696 1.23.092.432.138.84.138 1.224V188h-1.656v-3.06c0-.328-.024-.636-.072-.924-.048-.288-.176-.552-.384-.792-.204-.24-.516-.36-.936-.36-.376 0-.7.13-.972.39-.272.256-.408.742-.408 1.458V188h-1.656v-6.48h1.452v.666c.244-.272.542-.482.894-.63.352-.152.754-.228 1.206-.228zm9.792-1.968V188h-1.44v-.372c-.484.368-1.068.552-1.752.552-.584 0-1.104-.148-1.56-.444-.452-.3-.804-.71-1.056-1.23-.248-.52-.372-1.102-.372-1.746 0-.656.126-1.244.378-1.764.256-.52.616-.926 1.08-1.218.468-.292 1.006-.438 1.614-.438.556 0 1.044.132 1.464.396v-2.376h1.644zm-2.928 7.368c.992 0 1.488-.656 1.488-1.968 0-.616-.116-1.098-.348-1.446-.228-.348-.588-.522-1.08-.522-.352 0-.646.088-.882.264-.236.172-.412.406-.528.702-.116.296-.174.63-.174 1.002 0 .58.128 1.054.384 1.422.256.364.636.546 1.14.546zm9.78-4.212c.116.216.188.436.216.66.032.22.048.508.048.864V188h-1.428v-.792c-.288.344-.604.592-.948.744-.344.152-.764.228-1.26.228-.448 0-.836-.086-1.164-.258-.324-.176-.572-.414-.744-.714-.168-.3-.252-.632-.252-.996 0-.472.11-.87.33-1.194.22-.324.582-.578 1.086-.762.28-.104.622-.192 1.026-.264.404-.076.986-.17 1.746-.282-.032-.304-.144-.526-.336-.666-.188-.144-.472-.216-.852-.216-.276 0-.538.064-.786.192s-.418.328-.51.6l-1.476-.468c.168-.56.484-1.002.948-1.326.464-.324 1.072-.486 1.824-.486 1.276 0 2.12.392 2.532 1.176zm-1.524 3.516c.104-.212.16-.546.168-1.002-.564.096-.978.172-1.242.228-.264.056-.486.118-.666.186-.236.096-.408.204-.516.324-.104.116-.156.256-.156.42 0 .22.08.394.24.522.164.124.388.186.672.186.276 0 .518-.048.726-.144.208-.1.374-.216.498-.348.128-.132.22-.256.276-.372zm5.484-4.2c.364-.224.796-.336 1.296-.336.136 0 .26.008.372.024v1.524c-.124-.04-.278-.06-.462-.06-.304 0-.574.056-.81.168-.288.132-.508.328-.66.588-.152.26-.228.576-.228.948V188h-1.644v-6.48h1.44v1.044c.18-.324.412-.568.696-.732zm6.943-.312h1.632l-3.66 9.36h-1.512l1.068-2.934-2.616-6.426h1.692l1.704 4.41 1.692-4.41z"/>
    <path fill="#999" d="M146 182.5l-9.75 5.629v-11.258L146 182.5zM282 182.5l-9.75 5.629v-11.258L282 182.5zM381 182.5l-9.75 5.629v-11.258L381 182.5z"/>
    <defs>
        <linearGradient id="paint0_linear" x1="68" x2="68" y1="102" y2="139" gradientUnits="userSpaceOnUse">
            <stop stop-color="#FFAC97"/>
            <stop offset="1" stop-color="#DF6546"/>
        </linearGradient>
        <linearGradient id="paint1_linear" x1="191" x2="191" y1="81" y2="139" gradientUnits="userSpaceOnUse">
            <stop stop-color="#7E7FBF"/>
            <stop offset="1" stop-color="#2C2D67"/>
        </linearGradient>
        <linearGradient id="paint2_linear" x1="314" x2="314" y1="81" y2="139" gradientUnits="userSpaceOnUse">
            <stop stop-color="#7FA2C9"/>
            <stop offset="1" stop-color="#3C5D80"/>
        </linearGradient>
        <linearGradient id="paint3_linear" x1="437" x2="437" y1="65" y2="139" gradientUnits="userSpaceOnUse">
            <stop stop-color="#81A769"/>
            <stop offset="1" stop-color="#627655"/>
        </linearGradient>
        <filter id="filter0_d" width="130" height="67" x="3" y="91" color-interpolation-filters="sRGB" filterUnits="userSpaceOnUse">
            <feFlood flood-opacity="0" result="BackgroundImageFix"/>
            <feColorMatrix in="SourceAlpha" values="0 0 0 0 0 0 0 0 0 0 0 0 0 0 0 0 0 0 127 0"/>
            <feOffset dy="4"/>
            <feGaussianBlur stdDeviation="7.5"/>
            <feColorMatrix values="0 0 0 0 1 0 0 0 0 1 0 0 0 0 1 0 0 0 0.1 0"/>
            <feBlend in2="BackgroundImageFix" result="effect1_dropShadow"/>
            <feBlend in="SourceGraphic" in2="effect1_dropShadow" result="shape"/>
        </filter>
        <filter id="filter1_d" width="130" height="88" x="126" y="70" color-interpolation-filters="sRGB" filterUnits="userSpaceOnUse">
            <feFlood flood-opacity="0" result="BackgroundImageFix"/>
            <feColorMatrix in="SourceAlpha" values="0 0 0 0 0 0 0 0 0 0 0 0 0 0 0 0 0 0 127 0"/>
            <feOffset dy="4"/>
            <feGaussianBlur stdDeviation="7.5"/>
            <feColorMatrix values="0 0 0 0 1 0 0 0 0 1 0 0 0 0 1 0 0 0 0.1 0"/>
            <feBlend in2="BackgroundImageFix" result="effect1_dropShadow"/>
            <feBlend in="SourceGraphic" in2="effect1_dropShadow" result="shape"/>
        </filter>
        <filter id="filter2_d" width="130" height="88" x="249" y="70" color-interpolation-filters="sRGB" filterUnits="userSpaceOnUse">
            <feFlood flood-opacity="0" result="BackgroundImageFix"/>
            <feColorMatrix in="SourceAlpha" values="0 0 0 0 0 0 0 0 0 0 0 0 0 0 0 0 0 0 127 0"/>
            <feOffset dy="4"/>
            <feGaussianBlur stdDeviation="7.5"/>
            <feColorMatrix values="0 0 0 0 1 0 0 0 0 1 0 0 0 0 1 0 0 0 0.1 0"/>
            <feBlend in2="BackgroundImageFix" result="effect1_dropShadow"/>
            <feBlend in="SourceGraphic" in2="effect1_dropShadow" result="shape"/>
        </filter>
        <filter id="filter3_d" width="130" height="104" x="372" y="54" color-interpolation-filters="sRGB" filterUnits="userSpaceOnUse">
            <feFlood flood-opacity="0" result="BackgroundImageFix"/>
            <feColorMatrix in="SourceAlpha" values="0 0 0 0 0 0 0 0 0 0 0 0 0 0 0 0 0 0 127 0"/>
            <feOffset dy="4"/>
            <feGaussianBlur stdDeviation="7.5"/>
            <feColorMatrix values="0 0 0 0 1 0 0 0 0 1 0 0 0 0 1 0 0 0 0.1 0"/>
            <feBlend in2="BackgroundImageFix" result="effect1_dropShadow"/>
            <feBlend in="SourceGraphic" in2="effect1_dropShadow" result="shape"/>
        </filter>
    </defs>
</svg>
