<svg width="464" height="169" viewBox="0 0 464 169" fill="none" xmlns="http://www.w3.org/2000/svg">
<path d="M19.4021 128.18C18.7941 128.18 18.2441 128.076 17.7521 127.868C17.2601 127.66 16.8541 127.362 16.5341 126.974C16.2181 126.586 16.0121 126.13 15.9161 125.606L17.0201 125.432C17.1121 125.792 17.2721 126.102 17.5001 126.362C17.7321 126.622 18.0161 126.822 18.3521 126.962C18.6881 127.098 19.0561 127.166 19.4561 127.166C19.8441 127.166 20.1961 127.104 20.5121 126.98C20.8281 126.856 21.0761 126.68 21.2561 126.452C21.4401 126.224 21.5321 125.956 21.5321 125.648C21.5321 125.304 21.4221 125.034 21.2021 124.838C20.9821 124.642 20.6901 124.49 20.3261 124.382L18.1241 123.728C17.5641 123.564 17.1121 123.316 16.7681 122.984C16.4241 122.652 16.2521 122.194 16.2521 121.61C16.2521 121.11 16.3821 120.678 16.6421 120.314C16.9061 119.946 17.2661 119.666 17.7221 119.474C18.1821 119.278 18.7001 119.182 19.2761 119.186C19.8521 119.19 20.3701 119.294 20.8301 119.498C21.2941 119.698 21.6761 119.988 21.9761 120.368C22.2761 120.744 22.4781 121.192 22.5821 121.712L21.4481 121.91C21.3881 121.566 21.2541 121.264 21.0461 121.004C20.8381 120.744 20.5761 120.546 20.2601 120.41C19.9481 120.27 19.6061 120.2 19.2341 120.2C18.8861 120.2 18.5701 120.26 18.2861 120.38C18.0061 120.496 17.7841 120.658 17.6201 120.866C17.4601 121.07 17.3801 121.302 17.3801 121.562C17.3801 121.81 17.4501 122.016 17.5901 122.18C17.7301 122.344 17.9001 122.472 18.1001 122.564C18.3041 122.656 18.5441 122.74 18.8201 122.816L20.4641 123.29C20.8361 123.394 21.1721 123.52 21.4721 123.668C21.7761 123.812 22.0461 124.042 22.2821 124.358C22.5181 124.67 22.6361 125.08 22.6361 125.588C22.6361 126.128 22.4941 126.594 22.2101 126.986C21.9261 127.378 21.5381 127.676 21.0461 127.88C20.5581 128.08 20.0101 128.18 19.4021 128.18ZM25.5567 125.504V125.852C25.5567 126.056 25.5647 126.22 25.5807 126.344C25.5967 126.468 25.6327 126.576 25.6887 126.668C25.7847 126.84 25.9207 126.964 26.0967 127.04C26.2767 127.116 26.4967 127.154 26.7567 127.154C26.9447 127.154 27.1967 127.13 27.5127 127.082V128C27.1807 128.068 26.8607 128.102 26.5527 128.102C26.1247 128.102 25.7487 128.032 25.4247 127.892C25.1047 127.748 24.8667 127.524 24.7107 127.22C24.6187 127.04 24.5587 126.856 24.5307 126.668C24.5027 126.48 24.4887 126.246 24.4887 125.966V125.552V122.402H23.1747V121.52H24.4887V119.72H25.5567V121.52H27.5127V122.402H25.5567V125.504ZM30.3343 121.916C30.5143 121.772 30.7263 121.662 30.9703 121.586C31.2143 121.51 31.4603 121.472 31.7083 121.472C31.8643 121.472 32.0183 121.488 32.1703 121.52V122.522C32.0023 122.482 31.8403 122.462 31.6843 122.462C31.2963 122.462 30.9643 122.564 30.6883 122.768C30.3963 122.976 30.1923 123.25 30.0763 123.59C29.9603 123.926 29.9023 124.312 29.9023 124.748V128H28.8283V121.52H29.7823V122.546C29.9343 122.282 30.1183 122.072 30.3343 121.916ZM33.9737 125.06C34.0177 125.736 34.2077 126.256 34.5437 126.62C34.8837 126.984 35.3517 127.166 35.9477 127.166C36.3717 127.166 36.7417 127.068 37.0577 126.872C37.3777 126.676 37.6277 126.394 37.8077 126.026L38.8337 126.38C38.5817 126.948 38.2037 127.39 37.6997 127.706C37.1957 128.022 36.6277 128.18 35.9957 128.18C35.3637 128.18 34.8077 128.04 34.3277 127.76C33.8517 127.48 33.4817 127.084 33.2177 126.572C32.9577 126.06 32.8277 125.47 32.8277 124.802C32.8277 124.102 32.9557 123.492 33.2117 122.972C33.4717 122.448 33.8357 122.046 34.3037 121.766C34.7757 121.482 35.3237 121.34 35.9477 121.34C36.5677 121.34 37.1017 121.48 37.5497 121.76C38.0017 122.036 38.3477 122.434 38.5877 122.954C38.8277 123.47 38.9477 124.084 38.9477 124.796C38.9477 124.912 38.9457 125 38.9417 125.06H33.9737ZM35.9837 122.3C35.4037 122.3 34.9457 122.462 34.6097 122.786C34.2737 123.11 34.0677 123.582 33.9917 124.202H37.8317C37.6997 122.934 37.0837 122.3 35.9837 122.3ZM43.2157 121.352C43.8637 121.352 44.3797 121.512 44.7637 121.832C45.1477 122.152 45.4157 122.544 45.5677 123.008C45.7197 123.468 45.7957 123.938 45.7957 124.418V128H44.7157V124.754C44.7157 124.058 44.5797 123.486 44.3077 123.038C44.0397 122.59 43.5897 122.366 42.9577 122.366C42.4057 122.366 41.9697 122.554 41.6497 122.93C41.3337 123.302 41.1757 123.854 41.1757 124.586V128H40.0957V121.52H41.0557V122.354C41.2997 122.03 41.6037 121.782 41.9677 121.61C42.3357 121.438 42.7517 121.352 43.2157 121.352ZM52.8756 121.52V128.042C52.8756 128.43 52.8496 128.762 52.7976 129.038C52.6736 129.714 52.3696 130.22 51.8856 130.556C51.4016 130.892 50.7656 131.06 49.9776 131.06C49.4456 131.06 48.9496 130.938 48.4896 130.694C48.0336 130.454 47.6756 130.102 47.4156 129.638L48.3936 129.122C48.5456 129.426 48.7636 129.652 49.0476 129.8C49.3356 129.952 49.6476 130.028 49.9836 130.028C51.2076 130.028 51.8136 129.362 51.8016 128.03V127.406C51.5656 127.654 51.2876 127.846 50.9676 127.982C50.6476 128.114 50.2916 128.18 49.8996 128.18C49.3076 128.18 48.7916 128.032 48.3516 127.736C47.9156 127.436 47.5796 127.028 47.3436 126.512C47.1116 125.992 46.9956 125.406 46.9956 124.754C46.9956 124.106 47.1116 123.524 47.3436 123.008C47.5796 122.488 47.9156 122.08 48.3516 121.784C48.7916 121.488 49.3056 121.34 49.8936 121.34C50.3256 121.34 50.7116 121.418 51.0516 121.574C51.3916 121.73 51.6836 121.954 51.9276 122.246V121.52H52.8756ZM50.0316 127.202C50.6596 127.202 51.1316 126.98 51.4476 126.536C51.7676 126.092 51.9276 125.498 51.9276 124.754C51.9276 124.01 51.7696 123.418 51.4536 122.978C51.1376 122.538 50.6736 122.318 50.0616 122.318C49.6376 122.318 49.2796 122.424 48.9876 122.636C48.6996 122.848 48.4836 123.138 48.3396 123.506C48.1996 123.87 48.1296 124.286 48.1296 124.754C48.1296 125.226 48.1996 125.646 48.3396 126.014C48.4836 126.382 48.6976 126.672 48.9816 126.884C49.2696 127.096 49.6196 127.202 50.0316 127.202ZM56.2129 125.504V125.852C56.2129 126.056 56.2209 126.22 56.2369 126.344C56.2529 126.468 56.2889 126.576 56.3449 126.668C56.4409 126.84 56.5769 126.964 56.7529 127.04C56.9329 127.116 57.1529 127.154 57.4129 127.154C57.6009 127.154 57.8529 127.13 58.1689 127.082V128C57.8369 128.068 57.5169 128.102 57.2089 128.102C56.7809 128.102 56.4049 128.032 56.0809 127.892C55.7609 127.748 55.5229 127.524 55.3669 127.22C55.2749 127.04 55.2149 126.856 55.1869 126.668C55.1589 126.48 55.1449 126.246 55.1449 125.966V125.552V122.402H53.8309V121.52H55.1449V119.72H56.2129V121.52H58.1689V122.402H56.2129V125.504ZM62.5985 121.352C63.2465 121.352 63.7625 121.512 64.1465 121.832C64.5305 122.152 64.7985 122.544 64.9505 123.008C65.1025 123.468 65.1785 123.938 65.1785 124.418V128H64.0985V124.754C64.0985 124.058 63.9625 123.486 63.6905 123.038C63.4225 122.59 62.9725 122.366 62.3405 122.366C61.7885 122.366 61.3525 122.554 61.0325 122.93C60.7165 123.302 60.5585 123.854 60.5585 124.586V128H59.4785V119.36H60.4385V122.354C60.6825 122.03 60.9865 121.782 61.3505 121.61C61.7185 121.438 62.1345 121.352 62.5985 121.352ZM67.5244 125.06C67.5684 125.736 67.7584 126.256 68.0944 126.62C68.4344 126.984 68.9024 127.166 69.4984 127.166C69.9224 127.166 70.2924 127.068 70.6084 126.872C70.9284 126.676 71.1784 126.394 71.3584 126.026L72.3844 126.38C72.1324 126.948 71.7544 127.39 71.2504 127.706C70.7464 128.022 70.1784 128.18 69.5464 128.18C68.9144 128.18 68.3584 128.04 67.8784 127.76C67.4024 127.48 67.0324 127.084 66.7684 126.572C66.5084 126.06 66.3784 125.47 66.3784 124.802C66.3784 124.102 66.5064 123.492 66.7624 122.972C67.0224 122.448 67.3864 122.046 67.8544 121.766C68.3264 121.482 68.8744 121.34 69.4984 121.34C70.1184 121.34 70.6524 121.48 71.1004 121.76C71.5524 122.036 71.8984 122.434 72.1384 122.954C72.3784 123.47 72.4984 124.084 72.4984 124.796C72.4984 124.912 72.4964 125 72.4924 125.06H67.5244ZM69.5344 122.3C68.9544 122.3 68.4964 122.462 68.1604 122.786C67.8244 123.11 67.6184 123.582 67.5424 124.202H71.3824C71.2504 122.934 70.6344 122.3 69.5344 122.3ZM76.7665 121.352C77.4145 121.352 77.9305 121.512 78.3145 121.832C78.6985 122.152 78.9665 122.544 79.1185 123.008C79.2705 123.468 79.3465 123.938 79.3465 124.418V128H78.2665V124.754C78.2665 124.058 78.1305 123.486 77.8585 123.038C77.5905 122.59 77.1405 122.366 76.5085 122.366C75.9565 122.366 75.5205 122.554 75.2005 122.93C74.8845 123.302 74.7265 123.854 74.7265 124.586V128H73.6465V121.52H74.6065V122.354C74.8505 122.03 75.1545 121.782 75.5185 121.61C75.8865 121.438 76.3025 121.352 76.7665 121.352ZM81.0264 119.27H82.0944V120.374H81.0264V119.27ZM81.0264 121.52H82.0944V128H81.0264V121.52ZM87.0087 121.352C87.6567 121.352 88.1727 121.512 88.5567 121.832C88.9407 122.152 89.2087 122.544 89.3607 123.008C89.5127 123.468 89.5887 123.938 89.5887 124.418V128H88.5087V124.754C88.5087 124.058 88.3727 123.486 88.1007 123.038C87.8327 122.59 87.3827 122.366 86.7507 122.366C86.1987 122.366 85.7627 122.554 85.4427 122.93C85.1267 123.302 84.9687 123.854 84.9687 124.586V128H83.8887V121.52H84.8487V122.354C85.0927 122.03 85.3967 121.782 85.7607 121.61C86.1287 121.438 86.5447 121.352 87.0087 121.352ZM96.6686 121.52V128.042C96.6686 128.43 96.6426 128.762 96.5906 129.038C96.4666 129.714 96.1626 130.22 95.6786 130.556C95.1946 130.892 94.5586 131.06 93.7706 131.06C93.2386 131.06 92.7426 130.938 92.2826 130.694C91.8266 130.454 91.4686 130.102 91.2086 129.638L92.1866 129.122C92.3386 129.426 92.5566 129.652 92.8406 129.8C93.1286 129.952 93.4406 130.028 93.7766 130.028C95.0006 130.028 95.6066 129.362 95.5946 128.03V127.406C95.3586 127.654 95.0806 127.846 94.7606 127.982C94.4406 128.114 94.0846 128.18 93.6926 128.18C93.1006 128.18 92.5846 128.032 92.1446 127.736C91.7086 127.436 91.3726 127.028 91.1366 126.512C90.9046 125.992 90.7886 125.406 90.7886 124.754C90.7886 124.106 90.9046 123.524 91.1366 123.008C91.3726 122.488 91.7086 122.08 92.1446 121.784C92.5846 121.488 93.0986 121.34 93.6866 121.34C94.1186 121.34 94.5046 121.418 94.8446 121.574C95.1846 121.73 95.4766 121.954 95.7206 122.246V121.52H96.6686ZM93.8246 127.202C94.4526 127.202 94.9246 126.98 95.2406 126.536C95.5606 126.092 95.7206 125.498 95.7206 124.754C95.7206 124.01 95.5626 123.418 95.2466 122.978C94.9306 122.538 94.4666 122.318 93.8546 122.318C93.4306 122.318 93.0726 122.424 92.7806 122.636C92.4926 122.848 92.2766 123.138 92.1326 123.506C91.9926 123.87 91.9226 124.286 91.9226 124.754C91.9226 125.226 91.9926 125.646 92.1326 126.014C92.2766 126.382 92.4906 126.672 92.7746 126.884C93.0626 127.096 93.4126 127.202 93.8246 127.202ZM43.8835 139.428C44.3195 139.612 44.6575 139.888 44.8975 140.256C45.1415 140.624 45.2635 141.048 45.2635 141.528C45.2635 142.028 45.1595 142.464 44.9515 142.836C44.7435 143.208 44.4455 143.496 44.0575 143.7C43.6735 143.9 43.2195 144 42.6955 144H39.0295V135.36H42.3955C42.8955 135.36 43.3295 135.464 43.6975 135.672C44.0695 135.88 44.3535 136.158 44.5495 136.506C44.7495 136.854 44.8495 137.23 44.8495 137.634C44.8495 138.026 44.7635 138.38 44.5915 138.696C44.4235 139.008 44.1875 139.252 43.8835 139.428ZM40.1095 138.966H42.3835C42.6395 138.966 42.8715 138.912 43.0795 138.804C43.2875 138.692 43.4515 138.536 43.5715 138.336C43.6915 138.132 43.7515 137.898 43.7515 137.634C43.7515 137.39 43.6935 137.172 43.5775 136.98C43.4615 136.788 43.2995 136.638 43.0915 136.53C42.8875 136.422 42.6515 136.368 42.3835 136.368H40.1095V138.966ZM42.4915 142.98C42.8115 142.98 43.0975 142.922 43.3495 142.806C43.6055 142.686 43.8055 142.516 43.9495 142.296C44.0935 142.076 44.1655 141.818 44.1655 141.522C44.1655 141.234 44.0995 140.972 43.9675 140.736C43.8355 140.5 43.6515 140.314 43.4155 140.178C43.1795 140.042 42.9115 139.974 42.6115 139.974H40.1095V142.98H42.4915ZM51.4391 138.606C51.5231 138.79 51.5791 138.994 51.6071 139.218C51.6351 139.438 51.6491 139.696 51.6491 139.992V144H50.7011V142.992C50.1851 143.784 49.3851 144.18 48.3011 144.18C47.8331 144.18 47.4331 144.094 47.1011 143.922C46.7691 143.746 46.5191 143.512 46.3511 143.22C46.1831 142.928 46.0991 142.604 46.0991 142.248C46.0991 141.292 46.6291 140.658 47.6891 140.346C48.0011 140.262 48.3591 140.188 48.7631 140.124C49.1671 140.06 49.6511 139.99 50.2151 139.914L50.5991 139.86C50.5831 139.336 50.4511 138.952 50.2031 138.708C49.9551 138.46 49.5551 138.336 49.0031 138.336C48.5951 138.336 48.2451 138.43 47.9531 138.618C47.6651 138.802 47.4651 139.086 47.3531 139.47L46.3391 139.164C46.4951 138.584 46.7991 138.136 47.2511 137.82C47.7071 137.5 48.2951 137.34 49.0151 137.34C49.6111 137.34 50.1171 137.448 50.5331 137.664C50.9531 137.876 51.2551 138.19 51.4391 138.606ZM48.4631 143.286C48.8351 143.286 49.1631 143.22 49.4471 143.088C49.7311 142.952 49.9611 142.772 50.1371 142.548C50.3131 142.32 50.4271 142.068 50.4791 141.792C50.5191 141.656 50.5451 141.504 50.5571 141.336C50.5731 141.168 50.5831 140.98 50.5871 140.772L50.2931 140.808C49.7291 140.884 49.2951 140.946 48.9911 140.994C48.6911 141.042 48.4171 141.102 48.1691 141.174C47.8611 141.27 47.6151 141.402 47.4311 141.57C47.2511 141.738 47.1611 141.962 47.1611 142.242C47.1611 142.43 47.2071 142.604 47.2991 142.764C47.3911 142.92 47.5351 143.046 47.7311 143.142C47.9271 143.238 48.1711 143.286 48.4631 143.286ZM55.6571 144.174C55.1451 144.174 54.6911 144.098 54.2951 143.946C53.8991 143.794 53.5771 143.574 53.3291 143.286C53.0811 142.998 52.9211 142.652 52.8491 142.248L53.9411 142.074C54.0291 142.43 54.2311 142.71 54.5471 142.914C54.8631 143.118 55.2551 143.22 55.7231 143.22C56.1631 143.22 56.5091 143.13 56.7611 142.95C57.0171 142.766 57.1451 142.514 57.1451 142.194C57.1451 142.002 57.1011 141.852 57.0131 141.744C56.9291 141.636 56.7631 141.534 56.5151 141.438C56.2671 141.338 55.8671 141.214 55.3151 141.066C54.7351 140.91 54.2831 140.752 53.9591 140.592C53.6351 140.428 53.4031 140.24 53.2631 140.028C53.1231 139.816 53.0531 139.552 53.0531 139.236C53.0531 138.86 53.1571 138.53 53.3651 138.246C53.5731 137.958 53.8651 137.736 54.2411 137.58C54.6171 137.42 55.0511 137.34 55.5431 137.34C56.0311 137.34 56.4691 137.42 56.8571 137.58C57.2491 137.736 57.5631 137.958 57.7991 138.246C58.0391 138.53 58.1811 138.86 58.2251 139.236L57.1331 139.434C57.0811 139.082 56.9051 138.804 56.6051 138.6C56.3091 138.396 55.9291 138.294 55.4651 138.294C55.2011 138.294 54.9671 138.332 54.7631 138.408C54.5631 138.48 54.4071 138.584 54.2951 138.72C54.1831 138.852 54.1271 139.006 54.1271 139.182C54.1271 139.346 54.1751 139.482 54.2711 139.59C54.3711 139.698 54.5511 139.802 54.8111 139.902C55.0711 139.998 55.4611 140.112 55.9811 140.244C56.5611 140.392 57.0131 140.55 57.3371 140.718C57.6611 140.886 57.8931 141.084 58.0331 141.312C58.1771 141.54 58.2491 141.824 58.2491 142.164C58.2491 142.58 58.1451 142.94 57.9371 143.244C57.7291 143.544 57.4311 143.774 57.0431 143.934C56.6551 144.094 56.1931 144.174 55.6571 144.174ZM59.6924 135.27H60.7604V136.374H59.6924V135.27ZM59.6924 137.52H60.7604V144H59.6924V137.52ZM65.2907 144.18C64.6467 144.18 64.0927 144.036 63.6287 143.748C63.1687 143.456 62.8167 143.052 62.5727 142.536C62.3327 142.02 62.2087 141.428 62.2007 140.76C62.2087 140.084 62.3347 139.488 62.5787 138.972C62.8267 138.456 63.1827 138.056 63.6467 137.772C64.1107 137.484 64.6627 137.34 65.3027 137.34C65.7547 137.34 66.1687 137.416 66.5447 137.568C66.9207 137.72 67.2387 137.938 67.4987 138.222C67.7627 138.506 67.9507 138.84 68.0627 139.224L67.0067 139.542C66.8707 139.17 66.6487 138.88 66.3407 138.672C66.0367 138.46 65.6867 138.354 65.2907 138.354C64.6467 138.354 64.1607 138.572 63.8327 139.008C63.5087 139.444 63.3427 140.028 63.3347 140.76C63.3427 141.504 63.5127 142.092 63.8447 142.524C64.1807 142.952 64.6627 143.166 65.2907 143.166C66.1187 143.166 66.6827 142.788 66.9827 142.032L68.0627 142.314C67.8347 142.918 67.4827 143.38 67.0067 143.7C66.5307 144.02 65.9587 144.18 65.2907 144.18ZM71.7353 144.174C71.2233 144.174 70.7693 144.098 70.3733 143.946C69.9773 143.794 69.6553 143.574 69.4073 143.286C69.1593 142.998 68.9993 142.652 68.9273 142.248L70.0193 142.074C70.1073 142.43 70.3093 142.71 70.6253 142.914C70.9413 143.118 71.3333 143.22 71.8013 143.22C72.2413 143.22 72.5873 143.13 72.8393 142.95C73.0953 142.766 73.2233 142.514 73.2233 142.194C73.2233 142.002 73.1793 141.852 73.0913 141.744C73.0073 141.636 72.8413 141.534 72.5933 141.438C72.3453 141.338 71.9453 141.214 71.3933 141.066C70.8133 140.91 70.3613 140.752 70.0373 140.592C69.7133 140.428 69.4813 140.24 69.3413 140.028C69.2013 139.816 69.1313 139.552 69.1313 139.236C69.1313 138.86 69.2353 138.53 69.4433 138.246C69.6513 137.958 69.9433 137.736 70.3193 137.58C70.6953 137.42 71.1293 137.34 71.6213 137.34C72.1093 137.34 72.5473 137.42 72.9353 137.58C73.3273 137.736 73.6413 137.958 73.8773 138.246C74.1173 138.53 74.2593 138.86 74.3033 139.236L73.2113 139.434C73.1593 139.082 72.9833 138.804 72.6833 138.6C72.3873 138.396 72.0073 138.294 71.5433 138.294C71.2793 138.294 71.0453 138.332 70.8413 138.408C70.6413 138.48 70.4853 138.584 70.3733 138.72C70.2613 138.852 70.2053 139.006 70.2053 139.182C70.2053 139.346 70.2533 139.482 70.3493 139.59C70.4493 139.698 70.6293 139.802 70.8893 139.902C71.1493 139.998 71.5393 140.112 72.0593 140.244C72.6393 140.392 73.0913 140.55 73.4153 140.718C73.7393 140.886 73.9713 141.084 74.1113 141.312C74.2553 141.54 74.3273 141.824 74.3273 142.164C74.3273 142.58 74.2233 142.94 74.0153 143.244C73.8073 143.544 73.5093 143.774 73.1213 143.934C72.7333 144.094 72.2713 144.174 71.7353 144.174Z" fill="white"/>
<path opacity="0.2" d="M4.91828 120.876L1.67828 122.856V119.664L4.91828 117.72H7.87028V135H4.91828V120.876Z" fill="white"/>
<path opacity="0.2" d="M149.028 157.252H156.444V159.976H144.552V157.456L151.944 150.868C152.488 150.38 152.88 149.908 153.12 149.452C153.36 148.996 153.48 148.544 153.48 148.096C153.48 147.528 153.356 147.016 153.108 146.56C152.868 146.096 152.524 145.736 152.076 145.48C151.636 145.216 151.136 145.084 150.576 145.084C149.992 145.084 149.464 145.224 148.992 145.504C148.528 145.776 148.168 146.14 147.912 146.596C147.656 147.052 147.536 147.544 147.552 148.072H144.576C144.576 146.936 144.832 145.936 145.344 145.072C145.856 144.208 146.568 143.54 147.48 143.068C148.4 142.596 149.452 142.36 150.636 142.36C151.732 142.36 152.72 142.608 153.6 143.104C154.488 143.592 155.184 144.276 155.688 145.156C156.192 146.028 156.444 147.02 156.444 148.132C156.444 148.924 156.336 149.6 156.12 150.16C155.904 150.712 155.6 151.208 155.208 151.648C154.816 152.088 154.232 152.648 153.456 153.328L149.028 157.252Z" fill="white"/>
<path opacity="0.2" d="M221.355 91.2C222.219 91.376 222.967 91.724 223.599 92.244C224.231 92.756 224.711 93.392 225.039 94.152C225.375 94.904 225.543 95.72 225.543 96.6C225.543 97.672 225.279 98.644 224.751 99.516C224.223 100.388 223.507 101.076 222.603 101.58C221.707 102.076 220.723 102.324 219.651 102.324C218.787 102.324 217.967 102.156 217.191 101.82C216.423 101.476 215.755 100.996 215.187 100.38C214.627 99.756 214.227 99.032 213.987 98.208L216.783 97.452C216.975 98.124 217.335 98.652 217.863 99.036C218.391 99.412 218.983 99.596 219.639 99.588C220.199 99.588 220.703 99.456 221.151 99.192C221.599 98.928 221.951 98.572 222.207 98.124C222.471 97.668 222.603 97.16 222.603 96.6C222.603 96.04 222.475 95.532 222.219 95.076C221.971 94.612 221.619 94.248 221.163 93.984C220.715 93.72 220.207 93.588 219.639 93.588C219.135 93.588 218.635 93.724 218.139 93.996L216.819 91.716L221.811 87.444H214.659V84.72H225.255V87.456L221.355 91.2Z" fill="white"/>
<path opacity="0.2" d="M348.055 89.144H340.399V86.444L345.931 74.72H349.231L343.699 86.444H348.055V81.944H350.983V86.444H352.603V89.144H350.983V92H348.055V89.144Z" fill="white"/>
<path opacity="0.2" d="M298.777 14.912C299.841 14.912 300.793 15.156 301.633 15.644C302.481 16.132 303.141 16.804 303.613 17.66C304.093 18.516 304.333 19.48 304.333 20.552C304.333 21.608 304.053 22.58 303.493 23.468C302.941 24.356 302.201 25.06 301.273 25.58C300.345 26.1 299.345 26.36 298.273 26.36C297.409 26.36 296.593 26.18 295.825 25.82C295.057 25.46 294.397 24.956 293.845 24.308C293.293 23.66 292.901 22.916 292.669 22.076L295.453 21.332C295.565 21.78 295.769 22.176 296.065 22.52C296.361 22.864 296.713 23.128 297.121 23.312C297.529 23.496 297.949 23.588 298.381 23.588C298.933 23.588 299.441 23.452 299.905 23.18C300.377 22.908 300.749 22.54 301.021 22.076C301.293 21.604 301.429 21.096 301.429 20.552C301.429 20 301.289 19.496 301.009 19.04C300.737 18.576 300.365 18.208 299.893 17.936C299.429 17.664 298.925 17.528 298.381 17.528C297.773 17.528 297.249 17.636 296.809 17.852C296.369 18.068 296.009 18.336 295.729 18.656L293.257 17.864L293.785 8.72H303.169V11.432H296.353L296.089 15.68C296.497 15.432 296.933 15.244 297.397 15.116C297.869 14.98 298.329 14.912 298.777 14.912Z" fill="white"/>
<path d="M14.9765 23.165C14.2028 23.165 13.5428 22.9927 12.9965 22.648C12.4502 22.3033 12.0358 21.8212 11.7535 21.2015C11.4712 20.5782 11.33 19.8577 11.33 19.04C11.33 18.2223 11.4712 17.5037 11.7535 16.884C12.0358 16.2607 12.4502 15.7767 12.9965 15.432C13.5428 15.0873 14.2028 14.915 14.9765 14.915C15.5778 14.915 16.1113 15.0213 16.577 15.234C17.0463 15.443 17.435 15.7418 17.743 16.1305C18.0547 16.5192 18.2838 16.9812 18.4305 17.5165L17.6055 17.731C17.4332 17.0893 17.1252 16.5888 16.6815 16.2295C16.2378 15.8702 15.6695 15.6905 14.9765 15.6905C14.3715 15.6905 13.86 15.8298 13.442 16.1085C13.0277 16.3872 12.716 16.7777 12.507 17.28C12.298 17.7823 12.1898 18.369 12.1825 19.04C12.1788 19.7073 12.2815 20.294 12.4905 20.8C12.7032 21.3023 13.0185 21.6928 13.4365 21.9715C13.8582 22.2502 14.3715 22.3895 14.9765 22.3895C15.6695 22.3895 16.2378 22.2098 16.6815 21.8505C17.1252 21.4912 17.4332 20.9907 17.6055 20.349L18.4305 20.5635C18.2838 21.0988 18.0547 21.5608 17.743 21.9495C17.435 22.3382 17.0463 22.6388 16.577 22.8515C16.1113 23.0605 15.5778 23.165 14.9765 23.165ZM23.6755 23.165C22.9019 23.165 22.2419 22.9927 21.6955 22.648C21.1492 22.3033 20.7349 21.8212 20.4525 21.2015C20.1702 20.5782 20.029 19.8577 20.029 19.04C20.029 18.2223 20.1702 17.5037 20.4525 16.884C20.7349 16.2607 21.1492 15.7767 21.6955 15.432C22.2419 15.0873 22.9019 14.915 23.6755 14.915C24.4492 14.915 25.1092 15.0873 25.6555 15.432C26.2055 15.7767 26.6217 16.2607 26.904 16.884C27.1864 17.5037 27.3275 18.2223 27.3275 19.04C27.3275 19.8577 27.1864 20.5782 26.904 21.2015C26.6217 21.8212 26.2055 22.3033 25.6555 22.648C25.1092 22.9927 24.4492 23.165 23.6755 23.165ZM23.6755 22.3895C24.2805 22.3895 24.792 22.2502 25.21 21.9715C25.628 21.6928 25.9415 21.3023 26.1505 20.8C26.3632 20.2977 26.4695 19.711 26.4695 19.04C26.4695 18.3727 26.3632 17.7878 26.1505 17.2855C25.9415 16.7832 25.628 16.3927 25.21 16.114C24.792 15.8353 24.2805 15.6942 23.6755 15.6905C23.0705 15.6905 22.5609 15.8298 22.1465 16.1085C21.7322 16.3872 21.4205 16.7777 21.2115 17.28C21.0025 17.7823 20.8944 18.369 20.887 19.04C20.8797 19.7073 20.9805 20.2922 21.1895 20.7945C21.4022 21.2968 21.7175 21.6873 22.1355 21.966C22.5572 22.2447 23.0705 22.3858 23.6755 22.3895ZM31.6575 15.08C32.0828 15.08 32.422 15.0965 32.675 15.1295C33.258 15.2102 33.753 15.4302 34.16 15.7895C34.5707 16.1488 34.8787 16.609 35.084 17.17C35.2893 17.731 35.392 18.3543 35.392 19.04C35.392 19.7293 35.2893 20.3545 35.084 20.9155C34.8787 21.4765 34.5725 21.9367 34.1655 22.296C33.7585 22.6517 33.2617 22.8698 32.675 22.9505C32.4293 22.9835 32.0902 23 31.6575 23H29.254V15.08H31.6575ZM31.6575 22.2245C32.0572 22.2245 32.3688 22.2025 32.5925 22.1585C33.2525 22.0448 33.7402 21.7075 34.0555 21.1465C34.3745 20.5855 34.534 19.8833 34.534 19.04C34.534 18.193 34.3745 17.4908 34.0555 16.9335C33.7365 16.3762 33.2488 16.0388 32.5925 15.9215C32.3688 15.8775 32.0572 15.8555 31.6575 15.8555H30.09V22.2245H31.6575ZM37.5796 15.08H38.3881V23H37.5796V15.08ZM40.862 15.08H41.676L46.0375 21.57V15.08H46.8515V23H46.0375L41.676 16.5045V23H40.862V15.08ZM52.3908 23.165C51.6501 23.165 51.0084 22.9963 50.4658 22.659C49.9231 22.3217 49.5051 21.8432 49.2118 21.2235C48.9221 20.6002 48.7773 19.8723 48.7773 19.04C48.7773 18.2113 48.9203 17.4872 49.2063 16.8675C49.4959 16.2478 49.9121 15.7693 50.4548 15.432C51.0011 15.091 51.6464 14.9205 52.3908 14.9205C53.2121 14.9205 53.8904 15.113 54.4258 15.498C54.9648 15.883 55.3424 16.4165 55.5588 17.0985L54.7448 17.2965C54.5651 16.8015 54.2754 16.4128 53.8758 16.1305C53.4761 15.8445 52.9921 15.7015 52.4238 15.7015C51.8188 15.6978 51.3091 15.8353 50.8948 16.114C50.4804 16.389 50.1688 16.7777 49.9598 17.28C49.7508 17.7823 49.6426 18.369 49.6353 19.04C49.6279 19.7073 49.7288 20.2922 49.9378 20.7945C50.1504 21.2968 50.4658 21.6873 50.8838 21.966C51.3054 22.2447 51.8188 22.3858 52.4238 22.3895C53.2488 22.3932 53.8739 22.1567 54.2993 21.68C54.7246 21.2033 54.9593 20.5287 55.0033 19.656H53.1773V18.963H55.8503C55.8649 19.1133 55.8723 19.2692 55.8723 19.4305C55.8723 20.1565 55.7403 20.8018 55.4763 21.3665C55.2159 21.9275 54.8254 22.3675 54.3048 22.6865C53.7841 23.0055 53.1461 23.165 52.3908 23.165ZM19.568 39L17.435 34.608H14.708V39H12.26V26.04H17.732C18.146 26.04 18.506 26.064 18.812 26.112C19.934 26.286 20.771 26.748 21.323 27.498C21.881 28.242 22.16 29.184 22.16 30.324C22.16 31.23 21.98 32.019 21.62 32.691C21.26 33.363 20.72 33.864 20 34.194L22.34 39H19.568ZM14.708 32.322H17.624C17.966 32.322 18.242 32.292 18.452 32.232C18.902 32.112 19.22 31.872 19.406 31.512C19.598 31.146 19.694 30.75 19.694 30.324C19.694 29.898 19.598 29.505 19.406 29.145C19.22 28.779 18.902 28.536 18.452 28.416C18.242 28.356 17.966 28.326 17.624 28.326H14.708V32.322ZM29.8806 39.27C28.6026 39.27 27.4896 38.991 26.5416 38.433C25.5936 37.869 24.8646 37.077 24.3546 36.057C23.8506 35.037 23.5986 33.858 23.5986 32.52C23.5986 31.182 23.8506 30.003 24.3546 28.983C24.8646 27.963 25.5936 27.174 26.5416 26.616C27.4896 26.052 28.6026 25.77 29.8806 25.77C31.1586 25.77 32.2716 26.052 33.2196 26.616C34.1676 27.174 34.8936 27.963 35.3976 28.983C35.9076 30.003 36.1626 31.182 36.1626 32.52C36.1626 33.858 35.9076 35.037 35.3976 36.057C34.8936 37.077 34.1676 37.869 33.2196 38.433C32.2716 38.991 31.1586 39.27 29.8806 39.27ZM29.8806 36.966C30.6846 36.978 31.3626 36.804 31.9146 36.444C32.4666 36.078 32.8806 35.562 33.1566 34.896C33.4326 34.224 33.5706 33.432 33.5706 32.52C33.5706 31.14 33.2586 30.06 32.6346 29.28C32.0106 28.494 31.0926 28.092 29.8806 28.074C29.0766 28.062 28.3986 28.239 27.8466 28.605C27.2946 28.965 26.8806 29.481 26.6046 30.153C26.3286 30.819 26.1906 31.608 26.1906 32.52C26.1906 33.9 26.5026 34.983 27.1266 35.769C27.7506 36.549 28.6686 36.948 29.8806 36.966ZM45.7617 39L44.9247 36.3H40.0467L39.2277 39H36.7077L40.6677 26.04H44.3217L48.2817 39H45.7617ZM40.7397 34.014H44.2227L42.4677 28.335L40.7397 34.014ZM54.0888 26.04C54.7248 26.04 55.2408 26.064 55.6368 26.112C56.6508 26.232 57.5238 26.589 58.2558 27.183C58.9938 27.777 59.5548 28.539 59.9388 29.469C60.3228 30.393 60.5148 31.41 60.5148 32.52C60.5148 33.63 60.3228 34.65 59.9388 35.58C59.5548 36.504 58.9938 37.263 58.2558 37.857C57.5238 38.451 56.6508 38.808 55.6368 38.928C55.2408 38.976 54.7248 39 54.0888 39H49.8948V26.04H54.0888ZM54.0888 36.696C54.7248 36.696 55.1928 36.666 55.4928 36.606C56.0328 36.498 56.4828 36.243 56.8428 35.841C57.2088 35.433 57.4788 34.941 57.6528 34.365C57.8328 33.783 57.9228 33.168 57.9228 32.52C57.9228 31.854 57.8298 31.23 57.6438 30.648C57.4638 30.066 57.1908 29.577 56.8248 29.181C56.4648 28.785 56.0208 28.536 55.4928 28.434C55.1928 28.374 54.7248 28.344 54.0888 28.344H52.3788V36.696H54.0888ZM62.6741 26.04H64.8701L69.1541 34.644L73.4381 26.04H75.6341V39H73.3481V31.26L69.5861 39H68.7221L64.9601 31.26V39H62.6741V26.04ZM86.3144 39L85.4774 36.3H80.5994L79.7804 39H77.2604L81.2204 26.04H84.8744L88.8344 39H86.3144ZM81.2924 34.014H84.7754L83.0204 28.335L81.2924 34.014ZM95.9195 26.04C96.3335 26.04 96.6935 26.064 96.9995 26.112C98.1215 26.286 98.9585 26.748 99.5105 27.498C100.069 28.242 100.348 29.184 100.348 30.324C100.348 31.458 100.069 32.4 99.5105 33.15C98.9525 33.9 98.1155 34.362 96.9995 34.536C96.6935 34.584 96.3335 34.608 95.9195 34.608H92.8955V39H90.4475V26.04H95.9195ZM95.8115 32.322C96.1535 32.322 96.4295 32.292 96.6395 32.232C97.0895 32.112 97.4075 31.872 97.5935 31.512C97.7855 31.146 97.8815 30.75 97.8815 30.324C97.8815 29.898 97.7855 29.505 97.5935 29.145C97.4075 28.779 97.0895 28.536 96.6395 28.416C96.4295 28.356 96.1535 28.326 95.8115 28.326H92.8955V32.322H95.8115Z" fill="white" fill-opacity="0.9"/>
<path d="M168.557 147.36C168.785 147.36 168.997 147.376 169.193 147.408C169.649 147.48 170.037 147.64 170.357 147.888C170.677 148.132 170.919 148.444 171.083 148.824C171.247 149.2 171.329 149.62 171.329 150.084C171.329 150.548 171.247 150.97 171.083 151.35C170.919 151.726 170.675 152.038 170.351 152.286C170.031 152.53 169.645 152.688 169.193 152.76C168.997 152.792 168.785 152.808 168.557 152.808H166.211V156H165.143V147.36H168.557ZM168.521 151.794C168.725 151.794 168.905 151.776 169.061 151.74C169.449 151.652 169.741 151.452 169.937 151.14C170.137 150.828 170.237 150.476 170.237 150.084C170.237 149.692 170.137 149.34 169.937 149.028C169.741 148.716 169.449 148.516 169.061 148.428C168.905 148.392 168.725 148.374 168.521 148.374H166.211V151.794H168.521ZM174.032 149.916C174.212 149.772 174.424 149.662 174.668 149.586C174.912 149.51 175.158 149.472 175.406 149.472C175.562 149.472 175.716 149.488 175.868 149.52V150.522C175.7 150.482 175.538 150.462 175.382 150.462C174.994 150.462 174.662 150.564 174.386 150.768C174.094 150.976 173.89 151.25 173.774 151.59C173.658 151.926 173.6 152.312 173.6 152.748V156H172.526V149.52H173.48V150.546C173.632 150.282 173.816 150.072 174.032 149.916ZM177.671 153.06C177.715 153.736 177.905 154.256 178.241 154.62C178.581 154.984 179.049 155.166 179.645 155.166C180.069 155.166 180.439 155.068 180.755 154.872C181.075 154.676 181.325 154.394 181.505 154.026L182.531 154.38C182.279 154.948 181.901 155.39 181.397 155.706C180.893 156.022 180.325 156.18 179.693 156.18C179.061 156.18 178.505 156.04 178.025 155.76C177.549 155.48 177.179 155.084 176.915 154.572C176.655 154.06 176.525 153.47 176.525 152.802C176.525 152.102 176.653 151.492 176.909 150.972C177.169 150.448 177.533 150.046 178.001 149.766C178.473 149.482 179.021 149.34 179.645 149.34C180.265 149.34 180.799 149.48 181.247 149.76C181.699 150.036 182.045 150.434 182.285 150.954C182.525 151.47 182.645 152.084 182.645 152.796C182.645 152.912 182.643 153 182.639 153.06H177.671ZM179.681 150.3C179.101 150.3 178.643 150.462 178.307 150.786C177.971 151.11 177.765 151.582 177.689 152.202H181.529C181.397 150.934 180.781 150.3 179.681 150.3ZM183.855 151.776H187.455V152.658H183.855V151.776ZM192.566 156.18C191.722 156.18 190.996 155.992 190.388 155.616C189.784 155.24 189.324 154.714 189.008 154.038C188.692 153.358 188.534 152.572 188.534 151.68C188.534 150.788 188.692 150.004 189.008 149.328C189.324 148.648 189.784 148.12 190.388 147.744C190.996 147.368 191.722 147.18 192.566 147.18C193.222 147.18 193.806 147.294 194.318 147.522C194.83 147.75 195.258 148.076 195.602 148.5C195.95 148.92 196.206 149.418 196.37 149.994L195.284 150.282C195.104 149.622 194.784 149.11 194.324 148.746C193.864 148.382 193.278 148.2 192.566 148.2C191.938 148.2 191.406 148.344 190.97 148.632C190.538 148.92 190.212 149.326 189.992 149.85C189.776 150.37 189.666 150.98 189.662 151.68C189.658 152.376 189.764 152.986 189.98 153.51C190.2 154.034 190.528 154.44 190.964 154.728C191.4 155.016 191.934 155.16 192.566 155.16C193.278 155.16 193.864 154.978 194.324 154.614C194.784 154.25 195.104 153.738 195.284 153.078L196.37 153.366C196.206 153.942 195.95 154.442 195.602 154.866C195.258 155.286 194.83 155.61 194.318 155.838C193.806 156.066 193.222 156.18 192.566 156.18ZM200.446 156.18C199.81 156.18 199.256 156.036 198.784 155.748C198.316 155.456 197.956 155.052 197.704 154.536C197.452 154.016 197.326 153.422 197.326 152.754C197.326 152.082 197.454 151.488 197.71 150.972C197.966 150.456 198.33 150.056 198.802 149.772C199.274 149.484 199.822 149.34 200.446 149.34C201.082 149.34 201.636 149.484 202.108 149.772C202.58 150.06 202.942 150.462 203.194 150.978C203.446 151.494 203.572 152.086 203.572 152.754C203.572 153.43 203.444 154.028 203.188 154.548C202.936 155.064 202.574 155.466 202.102 155.754C201.63 156.038 201.078 156.18 200.446 156.18ZM200.446 155.166C201.098 155.166 201.592 154.95 201.928 154.518C202.268 154.082 202.438 153.494 202.438 152.754C202.438 152.006 202.268 151.42 201.928 150.996C201.588 150.568 201.094 150.354 200.446 150.354C199.79 150.354 199.294 150.57 198.958 151.002C198.626 151.434 198.46 152.018 198.46 152.754C198.46 153.502 198.63 154.092 198.97 154.524C199.314 154.952 199.806 155.166 200.446 155.166ZM210.419 147.36V156H209.465V155.268C209.221 155.56 208.929 155.786 208.589 155.946C208.249 156.102 207.865 156.18 207.437 156.18C206.845 156.18 206.329 156.032 205.889 155.736C205.453 155.436 205.117 155.028 204.881 154.512C204.649 153.992 204.533 153.406 204.533 152.754C204.533 152.106 204.649 151.524 204.881 151.008C205.117 150.488 205.453 150.08 205.889 149.784C206.329 149.488 206.843 149.34 207.431 149.34C207.827 149.34 208.185 149.406 208.505 149.538C208.829 149.67 209.109 149.86 209.345 150.108V147.36H210.419ZM207.569 155.202C208.197 155.202 208.669 154.98 208.985 154.536C209.305 154.092 209.465 153.498 209.465 152.754C209.465 152.01 209.307 151.418 208.991 150.978C208.675 150.538 208.211 150.318 207.599 150.318C207.175 150.318 206.817 150.424 206.525 150.636C206.237 150.848 206.021 151.138 205.877 151.506C205.737 151.87 205.667 152.286 205.667 152.754C205.667 153.226 205.737 153.646 205.877 154.014C206.021 154.382 206.235 154.672 206.519 154.884C206.807 155.096 207.157 155.202 207.569 155.202ZM212.22 147.27H213.288V148.374H212.22V147.27ZM212.22 149.52H213.288V156H212.22V149.52ZM218.202 149.352C218.85 149.352 219.366 149.512 219.75 149.832C220.134 150.152 220.402 150.544 220.554 151.008C220.706 151.468 220.782 151.938 220.782 152.418V156H219.702V152.754C219.702 152.058 219.566 151.486 219.294 151.038C219.026 150.59 218.576 150.366 217.944 150.366C217.392 150.366 216.956 150.554 216.636 150.93C216.32 151.302 216.162 151.854 216.162 152.586V156H215.082V149.52H216.042V150.354C216.286 150.03 216.59 149.782 216.954 149.61C217.322 149.438 217.738 149.352 218.202 149.352ZM227.862 149.52V156.042C227.862 156.43 227.836 156.762 227.784 157.038C227.66 157.714 227.356 158.22 226.872 158.556C226.388 158.892 225.752 159.06 224.964 159.06C224.432 159.06 223.936 158.938 223.476 158.694C223.02 158.454 222.662 158.102 222.402 157.638L223.38 157.122C223.532 157.426 223.75 157.652 224.034 157.8C224.322 157.952 224.634 158.028 224.97 158.028C226.194 158.028 226.8 157.362 226.788 156.03V155.406C226.552 155.654 226.274 155.846 225.954 155.982C225.634 156.114 225.278 156.18 224.886 156.18C224.294 156.18 223.778 156.032 223.338 155.736C222.902 155.436 222.566 155.028 222.33 154.512C222.098 153.992 221.982 153.406 221.982 152.754C221.982 152.106 222.098 151.524 222.33 151.008C222.566 150.488 222.902 150.08 223.338 149.784C223.778 149.488 224.292 149.34 224.88 149.34C225.312 149.34 225.698 149.418 226.038 149.574C226.378 149.73 226.67 149.954 226.914 150.246V149.52H227.862ZM225.018 155.202C225.646 155.202 226.118 154.98 226.434 154.536C226.754 154.092 226.914 153.498 226.914 152.754C226.914 152.01 226.756 151.418 226.44 150.978C226.124 150.538 225.66 150.318 225.048 150.318C224.624 150.318 224.266 150.424 223.974 150.636C223.686 150.848 223.47 151.138 223.326 151.506C223.186 151.87 223.116 152.286 223.116 152.754C223.116 153.226 223.186 153.646 223.326 154.014C223.47 154.382 223.684 154.672 223.968 154.884C224.256 155.096 224.606 155.202 225.018 155.202Z" fill="white"/>
<path d="M239.63 99.18C238.786 99.18 238.06 98.992 237.452 98.616C236.848 98.24 236.388 97.714 236.072 97.038C235.756 96.358 235.598 95.572 235.598 94.68C235.598 93.788 235.756 93.004 236.072 92.328C236.388 91.648 236.848 91.12 237.452 90.744C238.06 90.368 238.786 90.18 239.63 90.18C240.286 90.18 240.87 90.294 241.382 90.522C241.894 90.75 242.322 91.076 242.666 91.5C243.014 91.92 243.27 92.418 243.434 92.994L242.348 93.282C242.168 92.622 241.848 92.11 241.388 91.746C240.928 91.382 240.342 91.2 239.63 91.2C239.002 91.2 238.47 91.344 238.034 91.632C237.602 91.92 237.276 92.326 237.056 92.85C236.84 93.37 236.73 93.98 236.726 94.68C236.722 95.376 236.828 95.986 237.044 96.51C237.264 97.034 237.592 97.44 238.028 97.728C238.464 98.016 238.998 98.16 239.63 98.16C240.342 98.16 240.928 97.978 241.388 97.614C241.848 97.25 242.168 96.738 242.348 96.078L243.434 96.366C243.27 96.942 243.014 97.442 242.666 97.866C242.322 98.286 241.894 98.61 241.382 98.838C240.87 99.066 240.286 99.18 239.63 99.18ZM247.51 99.18C246.874 99.18 246.32 99.036 245.848 98.748C245.38 98.456 245.02 98.052 244.768 97.536C244.516 97.016 244.39 96.422 244.39 95.754C244.39 95.082 244.518 94.488 244.774 93.972C245.03 93.456 245.394 93.056 245.866 92.772C246.338 92.484 246.886 92.34 247.51 92.34C248.146 92.34 248.7 92.484 249.172 92.772C249.644 93.06 250.006 93.462 250.258 93.978C250.51 94.494 250.636 95.086 250.636 95.754C250.636 96.43 250.508 97.028 250.252 97.548C250 98.064 249.638 98.466 249.166 98.754C248.694 99.038 248.142 99.18 247.51 99.18ZM247.51 98.166C248.162 98.166 248.656 97.95 248.992 97.518C249.332 97.082 249.502 96.494 249.502 95.754C249.502 95.006 249.332 94.42 248.992 93.996C248.652 93.568 248.158 93.354 247.51 93.354C246.854 93.354 246.358 93.57 246.022 94.002C245.69 94.434 245.524 95.018 245.524 95.754C245.524 96.502 245.694 97.092 246.034 97.524C246.378 97.952 246.87 98.166 247.51 98.166ZM257.483 90.36V99H256.529V98.268C256.285 98.56 255.993 98.786 255.653 98.946C255.313 99.102 254.929 99.18 254.501 99.18C253.909 99.18 253.393 99.032 252.953 98.736C252.517 98.436 252.181 98.028 251.945 97.512C251.713 96.992 251.597 96.406 251.597 95.754C251.597 95.106 251.713 94.524 251.945 94.008C252.181 93.488 252.517 93.08 252.953 92.784C253.393 92.488 253.907 92.34 254.495 92.34C254.891 92.34 255.249 92.406 255.569 92.538C255.893 92.67 256.173 92.86 256.409 93.108V90.36H257.483ZM254.633 98.202C255.261 98.202 255.733 97.98 256.049 97.536C256.369 97.092 256.529 96.498 256.529 95.754C256.529 95.01 256.371 94.418 256.055 93.978C255.739 93.538 255.275 93.318 254.663 93.318C254.239 93.318 253.881 93.424 253.589 93.636C253.301 93.848 253.085 94.138 252.941 94.506C252.801 94.87 252.731 95.286 252.731 95.754C252.731 96.226 252.801 96.646 252.941 97.014C253.085 97.382 253.299 97.672 253.583 97.884C253.871 98.096 254.221 98.202 254.633 98.202ZM259.284 90.27H260.352V91.374H259.284V90.27ZM259.284 92.52H260.352V99H259.284V92.52ZM265.267 92.352C265.915 92.352 266.431 92.512 266.815 92.832C267.199 93.152 267.467 93.544 267.618 94.008C267.771 94.468 267.847 94.938 267.847 95.418V99H266.767V95.754C266.767 95.058 266.631 94.486 266.359 94.038C266.091 93.59 265.641 93.366 265.009 93.366C264.457 93.366 264.021 93.554 263.701 93.93C263.385 94.302 263.227 94.854 263.227 95.586V99H262.147V92.52H263.107V93.354C263.351 93.03 263.655 92.782 264.019 92.61C264.387 92.438 264.803 92.352 265.267 92.352ZM274.926 92.52V99.042C274.926 99.43 274.9 99.762 274.848 100.038C274.724 100.714 274.42 101.22 273.936 101.556C273.452 101.892 272.816 102.06 272.028 102.06C271.496 102.06 271 101.938 270.54 101.694C270.084 101.454 269.726 101.102 269.466 100.638L270.444 100.122C270.596 100.426 270.814 100.652 271.098 100.8C271.386 100.952 271.698 101.028 272.034 101.028C273.258 101.028 273.864 100.362 273.852 99.03V98.406C273.616 98.654 273.338 98.846 273.018 98.982C272.698 99.114 272.342 99.18 271.95 99.18C271.358 99.18 270.842 99.032 270.402 98.736C269.966 98.436 269.63 98.028 269.394 97.512C269.162 96.992 269.046 96.406 269.046 95.754C269.046 95.106 269.162 94.524 269.394 94.008C269.63 93.488 269.966 93.08 270.402 92.784C270.842 92.488 271.356 92.34 271.944 92.34C272.376 92.34 272.762 92.418 273.102 92.574C273.442 92.73 273.734 92.954 273.978 93.246V92.52H274.926ZM272.082 98.202C272.71 98.202 273.182 97.98 273.498 97.536C273.818 97.092 273.978 96.498 273.978 95.754C273.978 95.01 273.82 94.418 273.504 93.978C273.188 93.538 272.724 93.318 272.112 93.318C271.688 93.318 271.33 93.424 271.038 93.636C270.75 93.848 270.534 94.138 270.39 94.506C270.25 94.87 270.18 95.286 270.18 95.754C270.18 96.226 270.25 96.646 270.39 97.014C270.534 97.382 270.748 97.672 271.032 97.884C271.32 98.096 271.67 98.202 272.082 98.202Z" fill="white"/>
<path d="M365.602 79.36C365.83 79.36 366.042 79.376 366.238 79.408C366.694 79.48 367.082 79.64 367.402 79.888C367.722 80.132 367.964 80.444 368.128 80.824C368.292 81.2 368.374 81.62 368.374 82.084C368.374 82.548 368.292 82.97 368.128 83.35C367.964 83.726 367.72 84.038 367.396 84.286C367.076 84.53 366.69 84.688 366.238 84.76C366.042 84.792 365.83 84.808 365.602 84.808H363.256V88H362.188V79.36H365.602ZM365.566 83.794C365.77 83.794 365.95 83.776 366.106 83.74C366.494 83.652 366.786 83.452 366.982 83.14C367.182 82.828 367.282 82.476 367.282 82.084C367.282 81.692 367.182 81.34 366.982 81.028C366.786 80.716 366.494 80.516 366.106 80.428C365.95 80.392 365.77 80.374 365.566 80.374H363.256V83.794H365.566ZM371.076 81.916C371.256 81.772 371.468 81.662 371.712 81.586C371.956 81.51 372.202 81.472 372.45 81.472C372.606 81.472 372.76 81.488 372.912 81.52V82.522C372.744 82.482 372.582 82.462 372.426 82.462C372.038 82.462 371.706 82.564 371.43 82.768C371.138 82.976 370.934 83.25 370.818 83.59C370.702 83.926 370.644 84.312 370.644 84.748V88H369.57V81.52H370.524V82.546C370.676 82.282 370.86 82.072 371.076 81.916ZM376.69 88.18C376.054 88.18 375.5 88.036 375.028 87.748C374.56 87.456 374.2 87.052 373.948 86.536C373.696 86.016 373.57 85.422 373.57 84.754C373.57 84.082 373.698 83.488 373.954 82.972C374.21 82.456 374.574 82.056 375.046 81.772C375.518 81.484 376.066 81.34 376.69 81.34C377.326 81.34 377.88 81.484 378.352 81.772C378.824 82.06 379.186 82.462 379.438 82.978C379.69 83.494 379.816 84.086 379.816 84.754C379.816 85.43 379.688 86.028 379.432 86.548C379.18 87.064 378.818 87.466 378.346 87.754C377.874 88.038 377.322 88.18 376.69 88.18ZM376.69 87.166C377.342 87.166 377.836 86.95 378.172 86.518C378.512 86.082 378.682 85.494 378.682 84.754C378.682 84.006 378.512 83.42 378.172 82.996C377.832 82.568 377.338 82.354 376.69 82.354C376.034 82.354 375.538 82.57 375.202 83.002C374.87 83.434 374.704 84.018 374.704 84.754C374.704 85.502 374.874 86.092 375.214 86.524C375.558 86.952 376.05 87.166 376.69 87.166ZM384.119 81.34C384.707 81.34 385.219 81.488 385.655 81.784C386.095 82.08 386.431 82.488 386.663 83.008C386.899 83.524 387.017 84.106 387.017 84.754C387.017 85.406 386.899 85.992 386.663 86.512C386.431 87.028 386.095 87.436 385.655 87.736C385.219 88.032 384.705 88.18 384.113 88.18C383.685 88.18 383.301 88.102 382.961 87.946C382.621 87.786 382.329 87.56 382.085 87.268V88H381.131V79.36H382.205V82.108C382.441 81.86 382.719 81.67 383.039 81.538C383.363 81.406 383.723 81.34 384.119 81.34ZM383.981 87.202C384.393 87.202 384.741 87.096 385.025 86.884C385.313 86.672 385.527 86.382 385.667 86.014C385.811 85.646 385.883 85.226 385.883 84.754C385.883 84.286 385.811 83.87 385.667 83.506C385.527 83.138 385.311 82.848 385.019 82.636C384.731 82.424 384.375 82.318 383.951 82.318C383.339 82.318 382.875 82.538 382.559 82.978C382.243 83.418 382.085 84.01 382.085 84.754C382.085 85.498 382.243 86.092 382.559 86.536C382.879 86.98 383.353 87.202 383.981 87.202ZM388.452 79.18H389.52V88H388.452V79.18ZM392.106 85.06C392.15 85.736 392.34 86.256 392.676 86.62C393.016 86.984 393.484 87.166 394.08 87.166C394.504 87.166 394.874 87.068 395.19 86.872C395.51 86.676 395.76 86.394 395.94 86.026L396.966 86.38C396.714 86.948 396.336 87.39 395.832 87.706C395.328 88.022 394.76 88.18 394.128 88.18C393.496 88.18 392.94 88.04 392.46 87.76C391.984 87.48 391.614 87.084 391.35 86.572C391.09 86.06 390.96 85.47 390.96 84.802C390.96 84.102 391.088 83.492 391.344 82.972C391.604 82.448 391.968 82.046 392.436 81.766C392.908 81.482 393.456 81.34 394.08 81.34C394.7 81.34 395.234 81.48 395.682 81.76C396.134 82.036 396.48 82.434 396.72 82.954C396.96 83.47 397.08 84.084 397.08 84.796C397.08 84.912 397.078 85 397.074 85.06H392.106ZM394.116 82.3C393.536 82.3 393.078 82.462 392.742 82.786C392.406 83.11 392.2 83.582 392.124 84.202H395.964C395.832 82.934 395.216 82.3 394.116 82.3ZM404.877 81.352C405.321 81.352 405.707 81.446 406.035 81.634C406.363 81.818 406.615 82.082 406.791 82.426C406.967 82.766 407.055 83.164 407.055 83.62L407.049 88H405.981L405.987 83.854C405.987 83.538 405.927 83.264 405.807 83.032C405.691 82.796 405.527 82.616 405.315 82.492C405.107 82.368 404.867 82.306 404.595 82.306C404.343 82.306 404.109 82.364 403.893 82.48C403.677 82.596 403.503 82.772 403.371 83.008C403.243 83.244 403.179 83.536 403.179 83.884L403.173 88H402.111L402.117 83.896C402.117 83.572 402.059 83.29 401.943 83.05C401.827 82.81 401.663 82.626 401.451 82.498C401.239 82.37 400.993 82.306 400.713 82.306C400.433 82.306 400.187 82.372 399.975 82.504C399.763 82.636 399.597 82.822 399.477 83.062C399.361 83.298 399.303 83.572 399.303 83.884V88H398.229V81.52H399.183V82.21C399.391 81.942 399.655 81.732 399.975 81.58C400.295 81.428 400.645 81.352 401.025 81.352C401.461 81.352 401.841 81.446 402.165 81.634C402.489 81.818 402.739 82.08 402.915 82.42C403.107 82.084 403.375 81.822 403.719 81.634C404.067 81.446 404.453 81.352 404.877 81.352ZM414.086 88.18C413.478 88.18 412.928 88.076 412.436 87.868C411.944 87.66 411.538 87.362 411.218 86.974C410.902 86.586 410.696 86.13 410.6 85.606L411.704 85.432C411.796 85.792 411.956 86.102 412.184 86.362C412.416 86.622 412.7 86.822 413.036 86.962C413.372 87.098 413.74 87.166 414.14 87.166C414.528 87.166 414.88 87.104 415.196 86.98C415.512 86.856 415.76 86.68 415.94 86.452C416.124 86.224 416.216 85.956 416.216 85.648C416.216 85.304 416.106 85.034 415.886 84.838C415.666 84.642 415.374 84.49 415.01 84.382L412.808 83.728C412.248 83.564 411.796 83.316 411.452 82.984C411.108 82.652 410.936 82.194 410.936 81.61C410.936 81.11 411.066 80.678 411.326 80.314C411.59 79.946 411.95 79.666 412.406 79.474C412.866 79.278 413.384 79.182 413.96 79.186C414.536 79.19 415.054 79.294 415.514 79.498C415.978 79.698 416.36 79.988 416.66 80.368C416.96 80.744 417.162 81.192 417.266 81.712L416.132 81.91C416.072 81.566 415.938 81.264 415.73 81.004C415.522 80.744 415.26 80.546 414.944 80.41C414.632 80.27 414.29 80.2 413.918 80.2C413.57 80.2 413.254 80.26 412.97 80.38C412.69 80.496 412.468 80.658 412.304 80.866C412.144 81.07 412.064 81.302 412.064 81.562C412.064 81.81 412.134 82.016 412.274 82.18C412.414 82.344 412.584 82.472 412.784 82.564C412.988 82.656 413.228 82.74 413.504 82.816L415.148 83.29C415.52 83.394 415.856 83.52 416.156 83.668C416.46 83.812 416.73 84.042 416.966 84.358C417.202 84.67 417.32 85.08 417.32 85.588C417.32 86.128 417.178 86.594 416.894 86.986C416.61 87.378 416.222 87.676 415.73 87.88C415.242 88.08 414.694 88.18 414.086 88.18ZM421.338 88.18C420.702 88.18 420.148 88.036 419.676 87.748C419.208 87.456 418.848 87.052 418.596 86.536C418.344 86.016 418.218 85.422 418.218 84.754C418.218 84.082 418.346 83.488 418.602 82.972C418.858 82.456 419.222 82.056 419.694 81.772C420.166 81.484 420.714 81.34 421.338 81.34C421.974 81.34 422.528 81.484 423 81.772C423.472 82.06 423.834 82.462 424.086 82.978C424.338 83.494 424.464 84.086 424.464 84.754C424.464 85.43 424.336 86.028 424.08 86.548C423.828 87.064 423.466 87.466 422.994 87.754C422.522 88.038 421.97 88.18 421.338 88.18ZM421.338 87.166C421.99 87.166 422.484 86.95 422.82 86.518C423.16 86.082 423.33 85.494 423.33 84.754C423.33 84.006 423.16 83.42 422.82 82.996C422.48 82.568 421.986 82.354 421.338 82.354C420.682 82.354 420.186 82.57 419.85 83.002C419.518 83.434 419.352 84.018 419.352 84.754C419.352 85.502 419.522 86.092 419.862 86.524C420.206 86.952 420.698 87.166 421.338 87.166ZM425.905 79.18H426.973V88H425.905V79.18ZM428.174 81.52H429.254L431.072 86.638L432.884 81.52H433.97L431.618 88H430.526L428.174 81.52ZM435.175 79.27H436.243V80.374H435.175V79.27ZM435.175 81.52H436.243V88H435.175V81.52ZM441.157 81.352C441.805 81.352 442.321 81.512 442.705 81.832C443.089 82.152 443.357 82.544 443.509 83.008C443.661 83.468 443.737 83.938 443.737 84.418V88H442.657V84.754C442.657 84.058 442.521 83.486 442.249 83.038C441.981 82.59 441.531 82.366 440.899 82.366C440.347 82.366 439.911 82.554 439.591 82.93C439.275 83.302 439.117 83.854 439.117 84.586V88H438.037V81.52H438.997V82.354C439.241 82.03 439.545 81.782 439.909 81.61C440.277 81.438 440.693 81.352 441.157 81.352ZM450.817 81.52V88.042C450.817 88.43 450.791 88.762 450.739 89.038C450.615 89.714 450.311 90.22 449.827 90.556C449.343 90.892 448.707 91.06 447.919 91.06C447.387 91.06 446.891 90.938 446.431 90.694C445.975 90.454 445.617 90.102 445.357 89.638L446.335 89.122C446.487 89.426 446.705 89.652 446.989 89.8C447.277 89.952 447.589 90.028 447.925 90.028C449.149 90.028 449.755 89.362 449.743 88.03V87.406C449.507 87.654 449.229 87.846 448.909 87.982C448.589 88.114 448.233 88.18 447.841 88.18C447.249 88.18 446.733 88.032 446.293 87.736C445.857 87.436 445.521 87.028 445.285 86.512C445.053 85.992 444.937 85.406 444.937 84.754C444.937 84.106 445.053 83.524 445.285 83.008C445.521 82.488 445.857 82.08 446.293 81.784C446.733 81.488 447.247 81.34 447.835 81.34C448.267 81.34 448.653 81.418 448.993 81.574C449.333 81.73 449.625 81.954 449.869 82.246V81.52H450.817ZM447.973 87.202C448.601 87.202 449.073 86.98 449.389 86.536C449.709 86.092 449.869 85.498 449.869 84.754C449.869 84.01 449.711 83.418 449.395 82.978C449.079 82.538 448.615 82.318 448.003 82.318C447.579 82.318 447.221 82.424 446.929 82.636C446.641 82.848 446.425 83.138 446.281 83.506C446.141 83.87 446.071 84.286 446.071 84.754C446.071 85.226 446.141 85.646 446.281 86.014C446.425 86.382 446.639 86.672 446.923 86.884C447.211 87.096 447.561 87.202 447.973 87.202Z" fill="white"/>
<path d="M315.529 13.36C315.757 13.36 315.969 13.376 316.165 13.408C316.621 13.48 317.009 13.64 317.329 13.888C317.649 14.132 317.891 14.444 318.055 14.824C318.219 15.2 318.301 15.62 318.301 16.084C318.301 16.548 318.219 16.97 318.055 17.35C317.891 17.726 317.647 18.038 317.323 18.286C317.003 18.53 316.617 18.688 316.165 18.76C315.969 18.792 315.757 18.808 315.529 18.808H313.183V22H312.115V13.36H315.529ZM315.493 17.794C315.697 17.794 315.877 17.776 316.033 17.74C316.421 17.652 316.713 17.452 316.909 17.14C317.109 16.828 317.209 16.476 317.209 16.084C317.209 15.692 317.109 15.34 316.909 15.028C316.713 14.716 316.421 14.516 316.033 14.428C315.877 14.392 315.697 14.374 315.493 14.374H313.183V17.794H315.493ZM321.004 15.916C321.184 15.772 321.396 15.662 321.64 15.586C321.884 15.51 322.13 15.472 322.378 15.472C322.534 15.472 322.688 15.488 322.84 15.52V16.522C322.672 16.482 322.51 16.462 322.354 16.462C321.966 16.462 321.634 16.564 321.358 16.768C321.066 16.976 320.862 17.25 320.746 17.59C320.63 17.926 320.572 18.312 320.572 18.748V22H319.498V15.52H320.452V16.546C320.604 16.282 320.788 16.072 321.004 15.916ZM326.618 22.18C325.982 22.18 325.428 22.036 324.956 21.748C324.488 21.456 324.128 21.052 323.876 20.536C323.624 20.016 323.498 19.422 323.498 18.754C323.498 18.082 323.626 17.488 323.882 16.972C324.138 16.456 324.502 16.056 324.974 15.772C325.446 15.484 325.994 15.34 326.618 15.34C327.254 15.34 327.808 15.484 328.28 15.772C328.752 16.06 329.114 16.462 329.366 16.978C329.618 17.494 329.744 18.086 329.744 18.754C329.744 19.43 329.616 20.028 329.36 20.548C329.108 21.064 328.746 21.466 328.274 21.754C327.802 22.038 327.25 22.18 326.618 22.18ZM326.618 21.166C327.27 21.166 327.764 20.95 328.1 20.518C328.44 20.082 328.61 19.494 328.61 18.754C328.61 18.006 328.44 17.42 328.1 16.996C327.76 16.568 327.266 16.354 326.618 16.354C325.962 16.354 325.466 16.57 325.13 17.002C324.798 17.434 324.632 18.018 324.632 18.754C324.632 19.502 324.802 20.092 325.142 20.524C325.486 20.952 325.978 21.166 326.618 21.166ZM336.591 13.36V22H335.637V21.268C335.393 21.56 335.101 21.786 334.761 21.946C334.421 22.102 334.037 22.18 333.609 22.18C333.017 22.18 332.501 22.032 332.061 21.736C331.625 21.436 331.289 21.028 331.053 20.512C330.821 19.992 330.705 19.406 330.705 18.754C330.705 18.106 330.821 17.524 331.053 17.008C331.289 16.488 331.625 16.08 332.061 15.784C332.501 15.488 333.015 15.34 333.603 15.34C333.999 15.34 334.357 15.406 334.677 15.538C335.001 15.67 335.281 15.86 335.517 16.108V13.36H336.591ZM333.741 21.202C334.369 21.202 334.841 20.98 335.157 20.536C335.477 20.092 335.637 19.498 335.637 18.754C335.637 18.01 335.479 17.418 335.163 16.978C334.847 16.538 334.383 16.318 333.771 16.318C333.347 16.318 332.989 16.424 332.697 16.636C332.409 16.848 332.193 17.138 332.049 17.506C331.909 17.87 331.839 18.286 331.839 18.754C331.839 19.226 331.909 19.646 332.049 20.014C332.193 20.382 332.407 20.672 332.691 20.884C332.979 21.096 333.329 21.202 333.741 21.202ZM343.846 15.52V22H342.892V21.166C342.648 21.49 342.342 21.738 341.974 21.91C341.61 22.082 341.196 22.168 340.732 22.168C340.084 22.168 339.568 22.008 339.184 21.688C338.8 21.368 338.532 20.978 338.38 20.518C338.228 20.054 338.152 19.582 338.152 19.102V15.52H339.232V18.766C339.232 19.462 339.366 20.034 339.634 20.482C339.906 20.93 340.358 21.154 340.99 21.154C341.542 21.154 341.976 20.968 342.292 20.596C342.612 20.22 342.772 19.666 342.772 18.934V15.52H343.846ZM348.256 22.18C347.612 22.18 347.058 22.036 346.594 21.748C346.134 21.456 345.782 21.052 345.538 20.536C345.298 20.02 345.174 19.428 345.166 18.76C345.174 18.084 345.3 17.488 345.544 16.972C345.792 16.456 346.148 16.056 346.612 15.772C347.076 15.484 347.628 15.34 348.268 15.34C348.72 15.34 349.134 15.416 349.51 15.568C349.886 15.72 350.204 15.938 350.464 16.222C350.728 16.506 350.916 16.84 351.028 17.224L349.972 17.542C349.836 17.17 349.614 16.88 349.306 16.672C349.002 16.46 348.652 16.354 348.256 16.354C347.612 16.354 347.126 16.572 346.798 17.008C346.474 17.444 346.308 18.028 346.3 18.76C346.308 19.504 346.478 20.092 346.81 20.524C347.146 20.952 347.628 21.166 348.256 21.166C349.084 21.166 349.648 20.788 349.948 20.032L351.028 20.314C350.8 20.918 350.448 21.38 349.972 21.7C349.496 22.02 348.924 22.18 348.256 22.18ZM353.914 19.504V19.852C353.914 20.056 353.922 20.22 353.938 20.344C353.954 20.468 353.99 20.576 354.046 20.668C354.142 20.84 354.278 20.964 354.454 21.04C354.634 21.116 354.854 21.154 355.114 21.154C355.302 21.154 355.554 21.13 355.87 21.082V22C355.538 22.068 355.218 22.102 354.91 22.102C354.482 22.102 354.106 22.032 353.782 21.892C353.462 21.748 353.224 21.524 353.068 21.22C352.976 21.04 352.916 20.856 352.888 20.668C352.86 20.48 352.846 20.246 352.846 19.966V19.552V16.402H351.532V15.52H352.846V13.72H353.914V15.52H355.87V16.402H353.914V19.504ZM362.252 13.36C362.708 13.36 363.072 13.378 363.344 13.414C363.992 13.498 364.544 13.738 365 14.134C365.456 14.526 365.8 15.03 366.032 15.646C366.264 16.258 366.38 16.936 366.38 17.68C366.38 18.428 366.264 19.11 366.032 19.726C365.8 20.338 365.456 20.84 365 21.232C364.544 21.624 363.992 21.862 363.344 21.946C363.076 21.982 362.712 22 362.252 22H359.588V13.36H362.252ZM362.252 20.98C362.692 20.98 363.026 20.958 363.254 20.914C363.926 20.79 364.426 20.434 364.754 19.846C365.082 19.258 365.246 18.536 365.246 17.68C365.246 16.816 365.08 16.092 364.748 15.508C364.42 14.92 363.922 14.566 363.254 14.446C363.026 14.402 362.692 14.38 362.252 14.38H360.686V20.98H362.252ZM368.542 19.06C368.586 19.736 368.776 20.256 369.112 20.62C369.452 20.984 369.92 21.166 370.516 21.166C370.94 21.166 371.31 21.068 371.626 20.872C371.946 20.676 372.196 20.394 372.376 20.026L373.402 20.38C373.15 20.948 372.772 21.39 372.268 21.706C371.764 22.022 371.196 22.18 370.564 22.18C369.932 22.18 369.376 22.04 368.896 21.76C368.42 21.48 368.05 21.084 367.786 20.572C367.526 20.06 367.396 19.47 367.396 18.802C367.396 18.102 367.524 17.492 367.78 16.972C368.04 16.448 368.404 16.046 368.872 15.766C369.344 15.482 369.892 15.34 370.516 15.34C371.136 15.34 371.67 15.48 372.118 15.76C372.57 16.036 372.916 16.434 373.156 16.954C373.396 17.47 373.516 18.084 373.516 18.796C373.516 18.912 373.514 19 373.51 19.06H368.542ZM370.552 16.3C369.972 16.3 369.514 16.462 369.178 16.786C368.842 17.11 368.636 17.582 368.56 18.202H372.4C372.268 16.934 371.652 16.3 370.552 16.3ZM374.011 15.52H375.091L376.909 20.638L378.721 15.52H379.807L377.455 22H376.363L374.011 15.52ZM381.444 19.06C381.488 19.736 381.678 20.256 382.014 20.62C382.354 20.984 382.822 21.166 383.418 21.166C383.842 21.166 384.212 21.068 384.528 20.872C384.848 20.676 385.098 20.394 385.278 20.026L386.304 20.38C386.052 20.948 385.674 21.39 385.17 21.706C384.666 22.022 384.098 22.18 383.466 22.18C382.834 22.18 382.278 22.04 381.798 21.76C381.322 21.48 380.952 21.084 380.688 20.572C380.428 20.06 380.298 19.47 380.298 18.802C380.298 18.102 380.426 17.492 380.682 16.972C380.942 16.448 381.306 16.046 381.774 15.766C382.246 15.482 382.794 15.34 383.418 15.34C384.038 15.34 384.572 15.48 385.02 15.76C385.472 16.036 385.818 16.434 386.058 16.954C386.298 17.47 386.418 18.084 386.418 18.796C386.418 18.912 386.416 19 386.412 19.06H381.444ZM383.454 16.3C382.874 16.3 382.416 16.462 382.08 16.786C381.744 17.11 381.538 17.582 381.462 18.202H385.302C385.17 16.934 384.554 16.3 383.454 16.3ZM387.868 13.18H388.936V22H387.868V13.18ZM393.496 22.18C392.86 22.18 392.306 22.036 391.834 21.748C391.366 21.456 391.006 21.052 390.754 20.536C390.502 20.016 390.376 19.422 390.376 18.754C390.376 18.082 390.504 17.488 390.76 16.972C391.016 16.456 391.38 16.056 391.852 15.772C392.324 15.484 392.872 15.34 393.496 15.34C394.132 15.34 394.686 15.484 395.158 15.772C395.63 16.06 395.992 16.462 396.244 16.978C396.496 17.494 396.622 18.086 396.622 18.754C396.622 19.43 396.494 20.028 396.238 20.548C395.986 21.064 395.624 21.466 395.152 21.754C394.68 22.038 394.128 22.18 393.496 22.18ZM393.496 21.166C394.148 21.166 394.642 20.95 394.978 20.518C395.318 20.082 395.488 19.494 395.488 18.754C395.488 18.006 395.318 17.42 394.978 16.996C394.638 16.568 394.144 16.354 393.496 16.354C392.84 16.354 392.344 16.57 392.008 17.002C391.676 17.434 391.51 18.018 391.51 18.754C391.51 19.502 391.68 20.092 392.02 20.524C392.364 20.952 392.856 21.166 393.496 21.166ZM400.926 15.34C401.514 15.34 402.026 15.488 402.462 15.784C402.902 16.08 403.238 16.488 403.47 17.008C403.706 17.524 403.824 18.106 403.824 18.754C403.824 19.406 403.706 19.992 403.47 20.512C403.238 21.028 402.902 21.436 402.462 21.736C402.026 22.032 401.512 22.18 400.92 22.18C400.524 22.18 400.166 22.114 399.846 21.982C399.526 21.846 399.248 21.652 399.012 21.4V24.88H397.938V15.52H398.892V16.246C399.136 15.954 399.428 15.73 399.768 15.574C400.108 15.418 400.494 15.34 400.926 15.34ZM400.788 21.202C401.2 21.202 401.548 21.096 401.832 20.884C402.12 20.672 402.334 20.382 402.474 20.014C402.618 19.646 402.69 19.226 402.69 18.754C402.69 18.286 402.618 17.87 402.474 17.506C402.334 17.138 402.118 16.848 401.826 16.636C401.538 16.424 401.182 16.318 400.758 16.318C400.146 16.318 399.682 16.538 399.366 16.978C399.05 17.418 398.892 18.01 398.892 18.754C398.892 19.498 399.05 20.092 399.366 20.536C399.686 20.98 400.16 21.202 400.788 21.202ZM411.781 15.352C412.225 15.352 412.611 15.446 412.939 15.634C413.267 15.818 413.519 16.082 413.695 16.426C413.871 16.766 413.959 17.164 413.959 17.62L413.953 22H412.885L412.891 17.854C412.891 17.538 412.831 17.264 412.711 17.032C412.595 16.796 412.431 16.616 412.219 16.492C412.011 16.368 411.771 16.306 411.499 16.306C411.247 16.306 411.013 16.364 410.797 16.48C410.581 16.596 410.407 16.772 410.275 17.008C410.147 17.244 410.083 17.536 410.083 17.884L410.077 22H409.015L409.021 17.896C409.021 17.572 408.963 17.29 408.847 17.05C408.731 16.81 408.567 16.626 408.355 16.498C408.143 16.37 407.897 16.306 407.617 16.306C407.337 16.306 407.091 16.372 406.879 16.504C406.667 16.636 406.501 16.822 406.381 17.062C406.265 17.298 406.207 17.572 406.207 17.884V22H405.133V15.52H406.087V16.21C406.295 15.942 406.559 15.732 406.879 15.58C407.199 15.428 407.549 15.352 407.929 15.352C408.365 15.352 408.745 15.446 409.069 15.634C409.393 15.818 409.643 16.08 409.819 16.42C410.011 16.084 410.279 15.822 410.623 15.634C410.971 15.446 411.357 15.352 411.781 15.352ZM416.249 19.06C416.293 19.736 416.483 20.256 416.819 20.62C417.159 20.984 417.627 21.166 418.223 21.166C418.647 21.166 419.017 21.068 419.333 20.872C419.653 20.676 419.903 20.394 420.083 20.026L421.109 20.38C420.857 20.948 420.479 21.39 419.975 21.706C419.471 22.022 418.903 22.18 418.271 22.18C417.639 22.18 417.083 22.04 416.603 21.76C416.127 21.48 415.757 21.084 415.493 20.572C415.233 20.06 415.103 19.47 415.103 18.802C415.103 18.102 415.231 17.492 415.487 16.972C415.747 16.448 416.111 16.046 416.579 15.766C417.051 15.482 417.599 15.34 418.223 15.34C418.843 15.34 419.377 15.48 419.825 15.76C420.277 16.036 420.623 16.434 420.863 16.954C421.103 17.47 421.223 18.084 421.223 18.796C421.223 18.912 421.221 19 421.217 19.06H416.249ZM418.259 16.3C417.679 16.3 417.221 16.462 416.885 16.786C416.549 17.11 416.343 17.582 416.267 18.202H420.107C419.975 16.934 419.359 16.3 418.259 16.3ZM425.491 15.352C426.139 15.352 426.655 15.512 427.039 15.832C427.423 16.152 427.691 16.544 427.843 17.008C427.995 17.468 428.071 17.938 428.071 18.418V22H426.991V18.754C426.991 18.058 426.855 17.486 426.583 17.038C426.315 16.59 425.865 16.366 425.233 16.366C424.681 16.366 424.245 16.554 423.925 16.93C423.609 17.302 423.451 17.854 423.451 18.586V22H422.371V15.52H423.331V16.354C423.575 16.03 423.879 15.782 424.243 15.61C424.611 15.438 425.027 15.352 425.491 15.352ZM431.293 19.504V19.852C431.293 20.056 431.301 20.22 431.317 20.344C431.333 20.468 431.369 20.576 431.425 20.668C431.521 20.84 431.657 20.964 431.833 21.04C432.013 21.116 432.233 21.154 432.493 21.154C432.681 21.154 432.933 21.13 433.249 21.082V22C432.917 22.068 432.597 22.102 432.289 22.102C431.861 22.102 431.485 22.032 431.161 21.892C430.841 21.748 430.603 21.524 430.447 21.22C430.355 21.04 430.295 20.856 430.267 20.668C430.239 20.48 430.225 20.246 430.225 19.966V19.552V16.402H428.911V15.52H430.225V13.72H431.293V15.52H433.249V16.402H431.293V19.504Z" fill="white"/>
<line x1="69.8192" y1="160.534" x2="167.819" y2="122.534" stroke="white" stroke-dasharray="3 5"/>
<line x1="167.959" y1="122.502" x2="277.959" y2="113.502" stroke="white" stroke-dasharray="3 5"/>
<line x1="279.682" y1="112.614" x2="342.682" y2="60.6144" stroke="white" stroke-dasharray="3 5"/>
<line x1="342.848" y1="57.5236" x2="455.848" y2="21.5236" stroke="white" stroke-dasharray="3 5"/>
<circle cx="68" cy="161" r="4" fill="#70C4F2"/>
<circle cx="68" cy="161" r="7" fill="#70C4F2" fill-opacity="0.01" stroke="white" stroke-width="2"/>
<circle cx="168" cy="122" r="7" fill="#70C4F2" fill-opacity="0.01" stroke="white" stroke-width="2"/>
<circle cx="168" cy="122" r="4" fill="#FF3F3F"/>
<circle cx="278" cy="113" r="7" fill="#70C4F2" fill-opacity="0.01" stroke="white" stroke-width="2"/>
<circle cx="278" cy="113" r="4" fill="#FF9636"/>
<circle cx="343" cy="59" r="7" fill="#70C4F2" fill-opacity="0.01" stroke="white" stroke-width="2"/>
<circle cx="343" cy="59" r="4" fill="#F694FF"/>
<circle cx="456" cy="22" r="7" fill="#70C4F2" fill-opacity="0.01" stroke="white" stroke-width="2"/>
<circle cx="456" cy="22" r="4" fill="#52E379"/>
</svg>
