<svg xmlns="http://www.w3.org/2000/svg" width="365" height="143" fill="none" viewBox="0 0 365 143">
    <path fill="url(#paint0_linear)" d="M0 5c0-2.761 2.239-5 5-5h355c2.761 0 5 2.239 5 5v138H0V5z"/>
    <mask id="169tvp2ewa" width="249" height="82" x="3" y="0" maskUnits="userSpaceOnUse">
        <path fill="#FBFBFB" d="M3 5c0-2.761 2.239-5 5-5h239c2.761 0 5 2.239 5 5v77H3V5z"/>
    </mask>
    <g fill="#fff" mask="url(#169tvp2ewa)">
        <g fill-opacity=".35" clip-path="url(#clip0)">
            <path d="M97.036 11.667L42.598 3.069c-3.2-.505-6.216 1.687-6.722 4.888l-8.557 54.18c-.505 3.201 1.687 6.216 4.888 6.722l54.438 8.598c3.201.505 6.217-1.688 6.722-4.888l8.557-54.18c.506-3.201-1.687-6.216-4.888-6.722zm-55.05-4.728l54.439 8.598c1.067.168 1.797 1.174 1.629 2.24l-1.528 9.675-58.308-9.209 1.528-9.674c.169-1.067 1.174-1.798 2.24-1.63zm45.27 66.648l-54.438-8.598c-1.066-.169-1.797-1.174-1.629-2.24l6.418-40.636 58.308 9.21-6.418 40.634c-.168 1.067-1.174 1.798-2.24 1.63z"/>
            <path d="M72.386 33.717c-.915-.576-2.125-.3-2.7.615L53.795 59.59c-.575.915-.3 2.125.616 2.701.916.576 2.125.3 2.701-.615l15.888-25.256c.577-.916.301-2.125-.615-2.702zM54.714 37.459c-.536-.94-1.733-1.268-2.672-.732l-10.898 6.212c-1.09.62-1.323 2.095-.477 3.022l8.453 9.268c.729.8 1.968.856 2.767.127.8-.729.857-1.968.127-2.767l-6.802-7.459 8.77-5c.94-.535 1.267-1.731.732-2.671zM86.132 50.046l-8.453-9.268c-.729-.8-1.968-.856-2.767-.127-.8.729-.857 1.968-.127 2.767l6.802 7.459-8.77 5c-.94.535-1.267 1.731-.732 2.671.537.941 1.734 1.267 2.672.732l10.898-6.212c1.09-.62 1.323-2.095.477-3.022zM44.763 15.31c1.069.17 2.072-.56 2.24-1.629.17-1.069-.56-2.072-1.629-2.24-1.068-.17-2.071.56-2.24 1.629-.169 1.068.56 2.072 1.63 2.24zM52.504 16.533c1.068.169 2.071-.56 2.24-1.63.169-1.068-.56-2.071-1.63-2.24-1.068-.169-2.071.56-2.24 1.63-.169 1.068.56 2.071 1.63 2.24zM60.243 17.756c1.069.168 2.072-.561 2.24-1.63.17-1.068-.56-2.072-1.629-2.24-1.068-.17-2.071.56-2.24 1.63-.169 1.068.56 2.07 1.63 2.24zM79.593 20.812l11.61 1.834c1.069.169 2.072-.56 2.24-1.63.17-1.068-.56-2.071-1.629-2.24l-11.61-1.834c-1.068-.169-2.071.561-2.24 1.63-.169 1.068.56 2.072 1.63 2.24z"/>
        </g>
        <g fill-opacity=".2" clip-path="url(#clip1)">
            <path d="M151.401 42.804l-32.134-5.075c-1.889-.299-3.669.996-3.968 2.885l-5.051 31.982c-.298 1.89.996 3.67 2.885 3.968l32.135 5.075c1.889.299 3.669-.996 3.967-2.885l5.052-31.982c.298-1.89-.996-3.67-2.886-3.968zm-32.495-2.79l32.134 5.074c.63.1 1.062.693.962 1.323l-.902 5.711-34.418-5.436.902-5.711c.099-.63.692-1.061 1.322-.962zm26.722 39.34l-32.134-5.075c-.63-.099-1.061-.692-.962-1.322l3.789-23.987 34.418 5.436-3.788 23.987c-.099.63-.693 1.061-1.323.962z"/>
            <path d="M136.851 55.821c-.541-.34-1.254-.177-1.595.363l-9.378 14.909c-.34.54-.178 1.254.363 1.594.54.34 1.254.178 1.594-.363l9.379-14.908c.34-.541.178-1.255-.363-1.595zM126.419 58.029c-.316-.555-1.023-.748-1.577-.432l-6.433 3.667c-.643.366-.781 1.236-.282 1.784l4.99 5.47c.43.472 1.162.506 1.633.076.472-.43.506-1.162.075-1.634l-4.015-4.403 5.177-2.95c.555-.317.748-1.023.432-1.578zM144.965 65.458l-4.99-5.471c-.43-.472-1.161-.506-1.633-.075-.472.43-.506 1.161-.075 1.633l4.015 4.403-5.177 2.951c-.555.316-.748 1.022-.432 1.577.317.556 1.023.748 1.577.432l6.433-3.667c.643-.366.781-1.236.282-1.783zM120.545 44.955c.631.1 1.223-.33 1.323-.962.099-.63-.331-1.223-.962-1.322-.631-.1-1.223.33-1.323.961-.099.631.331 1.223.962 1.323zM125.114 45.676c.631.1 1.223-.331 1.323-.962.1-.63-.331-1.223-.962-1.323-.631-.1-1.223.331-1.322.962-.1.631.331 1.223.961 1.323zM129.683 46.398c.631.1 1.223-.33 1.322-.961.1-.631-.331-1.223-.961-1.323-.631-.1-1.223.331-1.323.962-.1.63.331 1.223.962 1.322zM141.105 48.201l6.853 1.082c.631.1 1.223-.33 1.323-.961.1-.631-.331-1.223-.962-1.323l-6.853-1.082c-.631-.1-1.223.33-1.323.962-.099.63.331 1.223.962 1.322z"/>
        </g>
        <g fill-opacity=".2" clip-path="url(#clip2)">
            <path d="M144.246-1.888l-23.214-3.666c-1.365-.216-2.651.72-2.866 2.084l-3.649 23.104c-.216 1.365.719 2.65 2.084 2.866l23.214 3.667c1.365.215 2.651-.72 2.867-2.085L146.331.978c.215-1.365-.72-2.65-2.085-2.866zm-23.475-2.016l23.214 3.666c.455.072.767.5.695.956l-.651 4.125L119.164.916l.652-4.125c.072-.455.5-.767.955-.695zm19.305 28.42l-23.214-3.666c-.455-.072-.767-.5-.695-.955l2.737-17.328 24.864 3.927-2.737 17.328c-.072.455-.5.766-.955.695z"/>
            <path d="M133.735 7.515c-.391-.246-.907-.128-1.152.262l-6.776 10.77c-.245.39-.128.906.263 1.152.39.246.906.128 1.152-.262l6.775-10.77c.246-.39.128-.906-.262-1.152zM126.199 9.111c-.229-.4-.739-.54-1.14-.312l-4.647 2.65c-.464.264-.564.893-.203 1.288l3.604 3.952c.311.341.84.365 1.18.054.341-.31.366-.839.055-1.18l-2.901-3.18 3.74-2.132c.401-.229.54-.739.312-1.14zM139.597 14.478l-3.605-3.953c-.311-.34-.839-.365-1.18-.054-.341.311-.365.84-.054 1.18l2.901 3.18-3.74 2.133c-.401.228-.541.738-.312 1.14.229.4.739.54 1.139.311l4.647-2.649c.465-.265.564-.893.204-1.288zM125.256.187c.456.072.883-.24.955-.695.072-.456-.239-.883-.694-.955-.456-.072-.884.239-.956.694-.072.456.239.884.695.956zM128.557.708c.455.072.883-.239.955-.694.072-.456-.239-.884-.695-.956-.455-.072-.883.24-.955.695-.072.456.239.883.695.955zM136.808 2.013l4.951.782c.456.072.883-.24.955-.695.072-.456-.239-.883-.694-.955l-4.951-.782c-.456-.072-.884.239-.956.695-.072.455.239.883.695.955z"/>
        </g>
    </g>
    <defs>
        <clipPath id="clip0">
            <path fill="#fff" d="M0 0H66.867V66.867H0z" transform="rotate(8.975 5.516 235.546)"/>
        </clipPath>
        <clipPath id="clip1">
            <path fill="#fff" d="M0 0H39.471V39.471H0z" transform="rotate(8.975 -178.505 756.64)"/>
        </clipPath>
        <clipPath id="clip2">
            <path fill="#fff" d="M0 0H28.514V28.514H0z" transform="rotate(8.975 97.508 752.362)"/>
        </clipPath>
        <linearGradient id="paint0_linear" x1="70.5" x2="85.263" y1="-31.531" y2="147.355" gradientUnits="userSpaceOnUse">
            <stop stop-color="#DB4031"/>
            <stop offset="0" stop-color="#FF1700"/>
            <stop offset="1" stop-color="#fff" stop-opacity="0"/>
        </linearGradient>
    </defs>
</svg>
