<svg xmlns="http://www.w3.org/2000/svg" width="365" height="143" fill="none" viewBox="0 0 365 143">
    <path fill="url(#paint0_linear)" d="M0 5c0-2.761 2.239-5 5-5h355c2.761 0 5 2.239 5 5v138H0V5z"/>
    <mask id="suw1o2jeha" width="365" height="86" x="0" y="0" maskUnits="userSpaceOnUse">
        <path fill="#FBFBFB" d="M0 5c0-2.761 2.239-5 5-5h355c2.761 0 5 2.239 5 5v81H0V5z"/>
    </mask>
    <g fill="#fff" mask="url(#suw1o2jeha)">
        <g fill-opacity=".5" clip-path="url(#clip0)">
            <path d="M73.648 23.701c-.48-.614-1.367-.724-1.981-.244-.615.48-.725 1.367-.245 1.982l.058.072c.24.286.568.454.911.497.374.046.766-.057 1.078-.318.599-.499.679-1.39.18-1.989zM71.085 21.048c-.735-.644-1.498-1.231-2.27-1.746-4.361-2.914-9.232-3.992-14.084-3.117-.767.139-1.278.873-1.139 1.64.138.768.872 1.277 1.64 1.14 4.119-.744 8.273.185 12.015 2.684.66.442 1.344.968 1.978 1.523.22.194.485.306.756.34.449.055.916-.106 1.236-.472.514-.586.455-1.479-.132-1.992z"/>
            <path d="M81.597 40.758c-.426-1.276-1.131-3.389-1.067-4.051 2.137-3.837 2.09-8.381-.135-12.807-3.422-6.806-11.462-12.431-19.117-13.375-4.047-.5-8.117-.022-11.9 1.382-.33-5.714-4.706-10.57-10.584-11.294-6.616-.816-12.661 3.902-13.477 10.517-.52 4.208 1.153 8.3 4.474 10.944.957.762 1.124 1.34 1.096 2.248l-.59 4.785-.421 3.416c-.193 1.564.923 2.994 2.487 3.187l.477.059c.013 6.23 2.294 12.166 6.502 16.845.027.144.077.81-.719 2.677-.62 1.455-1.492 3.048-2.262 4.454-.514.941-.96 1.754-1.244 2.374-.188.41-.17.884.05 1.277.22.394.613.659 1.06.714l20.004 2.467c.657.081 1.596-.102 2.338-1.434.322-.58.574-1.293.841-2.05.26-.736.87-2.462 1.284-2.628 0 0 .023-.001.077.014.07.02.143.035.215.044 2.095.258 3.795.564 5.295.834 4.4.792 7.055 1.27 9.817-1.819 1.405-1.57 1.579-4.093 1.763-6.764.095-1.377.193-2.798.473-3.954.274-.211.938-.556 1.355-.772 1.433-.745 2.786-1.447 2.947-2.75.122-.99-.315-2.37-1.04-4.54zM31.55 19.864c-2.546-2.027-3.828-5.163-3.43-8.389.625-5.07 5.258-8.685 10.328-8.06 5.07.626 8.685 5.259 8.06 10.329-.398 3.226-2.404 5.956-5.366 7.303-1.408.641-2.302 1.481-2.827 2.7l-2.34-.29-2.338-.287c-.214-1.31-.876-2.342-2.087-3.306zm6.184 6.657l-.253 2.05-4.208-.52.253-2.05 4.208.52zm-5.025 6.386c-.016-.001-.032-.023-.03-.039l.248-2.014 4.209.519-.249 2.014c-.002.016-.023.033-.039.031l-4.139-.51zm45.679 12.634c-1.309.68-2.439 1.267-2.726 2.33-.394 1.46-.508 3.111-.618 4.708-.137 1.982-.291 4.228-1.05 5.077-1.643 1.837-2.851 1.708-7.212.922-1.439-.26-3.224-.58-5.355-.847-.807-.197-2.21-.214-3.357 1.468-.582.855-.975 1.97-1.322 2.954-.175.495-.42 1.19-.616 1.566L38.59 61.556c.08-.148.164-.3.25-.455 2.645-4.834 4.383-8.405 2.645-10.327-3.685-4.077-5.72-9.232-5.817-14.656l.834.103c1.565.193 2.995-.923 3.188-2.488l.421-3.416.59-4.782c.194-.89.496-1.41 1.61-1.917 3.568-1.623 6.071-4.785 6.843-8.574 3.691-1.62 7.748-2.214 11.778-1.717 6.678.824 13.96 5.915 16.94 11.842 1.278 2.54 2.34 6.378.15 10.235-.713 1.256-.124 3.193.896 6.248.33.99.808 2.421.9 3.074-.323.24-.998.591-1.43.815z"/>
            <path d="M44.432 11.477c-.225-1.585-1.102-2.94-2.537-3.92-.644-.44-1.523-.274-1.962.37-.44.644-.274 1.523.37 1.962.783.535 1.22 1.184 1.333 1.984.18 1.266-.484 2.53-.746 2.847-.497.602-.412 1.492.19 1.988.215.178.467.281.724.313.463.057.944-.116 1.263-.502.714-.864 1.666-2.92 1.365-5.042zM21.93 9.345l-3.995-.492c-.774-.096-1.479.454-1.574 1.228-.096.774.454 1.479 1.228 1.574l3.995.493c.774.095 1.48-.454 1.575-1.229.095-.773-.455-1.478-1.229-1.574zM25.65 2.101L22.436-.322c-.622-.47-1.508-.346-1.978.276-.47.623-.345 1.508.277 1.978l3.213 2.424c.204.154.438.245.676.274.484.06.986-.134 1.301-.551.47-.623.346-1.508-.277-1.978zM56.74 4.429c-.305-.718-1.134-1.054-1.852-.75L51.183 5.25c-.718.304-1.053 1.133-.749 1.851.204.482.644.791 1.129.85.237.03.486 0 .722-.101l3.705-1.57c.718-.305 1.054-1.133.75-1.851zM24.181 18.227c-.304-.718-1.132-1.053-1.85-.749l-3.706 1.57c-.718.305-1.054 1.133-.75 1.851.205.482.645.791 1.13.851.237.03.485-.001.722-.101l3.705-1.57c.718-.305 1.054-1.134.75-1.852zM28.371 24.508c-.622-.47-1.508-.346-1.977.276l-2.074 2.75c-.47.622-.346 1.508.277 1.977.205.155.438.245.676.274.484.06.986-.133 1.301-.55l2.074-2.75c.47-.622.346-1.508-.277-1.977zM50.018-4.183c-.623-.47-1.508-.346-1.978.276L45.617-.695c-.47.623-.346 1.508.277 1.978.205.155.438.245.676.274.484.06.986-.133 1.301-.55l2.424-3.213c.47-.622.346-1.508-.277-1.977z"/>
        </g>
        <g fill-opacity=".35" clip-path="url(#clip1)">
            <path d="M124.481 56.33l8.756-13.565 1.674 1.081-8.755 13.565-1.675-1.08z"/>
            <path d="M115.893 27L111 60.646l33.646 4.893 4.893-33.646L115.893 27zm31.388 6.578l-.349 2.398-13.878-2.018-2.983 2.977-13.328-1.938.834-5.739 29.704 4.32zM113.258 58.96l3.198-21.992 14.316 2.081 2.983-2.977 12.89 1.875-3.684 25.333-29.703-4.32z"/>
            <path d="M119.473 31.336l1.972.287-.287 1.971-1.972-.287.287-1.971zM123.517 31.924l1.972.287-.287 1.971-1.972-.287.287-1.971zM127.562 32.512l1.971.286-.287 1.972-1.971-.287.287-1.971zM120.084 43.71l-.304 2.09-3.042 2.152 2.303 2.93-.304 2.09c-.245 1.685.928 3.257 2.614 3.502l1.217.177.287-1.971-1.217-.177c-.6-.087-1.016-.646-.929-1.245l.427-2.936-1.536-1.954 2.028-1.435.427-2.935c.087-.6.646-1.017 1.245-.93l1.217.177.287-1.971-1.217-.177c-1.686-.245-3.258.927-3.503 2.614zM140.761 46.717c.246-1.686-.927-3.258-2.613-3.503l-1.217-.177-.287 1.972 1.217.176c.599.088 1.016.646.929 1.246l-.427 2.935 1.536 1.954-2.029 1.435-.427 2.936c-.087.6-.645 1.016-1.245.929l-1.217-.177-.286 1.971 1.216.177c1.687.246 3.259-.927 3.504-2.613l.304-2.09 3.041-2.152-2.302-2.929.303-2.09z"/>
        </g>
        <g fill-opacity=".35" clip-path="url(#clip2)">
            <path d="M99.685 12.895l5.64-8.74 1.079.697-5.641 8.739-1.078-.696z"/>
            <path d="M94.152-6L91 15.675l21.675 3.152 3.152-21.675L94.152-6zm20.221 4.237l-.225 1.546-8.94-1.3L103.286.4 94.7-.848l.537-3.697 19.136 2.782zM92.455 14.59L94.515.422l9.222 1.341 1.922-1.918 8.304 1.208-2.373 16.32-19.135-2.783z"/>
            <path d="M96.852 4.766l-.196 1.346-1.96 1.386 1.484 1.887-.196 1.346c-.158 1.087.598 2.1 1.684 2.257l.784.114.185-1.27-.784-.114c-.386-.056-.655-.416-.599-.802l.275-1.891-.99-1.259 1.308-.925.275-1.89c.056-.387.416-.655.802-.6l.784.115.185-1.27-.784-.114c-1.087-.158-2.1.597-2.257 1.684zM110.173 6.703c.158-1.087-.597-2.099-1.684-2.257l-.784-.114-.185 1.27.784.114c.387.056.655.416.599.802l-.275 1.891.989 1.259-1.307.925-.275 1.89c-.056.387-.416.655-.802.6l-.784-.115-.184 1.27.784.114c1.086.158 2.098-.597 2.256-1.683l.196-1.347 1.96-1.386-1.484-1.887.196-1.346z"/>
        </g>
    </g>
    <defs>
        <clipPath id="clip0">
            <path fill="#fff" d="M0 0H72.294V72.294H0z" transform="rotate(7.032 98.441 139.762)"/>
        </clipPath>
        <clipPath id="clip1">
            <path fill="#fff" d="M0 0H34V34H0z" transform="rotate(8.274 -128.7 814.652)"/>
        </clipPath>
        <clipPath id="clip2">
            <path fill="#fff" d="M0 0H21.904V21.904H0z" transform="rotate(8.274 88.553 647.859)"/>
        </clipPath>
        <linearGradient id="paint0_linear" x1="70.5" x2="85.263" y1="-31.531" y2="147.355" gradientUnits="userSpaceOnUse">
            <stop stop-color="#338ED8"/>
            <stop offset="1" stop-color="#fff" stop-opacity="0"/>
        </linearGradient>
    </defs>
</svg>
