<svg xmlns="http://www.w3.org/2000/svg" width="300" height="143" fill="none" viewBox="0 0 300 143">
    <path fill="url(#paint0_linear)" d="M0 5c0-2.761 2.239-5 5-5h290c2.761 0 5 2.239 5 5v138H0V5z"/>
    <mask id="aejto9p9ga" width="205" height="82" x="0" y="0" maskUnits="userSpaceOnUse">
        <path fill="#FBFBFB" d="M0 5c0-2.761 2.239-5 5-5h195c2.761 0 5 2.239 5 5v77H0V5z"/>
    </mask>
    <g fill="#fff" mask="url(#aejto9p9ga)">
        <g fill-opacity=".5" clip-path="url(#clip0)">
            <path d="M87.466 16.046L78.228 14.6l1.445-9.239c.842-5.38-2.85-10.444-8.232-11.286L62.333-7.35C56.95-8.192 51.889-4.5 51.047.882L49.6 10.121l-9.239-1.446c-5.38-.842-10.444 2.851-11.286 8.232l-1.425 9.109c-.842 5.38 2.85 10.444 8.232 11.286l9.239 1.445-1.446 9.239c-.842 5.381 2.85 10.444 8.232 11.286l9.109 1.425c5.38.842 10.444-2.85 11.286-8.232l1.445-9.238 9.239 1.445c5.381.842 10.444-2.85 11.286-8.232l1.425-9.108c.842-5.381-2.85-10.444-8.232-11.286zM36.494 33.398c-3.229-.505-5.445-3.543-4.94-6.772l1.426-9.108c.505-3.229 3.543-5.444 6.772-4.94l23.551 3.686c1.079.169 2.089-.568 2.258-1.646.168-1.079-.569-2.089-1.647-2.258l-10.41-1.628 1.446-9.24c.505-3.228 3.543-5.444 6.772-4.938l9.108 1.425c3.229.505 5.445 3.543 4.94 6.772l-3.38 21.6-22.772-3.563c-1.078-.17-2.088.568-2.257 1.646l-1.628 10.41-9.24-1.446zM90.37 35.83c-.506 3.229-3.544 5.445-6.772 4.94l-23.552-3.686c-1.078-.168-2.089.569-2.257 1.647-.17 1.078.568 2.088 1.646 2.257l10.41 1.629-1.446 9.239c-.505 3.228-3.543 5.444-6.772 4.939l-9.108-1.425c-3.229-.506-5.444-3.544-4.94-6.772l3.38-21.6 22.772 3.563c1.078.168 2.088-.569 2.257-1.647l1.629-10.41 9.238 1.446c3.23.505 5.445 3.543 4.94 6.772l-1.425 9.108z"/>
            <path d="M62.452 4.666c-.169 1.078-1.18 1.815-2.257 1.647-1.078-.17-1.815-1.18-1.647-2.258.17-1.078 1.18-1.815 2.258-1.646 1.078.169 1.815 1.18 1.646 2.257zM64.8 49.291c-.168 1.078-1.178 1.815-2.256 1.647-1.078-.17-1.815-1.18-1.647-2.258.169-1.078 1.18-1.815 2.258-1.646 1.078.169 1.815 1.18 1.646 2.257z"/>
        </g>
        <g fill-opacity=".35" clip-path="url(#clip1)">
            <path d="M147.277 40.637l-5.743-.898.899-5.743c.523-3.345-1.772-6.493-5.117-7.016l-5.663-.886c-3.345-.523-6.492 1.772-7.015 5.117l-.899 5.743-5.743-.898c-3.345-.524-6.492 1.772-7.016 5.117l-.886 5.662c-.523 3.345 1.772 6.492 5.118 7.016l5.743.899-.899 5.743c-.523 3.345 1.772 6.492 5.117 7.015l5.662.886c3.346.524 6.493-1.772 7.016-5.117l.899-5.743 5.743.899c3.345.523 6.492-1.773 7.016-5.118l.886-5.662c.523-3.345-1.773-6.492-5.118-7.016zm-31.686 10.787c-2.007-.314-3.384-2.202-3.07-4.21l.886-5.661c.314-2.007 2.202-3.385 4.209-3.07l14.641 2.29c.67.105 1.298-.353 1.403-1.023.105-.67-.353-1.299-1.023-1.404l-6.471-1.012.898-5.743c.314-2.007 2.203-3.384 4.21-3.07l5.662.886c2.007.314 3.384 2.202 3.07 4.21l-2.101 13.426-14.155-2.215c-.67-.104-1.298.354-1.403 1.024l-1.013 6.47-5.743-.898zm33.491 1.512c-.314 2.007-2.202 3.384-4.209 3.07l-14.641-2.29c-.67-.106-1.298.352-1.403 1.023-.105.67.353 1.298 1.023 1.403l6.471 1.012-.898 5.743c-.314 2.007-2.203 3.385-4.21 3.07l-5.662-.885c-2.007-.314-3.384-2.203-3.07-4.21l2.101-13.427 14.155 2.215c.67.105 1.298-.353 1.403-1.024l1.013-6.47 5.743.898c2.007.314 3.384 2.203 3.07 4.21l-.886 5.662z"/>
            <path d="M131.728 33.564c-.105.67-.733 1.128-1.403 1.023-.671-.105-1.129-.733-1.024-1.403.105-.67.733-1.128 1.403-1.023.67.104 1.129.733 1.024 1.403zM133.188 61.304c-.105.67-.733 1.128-1.403 1.023-.671-.104-1.129-.733-1.024-1.403.105-.67.733-1.128 1.403-1.023.67.105 1.129.733 1.024 1.403z"/>
        </g>
        <g fill-opacity=".3" clip-path="url(#clip2)">
            <path d="M137.968-.796l-3.238-.507.507-3.238c.295-1.885-.999-3.66-2.885-3.955l-3.192-.5c-1.886-.294-3.66 1-3.955 2.886l-.507 3.237-3.238-.506c-1.885-.295-3.66.999-3.955 2.885l-.499 3.192c-.295 1.886.999 3.66 2.885 3.955l3.237.507-.506 3.237c-.295 1.886.999 3.66 2.885 3.956l3.192.499c1.886.295 3.66-.999 3.955-2.885l.507-3.238 3.237.507c1.886.295 3.66-1 3.956-2.885l.499-3.192c.295-1.886-.999-3.66-2.885-3.955zm-17.863 6.081c-1.132-.177-1.908-1.242-1.731-2.373l.499-3.192c.177-1.132 1.242-1.908 2.373-1.731L129.5-.72c.378.06.732-.199.791-.577.059-.378-.199-.732-.577-.79l-3.648-.572.507-3.237c.177-1.132 1.241-1.908 2.373-1.731l3.192.5c1.131.176 1.908 1.24 1.731 2.372l-1.185 7.57-7.98-1.249c-.378-.059-.732.2-.791.577l-.571 3.649-3.237-.507zm18.881.852c-.178 1.131-1.242 1.908-2.374 1.731l-8.253-1.292c-.378-.059-.732.2-.792.577-.059.378.2.732.577.792l3.649.57-.507 3.238c-.177 1.131-1.242 1.908-2.373 1.731l-3.192-.5c-1.132-.177-1.908-1.241-1.731-2.373l1.184-7.57 7.98 1.25c.378.058.732-.2.791-.578l.571-3.648 3.238.507c1.132.177 1.908 1.241 1.731 2.373l-.499 3.192z"/>
            <path d="M130.025 10.855c-.059.378-.413.636-.791.577-.378-.059-.636-.413-.577-.79.059-.379.413-.637.791-.578.378.06.636.413.577.791z"/>
        </g>
    </g>
    <defs>
        <clipPath id="clip0">
            <path fill="#fff" d="M0 0H67.433V67.433H0z" transform="rotate(8.893 92.978 209.961)"/>
        </clipPath>
        <clipPath id="clip1">
            <path fill="#fff" d="M0 0H41.918V41.918H0z" transform="rotate(8.893 -92.906 743.21)"/>
        </clipPath>
        <clipPath id="clip2">
            <path fill="#fff" d="M0 0H23.632V23.632H0z" transform="rotate(8.893 127.519 760.386)"/>
        </clipPath>
        <linearGradient id="paint0_linear" x1="57.945" x2="75.849" y1="-31.531" y2="146.775" gradientUnits="userSpaceOnUse">
            <stop offset="0" stop-color="#B337FF"/>
            <stop offset="1" stop-color="#fff" stop-opacity="0"/>
        </linearGradient>
    </defs>
</svg>
