<svg xmlns="http://www.w3.org/2000/svg" width="300" height="143" fill="none" viewBox="0 0 300 143">
    <path fill="url(#paint0_linear)" d="M0 5c0-2.761 2.239-5 5-5h290c2.761 0 5 2.239 5 5v138H0V5z"/>
    <mask id="znxg1l12qa" width="252" height="82" x="0" y="0" maskUnits="userSpaceOnUse">
        <path fill="#FBFBFB" d="M0 5c0-2.761 2.239-5 5-5h242c2.761 0 5 2.239 5 5v77H0V5z"/>
    </mask>
    <g fill="#fff" mask="url(#znxg1l12qa)">
        <g fill-opacity=".2" clip-path="url(#clip0)">
            <path d="M151.401 42.804l-32.134-5.075c-1.889-.299-3.669.996-3.968 2.885l-5.051 31.982c-.298 1.89.996 3.67 2.886 3.968l32.134 5.075c1.889.299 3.669-.996 3.968-2.885l5.051-31.982c.298-1.89-.996-3.67-2.886-3.968zm-32.495-2.79l32.135 5.074c.629.1 1.061.693.961 1.323l-.902 5.711-34.418-5.436.902-5.711c.099-.63.693-1.061 1.322-.962zm26.723 39.34l-32.135-5.075c-.629-.099-1.061-.692-.961-1.322l3.788-23.987 34.419 5.436-3.789 23.987c-.099.63-.693 1.061-1.322.962z"/>
            <path d="M136.851 55.821c-.541-.34-1.255-.177-1.595.363l-9.378 14.909c-.341.54-.178 1.254.363 1.594.54.34 1.254.178 1.594-.363l9.379-14.908c.34-.541.177-1.255-.363-1.595zM126.419 58.029c-.316-.555-1.023-.748-1.577-.432l-6.433 3.667c-.643.366-.781 1.236-.282 1.784l4.99 5.47c.43.472 1.162.506 1.633.076.472-.43.506-1.162.075-1.634l-4.015-4.403 5.177-2.95c.555-.317.748-1.023.432-1.578zM144.965 65.458l-4.989-5.471c-.431-.472-1.162-.506-1.634-.075-.472.43-.506 1.161-.075 1.633l4.015 4.403-5.177 2.951c-.555.316-.748 1.022-.432 1.577.317.556 1.024.748 1.578.432l6.432-3.667c.643-.366.781-1.236.282-1.783zM120.545 44.955c.631.1 1.223-.33 1.323-.962.1-.63-.331-1.223-.962-1.322-.631-.1-1.223.33-1.323.961-.099.631.331 1.223.962 1.323zM125.114 45.676c.631.1 1.223-.331 1.323-.962.1-.63-.331-1.223-.962-1.323-.631-.1-1.223.331-1.322.962-.1.631.331 1.223.961 1.323zM129.683 46.398c.631.1 1.223-.33 1.323-.961.099-.631-.331-1.223-.962-1.323-.631-.1-1.223.331-1.323.962-.099.63.331 1.223.962 1.322zM141.105 48.201l6.853 1.082c.631.1 1.223-.33 1.323-.961.1-.631-.331-1.223-.962-1.323l-6.853-1.082c-.631-.1-1.223.33-1.323.962-.099.63.331 1.223.962 1.322z"/>
        </g>
        <g fill-opacity=".2" clip-path="url(#clip1)">
            <path d="M144.246-1.888l-23.214-3.666c-1.365-.216-2.651.72-2.866 2.084l-3.649 23.104c-.216 1.365.719 2.65 2.084 2.866l23.214 3.667c1.365.215 2.651-.72 2.867-2.085L146.331.978c.215-1.365-.72-2.65-2.085-2.866zm-23.475-2.016l23.214 3.666c.455.072.767.5.695.956l-.651 4.125L119.164.916l.652-4.125c.072-.455.5-.767.955-.695zm19.305 28.42l-23.214-3.666c-.455-.072-.767-.5-.695-.955l2.737-17.328 24.864 3.927-2.737 17.328c-.072.455-.5.766-.955.695z"/>
            <path d="M133.735 7.515c-.391-.246-.907-.128-1.152.262l-6.776 10.77c-.245.39-.128.906.263 1.152.39.246.906.128 1.152-.262l6.775-10.77c.246-.39.128-.906-.262-1.152zM126.199 9.111c-.229-.4-.739-.54-1.14-.312l-4.647 2.65c-.464.264-.564.893-.203 1.288l3.604 3.952c.311.341.84.365 1.18.054.341-.31.366-.839.055-1.18l-2.901-3.18 3.74-2.132c.401-.229.54-.739.312-1.14zM139.596 14.478l-3.604-3.953c-.311-.34-.839-.365-1.18-.054-.341.311-.365.84-.054 1.18l2.9 3.18-3.739 2.133c-.401.228-.541.738-.312 1.14.228.4.739.54 1.139.311l4.647-2.649c.465-.265.564-.893.203-1.288zM125.256.187c.456.072.884-.24.956-.695.072-.456-.239-.883-.695-.955-.456-.072-.884.239-.956.694-.072.456.239.884.695.956zM128.557.708c.455.072.883-.239.955-.694.072-.456-.239-.884-.695-.956-.456-.072-.883.24-.955.695-.072.456.239.883.695.955zM136.808 2.013l4.951.782c.456.072.883-.24.955-.695.072-.456-.239-.883-.695-.955l-4.95-.782c-.456-.072-.884.239-.956.695-.072.455.239.883.695.955z"/>
        </g>
        <g fill-opacity=".35" clip-path="url(#clip2)">
            <path d="M96.106 43.866c.786.138 1.294.864 1.156 1.65-.138.785-.864 1.294-1.65 1.156l-1.402-.247.493-2.806 1.403.247z"/>
            <path d="M65.243 38.438l29.46 5.183-.493 2.806-29.46-5.184.493-2.806z"/>
            <path d="M84.324 77.953l-26.655-4.69c.786.138 1.512-.37 1.65-1.156l.247-1.403 25.251 4.443c2.33.41 4.54-1.14 4.95-3.468l4.442-25.252 1.403.247c.786.138 1.512-.37 1.65-1.156l-4.69 26.654c-.681 3.872-4.376 6.462-8.248 5.78zM101.952 18.862l-4.69 26.655c.138-.786-.37-1.512-1.156-1.65l-1.403-.247 4.443-25.252c.41-2.328-1.14-4.539-3.468-4.949L70.426 8.976l.247-1.402c.138-.786-.37-1.512-1.156-1.65l26.654 4.69c3.872.68 6.462 4.376 5.781 8.248z"/>
            <path d="M89 26.708c.787.138 1.295.864 1.157 1.65-.138.785-.864 1.294-1.65 1.155L77.284 27.54c-.785-.138-1.294-.864-1.156-1.65.138-.785.864-1.294 1.65-1.156L89 26.708zM84.064 54.764c.786.139 1.295.864 1.157 1.65-.139.786-.865 1.294-1.65 1.156l-11.223-1.974c-.786-.139-1.294-.865-1.156-1.65.138-.786.864-1.294 1.65-1.156l11.222 1.974zM82.584 63.182c.785.139 1.294.864 1.156 1.65-.139.786-.864 1.294-1.65 1.156l-11.223-1.975c-.786-.138-1.294-.864-1.156-1.65.138-.785.864-1.294 1.65-1.155l11.223 1.974zM59.565 70.705l-.246 1.403c-.139.785-.864 1.294-1.65 1.155-.786-.138-1.294-.864-1.156-1.65l.247-1.402 2.805.494z"/>
            <path d="M61.943 40.75l2.806.494-5.184 29.46-2.805-.493 5.183-29.461zM62.437 37.941l2.806.494-.494 2.806-2.806-.494.494-2.806z"/>
            <path d="M67.62 8.482l2.806.494-5.183 29.46-2.806-.493 5.183-29.46z"/>
            <path d="M70.673 7.574l-.247 1.403-2.806-.494.247-1.402c.138-.786.864-1.295 1.65-1.156.785.138 1.294.864 1.156 1.65zM32.977 32.76l29.46 5.183-.494 2.806-29.46-5.184.494-2.805zM55.332 20.783c.785.139 1.294.864 1.156 1.65-.138.786-.864 1.294-1.65 1.156l-4.209-.74.494-2.806 4.209.74zM48.42 57.605c.467.632.309 1.53-.346 1.964-.302.236-.691.312-1.056.248-.365-.064-.705-.269-.908-.594l-2.66-3.794 2.31-1.619 2.66 3.795zM47.937 48.842c.631-.467 1.53-.31 1.964.346.467.631.309 1.53-.346 1.964l-3.794 2.659-1.619-2.31 3.794-2.659zM41.825 53.117l2.31-1.618 1.618 2.31-2.31 1.618-1.618-2.31z"/>
            <path d="M50.63 22.847l-.74 4.209c-.139.785-.865 1.294-1.65 1.156-.786-.138-1.295-.864-1.157-1.65l.74-4.209 2.807.494z"/>
            <path d="M48.317 19.55l2.806.494-.493 2.806-2.806-.493.493-2.806zM51.864 15.834l-.74 4.209-2.806-.494.74-4.209c.138-.785.864-1.294 1.65-1.156.785.139 1.294.864 1.156 1.65zM44.142 51.5l-2.31 1.618-2.658-3.794c-.468-.632-.31-1.53.345-1.964.632-.467 1.53-.31 1.964.346l2.66 3.794zM48.317 19.55l-.493 2.806-4.209-.74c-.785-.14-1.294-.865-1.156-1.65.138-.786.864-1.295 1.65-1.157l4.208.74zM39.657 58.089c-.302.236-.692.312-1.056.248-.365-.064-.705-.269-.908-.594-.468-.632-.31-1.53.345-1.964l3.794-2.659 1.619 2.31-3.794 2.659zM32.977 32.76l-.494 2.805-1.403-.247c-.786-.138-1.294-.864-1.156-1.65.138-.785.864-1.294 1.65-1.155l1.403.246z"/>
            <path d="M34.614 7.014c.68-3.872 4.376-6.461 8.248-5.78l26.655 4.69c-.786-.138-1.512.37-1.65 1.156l-.247 1.403L42.368 4.04c-2.328-.41-4.539 1.14-4.949 3.468L32.976 32.76l-1.402-.247c-.786-.138-1.512.37-1.65 1.156l4.69-26.655zM28.04 60.818c-.41 2.329 1.14 4.54 3.468 4.95L56.76 70.21l-.247 1.403c-.138.786.37 1.512 1.156 1.65l-26.655-4.69c-3.872-.681-6.461-4.376-5.78-8.248l4.69-26.655c-.139.785.37 1.511 1.156 1.65l1.403.246-4.443 25.252z"/>
        </g>
    </g>
    <defs>
        <clipPath id="clip0">
            <path fill="#fff" d="M0 0H39.471V39.471H0z" transform="rotate(8.975 -178.505 756.64)"/>
        </clipPath>
        <clipPath id="clip1">
            <path fill="#fff" d="M0 0H28.514V28.514H0z" transform="rotate(8.975 97.508 752.362)"/>
        </clipPath>
        <clipPath id="clip2">
            <path fill="#fff" d="M0 0H68.373V68.373H0z" transform="rotate(9.979 17.924 205.312)"/>
        </clipPath>
        <linearGradient id="paint0_linear" x1="57.945" x2="75.849" y1="-31.531" y2="146.775" gradientUnits="userSpaceOnUse">
            <stop offset="0" stop-color="#F90"/>
            <stop offset="1" stop-color="#fff" stop-opacity="0"/>
        </linearGradient>
    </defs>
</svg>
