<svg width="100" height="100" viewBox="0 0 100 100" fill="none" xmlns="http://www.w3.org/2000/svg">
    <path d="m26.62 31.687 9.715-8.745H66.13v54.085H26.62v-45.34z" fill="#F3EEF4"/>
    <path d="m46.375 43.508-9.068-4.534-.486-.486 9.878-4.372 9.878 4.858-10.202 4.534z" fill="#fff"/>
    <path d="m41.031 49.662-.81-6.154.648-2.267 5.506 2.915 5.506-2.429.486 8.097-11.336-.162z" fill="#fff"/>
    <path d="m35.364 22.942-7.611 7.935.971 1.134 5.668-.324 1.296-3.077-.324-5.668z" fill="#A22FAF"/>
    <path d="M54.487 75.825v1.974H28.562a3.364 3.364 0 0 1-3.362-3.362v-42.75c0-.262.104-.513.29-.698l9.5-9.5a.988.988 0 0 1 .697-.289h28.5a3.364 3.364 0 0 1 3.362 3.363v19.986h-1.974V24.563a1.388 1.388 0 0 0-1.388-1.388H36.675v6.138a3.36 3.36 0 0 1-3.362 3.362h-6.138V74.437c0 .766.621 1.388 1.387 1.388h25.925zM29.054 30.699h4.259c.368 0 .72-.146.98-.406h.001c.26-.26.406-.613.406-.98V24.57l-.342.341-5.445 5.446-.342.341h.483z" fill="#6A2C70" stroke="#F3EEF4" stroke-width=".4"/>
    <path d="M62.8 29.313v2.174h-1.975v-2.174a1.388 1.388 0 0 0-1.388-1.388h-2.174V25.95h2.174a3.363 3.363 0 0 1 3.363 3.363z" fill="#6A2C70" stroke="#F3EEF4" stroke-width=".4"/>
    <path d="M52.312 25.75h2.374v2.375h-2.374V25.75z" fill="#A22FAF"/>
    <path d="m59.587 74.029 3.764-3.012-3.764 3.012zm0 0v-6.417a10.717 10.717 0 0 0 9.2 0v6.417l-3.764-3.012a1.337 1.337 0 0 0-1.672 0l-3.764 3.012zm15.436-16.07h.001v-.147a10.838 10.838 0 0 0-4.928-9.107l-.081.125.081-.125a10.837 10.837 0 0 0-13.184 17.117v10.99a1.337 1.337 0 0 0 2.173 1.044l5.102-4.08 5.101 4.08a1.336 1.336 0 0 0 2.174-1.044v-10.99a10.803 10.803 0 0 0 3.56-7.863zm-18.999-.147a8.163 8.163 0 1 1 8.163 8.162 8.171 8.171 0 0 1-5.769-2.393l-.106.106.106-.106a8.172 8.172 0 0 1-2.394-5.77z" fill="#6A2C70" stroke="#F3EEF4" stroke-width=".3"/>
    <path d="M35.888 55.636h15.037v1.974H35.888v-1.974zM31.137 61.575h19.787v1.975H31.137v-1.975zM31.137 67.511h23.35v1.975h-23.35v-1.975z" fill="#6A2C70" stroke="#F3EEF4" stroke-width=".4"/>
    <path d="M30.938 55.435h2.374v2.375h-2.374v-2.375z" fill="#A22FAF"/>
    <path d="M35.262 37.921a.988.988 0 0 0 .025 1.794l4.045 1.797.118.053v6.747a3.362 3.362 0 0 0 3.363 3.363h7.125c.891 0 1.747-.355 2.378-.985L35.262 37.92zm0 0 .025-.01 10.687-4.75a.988.988 0 0 1 .803 0l.28.124 10.407 4.625a.988.988 0 0 1 .586.902v6.925h-1.975V40.333l-.281.124-2.375 1.055-.119.053v6.747c0 .892-.354 1.747-.984 2.378L35.262 37.92zm6.163 4.521.282.125 3.986 1.775.281.125a.988.988 0 0 0 .802 0l-5.35-2.025zm0 0v5.87c0 .767.622 1.388 1.388 1.388h7.125a1.388 1.388 0 0 0 1.387-1.388v-5.87l-.28.125-4.269 1.9-5.35-2.025zm4.87.004.08.036.082-.036 7.763-3.45.412-.184-.412-.182-7.763-3.451-.082-.036-.08.036-7.765 3.45-.41.183.41.183 7.764 3.45z" fill="#6A2C70" stroke="#F3EEF4" stroke-width=".4"/>
    <circle cx="64.48" cy="57.91" r="8.877" fill="#A22FAF"/>
    <path d="M63 61.375c.315 0 .617-.126.84-.348l4.75-4.75-1.68-1.68L63 58.509l-1.536-1.536-1.679 1.68 2.375 2.375c.223.222.525.347.84.348z" fill="#fff"/>
</svg>
