<svg width="100" height="100" viewBox="0 0 100 100" fill="none" xmlns="http://www.w3.org/2000/svg">
    <path d="M42.642 77.126h-5.238l2.183-1.746-.437-14.404h17.024v2.619l-3.928.873-.873 3.492 1.745 2.619-3.928 3.928-3.056-1.746-2.619 1.31-.873 3.055zM42.642 44.825h-5.238l2.183 1.746-.437 14.405h17.024v-2.62l-3.928-.873-.873-3.491 1.745-2.62-3.928-3.928-3.056 1.746-2.619-1.31-.873-3.055z" fill="#F3EEF4"/>
    <path d="M36.532 77.126h5.238l-2.183-1.746.436-14.404H23v2.619l3.928.873.873 3.492-1.746 2.619 3.929 3.928 3.055-1.746 2.62 1.31.873 3.055zM36.532 44.825h5.238l-2.183 1.746.436 14.405H23v-2.62l3.928-.873.873-3.491-1.746-2.62 3.929-3.928 3.055 1.746 2.62-1.31.873-3.055zM60.54 73.198l3.492 3.055.873.437 3.492.436 4.365-1.31 3.056-3.055 1.31-3.492-.874-3.928-2.619-4.365-4.801-1.746-5.675 1.745-3.928-1.309 1.309 3.928-.873 2.183v4.802l.873 2.619z" fill="#F3EEF4"/>
    <path d="m70.142 70.142 2.62 1.746.418 1.677-1.292.07h-4.801l-3.929-.437.873-2.183 2.183-.436.436-1.31-.873-.873v-3.928l1.31-1.31 2.182-.436 1.746 1.746-.436 3.492-.437.873v1.31z" fill="#fff"/>
    <path d="M23.873 25.619v11.786h2.183l7.857.436 4.801 2.183V37.84h10.04V24.746l-1.746-.873-20.952-.437-2.183 2.183z" fill="#F3EEF4"/>
    <path d="m55.035 63.195-.075.019-2.91.742-.12.444a12.392 12.392 0 0 1-1.233 2.984l4.338-4.19zm0 0v-.078m0 .078v-.078m0 0v-4.022m0 4.022v-4.022m0 0-.075-.02m.075.02-.075-.02m0 0-2.91-.74-.12-.444a12.413 12.413 0 0 0-1.232-2.984l4.262 4.169zm-2.644-4.597.086.05-.089.047c.403.765.736 1.57.993 2.405l.017.054.054.013 3.232.824v6.546l-3.231.824-.055.014-.016.054c-.257.834-.59 1.64-.994 2.404l-.026.05.029.048 1.701 2.866-4.63 4.63-2.865-1.702-.048-.029-.05.026c-.764.404-1.57.737-2.404.994l-.054.016-.014.055-.823 3.233h-6.547l-.824-3.232-.014-.055-.053-.016c-.834-.257-1.64-.59-2.405-.994l-.05-.026-.047.029-2.866 1.701-4.63-4.63 1.702-2.865.028-.048-.026-.05a13.981 13.981 0 0 1-.993-2.404l-.017-.054-.054-.014-3.233-.823v-6.547l3.232-.824.054-.014.017-.053c.257-.834.59-1.64.993-2.405l.026-.05-.028-.047-1.702-2.866 4.63-4.63 2.866 1.702.048.028.05-.026c.764-.403 1.57-.736 2.404-.993l.053-.017.014-.054.824-3.233h6.546l.825 3.232.014.054.054.017c.834.257 1.64.59 2.404.993l.05.027.048-.029 2.866-1.702 4.63 4.63-1.702 2.866zm-1.849 13.305.23-.399-4.604-17.082a12.395 12.395 0 0 0-2.984-1.233l-.444-.12-.742-2.91-.02-.075h-4.098l-.02.075-.74 2.91-.444.12a12.416 12.416 0 0 0-2.984 1.233l-.4.23L30.638 49l-.067-.04-.055.056-2.79 2.789-.054.055.04.066 1.53 2.581-.229.4c-.536.927-.95 1.932-1.233 2.984l-.12.443-2.91.743-.075.019v4.099l.075.019 2.91.74.12.444a12.416 12.416 0 0 0 1.233 2.985l.23.399-1.532 2.58-.04.067.055.055 2.79 2.79.055.055.066-.04 2.581-1.531.4.23c.927.535 1.931.95 2.984 1.233l.443.119.743 2.91.019.075h4.099l.019-.075.74-2.908.444-.12a12.415 12.415 0 0 0 2.985-1.233l.399-.23 2.58 1.531.067.04.055-.055 2.79-2.79.054-.054-.04-.067-1.53-2.58zm-3.975-17.251-.4-.23 4.606 4.605-.23-.4 1.531-2.58.04-.067-.055-.055-2.79-2.79-.054-.054-.067.04-2.581 1.53z" fill="#6A2C70" stroke="#fff" stroke-width=".2"/>
    <circle cx="39.5" cy="61.5" r="9.5" fill="#A22FAF"/>
    <circle cx="40" cy="61" r="5" fill="#fff"/>
    <path d="M39.855 50.5c-5.87 0-10.645 4.775-10.645 10.645 0 5.87 4.775 10.645 10.645 10.645 5.87 0 10.645-4.775 10.645-10.645 0-5.87-4.775-10.645-10.645-10.645zm0 19.516c-4.891 0-8.87-3.98-8.87-8.87 0-4.892 3.979-8.872 8.87-8.872 4.891 0 8.871 3.98 8.871 8.871s-3.98 8.871-8.87 8.871z" fill="#6A2C70"/>
    <path d="M39.855 55.822a5.328 5.328 0 0 0-5.323 5.323 5.328 5.328 0 0 0 5.323 5.322 5.328 5.328 0 0 0 5.322-5.322 5.328 5.328 0 0 0-5.322-5.323zm0 8.871a3.552 3.552 0 0 1-3.549-3.548 3.552 3.552 0 0 1 3.549-3.549 3.552 3.552 0 0 1 3.548 3.549 3.552 3.552 0 0 1-3.548 3.548z" fill="#6A2C70"/>
    <path d="M55.922 47.839v-.1h-1.874a2.564 2.564 0 0 1-2.561-2.562V32.758a2.564 2.564 0 0 1 2.561-2.561h21.29a2.564 2.564 0 0 1 2.561 2.561v12.42a2.564 2.564 0 0 1-2.561 2.56H63.992l-.021.011-8.049 4.024V47.84zm-1.874-1.675h3.448v3.062l.145-.072 5.979-2.99h11.718a.988.988 0 0 0 .987-.987V32.758a.988.988 0 0 0-.987-.987h-21.29a.988.988 0 0 0-.988.987v12.42c0 .544.443.986.988.986zM34.338 38.882l-.024-.014H25.661a2.564 2.564 0 0 1-2.561-2.562V25.661a2.564 2.564 0 0 1 2.561-2.561h21.29a2.564 2.564 0 0 1 2.562 2.561v10.645a2.564 2.564 0 0 1-2.561 2.562h-7.197v3.265l-5.417-3.251zm3.843-1.588h8.77a.988.988 0 0 0 .988-.988V25.661a.988.988 0 0 0-.987-.987h-21.29a.988.988 0 0 0-.988.987v10.645c0 .545.443.988.987.988h9.089l3.28 1.966.15.09v-2.056z" fill="#6A2C70" stroke="#fff" stroke-width=".2"/>
    <path d="M72.677 42.515h-1.775V35.42h-1.774v7.096h-1.774v-8.87H65.58v8.87h-1.774v-5.322h-1.774v5.322h-1.775v-3.548h-1.774v3.548H56.71v1.775h17.742V33.645h-1.774v8.87zM29.21 33.645a2.665 2.665 0 0 0 2.66-2.662 2.664 2.664 0 0 0-2.66-2.66 2.664 2.664 0 0 0-2.662 2.66 2.664 2.664 0 0 0 2.661 2.662zm0-3.549a.888.888 0 1 1-.002 1.776.888.888 0 0 1 .001-1.776zM36.307 33.645a2.665 2.665 0 0 0 2.661-2.662 2.664 2.664 0 0 0-2.661-2.66 2.664 2.664 0 0 0-2.662 2.66 2.665 2.665 0 0 0 2.662 2.662zm0-3.549a.888.888 0 1 1-.001 1.776.888.888 0 0 1 0-1.776zM43.404 33.645a2.664 2.664 0 0 0 2.66-2.662 2.664 2.664 0 0 0-2.66-2.66 2.664 2.664 0 0 0-2.662 2.66 2.665 2.665 0 0 0 2.662 2.662zm0-3.549a.888.888 0 1 1-.002 1.776.888.888 0 0 1 .002-1.776z" fill="#A22FAF"/>
    <path d="m58.117 59.317 5.178.615.034.004.029-.017a9.617 9.617 0 0 1 4.884-1.335c5.325 0 9.658 4.333 9.658 9.658 0 5.325-4.333 9.658-9.658 9.658-5.325 0-9.658-4.333-9.658-9.658 0-1.667.434-3.3 1.26-4.755l.024-.043-.019-.045-1.732-4.082zM73.311 74.53l.22-.178H62.951l.22.178a8.043 8.043 0 0 0 5.07 1.796c1.92 0 3.683-.675 5.07-1.796zm-3.778-10.308a1.858 1.858 0 0 0-1.393-.512c-.985.052-1.772.964-1.772 2.022v1.623c0 .53.224 1.023.627 1.387l.26.234v1.527L64.859 71.7a2.079 2.079 0 0 0-.934.932l-.073.145H72.632l-.072-.145a2.074 2.074 0 0 0-.934-.932l-2.397-1.198v-1.527l.26-.234a1.85 1.85 0 0 0 .627-1.387v-1.774a1.86 1.86 0 0 0-.583-1.359zm4.798 9.062.093-.007.084.063a8.042 8.042 0 0 0 1.818-5.098c0-4.457-3.626-8.083-8.084-8.083a8.053 8.053 0 0 0-4.314 1.256l-.237.15-2.895-.345-.17-.02.067.158.941 2.222-.22.348a8.046 8.046 0 0 0 .56 9.411l.159.195.018-.25a3.63 3.63 0 0 1 2.003-2.991l1.342-.67.11-.055-.076-.097a3.44 3.44 0 0 1-.736-2.116v-1.623c0-1.924 1.437-3.499 3.263-3.595.971-.034 1.867.287 2.56.943a3.463 3.463 0 0 1 1.073 2.501v1.774c0 .767-.263 1.512-.737 2.117l-.076.096.11.055 1.342.67a3.627 3.627 0 0 1 2.002 2.991z" fill="#6A2C70" stroke="#fff" stroke-width=".2"/>
</svg>
